<?xml version="1.0" encoding="utf-8"?>
<!-- Generator: Adobe Illustrator 21.1.0, SVG Export Plug-In . SVG Version: 6.00 Build 0)  -->
<svg version="1.1" id="Calque_1" xmlns="http://www.w3.org/2000/svg" xmlns:xlink="http://www.w3.org/1999/xlink" x="0px" y="0px"
	 viewBox="0 0 432 432" style="enable-background:new 0 0 432 432;" xml:space="preserve">
<style type="text/css">
	.st0{fill:#1B1B1B;}
	.st1{fill:#3F1618;}
	.st2{fill:#8C4044;}
	.st3{fill:#A0706B;}
	.st4{fill:#8B9FA0;}
	.st5{fill:#6E5E71;}
	.st6{fill:#B55E54;}
	.st7{fill:#D3B071;}
	.st8{fill:#A6BF80;}
	.st9{fill:#D4AFB0;}
	.st10{fill:#8DA97A;}
	.st11{fill:#B79DA6;}
	.st12{fill:#C27968;}
	.st13{fill:#343434;}
	.st14{fill:#659CA3;}
	.st15{fill:#AA6C79;}
	.st16{fill:#7F9370;}
	.st17{fill:#E9CB90;}
	.st18{fill:#020203;}
	.st19{fill:#709FA1;}
	.st20{fill:#A87583;}
	.st21{fill:#7490AF;}
	.st22{fill:#E4AC3B;}
	.st23{fill:#5793B5;}
	.st24{fill:#6D7C83;}
	.st25{fill:#6A96A7;}
	.st26{fill:#A73E5C;}
	.st27{fill:#D3B19B;}
	.st28{fill:#768985;}
	.st29{fill:#C1B7A9;}
	.st30{fill:#DBD2AA;}
	.st31{fill:#B0929B;}
	.st32{fill:#CDCCCC;}
	.st33{fill:#9E9FB5;}
	.st34{fill:#B18B67;}
	.st35{fill:#5E6D9C;}
	.st36{fill:#81A0BD;}
	.st37{fill:#DCB0A9;}
	.st38{fill:#B4B4B4;}
	.st39{fill:#A1BCA7;}
	.st40{fill:#C88182;}
	.st41{fill:#F9B03D;}
	.st42{fill:#CC637E;}
	.st43{fill:#6EB1C6;}
	.st44{fill:#CC6A93;}
	.st45{fill:#7B9F6E;}
	.st46{fill:#CDA5A4;}
	.st47{fill:#C47BAA;}
	.st48{fill:#D4AD93;}
	.st49{fill:#78B2C6;}
	.st50{fill:#A4B787;}
	.st51{fill:#BD6479;}
	.st52{fill:#4B996E;}
	.st53{fill:#EDB56C;}
	.st54{fill:#F39323;}
	.st55{fill:#976093;}
	.st56{fill:#7392A0;}
	.st57{fill:#BC7984;}
	.st58{fill:#4FB05A;}
	.st59{fill:#F7B21A;}
	.st60{fill:#A58489;}
	.st61{fill:#73306F;}
	.st62{fill:#63A8C0;}
	.st63{fill:#C1292E;}
	.st64{fill:#F3901E;}
</style>
<g>
	<g>
		<g>
			<path class="st0" d="M198.8,244c0.2,1.4,0.1,2.3-0.2,2.7c-0.3,0.4-1.2,0.7-2.5,0.7c-1.6,0.1-3.3,0.1-5,0.2c-1.7,0-3.4,0-5,0
				c-0.9,0-1.5-0.2-1.8-0.5c-0.3-0.3-0.4-0.9-0.5-1.9c0-0.3-0.1-0.6-0.1-0.9c0-0.3,0-0.6,0-0.9c0-0.6,0.2-1,0.4-1.2
				c0.2-0.2,0.6-0.3,1.2-0.4h1c0.2-5.5,0.4-10.9,0.5-16.3c0.1-5.4,0.3-10.9,0.5-16.3c-0.1-0.1-0.2-0.1-0.3-0.1
				c-0.5-0.1-0.9-0.2-1.2-0.2c-0.3-0.1-0.5-0.2-0.6-0.3c-0.1-0.1-0.2-0.4-0.2-0.6c0-0.3,0-0.7,0.1-1.2V206c0-0.6,0.1-1.1,0.2-1.5
				c0.1-0.4,0.2-0.7,0.4-0.9c0.2-0.2,0.4-0.4,0.8-0.6c0.3-0.1,0.8-0.3,1.3-0.4c1.4-0.2,2.8-0.3,4.3-0.4c1.4,0,2.9,0.1,4.3,0.5
				c0.5,0.1,0.9,0.3,1.3,0.4c0.7,0.3,1,0.8,0.9,1.4c-0.1,1.5-0.3,2.8-0.6,4.1c0,0.1-0.1,0.3-0.3,0.4c-0.2,0.1-0.3,0.2-0.5,0.3
				c-0.2,0.1-0.5,0.1-0.7,0.1c-0.3,0-0.6,0-0.9,0c-0.1,5.5-0.2,10.9-0.1,16.2c0.1,5.3,0.4,10.6,1,16c0.6,0,1,0,1.3,0
				c0.3,0,0.6,0.1,0.7,0.2c0.1,0.1,0.2,0.4,0.3,0.7C198.7,242.9,198.7,243.3,198.8,244z"/>
			<path class="st0" d="M207.6,210.8c-0.3,0-0.6,0-0.9,0c-0.2,0-0.5,0-0.7,0c-0.3,0-0.6,0-0.9,0c-0.3,0-0.6-0.1-0.9-0.1
				c-0.8,0-1.2-0.4-1.2-1.2c0-0.8,0-1.6,0-2.4c0-0.8,0-1.6,0.1-2.4c0.1-1.1,0.6-1.7,1.7-1.8c0.9-0.1,1.7-0.2,2.5-0.2
				c0.8-0.1,1.6-0.1,2.5-0.2c0.9,0,1.4,0.3,1.7,1.2c0.9,2.6,1.1,5.1,0.7,7.5c-0.4,2.4-1.4,4.6-3.2,6.7c-0.4,0.5-0.7,0.7-1,0.8
				c-0.3,0-0.7,0-1.3-0.3c-0.3-0.1-0.6-0.2-0.9-0.4c-0.3-0.1-0.6-0.3-0.9-0.5c-0.7-0.5-0.7-1-0.1-1.5c0.9-0.9,1.7-2,2.2-3.4
				c0.1-0.3,0.2-0.5,0.2-0.8C207.5,211.4,207.5,211.1,207.6,210.8z"/>
			<path class="st0" d="M250.6,245.6c0.1,0.6,0.1,1,0,1.2c-0.2,0.2-0.5,0.3-1.1,0.4c-1.2,0.1-2.4,0.1-3.6,0.2
				c-1.2,0-2.3,0.1-3.5,0.2c-0.7,0-1.2,0-1.4-0.2c-0.2-0.2-0.3-0.6-0.4-1.3c0-0.6-0.1-1.7-0.2-3.1c-0.1-1.5-0.1-3.1-0.2-4.9
				c-0.1-1.8-0.1-3.6-0.2-5.6c-0.1-1.9-0.1-3.6-0.2-5.1c-0.1-1.5-0.2-2.7-0.3-3.6c-0.1-0.9-0.2-1.2-0.3-1c-0.5,1-0.9,2.2-1.4,3.6
				c-0.4,1.4-0.8,2.6-1.1,3.7c-0.1,0.4-0.2,0.7-0.3,1c-0.2,0.7-0.4,1.1-0.6,1.4c-0.3,0.2-0.7,0.4-1.5,0.4c-0.5,0-1,0.1-1.6,0
				c-0.5,0-1.1,0-1.6,0c-0.9,0-1.6-0.4-2.1-1.3c-0.2-0.5-0.5-1.2-0.9-2.1c-0.4-0.9-0.7-1.7-1.1-2.6c-0.4-0.9-0.7-1.6-1.1-2.2
				c-0.3-0.6-0.5-1-0.7-1.1c0,0.5-0.1,1.1-0.1,1.9c0,0.8,0,1.5-0.1,1.9c0,1.4,0,2.8,0,4.4c0,1.6,0.1,3.1,0.2,4.8
				c0.1,1.6,0.2,3.2,0.4,4.8c0.2,1.6,0.4,3,0.6,4.4c0.1,0.8,0.1,1.3-0.1,1.5c-0.2,0.2-0.6,0.4-1.4,0.4c-1.1,0.1-2.2,0.1-3.3,0.1
				c-1.1,0-2.2,0-3.3,0c-0.6,0-1-0.1-1.2-0.3c-0.2-0.2-0.3-0.6-0.4-1.2c0-0.3-0.1-0.5-0.1-0.8c0-0.3,0-0.5,0-0.7
				c0-2,0.1-4.1,0.1-6.3c0-2.2,0.1-4.4,0.1-6.7c0-2.2,0.1-4.5,0.2-6.7c0.1-2.2,0.1-4.3,0.2-6.3c0.1-2.5,0.2-5,0.4-7.5
				c0.2-2.5,0.4-5,0.6-7.5c0-0.5,0.1-0.8,0.3-1c0.1-0.1,0.4-0.2,0.9-0.2l6.2,0.2c0.9,0,1.4,0.1,1.6,0.2c0.2,0.2,0.4,0.7,0.5,1.5
				c0.2,1.2,0.5,2.6,0.9,4.3c0.4,1.7,0.9,3.4,1.4,5.1c0.5,1.7,0.9,3.1,1.3,4.4c0.4,1.3,0.6,2.1,0.7,2.3c0.1-0.1,0.3-0.6,0.6-1.4
				c0.3-0.8,0.6-1.8,1-3c0.4-1.2,0.8-2.4,1.2-3.8c0.4-1.4,0.8-2.7,1.2-3.9c0.3-1.2,0.6-2.2,0.9-3.1c0.3-0.9,0.4-1.4,0.5-1.6
				c0.2-0.7,0.6-1.1,1.4-1.1c1.2,0,2.5-0.1,3.8-0.1c1.3,0,2.5-0.1,3.8-0.1c0.7,0,1.2,0.1,1.4,0.2c0.2,0.2,0.3,0.6,0.4,1.3
				c0,0.3,0.1,0.6,0.1,0.8c0,0.3,0.1,0.5,0.1,0.8c0.1,4,0.2,8.1,0.2,12.1c0,4,0.1,8.1,0.3,12c0,1.2,0.1,2.4,0.2,3.8
				c0.1,1.4,0.1,2.8,0.2,4.2c0.1,1.4,0.2,2.8,0.4,4.2C250.1,243.2,250.3,244.5,250.6,245.6z"/>
		</g>
		<g>
			<path class="st0" d="M140.9,266.4c-0.3,3.3-0.5,6.7-0.7,10c-0.2,3.3-0.5,6.6-0.7,10c-0.2,3-0.3,5.9-0.3,8.7
				c0,2.9,0.1,5.8,0.4,8.7c0.1,0.6,0.1,1.2,0.2,1.9c0,0.6,0.1,1.3,0.1,1.9c0,0.5-0.1,0.9-0.3,1c-0.2,0.2-0.5,0.2-1.1,0.2
				c-0.9-0.1-1.7-0.2-2.6-0.2c-0.9-0.1-1.7-0.1-2.6-0.2c-0.9-0.1-1.5-0.6-1.6-1.4c-0.1-0.9-0.3-1.8-0.4-2.7
				c-0.1-0.9-0.3-1.8-0.4-2.6c-0.1-0.5-0.1-0.9-0.2-1.4c0-0.4-0.1-0.9-0.2-1.4h-8.3c0,0.5,0,0.9,0,1.4c0,0.4,0,0.9,0.1,1.3
				c0.1,0.7,0.2,1.5,0.3,2.2c0.1,0.7,0.2,1.5,0.3,2.2c0.1,0.6,0.1,0.9-0.1,1.1c-0.1,0.2-0.4,0.3-1,0.4c-1.4,0.1-2.7,0.2-4,0.3
				c-1.3,0.1-2.7,0.2-4,0.3c-0.3,0.1-0.5,0.1-0.8,0c-0.8-0.1-1.3-0.3-1.5-0.5c-0.3-0.3-0.4-0.8-0.3-1.6c0-0.7,0.1-2.1,0.2-4.2
				c0.1-2.1,0.2-4.5,0.4-7.3c0.1-2.8,0.3-5.7,0.4-8.9c0.2-3.1,0.3-6,0.4-8.7c0.1-2.7,0.2-5,0.4-6.9c0.1-1.9,0.2-3.1,0.2-3.5
				c0-0.6,0.1-1,0.3-1.2c0.1-0.2,0.5-0.3,1.2-0.5c0.8-0.2,1.6-0.4,2.3-0.5c0.8-0.1,1.6-0.3,2.4-0.4c1.1-0.1,1.7-0.1,2,0.2
				c0.2,0.2,0.3,0.9,0.3,1.9c-0.1,2.5-0.2,5-0.2,7.4c-0.1,2.5-0.1,4.9-0.2,7.4c0,1.7,0,3.4,0.1,5.1c0.1,1.7,0.1,3.4,0.2,5.2
				c1.4,0.1,2.8,0.2,4.1,0.1c1.3,0,2.6-0.2,4-0.4v-2.1c0-2.7,0.1-5.3,0.1-7.9c0-2.6,0.1-5.2,0.2-7.9c0-1.2,0.1-2.3,0.2-3.5
				c0.1-1.2,0.2-2.3,0.3-3.5c0.1-0.7,0.2-1.2,0.4-1.3c0.2-0.1,0.7-0.2,1.4-0.2c1.2,0.1,2.5,0.2,3.6,0.2c1.2,0,2.4,0.1,3.6,0.2
				c0.6,0.1,1,0.2,1.1,0.4C140.9,265.3,140.9,265.7,140.9,266.4z"/>
			<path class="st0" d="M180.5,306.6c0.2,0.6,0.2,1,0.1,1.2c-0.1,0.2-0.5,0.3-1.1,0.4c-1.6,0.3-3.2,0.4-4.8,0.5
				c-1.6,0.1-3.2,0.1-4.8-0.2c-0.5-0.1-1-0.2-1.4-0.2c-0.5-0.1-1-0.1-1.4-0.2c-0.5-0.1-0.8-0.2-1-0.4c-0.2-0.2-0.2-0.6-0.2-1
				c0-0.8,0.1-1.7,0.2-2.9c0.1-1.2,0.2-2.3,0.3-3.4c0.1-1.1,0.1-2.1,0.2-3c0-0.9,0.1-1.4,0.1-1.5h-7.7c0,0.3,0.1,0.8,0.2,1.7
				c0.1,0.9,0.2,1.8,0.4,2.9c0.1,1.1,0.3,2.2,0.4,3.2c0.1,1.1,0.3,2,0.4,2.6c0,0.1,0,0.2,0,0.3c0,0.1,0,0.2,0,0.3c0,0.6,0,1-0.2,1.1
				c-0.2,0.2-0.5,0.2-1.1,0.2c-0.7,0-1.5,0-2.2,0c-0.7,0-1.5-0.1-2.2-0.1c-1.3,0-2.6-0.1-3.9-0.1c-1.3,0-2.6-0.1-3.9-0.1
				c-0.9,0-1.4-0.2-1.6-0.4c-0.2-0.2-0.1-0.7,0.1-1.6c0.3-1.2,0.7-2.8,1.3-4.9c0.5-2.1,1.1-4.3,1.7-6.8c0.6-2.5,1.3-5,1.9-7.7
				c0.7-2.7,1.3-5.2,1.9-7.5c0.6-2.4,1.1-4.5,1.5-6.3c0.4-1.8,0.7-3.2,1-4c0.2-0.8,0.5-1.3,0.9-1.7c0.4-0.4,0.9-0.7,1.6-0.8
				c1.4-0.3,2.7-0.6,4-0.9c1.3-0.3,2.7-0.6,4-1c0.4-0.1,0.8-0.2,1.2-0.3c0.4-0.1,0.8-0.2,1.2-0.3c0.7-0.2,1.2,0.1,1.5,0.8
				c0,0.1,0.2,0.9,0.6,2.3c0.4,1.5,0.9,3.4,1.6,5.7c0.6,2.3,1.4,5,2.2,7.9c0.8,3,1.6,6,2.4,9c0.8,3.1,1.6,6,2.4,9
				c0.8,2.9,1.5,5.5,2.1,7.7C180.4,306.2,180.5,306.4,180.5,306.6z M159.6,288c0.9,0,1.7-0.1,2.6-0.1c0.9,0,1.7-0.1,2.6-0.1
				c-0.3-1.8-0.7-3.5-1.2-5.2c-0.4-1.7-1-3.4-1.8-5c-0.6,1.8-1.1,3.5-1.5,5.2C160,284.4,159.7,286.2,159.6,288z"/>
			<path class="st0" d="M214.7,263.7c0.6,0,1,0.2,1.2,0.3c0.2,0.2,0.2,0.6,0.2,1.2c-0.1,0.6-0.2,1.4-0.3,2.3
				c-0.1,0.9-0.2,1.8-0.3,2.7c-0.1,0.9-0.2,1.8-0.3,2.6c-0.1,0.9-0.2,1.6-0.3,2.2c-0.5,3.3-0.8,6.5-1.1,9.8
				c-0.3,3.3-0.5,6.5-0.5,9.8c-0.1,1.8-0.1,3.6-0.1,5.3c0,1.7,0,3.5-0.1,5.3c0,0.4,0,0.8,0.1,1.1c0,0.4,0.1,0.7,0.1,1.1
				c0,0.7-0.3,1.1-1,1.1c-0.9,0-1.9,0-2.8,0c-0.9,0-1.9,0-2.8-0.1c-1.6,0-2.7-0.9-3.3-2.4c-0.3-0.8-0.7-1.8-1.2-2.9
				c-0.5-1.1-1-2.3-1.6-3.6c-0.5-1.2-1.1-2.5-1.7-3.7c-0.6-1.2-1.1-2.3-1.5-3.3c-0.4-1-1-2-1.6-3.2c0,0.9,0.1,2.3,0.2,4.1
				c0.1,1.8,0.2,3.6,0.3,5.4c0.1,1.8,0.2,3.5,0.3,5c0.1,1.5,0.2,2.5,0.2,2.9c0,0.9,0,1.4-0.2,1.5c-0.2,0.2-0.7,0.3-1.5,0.3l-7.5,0.2
				h-1c-0.6,0-1-0.2-1.2-0.4c-0.2-0.2-0.3-0.6-0.3-1.2c0-0.8,0.1-1.6,0.1-2.4c0-0.8,0.1-1.6,0.2-2.4c0.3-4.2,0.6-8.5,0.7-12.7
				c0.1-4.2,0.2-8.4,0.1-12.7c0-0.8,0-1.7-0.1-2.7c-0.1-1-0.1-2-0.2-3.1c-0.1-1.1-0.1-2.1-0.2-3.1c-0.1-1-0.1-1.9-0.2-2.8
				c0-0.6,0-1.1,0.2-1.3c0.2-0.2,0.6-0.3,1.2-0.3c0.9,0,1.9,0.1,2.8,0.2c0.9,0.1,1.9,0.1,2.8,0.2c0.3,0,0.6,0.1,0.7,0.3
				c0.1,0.2,0.3,0.4,0.4,0.7c0.3,1,0.6,2.1,0.9,3.3c0.4,1.2,0.8,2.4,1.2,3.6c0.4,1.2,0.9,2.4,1.3,3.6c0.4,1.2,0.9,2.2,1.3,3.1
				c0.7,1.6,1.5,3.2,2.4,4.7c0.9,1.5,1.9,2.9,3,4.3c0.2,0.2,0.3,0.4,0.5,0.6c0.2,0.2,0.4,0.5,0.7,0.8v-1.6c0-1.7,0-3.4,0-5.3
				c0-1.8,0-3.7,0-5.6c0-1.9,0-3.8,0-5.6c0-1.8,0-3.6,0-5.3c0-0.9,0.2-1.4,0.4-1.6c0.2-0.2,0.7-0.3,1.6-0.4c1.2,0,2.5,0,3.8,0
				C212.1,263.7,213.4,263.7,214.7,263.7z"/>
			<path class="st0" d="M252,284.6c1,3.9,1.1,7.5,0.3,10.9c-0.8,3.4-2.6,6.6-5.3,9.6c-3,3.3-6.8,4.4-11.4,3.1
				c-3.5-1-6.3-2.8-8.6-5.5c-1.8-2.1-3.2-4.3-4.2-6.7c-1-2.4-1.7-4.9-2.1-7.5c-0.3-2-0.5-4-0.4-6c0.1-2,0.4-4,1-6
				c0.8-3,2.2-5.6,4.2-7.8c3.5-4,8-5.7,13.5-4.9c1.4,0.2,2.7,0.5,4.1,0.9c1.3,0.4,2.7,0.9,3.9,1.4c0.3,0.2,0.7,0.4,1,0.5
				c0.3,0.2,0.7,0.4,1,0.6c0.7,0.4,0.9,1,0.7,1.7c-0.4,1.2-0.8,2.3-1.1,3.5c-0.4,1.2-0.7,2.3-1.1,3.5c0,0.1-0.1,0.3-0.2,0.4
				c-0.1,0.1-0.1,0.3-0.2,0.4c-0.5,0.9-1.1,0.9-1.7,0.1c-0.5-0.4-0.9-0.9-1.2-1.5c-1.1-1.7-2.5-2.8-4.1-3.3
				c-1.6-0.6-3.4-0.7-5.3-0.4c-1.4,0.2-2.5,0.8-3.4,1.7c-0.9,0.9-1.5,2.1-1.9,3.4c-0.4,1.1-0.6,2.2-0.6,3.4c0,1.1,0,2.3,0.2,3.4
				c0.3,2.9,1,5.7,2.3,8.2c0.3,0.7,0.7,1.3,1.2,1.9c0.4,0.6,0.9,1.2,1.4,1.7c1.1,1.1,2.4,1.8,3.8,1.9c1.4,0.2,2.8-0.1,4.2-1
				c0.6-0.4,1.2-0.8,1.6-1.2c0.4-0.4,0.8-0.9,1-1.3c0.3-0.4,0.4-0.8,0.5-1.2c0.1-0.3,0.2-0.6,0.2-0.7c-0.5,0.1-1,0.2-1.4,0.2
				c-0.4,0-0.8,0.1-1.3,0.1c-0.6,0-1.2,0-1.8,0c-0.6,0-1.2,0-1.8,0c-0.6-0.1-1-0.2-1.3-0.5c-0.3-0.2-0.4-0.7-0.3-1.3
				c0-1.1,0.1-2.2,0.2-3.2c0.1-1,0.2-2.1,0.3-3.2c0.1-0.6,0.2-0.9,0.4-1.1c0.2-0.1,0.6-0.2,1.2-0.2c0.7,0,1.6,0.1,2.7,0.2
				c1.1,0.1,2.3,0.1,3.4,0.2c1.2,0.1,2.2,0.1,3.1,0.2c0.9,0.1,1.5,0.1,1.8,0.1C251.4,283.5,251.9,283.9,252,284.6z"/>
			<path class="st0" d="M286.6,298.5c0.4,0.4,0.7,0.7,0.8,0.9c0.2,0.2,0.3,0.4,0.3,0.6c0,0.2-0.1,0.4-0.3,0.6
				c-0.2,0.2-0.5,0.5-1,0.8c-1.3,1-2.6,1.9-4.1,2.7c-1.4,0.8-2.9,1.5-4.4,2.1c-0.6,0.2-1,0.3-1.3,0.2c-0.3-0.1-0.6-0.4-1-1
				c-0.4-0.6-0.9-1.4-1.6-2.6c-0.7-1.2-1.4-2.3-2.1-3.5c-0.7-1.2-1.4-2.3-2-3.2c-0.6-0.9-1-1.5-1.2-1.7c0,0.6,0,1.1,0,1.6
				c0,0.5,0,1.1,0,1.6c0,0.6,0.1,1.4,0.1,2.2c0,0.8,0.1,1.6,0.1,2.4c0,0.8,0.1,1.7,0.1,2.5c0,0.8,0.1,1.5,0.1,2.2c0,0.6,0,0.9-0.1,1
				c-0.1,0.1-0.5,0.2-1.1,0.3c-1.6,0.1-3.1,0.2-4.7,0.2c-1.5,0-3.1,0.1-4.6,0.2c-1,0-1.5-0.4-1.4-1.3c0-1.2,0.1-3,0.2-5.4
				c0.1-2.4,0.2-5.1,0.4-8c0.1-2.9,0.3-6,0.4-9.1c0.1-3.1,0.2-6.1,0.4-8.7c0.1-2.7,0.2-5,0.3-6.8c0.1-1.9,0.1-3,0.2-3.5
				c0-0.7,0.1-1.1,0.3-1.3c0.2-0.2,0.6-0.3,1.3-0.4c4.9-0.8,9.7-0.4,14.3,1.2c2.1,0.7,4,1.9,5.6,3.5c2.4,2.4,3.4,5.3,3,8.7
				c-0.2,1.5-0.8,2.9-1.9,4.1c-1.2,1.4-2.5,2.5-4,3.4c-0.4,0.2-1,0.5-1.6,0.9c0.2,0.3,0.8,1,1.7,2.1c0.9,1.1,1.9,2.3,3.1,3.7
				c1.1,1.3,2.2,2.7,3.3,4C285.1,296.9,286,297.9,286.6,298.5z M272.4,279.3c1.6-1,2.2-2.5,1.6-4.4c-0.7-2.5-2.6-3.7-5.6-3.5
				c-0.2,0.6-0.3,1.3-0.4,2.2c-0.1,0.9-0.1,1.8-0.1,2.8c0,0.9,0.1,1.8,0.2,2.7c0.1,0.8,0.3,1.5,0.5,1.9c0.6-0.3,1.2-0.5,1.9-0.8
				C271.2,279.9,271.8,279.6,272.4,279.3z"/>
			<path class="st0" d="M322.8,269.4c0,0.1-0.3,0.6-0.7,1.3c-0.4,0.7-1,1.6-1.6,2.7c-0.6,1-1.4,2.2-2.2,3.5
				c-0.8,1.3-1.6,2.6-2.5,3.9c-0.9,1.3-1.7,2.5-2.5,3.7c-0.8,1.2-1.6,2.1-2.3,2.9c-0.6,0.9-0.9,1.8-0.9,2.7c0,0.9,0.1,1.9,0.3,3.1
				c0.1,1.2,0.3,2.4,0.5,3.7c0.2,1.3,0.4,2.5,0.6,3.8c0.2,1.2,0.4,2.4,0.5,3.3c0.1,1,0.3,1.8,0.4,2.4c0.1,0.6,0.2,1,0.2,1
				c0.1,0.6,0.1,0.9-0.1,1.2c-0.2,0.2-0.5,0.3-1.1,0.4c-1.5,0-2.9,0.1-4.3,0c-1.4,0-2.8,0-4.2,0c-0.8,0-1.1-0.4-1-1.2
				c0-0.3,0.1-1.3,0.2-2.7c0.1-1.5,0.2-3.1,0.4-5c0.1-1.9,0.3-3.7,0.4-5.6c0.1-1.9,0.3-3.3,0.4-4.4c0-0.5,0-0.9-0.2-1.2
				c-0.2-0.3-0.4-0.6-0.7-0.9c-0.6-0.5-1.3-1.1-2.1-1.9c-0.8-0.7-1.7-1.6-2.7-2.4c-0.9-0.9-1.9-1.7-2.9-2.6c-1-0.9-1.9-1.7-2.7-2.4
				c-0.8-0.7-1.5-1.4-2.1-1.9c-0.6-0.5-1-0.9-1.1-1.1c-0.4-0.5-0.6-0.8-0.6-1.1c0-0.2,0.2-0.6,0.5-1.1c0.9-1.2,1.8-2.4,2.7-3.6
				c0.9-1.2,1.8-2.4,2.7-3.6c0.4-0.6,0.8-0.8,1.1-0.8c0.3,0,0.6,0.3,1.1,0.9c0.2,0.3,0.5,0.7,1.1,1.4c0.6,0.7,1.2,1.5,1.9,2.4
				c0.7,0.9,1.5,1.9,2.3,2.9c0.8,1,1.5,1.9,2.2,2.8c0.7,0.8,1.3,1.5,1.7,2.1c0.5,0.6,0.7,0.9,0.8,0.9c0-0.1,0.2-0.5,0.5-1.3
				c0.3-0.7,0.6-1.6,1-2.6c0.4-1,0.8-2.1,1.3-3.2c0.4-1.1,0.9-2.2,1.3-3.2c0.4-1,0.7-1.8,1-2.5c0.3-0.7,0.4-1,0.4-1.1
				c0.2-0.5,0.4-0.8,0.7-1c0.3-0.1,0.7-0.1,1.2,0.1c0.2,0.1,0.6,0.3,1.3,0.5c0.7,0.3,1.4,0.6,2.2,0.9c0.8,0.3,1.6,0.7,2.4,1
				c0.8,0.3,1.5,0.6,1.9,0.8c0.7,0.3,1.1,0.5,1.2,0.8C323.1,268.2,323,268.7,322.8,269.4z"/>
		</g>
	</g>
	<g>
		<path class="st46" d="M208.9,103c-0.2-0.1-0.5-0.3-0.7-0.5c-2.9-1.8-5.2-4.2-6.8-7.2c-1-1.7-1.6-3.5-1.5-5.5
			c0-0.4,0.1-0.9,0.2-1.3c0.7-2.8,2.8-4.1,5.6-3.4c2,0.5,3.6,1.6,5,3.1c1.4,1.5,2.3,3.3,3.2,5.1c0.2,0.4,0.3,0.7,0.6,1.2
			c0.2-0.8,0.4-1.3,0.6-1.9c0.6-1.8,1.4-3.5,2.6-5c1.6-2,3.6-3.5,6.2-4.1c3.1-0.7,6.1,1.4,6.6,4.5c0.2,1.2,0,2.4-0.3,3.5
			c-0.7,2.6-2.1,4.7-3.9,6.6c-0.5,0.5-0.9,1-1.5,1.6c0.6,0,1,0.1,1.4,0.1c3.6,0.2,7.3,0.5,10.9,0.6c1.7,0.1,3.4-0.3,5-0.8
			c2.5-0.9,4.6-2.3,6.1-4.4c1.2-1.6,2.2-3.3,3.2-5c0.2-0.3,0.4-0.7,0.6-1c0.7-1,1.9-1.3,3-0.7c1,0.6,1.4,1.7,0.9,2.8
			c0,0,0,0.1,0,0.1c-1.6,3-3.3,5.9-5.8,8.3c-2.9,2.9-6.5,4.4-10.5,5c-2.2,0.3-4.5,0.2-6.8,0.1c0.1,0.1,0.1,0.2,0.2,0.2
			c3.2,1.3,6.3,2.7,9.5,3.8c1.9,0.6,3.8,0.9,5.7,1.1c2.8,0.2,5.4-0.5,7.6-2.2c1.6-1.2,3.1-2.6,4.6-3.9c0.4-0.3,0.8-0.6,1.2-0.8
			c0.9-0.3,1.8,0,2.4,0.7c0.5,0.7,0.6,1.7,0.1,2.5c-0.2,0.3-0.4,0.5-0.7,0.8c-1.5,1.3-3,2.6-4.6,3.9c-3.4,2.7-7.3,3.8-11.6,3.4
			c-3.9-0.4-7.6-1.6-11.2-3.1c-2.1-0.9-4.2-1.7-6.3-2.6c-0.3-0.1-0.6-0.2-0.9-0.2c0.2,0.2,0.4,0.3,0.6,0.5
			c5.3,4.5,10.1,9.4,14.2,15.1c1.3,1.8,2.5,3.7,3.5,5.7c1.7,3.6,3.5,7.2,4.6,11.1c1.5,5.4,2.2,10.9,1.9,16.5
			c-0.5,8.2-3.1,15.6-8.1,22.2c-3.6,4.7-8.4,7.7-13.9,9.6c-3.8,1.2-7.8,1.9-11.8,2c-9.3,0.1-17.6-2.7-25-8.3
			c-5.5-4.2-9.4-9.6-12.1-15.9c-1.9-4.2-3-8.6-3.5-13.1c-0.3-2.4-0.4-4.9-0.2-7.3c0.2-3.5,1-7,2.1-10.4c1.6-4.8,4-9.2,6.6-13.5
			c2.2-3.5,4.7-6.8,7.6-9.8c1.2-1.2,2.4-2.3,3.7-3.3c2.1-1.6,4.3-3.2,6.5-4.7C206.6,104.1,207.8,103.6,208.9,103z M217,157.4
			c-0.2-0.5-0.3-0.8-0.4-1c-0.7-1.6-1.5-3-2.6-4.3c-0.8-0.9-1.7-1.7-2.9-2.2c-3-1.4-8-0.8-9.5,4.2c-0.4,1.2-0.5,2.4-0.4,3.7
			c0.2,1.7,0.5,3.4,1.1,5c1.5,4.1,3.9,7.8,6.6,11.3c1.6,2.1,3.4,4,5.5,5.7c0.7,0.5,1.5,1,2.2,1.4c1.3,0.6,2.6,0.6,3.8-0.3
			c0.7-0.5,1.5-1.1,2.1-1.8c1.5-1.6,3-3.1,4.4-4.8c2.4-2.9,4.5-6.1,5.9-9.7c1.2-3.1,2-6.2,1.7-9.5c-0.2-1.6-0.6-3.2-1.4-4.6
			c-1.8-3.2-5.2-4.4-8.6-3c-1.1,0.5-2.1,1.2-2.9,2c-2,1.9-3.3,4.3-4.3,6.8C217.3,156.6,217.2,156.9,217,157.4z M204.8,123.8
			c0,2.3,0.3,4.5,1,6.6c1.6,4.6,4.5,8,9.2,9.5c2.7,0.9,5.3,0.6,7.6-1.1c2.2-1.5,3.6-3.6,4.4-6.1c1.4-4.8,1.1-9.5-0.8-14.1
			c-2-4.7-5.2-8.6-9.4-11.5c-0.6-0.4-1.2-0.7-1.9-0.5c-0.2,0.1-0.5,0.1-0.8,0c-0.9-0.3-1.6,0.2-2.2,0.8c-0.2,0.2-0.4,0.4-0.6,0.6
			C207.1,112.5,204.9,117.7,204.8,123.8z M218.1,99.4c0.3-0.1,0.4-0.2,0.5-0.3c1.8-1.4,3.5-2.8,4.9-4.6c1-1.2,1.9-2.5,2.3-4.1
			c0.1-0.5,0.2-1,0.2-1.4c0-0.8-0.6-1.2-1.3-1c-0.5,0.1-1,0.4-1.5,0.6c-1.7,1-2.8,2.4-3.4,4.2c-0.6,1.6-1,3.3-1.4,5
			C218.2,98.2,218.2,98.7,218.1,99.4z M211.4,99c0-0.1,0-0.2-0.1-0.3c-0.7-1.5-1.3-3-2-4.4c-0.5-1-1.1-1.9-1.8-2.8
			c-0.6-0.8-1.4-1.4-2.3-1.8c-0.3-0.1-0.6-0.2-0.9-0.3c-0.2,1,0,1.9,0.3,2.7C206.1,95.2,208.4,97.4,211.4,99z"/>
		<path class="st32" d="M124.2,177c-0.6-0.1-1.2-0.2-1.8-0.3c-0.6-0.1-1.1-0.2-1.7-0.3c-1.3-0.2-2.1-1-2.4-2.2
			c-0.3-0.8-0.4-1.6-0.6-2.4c-0.3-2.3-0.5-4.5-0.4-6.8c0-1.3,0.7-2.1,1.8-2.7c1-0.5,2.1-0.8,3.2-0.9c0.3,0,0.6-0.1,0.9-0.1
			c0.1-1.1,0.2-2.2,0.4-3.2c0.5-2.3,1.6-4.3,3-6.2c0.6-0.8,1.3-1.6,2-2.3c2-2,3-4.4,3.3-7.2c0.2-1.7,0.5-3.5,0.9-5.2
			c0.5-2.2,1.9-3.8,3.8-4.9c1.7-1,3.5-1,5.3-0.1c1.8,1,3,2.6,3.9,4.4c0.4,0.9,0.7,1.9,1,2.9c0.5,2.1,1.7,3.8,3.4,5.1
			c0.4,0.3,0.9,0.7,1.4,1c3,1.9,4.8,4.6,5.8,7.9c0.4,1.4,0.7,2.8,1,4.2c0.1,0.3,0.1,0.6,0.2,1c0.6,0,1.2,0,1.8,0
			c0.8,0,1.6-0.1,2.4-0.1c1.5,0,2.3,0.5,2.6,2c0.3,1,0.4,2,0.4,3c0,2.1-0.1,4.1-0.1,6.2c0,1-0.6,1.8-1.4,2.2
			c-0.6,0.3-1.2,0.6-1.9,0.9c0.3,0.6,0.5,1.1,0.8,1.6c0.9,1.7,1.7,3.5,2.1,5.4c0.9,3.5,0.7,7-0.7,10.4c-0.9,2.2-1.9,4.4-2.4,6.7
			c-0.3,1.2-0.5,2.4-0.6,3.6c-0.1,1.7,0.3,3.3,0.9,4.9c0.7,2,1.6,3.8,2.7,5.6c1.1,1.8,2.3,3.6,3.4,5.4c2,3.2,3.4,6.7,4.2,10.4
			c0.9,4.5,0.4,8.9-1.6,13.1c-1.8,3.9-5,6.3-9,7.7c-2.2,0.7-4.4,1-6.7,1.4c-4,0.6-7.9,0.5-11.9,0c-1.7-0.2-3.5-0.5-5.2-1.1
			c-6.4-2.3-10.5-6.7-12.1-13.4c-0.4-1.9-0.7-3.8-0.6-5.8c0.1-2.2,0.3-4.4,0.9-6.6c0.8-3.2,1.8-6.4,2.6-9.7c0.4-1.7,0.8-3.5,1.1-5.2
			c0.3-1.9-0.2-3.7-0.9-5.4c-0.7-1.6-1.4-3.2-2.2-4.7c-1.5-3.1-2.8-6.3-3.5-9.7c-0.7-3.3-0.6-6.5,0.4-9.7c0.1-0.2,0.1-0.4,0.2-0.6
			C124.3,177.2,124.2,177.1,124.2,177z M144.6,229.7c0.3,0,0.6,0,0.8-0.1c1.7-0.1,3.4-0.1,5.1-0.2c0.4,0,0.7-0.1,1.1-0.1
			c0.8-0.2,1.3-0.9,1.3-1.7c0-0.8-0.5-1.5-1.3-1.7c-0.3-0.1-0.7-0.1-1.1-0.1c-1.8,0.1-3.5,0.2-5.3,0.2c-0.2,0-0.5,0-0.8,0
			c-0.3-3.4-0.7-6.8-1-10.3c1-0.1,2-0.1,2.9-0.1c1.1-0.1,2.2-0.1,3.3-0.2c1-0.1,1.6-0.9,1.6-1.7c0-0.9-0.6-1.6-1.5-1.7
			c-0.4-0.1-0.7,0-1.1,0c-1.6,0.1-3.1,0.1-4.7,0.2c-0.2,0-0.5,0-0.8,0c-0.3-3.4-0.7-6.7-0.9-10c2-0.2,3.8-0.3,5.7-0.5
			c0.4,0,0.7-0.1,1.1-0.2c0.8-0.3,1.2-1.1,1.1-1.9c-0.1-0.8-0.7-1.4-1.5-1.5c-0.2,0-0.5,0-0.8,0c-1.2,0.1-2.3,0.2-3.4,0.3
			c-0.8,0.1-1.6,0.1-2.5,0.2c-0.3-3.5-0.7-6.8-1-10.3c1-0.1,2-0.1,2.9-0.2c0.9-0.1,1.9-0.1,2.8-0.2c0.9-0.1,1.6-0.8,1.6-1.7
			c0-0.8-0.5-1.5-1.4-1.8c-0.3-0.1-0.6-0.1-0.8-0.1c-1.5,0.1-3,0.1-4.5,0.2c-0.3,0-0.5,0-0.8,0c-0.1-0.2-0.1-0.4-0.1-0.6
			c-0.1-1.4-0.3-2.8-0.4-4.2c-0.1-0.7-0.1-1.5-0.3-2.2c-0.2-0.9-1-1.4-1.8-1.3c-0.9,0.1-1.5,0.8-1.6,1.7c0,0.5,0,1,0.1,1.5
			c0.2,2.1,0.4,4.2,0.6,6.3c0.3,3.1,0.6,6.2,0.9,9.3c0.4,3.8,0.7,7.5,1.1,11.3c0.3,3.1,0.6,6.3,0.9,9.4c0.4,3.9,0.8,7.8,1.1,11.7
			c0.3,2.9,0.6,5.7,0.8,8.6c0,0.3,0.1,0.7,0.3,1c0.3,0.7,1.1,1.1,1.9,0.9c0.7-0.1,1.3-0.7,1.4-1.5c0-0.3,0-0.6,0-0.8
			c-0.1-1-0.2-2-0.3-2.9C144.8,231.8,144.7,230.8,144.6,229.7z"/>
		<path class="st32" d="M288,187.2c4.5-2.6,13.9-9.6,15.4-19.7s-2.7-23.2-15.2-25.1c-12.5-1.9-18.1,7.3-20,20
			c-1.9,12.7,5.4,18.5,9.4,22.5c3.9,4-16.9,62.6-4,65.8C283.1,253.3,284.9,189,288,187.2z"/>
		<path class="st46" d="M366.1,285.5c-17.7-13.7-38.6-30.7-36.7-55.6c0.2-2.1-2.5-3.5-4.1-2.4c-9.4,6-21.1,6.2-30.6,0.4
			c-3-1.8-5.8,2.9-2.8,4.8c9.7,5.9,21.7,6.6,31.9,1.9c0.6,22.2,17.9,38.5,34.5,51.7c-19.8,7.6-25.5,30.5-25.3,50.5
			c-21.4-16.3-51.9-14.7-71.3,4.4c-21.1-21.1-55.3-21.7-77.1-1.5c-8-13.4-25.4-14.7-39.9-12.9c-14.9,1.8-29.9,5.1-42.9,12.6
			c4.1-21-10.2-40.1-27.6-51.4c16.2-7.9,21.7-28.7,11.6-43.6c12.9-0.9,24.8-7.6,32.4-18.2c2.1-2.9-2.7-5.6-4.8-2.8
			c-7.7,10.7-20.4,16.4-33.5,15.5c-2.4-0.2-3.6,3.1-1.9,4.7c13.7,13.4,7.7,36.3-10.8,41.2c-2.3,0.6-2.7,3.9-0.7,5
			c19.5,10.7,37.1,31.8,27.9,55.2c-0.9,2.2,2.2,4.5,4,3.1c12-8.8,26.3-12.9,40.9-15.1c13.9-2.1,35.4-4.3,41.9,12
			c0.7,1.8,3.1,2.9,4.6,1.2c20.2-21.4,54.2-21,73.9,0.9c1,1.1,2.9,1.1,3.9,0c18.7-20.4,50.4-21.5,70.4-2.2c1.6,1.6,4.9,0.5,4.7-1.9
			c-1.3-20.2,2.5-47.6,26.2-52.9C366.8,289.7,367.7,286.7,366.1,285.5z"/>
	</g>
</g>
</svg>
