<?xml version="1.0" encoding="utf-8"?>
<!-- Generator: Adobe Illustrator 21.1.0, SVG Export Plug-In . SVG Version: 6.00 Build 0)  -->
<svg version="1.1" id="Calque_1" xmlns="http://www.w3.org/2000/svg" xmlns:xlink="http://www.w3.org/1999/xlink" x="0px" y="0px"
	 viewBox="0 0 432 432" style="enable-background:new 0 0 432 432;" xml:space="preserve">
<style type="text/css">
	.st0{fill:#D2A895;}
	.st1{fill:#864F4D;}
	.st2{fill:#644F43;}
	.st3{fill:#292726;}
	.st4{fill:#10447B;}
	.st5{fill:#9B1914;}
	.st6{fill:#B1C369;}
	.st7{fill:#4D593A;}
	.st8{fill:#7E8D66;}
	.st9{fill:#A3BC70;}
	.st10{fill:#789835;}
	.st11{fill:#C19D63;}
	.st12{fill:#282727;}
	.st13{fill:#AE7461;}
	.st14{fill:#3C3C3B;}
	.st15{fill:#6C7D49;}
	.st16{fill:#343434;}
	.st17{fill:#FCD271;}
	.st18{fill:#935C8D;}
	.st19{fill:#E47B19;}
	.st20{fill:#939D3C;}
	.st21{fill:#A2C1DB;}
	.st22{fill:#D86E63;}
	.st23{fill:#43484C;}
	.st24{fill:#007D97;}
	.st25{fill:#A08155;}
	.st26{fill:#E3635C;}
	.st27{fill:#C85581;}
	.st28{fill:#B33233;}
	.st29{fill:#F7A815;}
	.st30{fill:#ED7E87;}
	.st31{fill:#961639;}
	.st32{fill:#E7E6E6;}
	.st33{fill:#DAB575;}
	.st34{fill:#FAD4E2;}
	.st35{fill:#EE7089;}
	.st36{fill:#2A2A2C;}
	.st37{fill:#A98F64;}
	.st38{fill:#E0B05B;}
	.st39{fill:#37622C;}
	.st40{fill:#5B8151;}
	.st41{fill:#E9D3B4;}
	.st42{fill:#332313;}
	.st43{fill:#222751;}
	.st44{fill:#BCBDBF;}
	.st45{fill:#7FBD5C;}
	.st46{fill:#0F8E82;}
	.st47{fill:#F9B03D;}
	.st48{fill:#F2F2F2;}
	.st49{fill:#647D48;}
	.st50{fill:#D4AB7A;}
	.st51{fill:#E8C8A8;}
	.st52{fill:#EFC0C9;}
	.st53{fill:#070708;}
	.st54{fill:#835E42;}
	.st55{fill:#B58A6A;}
	.st56{fill:#100B0B;}
	.st57{fill:#FFFFFF;}
	.st58{fill:#C9B38C;}
	.st59{fill:#CDCCCC;}
	.st60{fill:#D6929D;}
	.st61{fill:#784831;}
	.st62{fill:#3F6E2C;}
	.st63{fill:#F7B663;}
	.st64{fill:#D98694;}
	.st65{fill:#1B1B1B;}
	.st66{fill:#C1292E;}
	.st67{fill:#C6AC96;}
	.st68{fill:#EA86AB;}
	.st69{fill:#C17291;}
	.st70{fill:#95355A;}
	.st71{fill:#7D98AB;}
	.st72{fill:#56A3DA;}
	.st73{fill:#B4B4B4;}
	.st74{fill:#C68D12;}
	.st75{fill:#658762;}
	.st76{fill:#9B5A60;}
	.st77{fill:#020203;}
	.st78{fill:#738C81;}
	.st79{fill:#33473E;}
</style>
<g>
	<g>
		<g>
			<path class="st41" d="M86.8,208.3c-5.8-1.1-12,2.8-12.6,11.9c-1.1,16.2,5.3,24.1,12.4,25.4C85.2,234.6,85,220.2,86.8,208.3z"/>
			<path class="st41" d="M211.6,220.2c-0.6-9.1-6.8-13-12.6-11.9c1.7,11.8,1.6,26.3,0.2,37.3C206.3,244.2,212.7,236.4,211.6,220.2z"
				/>
			<path class="st41" d="M190.7,239.5c-1.4-0.2-3.1-0.4-3.9-2c-0.8-1.4-0.2-3,0.3-4.1c7.5-16.5-13.1-41.4-28.1-40.8
				c-5,0.2-10.1,4.3-16.1,4.3c-6.1,0-11-4.1-16.1-4.3c-15.1-0.7-35.6,24.3-28.1,40.8c0.5,1,1,2.5,0.2,3.9c-1.9,3.7-7.6,0.1-8.8,6.6
				c-0.4,2.1-0.6,4.2-0.7,6.4c6.2,34.9,29.2,46,64.8,41.9c25-2.9,37.7-16.5,42.1-41.9C196,241.1,194.7,240,190.7,239.5z"/>
			<path class="st42" d="M196.5,205.7C196.5,205.7,196.5,205.7,196.5,205.7c-0.6-3.2-1.2-6-2.1-8.7c0,0,0,0,0-0.1
				c-0.3-0.9-0.5-1.7-0.8-2.6c0,0,0,0,0-0.1c0-0.1-0.1-0.2-0.1-0.3c-0.1-0.2-0.3-0.3-0.4-0.5c-3.3-4-9.3-11.2-21.3-13.1l-0.1,1
				c-0.1,0.9-0.6,1.6-1.4,2c-0.8,0.4-1.7,0.4-2.4,0c-7.1-3.6-15-6.1-23-7c-0.1,0.3-0.2,0.6-0.4,0.9c-0.5,0.8-1.3,1.2-2.3,1.2
				c-18.7-0.5-37.6,6.8-51.2,19.7c-0.7,2.3-1.2,4.8-1.7,7.5c0,0,0,0.1,0,0.1c-0.2,1-0.3,2.1-0.5,3.1v0c-0.8,5.4-1.2,11.5-1.2,18.2
				c0,4.1,0.1,7.9,0.4,11.5c0.1,1.3,0.2,2.7,0.3,3.9c2.3-7.8,10.9-2.9,8.5-8.2c-8.3-18.1,13.8-44.4,30.1-43.7
				c5.5,0.2,10.5,4.3,16,4.3s10.5-4.1,16-4.3c16.3-0.7,38.4,25.6,30.1,43.7c-2.6,5.6,6.2,0.1,8.5,8.2c0.1-1.3,0.2-2.6,0.3-4
				c0.3-3.6,0.4-7.4,0.4-11.4c0-6.7-0.4-12.7-1.2-18.2v0C196.8,207.8,196.7,206.7,196.5,205.7z"/>
			<g>
				<ellipse class="st42" cx="120.2" cy="234.2" rx="4.1" ry="6"/>
				<ellipse class="st42" cx="165.6" cy="234.2" rx="4.1" ry="6"/>
				<path class="st42" d="M177.2,266.6c-1.4-0.6-2.7-1.4-3.9-2.3c-0.3-0.4-1.4-0.9-3.3-3.2c-1-1.2-2.6,0.5-1.7,1.7
					c0.7,0.8,1.4,1.6,2.2,2.3c-7.1,8.7-17.4,13.1-27.7,13.1c-10.3,0-20.6-4.4-27.7-13.1c0.8-0.7,1.5-1.5,2.2-2.3
					c1-1.2-0.7-2.9-1.7-1.7c-1.9,2.3-3,2.8-3.3,3.2c-1.2,0.9-2.5,1.7-3.9,2.3c-1.4,0.6-0.2,2.7,1.2,2.1c1.3-0.6,2.5-1.3,3.7-2.1
					c7.8,9.5,18.7,13.9,29.5,13.9c10.8,0.1,21.7-4.4,29.5-13.9c1.1,0.8,2.4,1.5,3.7,2.1C177.4,269.2,178.7,267.2,177.2,266.6z"/>
				<path class="st42" d="M137.7,252.6c0.6,0.6,1.8,0.7,2.4,0c0.6-0.7,0.7-1.7,0-2.4c-0.3-0.3-0.5-0.5-0.8-0.8
					c-0.6-0.6-1.8-0.7-2.4,0c-0.6,0.7-0.7,1.7,0,2.4C137.2,252.1,137.5,252.4,137.7,252.6z"/>
				<path class="st42" d="M148,252.6c0.3-0.3,0.5-0.5,0.8-0.8c0.7-0.7,0.6-1.7,0-2.4c-0.6-0.7-1.8-0.6-2.4,0
					c-0.3,0.3-0.5,0.5-0.8,0.8c-0.7,0.7-0.6,1.7,0,2.4C146.2,253.3,147.4,253.2,148,252.6z"/>
			</g>
		</g>
		<g>
			<path class="st43" d="M115,161.5c0.6-0.7,1.4-1,2.3-0.8c1.6,0.3,1.8,1.7,1.9,1.8c22.5-4.9,23-6.4,24.7-4.6
				c0.5,0.5,0.7,1.2,0.6,1.9c12.5-0.1,25.6,0.3,38,3.8c1.9,0.5,2.3,2.9,1,4.1c2.8,1.3,5.4,2.7,8.3,4.2
				c-17.5-26.6-35.2-50.4-46.7-64.9c-2.2-1.3-4.6-2.2-7.1-2.8c-1.1,0.6-2.1,1.2-3.1,1.9c-1.2,0.9-2.4,0.2-2.9-0.9
				c-0.2-0.1-0.3-0.3-0.4-0.4c-0.7-0.1-1.5-0.1-2.2-0.2c-0.7,2-4.8,5.5-9.6,6.1c-19.2,37.3-25.7,56.6-28,66.5
				C106.5,161.3,111.5,165.7,115,161.5z"/>
			<g>
				<path class="st44" d="M95.8,99.1c4.7,0.3,9.4,0.7,14.1,1c-0.5,0.3-0.9,0.7-1.4,1.1c-0.9,0.7-0.8,2.3,0,3c3.1,2.9,7.2,4,11.1,3.5
					c5-0.7,8.9-4.2,9.6-6.1c0.7,0.1,1.5,0.1,2.2,0.2c0.1,0.2,0.3,0.3,0.4,0.4c0.5,1.1,1.6,1.8,2.9,0.9c1-0.7,2-1.3,3.1-1.9
					c9,2.2,11.3,7.2,17.6,7.2c1.8,0,2.9-2.4,1.5-3.6c-1.9-1.7-4.6-2.7-7.2-3.8c4.9,0.1,9.8,0.2,14.7,0.2c2,0,3-3,1.1-4
					c-5.2-2.6-10.9-3.8-16.6-3.5c3.8-2.3,7.8-4.4,11.8-6.4c2.3-1.2,0.6-4.3-1.6-3.9c-2.3,0.4-4.6,1-6.8,1.7c0.1-0.6,0.2-1.1,0.2-1.7
					c0.1-1.1-1.1-2.2-2.1-2.1c-1.2,0-2.3,0.2-3.4,0.5c2.6-3.3,5.4-6.4,8.4-9.3c1.8-1.7-0.5-4.6-2.6-3.4c-4.8,2.8-9,6.5-12.3,10.8
					c-0.2-1.2-1.5-2.1-2.7-1.7c-0.5,0.2-0.9,0.4-1.3,0.6c0.1-1.8-2.4-3-3.6-1.6c0.8-3.2,2.1-6.3,4-9.2c1.3-2-1.1-3.7-2.9-2.9
					c-6.3,2.7-9.5,9.6-9.2,16.6c-0.6-1-1.3-2-2-2.9c-1.1-1.4-3.3-1.4-3.9,0.5c-1.3,4.3,0.8,7,2.5,9.5c-1.8-1.5-0.1-0.1-13.7-11.2
					c-1.9-1.6-4.4,0.3-3.4,2.6c1.8,4,4.6,7,7.9,9.4c-0.7,0.2-1.4,0.4-2.1,0.7c-1.7,0.8-1.2,3.4,0.4,3.9c-4.8,0-9.6,0.2-14.5,0.7
					C93.1,95.1,93,98.9,95.8,99.1z"/>
				<path class="st44" d="M199.4,179.6c-5.1-5-18.2-11.3-24.3-12.9c-0.3-0.1-0.3-0.6,0.1-0.6c2.2-0.2,4.5-0.2,6.7,0
					c0.4,0,0.5-0.5,0.1-0.6c-20.6-5.8-43-2.6-40.8-4.2c1.1-0.8,1.6-2.3,0.9-2.1c-1.3,0.3-25.2,6-24,5.7c-0.5,0.1-0.4-0.6-0.9-2
					c-0.1-0.2-0.4-0.3-0.5-0.1c-4.5,5.5-9-0.7-25.8,18.2c-1.2,1.3-2.4,2.7-3.7,4.3c-3.4,4.2-5.1,9.5-0.4,7.3c-2,4.8-3.4,7.1-2,7.8
					c0.7,0.4,1.5-0.3,2-0.8c14.1-15,34.9-23.8,55.7-23.2c0.4,0,0.7-0.4,0.5-0.7c-0.1-0.3-0.3-0.5-0.4-0.8c-0.2-0.4,0.1-0.8,0.5-0.8
					c9,0.8,17.9,3.4,26,7.5c1.5,0.8,0.3-3.6,1.6-3.5c24.9,2.9,27,27,28.8,11.9C204.8,197.2,208.6,188.6,199.4,179.6z"/>
			</g>
		</g>
	</g>
	<g>
		<g>
			<path class="st41" d="M233,282.5c-5.8-1.1-12,2.8-12.6,11.9c-1.1,16.2,5.3,24.1,12.4,25.4C231.4,308.8,231.2,294.4,233,282.5z"/>
			<path class="st41" d="M357.8,294.4c-0.6-9.1-6.8-13-12.6-11.9c1.7,11.8,1.6,26.3,0.2,37.3C352.5,318.5,359,310.6,357.8,294.4z"/>
			<path class="st41" d="M336.9,313.7c-1.4-0.2-3.1-0.4-3.9-2c-0.8-1.4-0.2-3,0.3-4.1c7.5-16.5-13.1-41.4-28.1-40.8
				c-5,0.2-10.1,4.3-16.1,4.3c-6.1,0-11-4.1-16.1-4.3c-15.1-0.7-35.6,24.3-28.1,40.8c0.5,1,1,2.5,0.2,3.9c-1.9,3.7-7.6,0.1-8.8,6.6
				c-0.4,2.1-0.6,4.2-0.7,6.4c6.2,34.9,29.2,46,64.8,41.9c25-2.9,37.7-16.5,42.1-41.9C342.2,315.3,341,314.3,336.9,313.7z"/>
			<path class="st42" d="M342.7,279.9C342.7,279.9,342.7,279.9,342.7,279.9c-0.6-3.2-1.2-6-2.1-8.7c0,0,0,0,0-0.1
				c-0.3-0.9-0.5-1.7-0.8-2.6c0,0,0,0,0-0.1c0-0.1-0.1-0.2-0.1-0.3c-0.1-0.2-0.3-0.3-0.4-0.5c-3.3-4-9.3-11.2-21.3-13.1l-0.1,1
				c-0.1,0.9-0.6,1.6-1.4,2c-0.8,0.4-1.7,0.4-2.4,0c-7.1-3.6-15-6.1-23-7c-0.1,0.3-0.2,0.6-0.4,0.9c-0.5,0.8-1.3,1.2-2.3,1.2
				c-18.7-0.5-37.6,6.8-51.2,19.7c-0.7,2.3-1.2,4.8-1.7,7.5c0,0,0,0.1,0,0.1c-0.2,1-0.3,2.1-0.5,3.1v0c-0.8,5.4-1.2,11.5-1.2,18.2
				c0,4.1,0.1,7.9,0.4,11.5c0.1,1.3,0.2,2.7,0.3,3.9c2.3-7.8,10.9-2.9,8.5-8.2c-8.3-18.1,13.8-44.4,30.1-43.7
				c5.5,0.2,10.5,4.3,16,4.3s10.5-4.1,16-4.3c16.3-0.7,38.4,25.6,30.1,43.7c-2.6,5.6,6.2,0.1,8.5,8.2c0.1-1.3,0.2-2.6,0.3-4
				c0.3-3.6,0.4-7.4,0.4-11.4c0-6.7-0.4-12.7-1.2-18.2v0C343.1,282,342.9,280.9,342.7,279.9z"/>
			<g>
				<ellipse class="st42" cx="266.4" cy="308.4" rx="4.1" ry="6"/>
				<ellipse class="st42" cx="311.8" cy="308.4" rx="4.1" ry="6"/>
				<g>
					<path class="st42" d="M324.3,332.9c-1.3-0.6-2.6-1.3-3.7-2.2c-0.3-0.4-1.3-0.8-3.1-3c-0.9-1.1-2.5,0.5-1.6,1.6
						c0.6,0.8,1.3,1.5,2.1,2.2c-5.2,6.4-17.2,11.6-28.8,11.6s-23.6-5.1-28.8-11.6c0.7-0.7,1.4-1.4,2.1-2.2c0.9-1.1-0.7-2.7-1.6-1.6
						c-1.8,2.2-2.9,2.7-3.1,3c-1.1,0.9-2.4,1.6-3.7,2.2c-1.3,0.6-0.2,2.5,1.1,2c1.2-0.5,2.4-1.2,3.5-2c8.8,10.7,18.4,27.6,30.5,27.6
						c12.2,0,21.8-16.9,30.5-27.6c1.1,0.8,2.2,1.4,3.5,2C324.4,335.4,325.6,333.5,324.3,332.9z"/>
				</g>
				<path class="st42" d="M284,326.8c0.6,0.6,1.8,0.7,2.4,0c0.6-0.7,0.7-1.7,0-2.4c-0.3-0.3-0.5-0.5-0.8-0.8c-0.6-0.6-1.8-0.7-2.4,0
					c-0.6,0.7-0.7,1.7,0,2.4C283.5,326.3,283.7,326.6,284,326.8z"/>
				<path class="st42" d="M294.3,326.8c0.3-0.3,0.5-0.5,0.8-0.8c0.7-0.7,0.6-1.7,0-2.4c-0.6-0.7-1.8-0.6-2.4,0
					c-0.3,0.3-0.5,0.5-0.8,0.8c-0.7,0.7-0.6,1.7,0,2.4C292.5,327.5,293.6,327.4,294.3,326.8z"/>
			</g>
		</g>
		<g>
			<path class="st45" d="M261.2,235.7c0.6-0.7,1.4-1,2.3-0.8c1.6,0.3,1.8,1.7,1.9,1.8c22.5-4.9,23-6.4,24.7-4.6
				c0.5,0.5,0.7,1.2,0.6,1.9c12.5-0.1,25.6,0.3,38,3.8c1.9,0.5,2.3,2.9,1,4.1c2.8,1.3,5.4,2.7,8.3,4.2
				c-17.5-26.6-35.2-50.4-46.7-64.9c-2.2-1.3-4.6-2.2-7.1-2.8c-1.1,0.6-2.1,1.2-3.1,1.9c-1.2,0.9-2.4,0.2-2.9-0.9
				c-0.2-0.1-0.3-0.3-0.4-0.4c-0.7-0.1-1.5-0.1-2.2-0.2c-0.7,2-4.8,5.5-9.6,6.1c-19.2,37.3-25.7,56.6-28,66.5
				C252.7,235.5,257.7,239.9,261.2,235.7z"/>
			<g>
				<path class="st46" d="M242,173.3c4.7,0.3,9.4,0.7,14.1,1c-0.5,0.3-0.9,0.7-1.4,1.1c-0.9,0.7-0.8,2.3,0,3c3.1,2.9,7.2,4,11.1,3.5
					c5-0.7,8.9-4.2,9.6-6.1c0.7,0.1,1.5,0.1,2.2,0.2c0.1,0.2,0.3,0.3,0.4,0.4c0.5,1.1,1.6,1.8,2.9,0.9c1-0.7,2-1.3,3.1-1.9
					c9,2.2,11.3,7.2,17.6,7.2c1.8,0,2.9-2.4,1.5-3.6c-1.9-1.7-4.6-2.7-7.2-3.8c4.9,0.1,9.8,0.2,14.7,0.2c2,0,3-3,1.1-4
					c-5.2-2.6-10.9-3.8-16.6-3.5c3.8-2.3,7.8-4.4,11.8-6.4c2.3-1.2,0.6-4.3-1.6-3.9c-2.3,0.4-4.6,1-6.8,1.7c0.1-0.6,0.2-1.1,0.2-1.7
					c0.1-1.1-1.1-2.2-2.1-2.1c-1.2,0-2.3,0.2-3.4,0.5c2.6-3.3,5.4-6.4,8.4-9.3c1.8-1.7-0.5-4.6-2.6-3.4c-4.8,2.8-9,6.5-12.3,10.8
					c-0.2-1.2-1.5-2.1-2.7-1.7c-0.5,0.2-0.9,0.4-1.3,0.6c0.1-1.8-2.4-3-3.6-1.6c0.8-3.2,2.1-6.3,4-9.2c1.3-2-1.1-3.7-2.9-2.9
					c-6.3,2.7-9.5,9.6-9.2,16.6c-0.6-1-1.3-2-2-2.9c-1.1-1.4-3.3-1.4-3.9,0.5c-1.3,4.3,0.8,7,2.5,9.5c-1.8-1.5-0.1-0.1-13.7-11.2
					c-1.9-1.6-4.4,0.3-3.4,2.6c1.8,4,4.6,7,7.9,9.4c-0.7,0.2-1.4,0.4-2.1,0.7c-1.7,0.8-1.2,3.4,0.4,3.9c-4.8,0-9.6,0.2-14.5,0.7
					C239.3,169.3,239.2,173.1,242,173.3z"/>
				<path class="st46" d="M345.6,253.8c-5.1-5-18.2-11.3-24.3-12.9c-0.3-0.1-0.3-0.6,0.1-0.6c2.2-0.2,4.5-0.2,6.7,0
					c0.4,0,0.5-0.5,0.1-0.6c-20.6-5.8-43-2.6-40.8-4.2c1.1-0.8,1.6-2.3,0.9-2.1c-1.3,0.3-25.2,6-24,5.7c-0.5,0.1-0.4-0.6-0.9-2
					c-0.1-0.2-0.4-0.3-0.5-0.1c-4.5,5.5-9-0.7-25.8,18.2c-1.2,1.3-2.4,2.7-3.7,4.3c-3.4,4.2-5.1,9.5-0.4,7.3c-2,4.8-3.4,7.1-2,7.8
					c0.7,0.4,1.5-0.3,2-0.8c14.1-15,34.9-23.8,55.7-23.2c0.4,0,0.7-0.4,0.5-0.7c-0.1-0.3-0.3-0.5-0.4-0.8c-0.2-0.4,0.1-0.8,0.5-0.8
					c9,0.8,17.9,3.4,26,7.5c1.5,0.8,0.3-3.6,1.6-3.5c24.9,2.9,27,27,28.8,11.9C351,271.4,354.8,262.8,345.6,253.8z"/>
			</g>
			<g>
				<path class="st43" d="M292.5,182.6c-8.9,0.8-17.8,1.6-26.7,2.3c-1.3,2.5-3,5.8-4.4,8.7c12.4-0.9,24.8-2,37.2-3.2
					C295.3,186.3,293.3,183.7,292.5,182.6z"/>
				<path class="st43" d="M301.4,194.1L301.4,194.1c-14,1.4-28,2.5-42.1,3.6c-1.2,2.5-2.8,5.7-4.2,8.7c17.4-1.2,34.7-2.7,52.1-4.5
					C306.3,200.7,303.7,197.3,301.4,194.1z"/>
				<path class="st43" d="M309.9,205.6c-18.9,2-37.8,3.6-56.7,4.9c-2.2,4.8-3.8,8.5-3.9,8.6c22.1-1.5,44.2-3.4,66.2-5.7
					C313.5,210.5,312.1,208.6,309.9,205.6z"/>
				<path class="st43" d="M318.2,217.1c-23.5,2.5-47.1,4.6-70.6,6.1c-2,4.8-3.2,7.8-3.5,8.6c26.6-1.7,53.1-4,79.6-7
					C320.1,219.8,318.4,217.4,318.2,217.1z"/>
				<path class="st43" d="M326.2,228.6c-12,1.4-24,2.6-36.1,3.7c0.4,0.5,0.6,1.1,0.5,1.7c11.6-0.1,23.7,0.2,35.3,3
					c1.9-0.2,3.7-0.4,5.6-0.6C329,232.5,326.8,229.4,326.2,228.6z"/>
				<path class="st43" d="M239.7,244.5c2.3-0.1,4.2-0.3,5.8-0.4c9.1-7.2,12.9-5,15.7-8.4c0.6-0.7,1.4-1,2.3-0.8
					c1.6,0.3,1.8,1.7,1.9,1.8c7-1.5,11.9-2.7,15.3-3.6c-12.7,1.1-25.4,2-38.1,2.8C240.8,240.8,239.7,244.3,239.7,244.5z"/>
				<path class="st43" d="M334,240c-1.2,0.1-2.4,0.3-3.7,0.4c-0.1,0.5-0.4,1-0.7,1.3c2.1,1,5.5,2.7,8.3,4.2
					C338,245.9,334.1,240.1,334,240z"/>
				<path class="st43" d="M237.8,251.2c1.1-1.2,1.9-1.9,2.8-2.9c-0.7,0-1.4,0.1-2.1,0.1C238.1,250.1,237.8,251.2,237.8,251.2z"/>
			</g>
		</g>
	</g>
	<g>
		<g>
			<path class="st42" d="M234.1,76.6c0.9-1.2,2.1-2.1,3.5-2.7c2.3-1,4.7-0.6,6.5,1.1c1,0.9,1.7,2,2.2,3.2c0.7,1.6,1.1,3.2,1.4,4.9
				c0.5,3.1,0.7,6.2,0.8,9.3c0,0.2,0,0.4,0,0.5c-0.1,0.5-0.4,0.9-0.9,1c-0.5,0.1-1.1-0.2-1.3-0.7c-0.1-0.2-0.2-0.5-0.2-0.8
				c-0.1-0.9-0.1-1.9-0.2-2.8c-0.1-2-0.3-4.1-0.6-6.1c-0.2-1.3-0.5-2.6-1-3.8c-0.4-1-0.9-2-1.6-2.8c-0.4-0.4-0.9-0.8-1.5-1.1
				c-0.6-0.2-1.3-0.3-2-0.1c-1.3,0.4-2.4,1.1-3.2,2.2c-0.4,0.5-0.7,1.1-1,1.7c-0.8,1.8-1.3,3.8-1.4,5.8c-0.2,2.3,0,4.5,0,6.7
				c0,0.3,0,0.5,0,0.8c-0.1,0.7-0.6,1.1-1.2,1c-0.6,0-1-0.4-1.1-1c0-0.4-0.1-0.8-0.1-1.2c0-3.1-0.1-6.1-0.1-9.2
				c0-3.5-0.1-13.2-0.1-14.6c0-0.3,0-0.5,0.1-0.7c0.2-0.5,0.5-0.7,1.1-0.7c0.5,0,0.9,0.3,1,0.8c0,0.2,0,0.5,0.1,0.7
				c0.2,2.5,0.2,9.3,0.3,9.6C233.7,77.3,233.9,76.9,234.1,76.6z"/>
			<path class="st42" d="M270.8,68.3c0-0.3,0-0.6,0.1-0.9c0.2-0.5,0.5-0.7,1.1-0.7c0.5,0,0.8,0.3,0.9,0.7c0,0.2,0.1,0.4,0.1,0.7
				c0.1,2.1,0.8,22.2,0.9,24.2c0,0.2,0,0.5,0,0.7c-0.1,0.7-0.6,1.1-1.2,1.1c-0.6,0-1-0.4-1.1-1c-0.1-0.4-0.1-0.8-0.1-1.1
				c0-1.7-0.2-5-0.3-6.7c-0.4,0.3-0.4,0.6-0.5,0.9c-0.7,1.5-1.5,2.9-2.6,4.2c-0.5,0.5-0.9,1.1-1.5,1.5c-2.1,1.7-4.5,2.1-7,1.1
				c-1.4-0.5-2.6-1.4-3.6-2.5c-1.3-1.4-2.3-3-2.9-4.8c-1.1-3.2-1.4-6.6-0.7-10c0.4-1.5,0.9-2.9,1.8-4.1c1.3-1.9,3.1-3.1,5.4-3.6
				c1.8-0.3,3.5-0.1,5.2,0.6c2.3,0.9,4.3,2.4,5.6,4.5c0.1,0.2,0.3,0.4,0.5,0.8C270.7,71.8,270.7,70,270.8,68.3z M255.2,84.7
				c0.5,1.6,1.4,3,2.6,4.2c0.7,0.8,1.6,1.4,2.6,1.8c1.6,0.6,3.1,0.4,4.4-0.6c0.4-0.4,0.8-0.7,1.2-1.2c0.8-0.9,1.4-1.9,2-3
				c0.9-1.7,1.6-3.4,2.1-5.3c0.3-0.9,0.2-1.9-0.1-2.8c-0.5-1.4-1.1-2.7-1.9-3.9c-1.2-1.8-2.9-2.9-4.9-3.5c-2.9-0.9-5.5,0-7.1,2.5
				c-0.5,0.7-0.9,1.5-1.1,2.3c-0.4,1.3-0.5,2.6-0.6,4C254.3,81.1,254.6,83,255.2,84.7z"/>
			<path class="st42" d="M280.6,90.3c0,0.8,0.1,1.6,0.1,2.4c0,0.3,0,0.6-0.2,0.9c-0.2,0.4-0.7,0.6-1.1,0.6c-0.5,0-0.9-0.4-1.1-0.8
				c0-0.2,0-0.5-0.1-0.7c0-2.2-0.1-4.5-0.2-6.7c-0.1-3.5-0.2-7.1-0.3-10.6c0-2.3,0-4.6,0-6.8c0-1.2,0.2-1.4,1.5-1.6
				c1.9-0.4,3.7,0,5.3,0.8c2,1,3.4,2.5,4.5,4.3c0.9,1.4,1.4,3,1.5,4.6c0.3,4.3-2.3,7.7-5.8,9.2c-1,0.4-2.1,0.7-3.2,0.8
				c-0.3,0-0.6,0.1-1,0.2C280.6,88,280.6,89.2,280.6,90.3z M281,84.5c0.4-0.1,0.7-0.1,1.1-0.2c3.1-0.6,5-2.3,5.8-5.1
				c1.1-4.1-1.4-7.9-4.3-9.5c-0.7-0.4-1.4-0.6-2.1-0.7c-0.5-0.1-0.9-0.2-1.4,0c0,0.1-0.1,0.2-0.1,0.3c0.4,5,0.3,10.1,0.5,15.3
				C280.7,84.5,280.8,84.5,281,84.5z"/>
			<path class="st42" d="M297.4,90.3c0,0.8,0.1,1.6,0.1,2.4c0,0.3,0,0.6-0.2,0.9c-0.2,0.4-0.7,0.6-1.1,0.6c-0.5,0-0.9-0.4-1.1-0.8
				c0-0.2,0-0.5-0.1-0.7c0-2.2-0.1-4.5-0.2-6.7c-0.1-3.5-0.2-7.1-0.3-10.6c0-2.3,0-4.6,0-6.8c0-1.2,0.2-1.4,1.5-1.6
				c1.9-0.4,3.7,0,5.3,0.8c2,1,3.4,2.5,4.5,4.3c0.9,1.4,1.4,3,1.5,4.6c0.3,4.3-2.3,7.7-5.8,9.2c-1,0.4-2.1,0.7-3.2,0.8
				c-0.3,0-0.6,0.1-1,0.2C297.3,88,297.3,89.2,297.4,90.3z M297.7,84.5c0.4-0.1,0.7-0.1,1.1-0.2c3.1-0.6,5-2.3,5.8-5.1
				c1.1-4.1-1.4-7.9-4.3-9.5c-0.7-0.4-1.4-0.6-2.1-0.7c-0.5-0.1-0.9-0.2-1.4,0c0,0.1-0.1,0.2-0.1,0.3c0.4,5,0.3,10.1,0.5,15.3
				C297.5,84.5,297.6,84.5,297.7,84.5z"/>
			<path class="st42" d="M324.9,81.6c-0.7,1.3-1.8,2.5-3.1,3.4c-1.4,0.9-2.9,1.1-4.5,0.5c-0.7-0.2-1.3-0.6-1.8-1
				c-0.9-0.7-1.6-1.6-2.1-2.7c-0.5-1.1-0.9-2.3-1.2-3.5c-0.5-2.4-0.9-4.8-0.9-7.2c0-1.1,0.2-2.2,0.2-3.3c0-0.2,0.1-0.4,0.2-0.5
				c0.2-0.4,0.6-0.7,1-0.6c0.5,0,0.9,0.4,0.9,0.9c0,0.2,0,0.5,0,0.8c0,1.8,0,3.5,0.2,5.3c0.2,1.8,0.5,3.5,1,5.2
				c0.2,0.7,0.5,1.4,0.9,2.2c0.4,0.7,0.9,1.3,1.5,1.8c0.2,0.2,0.5,0.4,0.8,0.5c0.9,0.4,1.8,0.4,2.7-0.3c0.9-0.6,1.6-1.4,2.1-2.4
				c0.5-0.9,0.9-1.8,1.2-2.7c0.6-1.7,0.9-3.5,1.2-5.3c0.2-1.3,0.4-3,0.6-4.3c0-0.2,0-0.3,0.1-0.5c0.1-0.6,0.6-1,1.1-1.1
				c0.5,0,1.1,0.4,1.2,1c0.1,0.3,0.2,0.6,0.2,0.9c0,0.5,0,1.4,0,1.9c0,3.8-0.1,7.5-0.4,11.2c-0.2,1.8-0.4,3.7-0.9,5.5
				c-0.3,1-0.7,2-1.2,3c-1.3,2.7-4.2,4.3-7.6,3.9c-1.3-0.2-2.5-0.7-3.5-1.5c-0.4-0.2-0.5-0.6-0.5-1c0-0.9,0.9-1.4,1.7-1.1
				c0.3,0.2,0.5,0.4,0.8,0.5c2.3,1.5,5.6,0.6,6.8-1.8c0.8-1.5,1.3-3.1,1.6-4.8c0.2-1.1,0.3-2.2,0.4-3.3c0-0.1,0-0.2,0-0.3
				C325.1,81.1,325.1,81.4,324.9,81.6z"/>
		</g>
		<g>
			<path class="st42" d="M209.4,111.5c1.3-1.1,2.8-1.8,4.5-2.1c1.7-0.4,3.3-0.2,4.8,0.5c1.8,0.7,3.1,1.9,4,3.5
				c1,1.6,1.6,3.4,1.8,5.2c0.2,1.4,0.2,2.9-0.2,4.3c-0.7,3.1-2.6,5.2-5.6,6.4c-3.2,1.3-6.2,1.1-9.2-0.5c-0.2-0.1-0.4-0.2-0.5-0.3
				c-0.2,0.3-0.1,0.5-0.1,0.8c-0.1,0.7-0.5,1.1-1.1,1.1c-0.7,0-1.2-0.4-1.3-1.1c-0.1-0.7,0-1.4-0.1-2.1c-0.1-5.2-0.3-10.4-0.4-15.6
				c-0.1-2.3-0.1-4.7-0.1-7c0-0.3,0-0.5,0-0.7c0.1-0.5,0.5-1,1.1-1c0.5,0,1,0.4,1.1,1c0.1,0.9,0.2,1.7,0.2,2.5
				c0.1,1.6,0.1,3.3,0.2,5c0,0.2,0,0.5,0.1,0.9C209,111.9,209.2,111.7,209.4,111.5z M210.1,126.3c2.5,1.8,5.3,2.1,8.1,0.8
				c2.1-0.9,3.4-2.5,3.9-4.6c0.6-2.9,0.1-5.7-1.5-8.3c-0.7-1.2-1.8-2-3.2-2.4c-0.9-0.3-1.8-0.4-2.8-0.2c-2.4,0.5-4.1,1.9-5.6,3.7
				c-0.3,0.3-0.3,0.7-0.3,1.1c0.1,1.8,0.1,3.5,0.2,5.3c0,1.2,0.1,2.5,0.1,3.7C209.4,125.8,209.7,126.1,210.1,126.3z"/>
			<path class="st42" d="M229.5,107c-0.9,0-1.8-0.9-1.8-2c0-1,0.9-2,1.8-1.9c1.1,0,2,1,2,2.1C231.6,106.2,230.7,107,229.5,107z
				 M231.1,123.6c0,1.7,0.2,3.4,0.2,5.2c0,0.3,0,0.6,0,0.9c-0.1,0.5-0.5,0.9-0.9,0.9c-0.5,0.1-1-0.2-1.3-0.6
				c-0.1-0.3-0.2-0.6-0.2-0.9c-0.2-2.6-0.3-5.2-0.3-7.8c0-2.4-0.1-4.8-0.1-7.2c0-1.7,0.1-3.4,0.1-5c0-0.2,0-0.5,0.1-0.7
				c0.1-0.4,0.5-0.7,1-0.7s0.9,0.2,1,0.7c0.1,0.3,0.1,0.7,0.2,1c0.1,3.3,0.2,6.6,0.2,9.6C231.1,120.6,231.1,122.1,231.1,123.6z"/>
			<path class="st42" d="M249.4,105.2c-0.2,0.5-0.8,0.8-1.5,0.7c-0.5-0.1-0.9-0.3-1.4-0.4c-2.2-0.4-4.6,0.2-6.1,2.3
				c-0.7,1.1-1.1,2.3-1.4,3.6c-0.4,1.6-0.5,3.2-0.7,4.9c-0.2,2.4-0.2,4.9-0.1,7.4c0.1,1.7,0.1,3.4,0.2,5c0,0.3,0,0.6,0,0.9
				c-0.1,0.5-0.4,0.8-0.9,0.9c-0.5,0.1-1-0.1-1.3-0.5c-0.2-0.3-0.2-0.6-0.2-0.9c-0.1-2-0.2-4-0.2-5.9c-0.1-4.1-0.2-8.3-0.3-12.4
				c0-2.2,0.1-4.3,0.1-6.4c0-0.2,0-0.4,0.1-0.5c0.1-0.5,0.5-0.9,1-0.9c0.6,0,1,0.3,1.1,0.9c0,0.3,0,0.6,0,0.9c0,0.7,0,1.3,0.1,2
				c0,0.2,0,0.3,0.1,0.5c0.2-0.4,0.4-0.5,0.5-0.7c2.4-3.5,6.4-3.9,9.3-3.1c0.3,0.1,0.7,0.2,1,0.4
				C249.4,104.1,249.6,104.7,249.4,105.2z"/>
			<path class="st42" d="M255.5,104.5c0-0.2,0-0.4,0.1-0.6c0.2-0.4,0.6-0.7,1-0.7c0.4,0,0.9,0.3,1,0.7c0.1,0.2,0.1,0.5,0.1,0.8
				c0.3,3,0.7,14.9,0.7,15.1c0.2,0,2.1,0,2.8,0c0.3,0,0.5,0,0.8,0.1c0.5,0.1,0.9,0.5,0.9,1c0,0.5-0.2,0.9-0.8,1.1
				c-0.3,0.1-0.6,0.1-0.9,0.2c-0.6,0-2.3,0.1-2.5,0.1c-0.1,1.6,0,6.5,0,7c0,0.2,0,0.4-0.1,0.5c-0.1,0.5-0.6,0.9-1.1,0.9
				c-0.5,0-1-0.4-1.1-0.9c-0.1-0.3-0.1-0.6-0.1-0.9c-0.1-1.9-0.2-6.2-0.3-6.5c-0.5-0.2-2.5-0.1-3.1-0.2c-0.5,0-0.9-0.4-0.9-0.8
				c-0.1-0.5,0.3-1,0.9-1.1c0.5-0.1,2.5-0.2,3.1-0.2C255.8,119.6,255.4,105.9,255.5,104.5z"/>
			<path class="st42" d="M270,113c0.9-1.2,2.1-2.1,3.5-2.7c2.3-1,4.7-0.6,6.5,1.1c1,0.9,1.7,2,2.2,3.2c0.7,1.6,1.1,3.2,1.4,4.9
				c0.5,3.1,0.7,6.2,0.8,9.3c0,0.2,0,0.4,0,0.5c-0.1,0.5-0.4,0.9-0.9,1c-0.5,0.1-1.1-0.2-1.3-0.7c-0.1-0.2-0.2-0.5-0.2-0.8
				c-0.1-0.9-0.1-1.9-0.2-2.8c-0.1-2-0.3-4.1-0.6-6.1c-0.2-1.3-0.5-2.6-1-3.8c-0.4-1-0.9-2-1.6-2.8c-0.4-0.4-0.9-0.8-1.5-1.1
				c-0.6-0.2-1.3-0.3-2-0.1c-1.3,0.4-2.4,1.1-3.2,2.2c-0.4,0.5-0.7,1.1-1,1.7c-0.8,1.8-1.3,3.8-1.4,5.8c-0.2,2.3,0,4.5,0,6.7
				c0,0.3,0,0.5,0,0.8c-0.1,0.7-0.6,1.1-1.2,1c-0.6,0-1-0.4-1.1-1c0-0.4-0.1-0.8-0.1-1.2c0-3.1-0.1-6.1-0.1-9.2
				c0-3.5-0.1-13.2-0.1-14.6c0-0.3,0-0.5,0.1-0.7c0.2-0.5,0.5-0.7,1.1-0.7c0.5,0,0.9,0.3,1,0.8c0,0.2,0,0.5,0.1,0.7
				c0.2,2.5,0.2,9.3,0.3,9.6C269.5,113.6,269.8,113.2,270,113z"/>
			<path class="st42" d="M303.5,108.6c0-1.5,0-3,0-4.5c0-0.1,0-0.3,0.1-0.4c0.1-0.5,0.4-0.7,0.9-0.8c0.5,0,0.9,0.3,1,0.7
				c0.1,0.4,0.1,0.9,0.2,1.3c0.1,1.8,0.2,3.6,0.2,5.4c0.1,4.2,0.2,8.5,0.4,12.7c0,2,0.1,3.9,0.2,5.8c0,0.2,0,0.5-0.1,0.7
				c-0.1,0.5-0.5,0.7-1,0.7c-0.5,0-0.9-0.2-1-0.7c-0.1-0.3-0.1-0.5-0.2-0.8c0-0.6,0-1.2,0-1.7c-0.3-0.1-0.4,0.1-0.5,0.2
				c-0.9,0.9-1.9,1.7-3.1,2.2c-2.9,1.4-5.7,1-8.3-1c-2.1-1.6-3.2-3.8-3.6-6.3c-0.4-2,0-3.9,0.4-5.8c0.3-1,0.6-1.9,1.1-2.8
				c1.4-2.5,3.5-4.1,6.4-4.6c1.3-0.2,2.5,0,3.8,0.4c1,0.3,1.9,0.8,2.7,1.4c0.2,0.2,0.4,0.3,0.7,0.6
				C303.6,110.4,303.5,109.5,303.5,108.6z M303.8,118.3c0-0.9-0.1-1.7-0.1-2.6c0-0.3-0.1-0.6-0.3-0.9c-1-1.3-2.1-2.3-3.6-3
				c-2.5-1.1-5.2-0.2-6.6,1.3c-0.7,0.7-1.2,1.5-1.6,2.4c-0.4,1.1-0.7,2.2-0.9,3.3c-0.2,1.3-0.2,2.7,0.2,4c0.5,1.6,1.3,3,2.6,4
				c1.8,1.4,3.8,1.7,5.9,0.7c1-0.5,1.9-1.2,2.6-2c0.5-0.6,1-1.3,1.5-1.9c0.2-0.3,0.3-0.5,0.3-0.8c0-1.1,0-2.2-0.1-3.3
				C303.8,119.1,303.8,118.7,303.8,118.3z"/>
			<path class="st42" d="M329.2,104.6c0-0.3,0-0.6,0.1-0.9c0.2-0.5,0.5-0.7,1.1-0.7c0.5,0,0.8,0.3,0.9,0.7c0,0.2,0.1,0.4,0.1,0.7
				c0.1,2.1,0.8,22.2,0.9,24.2c0,0.2,0,0.5,0,0.7c-0.1,0.7-0.6,1.1-1.2,1.1c-0.6,0-1-0.4-1.1-1c-0.1-0.4-0.1-0.8-0.1-1.1
				c0-1.7-0.2-5-0.3-6.7c-0.4,0.3-0.4,0.6-0.5,0.9c-0.7,1.5-1.5,2.9-2.6,4.2c-0.5,0.5-0.9,1.1-1.5,1.5c-2.1,1.7-4.5,2.1-7,1.1
				c-1.4-0.5-2.6-1.4-3.6-2.5c-1.3-1.4-2.3-3-2.9-4.8c-1.1-3.2-1.4-6.6-0.7-10c0.4-1.5,0.9-2.9,1.8-4.1c1.3-1.9,3.1-3.1,5.4-3.6
				c1.8-0.3,3.5-0.1,5.2,0.6c2.3,0.9,4.3,2.4,5.6,4.5c0.1,0.2,0.3,0.4,0.5,0.8C329.2,108.1,329.2,106.3,329.2,104.6z M313.6,121.1
				c0.5,1.6,1.4,3,2.6,4.2c0.7,0.8,1.6,1.4,2.6,1.8c1.6,0.6,3.1,0.4,4.4-0.6c0.4-0.4,0.8-0.7,1.2-1.2c0.8-0.9,1.4-1.9,2-3
				c0.9-1.7,1.6-3.4,2.1-5.3c0.3-0.9,0.2-1.9-0.1-2.8c-0.5-1.4-1.1-2.7-1.9-3.9c-1.2-1.8-2.9-2.9-4.9-3.5c-2.9-0.9-5.5,0-7.1,2.5
				c-0.5,0.7-0.9,1.5-1.1,2.3c-0.4,1.3-0.5,2.6-0.6,4C312.8,117.5,313,119.3,313.6,121.1z"/>
			<path class="st42" d="M349.9,117.9c-0.7,1.3-1.8,2.5-3.1,3.4c-1.4,0.9-2.9,1.1-4.5,0.5c-0.7-0.2-1.3-0.6-1.8-1
				c-0.9-0.7-1.6-1.6-2.1-2.7c-0.5-1.1-0.9-2.3-1.2-3.5c-0.5-2.4-0.9-4.8-0.9-7.2c0-1.1,0.2-2.2,0.2-3.3c0-0.2,0.1-0.4,0.2-0.5
				c0.2-0.4,0.6-0.7,1-0.6c0.5,0,0.9,0.4,0.9,0.9c0,0.2,0,0.5,0,0.8c0,1.8,0,3.5,0.2,5.3c0.2,1.8,0.5,3.5,1,5.2
				c0.2,0.7,0.5,1.4,0.9,2.2c0.4,0.7,0.9,1.3,1.5,1.8c0.2,0.2,0.5,0.4,0.8,0.5c0.9,0.4,1.8,0.4,2.7-0.3c0.9-0.6,1.6-1.4,2.1-2.4
				c0.5-0.9,0.9-1.8,1.2-2.7c0.6-1.7,0.9-3.5,1.2-5.3c0.2-1.3,0.4-3,0.6-4.3c0-0.2,0-0.3,0.1-0.5c0.1-0.6,0.6-1,1.1-1.1
				c0.5,0,1.1,0.4,1.2,1c0.1,0.3,0.2,0.6,0.2,0.9c0,0.5,0,1.4,0,1.9c0,3.8-0.1,7.5-0.4,11.2c-0.2,1.8-0.4,3.7-0.9,5.5
				c-0.3,1-0.7,2-1.2,3c-1.3,2.7-4.2,4.3-7.6,3.9c-1.3-0.2-2.5-0.7-3.5-1.5c-0.4-0.2-0.5-0.6-0.5-1c0-0.9,0.9-1.4,1.7-1.1
				c0.3,0.2,0.5,0.4,0.8,0.5c2.3,1.5,5.6,0.6,6.8-1.8c0.8-1.5,1.3-3.1,1.6-4.8c0.2-1.1,0.3-2.2,0.4-3.3c0-0.1,0-0.2,0-0.3
				C350,117.4,350,117.7,349.9,117.9z"/>
		</g>
	</g>
	<g>
		<path class="st47" d="M237.2,200.5c-3.8-0.3-7.5-0.6-11.3-0.9l-0.3,1.1c-0.1,2.7-0.2,5.4-0.2,8.1c0,0.5,0,1.1,0,1.6
			c-0.1,2.8-0.2,5.6-0.2,8.4c3.8-1.9,8-2.8,12.3-2.8c0.2,0,0.4,0,0.6-0.2c0.2-0.1,0.2-0.4,0.2-0.6
			C238,210.3,236.1,205.3,237.2,200.5z"/>
	</g>
	<g>
		<path class="st43" d="M208.5,155l0.1,0.4c0.8,0.7,1.1,1.9,1.3,3c0.6,3.3,0.8,6.7,0.7,10.1c0,0.4,0,0.8,0.4,1c0.1,0,0.3,0,0.4,0
			c2.6-0.3,5.1-0.7,7.7-1c0.3,0,0.7-0.1,1-0.3c0.5-0.3,0.8-1,0.9-1.6c0.9-2.9,1.8-5.7,2.7-8.6C218.5,157.2,213.4,156.2,208.5,155z"
			/>
	</g>
	<g>
		<path class="st46" d="M190.9,296.4c0,3.8,0,7.6,0,11.4c0,0.2,0,0.3,0.1,0.5c0.1,0.1,0.3,0.1,0.4,0.1c3.2,0,6.5,0,9.7,0
			c0.1,0,0.3,0,0.4-0.1c0.1-0.1,0.1-0.3,0.1-0.4c0.2-2.6-1.7-4.8-3.7-6.5c-2.1-1.8-4.5-3.4-6.9-4.9"/>
	</g>
	<g>
		<path class="st43" d="M160.8,315.2c-1-2.3-1.9-4.6-2.9-7c-0.1-0.2-0.2-0.4-0.3-0.5c-0.2-0.2-0.5-0.2-0.8-0.1
			c-4,0.2-8-0.3-11.8-1.4l0.3,0.7c0,2.2,0,4.4,0,6.5c0,0.4,0,0.9,0.3,1.2c0.2,0.2,0.6,0.3,0.9,0.3c4.3,0.6,8.6,1.2,12.9,1.7
			c0.6,0.1,1.3,0.1,1.5-0.5C161.1,315.9,161,315.5,160.8,315.2z"/>
	</g>
	<path class="st45" d="M203,336.3c-0.1,0.2-0.2,0.3-0.4,0.4c-2.4-5.3-10.6-3.8-9.3,2.6c0.4,2.3,2.3,3.8,4.5,4.3
		c-0.7,1.5-1.8,2.4-3.3,2.8c0.2-1.7,0.1-3.4-0.5-5c-1.9-5.2-9.3-4.7-10.5,0.7c-0.8,3.6,1.3,6.4,4.2,7.9c-1,1.1-2.4,1.8-4.1,2.2
		c-1.7,0.4-3.5,0.6-5.3,0.5c0.5-0.4,1-0.9,1.3-1.4c3.5-4.8-0.6-10.9-6.3-9.7c-4.4,0.9-6.8,5.3-6,9.3c-3,0.2-6,0.1-9.1-0.3
		c-3.1-0.4-3.1,4.5,0,4.9c3.3,0.4,8,0.8,12.3,0.2c4.5,3.1,12.3,2.4,17,0.2c2.1-0.9,3.8-2.6,5-4.5c1,0.1,2,0,2.9-0.1
		c4.2-0.8,6.9-4.6,7.6-8.6c1.6-1,2.9-2.4,4-3.9C209.1,336.3,204.8,333.9,203,336.3z M174.9,349.3c-0.5,0.6-1.4,0.9-2.5,1.2
		c0.1-1,0.2-2,0.3-3.1C175.5,345.6,176.2,346.2,174.9,349.3z M189.5,343.6c0.2,0.6,0.1,1.3,0,2c-0.3-0.3-0.5-0.6-0.6-1
		C187.7,343.5,187.9,343.1,189.5,343.6z"/>
	<path class="st47" d="M117.4,338.5c0.5-0.7,0.8-1.5,0.6-2.7c-0.1-0.8-1-1.5-1.7-1.7c-0.7-0.2-1.4-0.2-2.1-0.1
		c0.9-0.6,1.7-1.3,2.1-2.2c1.1-2.3-0.4-4.1-2.6-4.6c-1.1-0.3-2.2-0.3-3.3,0c0.7-0.7,1.3-1.4,1.8-2.2c0.7-1.2,0.1-3.4-1.5-3.6
		c-4.7-0.6-9.4-1.1-13.5,1.7c-2.6,1.7-0.2,6,2.5,4.2c1.7-1.1,3.5-1.5,5.3-1.6c-1.9,1.5-4,2.9-5.2,5.2c-0.6,1.2-0.3,2.6,0.9,3.3
		c1.2,0.8,2.5,1,3.8,0.9c-0.8,1.2-1.5,2.7-1.1,4c0.5,1.5,2.1,2.3,3.6,2.5c1.2,0.2,2.4-0.1,3.5-0.6c0.1,0,0.2-0.1,0.2-0.1
		c0,0.9,0.4,1.8,1.2,2.3c1.8,1.2,4.1,0.8,6,0.2C120.7,342.5,119.8,338.5,117.4,338.5z"/>
</g>
</svg>
