<?xml version="1.0" encoding="utf-8"?>
<!-- Generator: Adobe Illustrator 19.2.1, SVG Export Plug-In . SVG Version: 6.00 Build 0)  -->
<svg version="1.1" id="Calque_1" xmlns="http://www.w3.org/2000/svg" xmlns:xlink="http://www.w3.org/1999/xlink" x="0px" y="0px"
	 viewBox="0 0 432 432" style="enable-background:new 0 0 432 432;" xml:space="preserve">
<style type="text/css">
	.st0{fill:#FF8AA4;}
	.st1{fill:#FF577D;}
	.st2{fill:#FF7091;}
	.st3{fill:#574C42;}
	.st4{fill:#82B046;}
	.st5{fill:#2E2823;}
	.st6{fill:#638A30;}
	.st7{fill:#221F20;}
	.st8{fill:#998675;}
	.st9{fill:#BDCCD4;}
	.st10{fill:#FFAF59;}
	.st11{fill:#D9CEC5;}
</style>
<g>
	<g>
		<path class="st1" d="M193.2,145.4c6.6-4.8,13.9-7.6,22.1-8.1c8-0.5,15.7,0.8,22.9,4.8c1.4-5.4,2.5-10.7,3.1-16
			c0.1-0.6-0.2-0.8-0.6-1.1c-1.5-0.9-3.1-1.7-4.8-2.3c-8.4-2.9-17.1-4.1-26-2.6c-6.3,1.1-12,3.3-17,7.3c-1.3,1-2,2.2-2.2,3.8
			c-0.3,1.9-0.3,3.7,0,5.6C191.3,139.7,192.2,142.5,193.2,145.4z"/>
		<g>
			<path class="st0" d="M188.4,132c-0.5,0.3-0.7,0.6-1,0.9c-1.3,1.6-2.5,3.4-3.4,5.2c-4.9,9.2-5.8,18.9-4.2,29.1
				c1,6.1,2.9,11.9,5,17.6c4.1,11,8.9,21.8,14.8,32c0.2,0.4,0.3,0.8,0.8,1.1c0.4-0.7,0.8-1.4,1.2-2.2c4.7-8.2,9.4-16.4,13.8-24.7
				c0.3-0.6,0.5-1,0.1-1.7c-4.2-6.9-8.4-13.8-12.6-20.7c-3.2-5.3-6.4-10.5-9.1-16.1c-1-2.1-2-4.2-2.8-6.3
				C189.5,141.7,188,137.1,188.4,132z"/>
			<path class="st0" d="M250.6,247.6c-0.1,0.1-0.3,0.2-0.4,0.3c-6.3,6.4-13.1,12.2-20.6,17.3c-0.7,0.5-0.7,0.5-0.2,1.4
				c2.6,4.7,5.2,9.3,7.7,14c0.2,0.3,0.3,0.6,0.6,0.8c0.2-0.1,0.5-0.3,0.7-0.4c7.1-4.8,13.6-10.5,19.7-16.6c0.5-0.5,0.6-1,0.3-1.6
				c-2.2-4.9-4.6-9.8-7.3-14.5C251,248,250.9,247.7,250.6,247.6z"/>
			<path class="st0" d="M221.8,253.2c1.7-1.3,3.2-2.5,4.5-3.8c4-3.8,8-7.6,12-11.5c1.2-1.2,2.4-2.4,3.4-3.7c0.7-0.9,0.7-0.9,0.1-1.8
				c-2.4-3.9-4.7-7.8-7.1-11.7c-0.1-0.2-0.2-0.5-0.5-0.5c-0.4,0.4-0.6,0.9-0.8,1.4c-3,6.1-6.2,12.1-9.4,18c-1.5,2.7-3,5.4-4.5,8.1
				c-0.2,0.4-0.5,0.8-0.1,1.4C220.2,250.4,221,251.8,221.8,253.2z"/>
			<path class="st0" d="M263.8,278.1c-0.7,0.7-1.1,1.1-1.6,1.6c-4,3.7-8.1,7.4-12.5,10.7c-1.5,1.2-2.9,2.5-4.7,3.4
				c-0.4,0.2-0.5,0.5-0.2,0.9c0.1,0.1,0.2,0.3,0.2,0.4c2.7,5.4,5.5,10.8,7.4,16.6c0.1,0.2,0.2,0.4,0.3,0.7c0.5-0.5,0.8-1.1,1.2-1.7
				c1.6-2.7,2.8-5.6,3.8-8.6c1.8-5.7,3.9-11.3,5.3-17.2C263.6,282.9,263.9,280.7,263.8,278.1z"/>
		</g>
		<g>
			<path class="st0" d="M243.5,127c-0.3,0.4-0.3,0.7-0.3,1c-0.9,6.5-2.1,13-4.2,19.3c-2.7,8.5-6.5,16.6-10.6,24.6
				c-4.2,8.3-8.8,16.4-13.3,24.6c-4.7,8.7-9.6,17.3-14.4,25.9c-2.3,4-4.5,8-6.8,12c-0.3,0.5-0.3,0.8,0.2,1.2c2.1,1.5,4.1,3.2,6,5
				c3.9,3.6,8.1,6.7,12.7,9.4c1.8,1,1.3,1.3,2.4-0.6c2-3.6,4-7.2,6-10.8c3.6-6.3,6.7-12.8,10.4-18.9c0.2-0.4,0.4-0.8,0.6-1.2
				c1.3-2.8,2.5-5.7,3.8-8.5c3.7-8.1,7-16.3,10-24.7c3-8.6,5.6-17.2,6.2-26.3c0.4-6.7,0.1-13.3-1.8-19.8c-1-3.4-2.4-6.7-4.6-9.6
				C245.2,128.6,244.4,127.8,243.5,127z"/>
			<path class="st0" d="M173.9,267.2c2.8,1.9,5.4,3.9,8,5.9c1.8,1.4,3.6,2.5,5.6,3.6c2.8,1.5,5.6,2.9,8.4,4.2
				c0.9,0.4,0.9,0.4,1.4-0.5c3-5.3,6.1-10.6,9.1-15.9c0.2-0.3,0.5-0.6,0.4-1c-8.1-3.7-14.9-9.3-20.8-16.1
				C182.1,254.1,178.3,260.7,173.9,267.2z"/>
			<path class="st0" d="M167.1,281c4.8,10.2,9.1,20.5,13.5,31c3.1-5.6,5.6-11.3,8.6-16.8C180.8,291.9,173.7,286.8,167.1,281z"/>
		</g>
	</g>
	<g>
		<g>
			<path class="st1" d="M378,238.7c-0.2-0.3-0.5-0.2-0.7-0.2c-3.6,0.1-7.1-0.2-10.6-0.8c-8.4-1.3-16.7-3.3-24.7-6.1
				c-8.7-3-16.8-7-23.9-13.1c-0.5-0.4-0.7-0.3-1.1,0.1c-1.3,1.3-2.6,2.6-4,3.8c-0.4,0.4-0.6,0.8-0.5,1.4c0.4,2,0.8,4.1,1.2,6.2
				c0.1,0.6,0.4,1.1,0.9,1.6c2.6,2.3,5.3,4.5,8.2,6.4c8.9,5.8,18.3,10.5,28.3,14c6.7,2.3,13.7,3.7,20.7,4.4c0.3,0,0.7,0.2,1.1-0.2
				c-0.8-0.6-1.4-1.1-2.1-1.6c-0.9-0.7-1.8-1.4-2.6-2.2c-1.7-1.7-3.4-3.4-5-5.1c-0.9-0.9-0.8-1.9,0.4-2.6c0.7-0.4,1.4-0.6,2.1-0.8
				c4-1.3,7.9-2.5,11.5-4.6C377.4,239.2,377.8,239.1,378,238.7z"/>
			<path class="st1" d="M249.1,185.8c-0.2,0.1-0.2,0.3-0.3,0.4c-1.5,4.2-3.1,8.3-4.7,12.4c-0.2,0.6-0.1,0.9,0.3,1.3
				c2.5,2.4,5,4.7,7.6,7c9.7,8.5,20.9,13.7,33.6,15.5c0.5,0.1,0.9,0,1.3-0.3c2.3-1.6,4.6-3.2,6.9-4.8c0.4-0.3,0.6-0.6,0.5-1.1
				c-0.6-2.2-1-4.4-1.3-6.7c-0.1-0.6-0.4-0.8-1-0.9c-1.3-0.1-2.5-0.3-3.7-0.5c-4.3-0.5-8.5-1.7-12.4-3.6
				c-9.6-4.6-18.1-10.8-25.8-18.1C249.7,186.3,249.5,185.9,249.1,185.8z"/>
		</g>
		<g>
			<path class="st0" d="M274.8,252.7c0.4,0,0.5-0.3,0.7-0.5c3.1-3.3,6.3-6.5,9.6-9.5c5.2-4.6,10.6-8.9,16.1-13.1
				c4.7-3.6,9-7.5,13.3-11.5c4.1-3.8,7.5-8.1,10.6-12.7c2.6-4,4.4-8.3,5-13c0.4-2.8,0.4-5.6-0.4-8.3c-0.1-0.3-0.1-0.7-0.6-1
				c-0.3,2.1-1.1,3.9-2,5.6c-2.4,4.6-5.6,8.7-9.1,12.4c-2,2.1-4.3,4-6.5,5.8c-4.1,3.3-8.1,6.6-12.4,9.6c-1.6,1.1-3.3,2.3-4.9,3.5
				c-3,2.2-6,4.3-9.1,6.3c-2.4,1.6-4.8,3.2-7.1,4.9c-1.5,1.1-2.9,2.3-4,3.8c-0.9,1.2-1.2,2.5-0.9,3.9c0.7,3.3,1.1,6.6,1.5,9.9
				C274.5,250.2,274.6,251.4,274.8,252.7z"/>
			<g>
				<path class="st0" d="M305.8,266.3c1-0.7,1.9-1.3,2.8-2c2.6-1.9,5.1-3.9,7.3-6.1c0.9-0.9,1.1-1.8,0.9-3c-0.2-0.8-0.4-1.6-0.6-2.4
					c-2.3-7.9-4.2-15.9-5.7-23.9c-0.2-1.1-0.3-2.2-0.7-3.2c-0.4,0.1-0.7,0.4-0.9,0.7c-2.2,2-4.5,4-6.9,5.8c-0.7,0.5-0.8,1.1-0.6,1.8
					c1.1,4.4,2,8.9,2.6,13.4c0.8,5.9,1.6,11.8,1.7,17.8C305.6,265.4,305.5,265.8,305.8,266.3z"/>
				<path class="st0" d="M296.9,215.1c3.5-2.4,6.7-4.9,9.9-7.5c0.3-0.3,0.4-0.6,0.3-1c-0.2-1.3-0.3-2.7-0.5-4
					c-0.7-5-1.4-10.1-1.3-15.1c0-3.6,0.6-7.2,2.2-10.5c0.1-0.2,0.3-0.4,0-0.7c-2,0.9-3.7,2.2-5.3,3.7c-5.6,5.5-7.9,12.2-7.6,19.9
					c0.1,2.8,0.4,5.6,0.9,8.4C295.9,210.5,296.3,212.7,296.9,215.1z"/>
			</g>
			<path class="st1" d="M324.5,188c0.9-1.1,2.3-3.9,2.7-5.5c0.2-0.7,0.2-1.3,0.2-2c0-0.4-0.1-0.8-0.4-1.1c-4.4-4.7-10-6.1-15.7-4.6
				c-0.5,0.1-0.8,0.4-1,0.8c-1.2,2.1-2,4.3-2.2,6.6c-0.1,0.8-0.1,0.8,0.8,0.8c0.2,0,0.4,0,0.6,0c4.7,0,9.2,0.9,13.1,3.6
				C323.3,187.1,323.9,187.6,324.5,188z"/>
		</g>
	</g>
	<g>
		<g>
			<path class="st1" d="M54,238.4c0.3,0.7,0.8,0.8,1.1,1c3.6,2,7.5,3.3,11.4,4.5c0.7,0.2,1.4,0.4,2.1,0.8c1.2,0.7,1.3,1.7,0.3,2.7
				c-2.9,3-5.7,6.1-9.1,8.4c-0.2,0.1-0.6,0.3-0.4,0.6c0.3,0,0.6,0,0.9,0c5.9-0.6,11.7-1.6,17.4-3.3c10.5-3.2,20.2-7.9,29.5-13.6
				c3.7-2.3,7.2-4.9,10.4-7.9c0.5-0.4,0.8-0.9,0.9-1.6c0.4-2,0.7-4,1.1-6.1c0.2-0.7-0.1-1.2-0.6-1.6c-1.3-1.2-2.5-2.4-3.8-3.7
				c-0.6-0.6-0.6-0.6-1.3-0.1c-1.3,1.1-2.7,2.2-4.2,3.2c-7.1,5.1-15.1,8.4-23.3,11c-5.2,1.7-10.5,3-15.8,4
				c-3.7,0.7-7.4,1.4-11.2,1.6C57.7,238.5,56,238.4,54,238.4z"/>
			<path class="st1" d="M182.6,186.1c-0.2,0.1-0.3,0.2-0.4,0.3c-6,5.8-12.6,10.7-19.7,14.9c-4.3,2.6-8.8,4.8-13.8,6
				c-2.8,0.7-5.7,1-8.6,1.3c-0.7,0.1-0.9,0.3-1,1c-0.3,2.2-0.7,4.4-1.3,6.5c-0.1,0.5,0,0.9,0.4,1.2c2.4,1.6,4.7,3.2,7,4.9
				c0.4,0.3,0.7,0.3,1.2,0.2c1.2-0.2,2.4-0.4,3.6-0.6c9.1-1.7,17.4-5.3,24.8-10.7c4.6-3.4,8.8-7.3,12.9-11.2
				c0.5-0.5,0.4-0.8,0.2-1.3c-1.7-3.9-3.4-7.8-4.9-11.7C183,186.6,182.9,186.3,182.6,186.1z"/>
		</g>
		<g>
			<path class="st0" d="M157.1,252.8c0.1,0,0.2-0.1,0.3-0.1c0.1-0.7,0.1-1.5,0.2-2.2c0.4-3.8,0.7-7.5,1.6-11.2
				c0.3-1.5,0.1-2.8-0.8-4.1c-0.7-1.1-1.6-2-2.6-2.8c-2-1.6-4.1-3.1-6.2-4.5c-4.5-2.9-8.9-5.9-13.3-9.1c-3.6-2.6-7.3-5.2-10.8-8
				c-2.1-1.7-4.3-3.5-6.5-5.2c-5-4-9-9-12.5-14.4c-1.5-2.4-2.8-4.9-3.3-7.7c0-0.2-0.1-0.3-0.3-0.4c-0.3,0.3-0.3,0.7-0.4,1
				c-0.8,2.8-0.8,5.6-0.4,8.5c0.7,5.2,2.9,9.7,5.8,14c3.8,5.6,8.4,10.4,13.4,14.9c4.5,4,9.2,7.7,13.9,11.4
				c6.3,4.8,12.3,9.9,17.8,15.5C154.4,249.9,155.9,251.2,157.1,252.8z"/>
			<g>
				<path class="st0" d="M122.4,225.7c-0.3,0.4-0.3,0.7-0.3,1c-1,5.5-2.2,11-3.5,16.5c-1,3.9-2.2,7.7-3.1,11.6
					c-0.3,1.4-0.1,2.5,1,3.6c3,2.9,6.3,5.3,9.6,7.7c0.1,0.1,0.2,0.1,0.4,0c0.2-0.4,0.1-0.9,0.1-1.3c0.1-2.4,0.2-4.8,0.4-7.2
					c0.8-8,1.9-16,3.9-23.8c0.2-0.7,0-1.1-0.6-1.6c-2.4-1.9-4.8-3.9-7.1-6C123,226,122.8,225.7,122.4,225.7z"/>
				<path class="st0" d="M135,215c0.4-0.3,0.4-0.6,0.4-0.9c0.7-3.1,1.3-6.3,1.7-9.5c0.5-4,0.6-7.9-0.2-11.9
					c-1.5-6.9-5.2-12.2-11.2-15.8c-0.4-0.2-0.7-0.5-1.2-0.5c0,0.5,0.2,0.8,0.4,1.1c0.7,1.7,1.3,3.5,1.6,5.4
					c0.6,3.9,0.4,7.8,0.1,11.7c-0.4,4-0.9,7.9-1.5,11.8c-0.1,0.7,0.1,1.1,0.6,1.5c2.2,1.8,4.4,3.6,6.8,5.2
					C133.2,213.7,134.1,214.3,135,215z"/>
			</g>
			<path class="st1" d="M124,183c0-2.4-1.1-5.9-2.3-7.7c-0.3-0.4-0.6-0.5-1-0.6c-6-1.5-11.2,0.1-15.5,4.6c-0.3,0.4-0.5,0.7-0.5,1.2
				c0,2.9,1.5,5.1,2.9,7.6C112.3,183.9,118,182.9,124,183z"/>
		</g>
	</g>
	<g>
		<path class="st1" d="M237.9,240.9c-3.3,3.4-6.5,6.6-10,9.8c4.2,1.1,8.2,2.3,12.4,3C239.5,249.3,239,245.2,237.9,240.9z"/>
		<path class="st1" d="M184,277.3c0.3,4.1,0.1,7.8,0.4,11.8c3.6-2.1,7-4.2,10.6-6.3C191,281.4,187.6,279.5,184,277.3z"/>
		<path class="st1" d="M229.3,263.2c3.5-2.5,6.7-5,10-7.8c-4-0.8-7.7-1.8-11.6-3C228.3,256,228.8,259.5,229.3,263.2z"/>
		<path class="st1" d="M250.1,273.9c1.7,0.8,3.2,1.4,4.8,2c1.5,0.6,3,1.5,4.7,1.9c0.2-4.1-0.2-8-0.5-12.3
			C256.2,268.6,253.2,271.2,250.1,273.9z"/>
		<path class="st1" d="M249.8,286.4c0-1.9-0.9-10.5-1.2-11.1c-2.9,2.6-5.9,5.1-9.1,7.5C243,284.1,246.4,285.3,249.8,286.4z"/>
		<path class="st1" d="M239.9,241.9c0.9,3.9,1.3,7.6,2.1,11.3c2.8-2.1,5.2-4.2,7.4-6.9C246.2,244.8,243.1,243.6,239.9,241.9z"/>
		<path class="st1" d="M198.4,242c-0.1,0.4-0.2,0.5-0.2,0.7c-0.2,3.3-0.4,6.6-0.5,9.9c0,0.2-0.1,0.5,0.3,0.7
			c2.7-1.6,5.6-3.1,8.4-4.9C203.6,246.4,201.1,244.1,198.4,242z"/>
		<path class="st1" d="M182.2,278c-2.9,1.8-5.7,3.6-8.6,5.4c2.7,2.1,5.5,3.8,8.6,5.6C181.9,285.3,181.9,281.7,182.2,278z"/>
		<path class="st1" d="M195.7,253.5c0.1-4.1,0.4-7.8,0.7-11.8c-2.9,1.5-5.5,3-8.2,4.6C190.6,248.9,192.9,251.2,195.7,253.5z"/>
		<path class="st1" d="M207,260.9c0-0.4,0-0.5,0-0.7c-0.1-3.3-0.6-6.5-0.7-9.8c0,0-0.1-0.1-0.2-0.2c-2.5,1.9-5.2,3.5-8.1,5.2
			C200.9,257.5,203.8,259.3,207,260.9z"/>
		<path class="st1" d="M259.8,280c-3.3-1.2-6.1-2.9-9.4-4c0.2,3.5,0.7,6.9,1.2,10.5C254.4,284.3,257,282.2,259.8,280z"/>
		<path class="st1" d="M173.1,281.5c3-1.8,5.7-3.8,8.8-5.5c-2.8-1.7-5.3-3.7-7.9-5.7C173.9,274.1,173.2,277.6,173.1,281.5z"/>
		<path class="st1" d="M239.5,284.4c-0.1,0.1-0.1,0.2-0.2,0.2c1,1.8,1.9,3.6,2.9,5.4c0.3,0.6,0.7,1.2,1,1.9c0.2,0.3,0.4,0.5,0.8,0.3
			c1.8-1.2,3.4-2.7,5.4-4.1C245.9,287,242.8,285.5,239.5,284.4z"/>
		<path class="st1" d="M248.2,243.5c0.1-0.1,0.1-0.1,0.2-0.2c-1.6-2.7-3.3-5.4-5-8.3c-1.5,1.6-2.8,3-4.3,4.6
			C242.1,241.2,245.2,242.1,248.2,243.5z"/>
		<path class="st1" d="M194.8,284.9c-0.1-0.1-0.1-0.1-0.2-0.2c-3.2,2-6.3,4-9.6,6c0.9,0.7,1.9,1.1,2.8,1.5c0.8,0.4,1.6,1.2,2.4,0.9
			c0.7-0.3,0.9-1.3,1.3-2.1C192.6,289,193.7,286.9,194.8,284.9z"/>
		<path class="st1" d="M170.9,281.5c0-3.7,0.5-7.2,0.9-10.7c-0.4,0.1-0.5,0.3-0.7,0.5c-1.3,1.9-2.6,3.8-3.9,5.7
			c-0.2,0.3-0.3,0.6-0.5,0.9c-0.2,0.3-0.1,0.5,0.2,0.7C168.2,279.5,169.5,280.4,170.9,281.5z"/>
		<path class="st1" d="M188,244.2c0.1,0.1,0.1,0.1,0.2,0.2c2.6-1.5,5.3-2.7,8.1-4.2c-1.3-1.2-2.6-2.3-3.8-3.5
			C191,239.3,189.5,241.8,188,244.2z"/>
		<path class="st1" d="M226.2,252c-1.1,0.9-2,1.6-2.9,2.3c-0.5,0.3-0.5,0.6-0.2,1.1c1.3,2.3,2.7,4.7,4,7c0.1,0.1,0.1,0.3,0.5,0.3
			C227.3,259.2,226.9,255.7,226.2,252z"/>
		<path class="st1" d="M208.4,250.1c0.3,3,0.6,6.1,0.9,9.2c1.4-2,2.5-4,3.7-6c0.2-0.4,0.1-0.6-0.3-0.8c-1.1-0.7-2.2-1.3-3.3-2
			C209.1,250.2,208.9,249.9,208.4,250.1z"/>
		<path class="st1" d="M261.2,270c0.1,1.3,0.1,2.7,0.2,4c0,1.3,0,2.7,0,4.2c0.9-0.6,1.3-1.4,1.9-1.9c0.2-0.2,0.2-0.5,0.1-0.7
			C262.9,273.7,262.2,271.8,261.2,270z"/>
	</g>
</g>
</svg>
