<?xml version="1.0" encoding="utf-8"?>
<!-- Generator: Adobe Illustrator 21.1.0, SVG Export Plug-In . SVG Version: 6.00 Build 0)  -->
<svg version="1.1" id="Calque_1" xmlns="http://www.w3.org/2000/svg" xmlns:xlink="http://www.w3.org/1999/xlink" x="0px" y="0px"
	 viewBox="0 0 432 432" style="enable-background:new 0 0 432 432;" xml:space="preserve">
<style type="text/css">
	.st0{fill:#EE7481;}
	.st1{fill:#E84158;}
	.st2{fill:#A08472;}
	.st3{fill:#766257;}
	.st4{fill:#6B340F;}
	.st5{fill:#E5D0B1;}
	.st6{fill:#0E0A0D;}
	.st7{fill:#EDEDED;}
	.st8{fill:#DC1915;}
	.st9{fill:#FFFFFF;}
	.st10{fill:none;}
	.st11{fill:#E4E8E7;}
	.st12{fill:#1E1E1C;}
	.st13{fill:#C21F18;}
	.st14{fill:#DADADA;}
	.st15{fill:#0A0A0A;}
	.st16{fill:#3AAA35;}
	.st17{fill:#BE1622;}
	.st18{fill:#C1292E;}
	.st19{fill:#706F6F;}
	.st20{fill:#A48A7B;}
	.st21{fill:#6E9CB3;}
	.st22{fill:#C17F11;}
	.st23{fill:#CF9946;}
	.st24{fill:#257BBC;}
	.st25{fill:#0F6FAB;}
	.st26{fill:#BB1546;}
	.st27{fill:#CE9445;}
	.st28{fill:#C07912;}
	.st29{fill:#EA601C;}
	.st30{fill:#020203;}
	.st31{fill:#EDF2F4;}
	.st32{fill:#432918;}
	.st33{fill:#0E0E0E;}
	.st34{fill:#2E3131;}
	.st35{fill:#F2F2F2;}
	.st36{fill:#C1E4F1;}
	.st37{fill:#E4CAAC;}
	.st38{fill:#F5EC70;}
	.st39{fill:#CC132D;}
	.st40{fill:#9F1923;}
	.st41{fill:#E6213A;}
	.st42{fill:#E8A6B7;}
	.st43{fill:#E5C09F;}
	.st44{fill:#CDE7E3;}
	.st45{fill:#FDFDFD;}
	.st46{fill:#085A34;}
	.st47{fill:#E51741;}
	.st48{fill:#F7EB5F;}
	.st49{fill:#E8AC48;}
	.st50{fill:#F7DEBA;}
	.st51{fill:#B5804E;}
	.st52{fill:#A8734D;}
</style>
<g>
	<g>
		<g>
			<polygon class="st0" points="302.4,143.6 299.7,162.9 303.9,162.1 306.5,142.8 			"/>
			<polygon class="st0" points="294.6,145.1 292,164.4 295.8,163.7 298.4,144.4 			"/>
			<path class="st0" d="M290.7,145.9l-12,2.4c-0.4-11.4-8-22.3-18.2-28c-11.6-6.5-25.7-7.1-38.7-4.4c4.6,1,9.2,2,13.9,3
				c-13.5-1-27.4,1.9-39.3,8.4c10.3-0.8,20.6-1.6,30.9-2.5c-7.5,1.9-15,3.7-22.5,5.6c-8.3,2.1-18,5.4-20.3,13.7
				c6.3-2.8,13.2-4.4,20.1-4.7c-0.3,0.2-0.6,0.4-0.9,0.6c-14.8,4.3-27.7,15.3-34,29.4c4.6-5.4,11.2-9.1,18.2-10.3
				c-7.8,4.9-14.8,11.1-20.6,18.3c6.2-4,13.3-6.5,20.7-7.3c-0.2,0.3-0.5,0.5-0.7,0.8c-4.2,2-8.5,3.9-12.7,5.9
				c7,2.2,14.1,3.6,21.4,4.2c0.8,0.6,1.6,1.2,2.4,1.8c-5.5,2.5-12.1,2.2-18.3,1.8c6.5,6.2,16.1,9,25,7.2c-5.3,1.2-10.6,2.4-15.9,3.7
				c11.4,3.2,23.5,3.6,35.1,1.3c-1.8,0.4-3.5,0.9-5.3,1.3c0.5,0.2,0.9,0.3,1.4,0.4c-5.7,1.8-11.7,2.5-17.7,2.2c1,2.2,4,2.6,6.4,2.6
				c6.1,0,12.2-0.6,18.2-1.6c-6.1,1.5-12.2,3.1-18.2,4.6c14.4,4.8,30.2,0.9,44.4-4.4c6.3-2.3,12.8-5.1,17.4-10
				c5.6-5.9,7.6-13.8,8.1-22.1c0.1-0.9,0.3-1.8,0.3-2.7l8.6-1.7L290.7,145.9z"/>
			<path class="st0" d="M316.7,149.1c-0.7-3.3-3.2-5.7-6.3-6.4l-2.5,18.6l2.7-0.5c4.4-0.9,7.4-5.3,6.5-9.7L316.7,149.1z"/>
		</g>
		<g>
			<path class="st1" d="M263.4,186.1c-8.9,3.3-18.9,5.8-27.9,2.7c3.8-1,7.6-1.9,11.5-2.9c-3.8,0.7-7.6,1-11.5,1
				c-1.5,0-3.4-0.2-4-1.6c5,0.2,10-0.7,14.5-2.7c-7.6,1.7-15.5,1.5-23-0.6c3.3-0.8,6.6-1.5,10-2.3c-5.6,1.1-11.6-0.7-15.7-4.6
				c4.5,0.3,9.4,0.5,13.1-2.1c-5.6-0.2-11.2-1.1-16.6-2.8c3.1-1.4,6.1-2.9,9.2-4.3c-4.9,0.4-9.7,2-13.8,4.7c3.6-4.5,8-8.4,13-11.5
				c-4.4,0.8-8.5,3.1-11.4,6.5c4.2-9.3,12.9-16.5,22.9-18.9c-4.7,0.1-9.3,1.1-13.6,3c1.4-5.2,7.5-7.3,12.8-8.6
				c4.7-1.2,9.4-2.3,14.1-3.5c-6.5,0.5-13,1-19.4,1.5c7.5-4.1,16.2-5.9,24.7-5.3c-2.9-0.6-5.8-1.3-8.7-1.9c8.2-1.7,17-1.3,24.3,2.8
				c2.3,1.3,4.4,3,6.1,5c-2.7-5.4-7.1-10.1-12.4-13.1c-9.6-5.4-21.3-5.8-32-3.6c3.8,0.8,7.7,1.7,11.5,2.5
				c-11.2-0.9-22.6,1.6-32.5,6.9c8.5-0.7,17.1-1.4,25.6-2c-6.2,1.5-12.4,3.1-18.6,4.6c-3.7,0.9-7.6,2.1-10.8,4.1
				c-0.3,0.2-0.6,0.4-0.9,0.6c-2.4,1.7-4.3,3.8-5.1,6.7c5.6-2.5,11.7-3.8,17.9-4c-13.1,3.1-24.6,12.6-30.1,24.9
				c3.8-4.5,9.3-7.5,15.1-8.5c-4.9,3.1-9.5,6.8-13.5,11c-0.2,0.3-0.5,0.5-0.7,0.8c-1,1.1-2,2.2-2.9,3.3c5.4-3.5,11.7-5.7,18.2-6.2
				c-4,1.9-8.1,3.8-12.1,5.7c7.1,2.2,14.4,3.5,21.8,3.7c-4.9,3.4-11.4,3.1-17.3,2.7c0.3,0.3,0.7,0.6,1,0.9c0.8,0.6,1.6,1.2,2.4,1.8
				c5.1,3.2,11.4,4.5,17.3,3.4c-4.4,1-8.8,2-13.1,3c9.8,2.8,20.3,3,30.3,0.8c-6,2.6-12.6,3.8-19.2,3.5c0.9,1.8,3.3,2.1,5.3,2.1
				c5.1,0,10.1-0.5,15.1-1.3c-3.3,0.8-6.5,1.6-9.8,2.5c-1.8,0.4-3.5,0.9-5.3,1.3c0.5,0.2,0.9,0.3,1.4,0.4c11.5,3.3,24.1,0.2,35.4-4
				c5.3-1.9,10.6-4.2,14.4-8.3c1.7-1.8,3-3.8,4-6C271.2,183,267.3,184.7,263.4,186.1z"/>
		</g>
	</g>
	<g>
		<g>
			<path class="st0" d="M377.3,238.2c-2.1-11-11.7-21.4-22.9-20.5c0.2-0.2,0.4-0.4,0.6-0.6c2.6-0.8,5.4-0.8,7.9,0.4
				c-1.5-1-3.2-1.8-4.9-2.5c3.4-1.6,7.6-1.8,11-0.1c-4.6-2.9-9.8-4.5-15.1-5.6c-7-1.4-14.2-1.9-21.2-0.4c-3,0.7-6,1.7-8.8,3.2
				l-8.6-14.7l-9.7,18.8c-0.1,0.2-0.2,0.3-0.3,0.4l2.2,3.8c-8.7-0.4-17.5,5.1-22.5,12.5c-6,8.9-7.6,20-8.5,30.7
				c2.7-4.9,6.1-9.4,10-13.3c-0.4,2.6-0.7,5.3-0.9,7.9c0.5-0.9,1.1-1.8,1.7-2.7c-3.2,10.7-4.5,22-3.9,33.1c2.3-5,4.6-10.1,6.9-15.1
				c-1.3,9.4-2.4,19.8,3,27.6c1-4.6,2.5-9.1,4.5-13.4c1.6,5.5,2,11.4,1.1,17.1c3.7-3.5,6.8-7.7,9.2-12.2c-0.2,2.1-0.5,4.1-0.9,6.1
				c-0.8,1.5-1.7,3-2.7,4.5c0.5,0,1.1,0,1.6,0c-1.6,5.1-3.9,10-7,14.4c11.4,0.2,22.7-6.4,28-16.5c-1.5,4.4-3.5,8.6-5.9,12.5
				c10.8-4.3,19.4-13.7,22.8-24.8c-0.5,4.2-1,8.4-1.5,12.7c5.6-4.7,9.2-11.8,9.6-19.1c-0.3,4-0.8,8-1.5,11.9
				c7.5-6.1,12.4-15.3,13.3-24.9c-0.3,6.4-1.6,12.8-3.9,18.9c6.8-2.6,10-10.2,12.4-17.1C376.1,260.5,379.5,249.2,377.3,238.2z"/>
			<path class="st0" d="M298.4,205l9.8-19.1c0.1-0.1,0.1-0.2,0.2-0.2l-2-3.5l-10,19.4L298.4,205z"/>
			<path class="st0" d="M293.9,197.4l9.5-18.5c0-0.1,0.1-0.1,0.1-0.2c-2.6-1.9-6.2-2.2-9.1-0.5l-1.7,1c-3.9,2.3-5.2,7.4-2.9,11.3
				L293.9,197.4z"/>
			<polygon class="st0" points="302.8,212.6 312.8,193.2 310.8,189.8 300.8,209.2 			"/>
		</g>
		<g>
			<path class="st1" d="M369.9,236.9c-1.8-9.2-9.8-17.9-19.1-17.2c1.2-1.3,2.7-2.2,4.3-2.7c2.6-0.8,5.4-0.8,7.9,0.4
				c-1.5-1-3.2-1.8-4.9-2.5c-2.5-1-5.1-1.7-7.8-2.2c-5.8-1.2-11.9-1.6-17.7-0.4c-2.3,0.5-4.6,1.3-6.7,2.4c1.4-0.7,2.9-1.2,4.5-1.5
				c4.4-0.9,9.1-0.6,13.5,0.3c3.4,0.7,6.7,1.7,9.6,3.6c-3-1.5-7-0.7-9.3,1.7c7.1-0.6,13.2,6.1,14.6,13.1c1.4,7-0.8,14.2-3.1,20.9
				c-1.5,4.4-3.5,9.2-7.9,10.9c1.4-3.8,2.3-7.9,2.5-12c-0.6,6.1-3.7,12-8.5,15.8c0.5-2.5,0.8-5,1-7.6c-0.3,4.7-2.5,9.2-6.1,12.2
				c0.3-2.7,0.6-5.4,0.9-8.1c-2.2,7.1-7.7,13-14.5,15.8c1.5-2.5,2.8-5.2,3.7-8c-3.4,6.4-10.6,10.6-17.8,10.5
				c3.3-4.6,5.3-10.2,5.8-15.9c-1.5,2.9-3.5,5.5-5.9,7.8c0.6-3.6,0.3-7.4-0.7-10.9c-1.3,2.7-2.3,5.6-2.9,8.5
				c-3.4-5-2.7-11.6-1.9-17.6c-1.5,3.2-2.9,6.4-4.4,9.6c-0.5-9,1-18.2,4.4-26.6c-2.3,2-4.4,4.3-6.2,6.8c-4.4,11-6.3,23-5.7,34.8
				c1.9-4.2,3.8-8.4,5.7-12.6c-1.1,7.8-2,16.5,2.5,23c0.8-3.9,2.1-7.6,3.8-11.2c1.4,4.6,1.7,9.5,0.9,14.3c3.1-3,5.7-6.4,7.7-10.2
				c-0.5,5.7-2.1,11.3-4.8,16.4c-0.8,1.5-1.7,3-2.7,4.5c0.5,0,1.1,0,1.6,0c9-0.4,17.6-5.8,21.8-13.8c-1.3,3.6-2.9,7.1-4.9,10.4
				c9-3.6,16.2-11.5,19.1-20.7c-0.4,3.5-0.8,7.1-1.2,10.6c4.7-3.9,7.7-9.8,8.1-16c-0.2,3.3-0.7,6.6-1.3,9.9
				c6.3-5.1,10.4-12.7,11.1-20.8c-0.3,5.4-1.4,10.7-3.2,15.8c5.7-2.2,8.4-8.5,10.3-14.3C368.8,255.6,371.6,246.1,369.9,236.9z"/>
		</g>
		<g>
			<path class="st1" d="M299.9,228.7c1.7-2.5,4-4.6,6.6-6c-5.5,1.4-10.6,5.1-13.8,9.9c-3.5,5.3-5.2,11.5-6.2,17.8
				c-0.4,2.6-0.7,5.3-0.9,7.9c0.5-0.9,1.1-1.8,1.7-2.7c2.1-3.3,4.6-6.4,7.4-9.1C295.3,240.2,296.5,233.8,299.9,228.7z"/>
		</g>
	</g>
</g>
<g>
	<g>
		<path class="st2" d="M189.5,274.8c-3.5-18.9,3.1-37.8,15.5-48.1c-25.5,5.2-79.3,16.6-100.3,24.6c-24.3,9.2-12.3,32.7-0.1,35.9
			c6.7,1.8,16.7,3.9,28.1,6.1c1,10.6,10.1,20.4,22.3,23.1c13.2,3,25.3-3.3,28.4-14.1c11.7,2,21.9,3.6,28.2,4.6
			C200.8,301.3,192.3,289.7,189.5,274.8z M155.9,309.8c-8.1-1.8-14.3-8.1-15.5-15c11.4,2.1,23.7,4.3,35.1,6.2
			C172.9,307.9,164.7,311.7,155.9,309.8z"/>
	</g>
	<path class="st3" d="M227.7,223.1c-18.9,0-34.3,18.7-34.3,41.7c0,23,15.4,41.7,34.3,41.7s34.3-18.7,34.3-41.7
		C262,241.8,246.6,223.1,227.7,223.1z M237.2,292.7l10.7-44.4c7.4,1.8,11,13.2,8.1,25.4C253,286,244.6,294.5,237.2,292.7z"/>
</g>
<g>
	<path class="st4" d="M152.6,138.5c-10-1.7-19-2.4-27.1-2.3l26.7,31.4C154.6,151.5,152.6,138.5,152.6,138.5z"/>
	<path class="st4" d="M54.8,226.5c13.8,2.1,25.7,2.5,36,1.4c-7.8,0.5-36.4-23.7-36.4-23.7C53.4,217,54.8,226.5,54.8,226.5z"/>
	<path class="st4" d="M111.3,137.3c-36.1,5.4-49.8,29.9-54.7,51.9c1.7,1.6,34.6,33.7,49.5,35.8c26.4-7.7,38.3-26.8,43.6-45l-1-2.3
		C135.4,153.7,119.1,141.9,111.3,137.3z M106.6,153l-1.9,1.7l1.4,1.2c0.5,0.4,0.6,1.2,0.1,1.7c-0.4,0.5-1.2,0.6-1.7,0.1l-1.6-1.4
		l-1.8,1.5l1.9,1.6c0.5,0.4,0.6,1.2,0.1,1.7c-0.4,0.5-1.2,0.6-1.7,0.1l-2.1-1.9l-2.9,2.5l1.6,1.4c0.5,0.4,0.6,1.2,0.1,1.7
		c-0.4,0.5-1.2,0.6-1.7,0.1l-1.9-1.6l-2.5,2.2l1.6,1.4c0.5,0.4,0.6,1.2,0.1,1.7c-0.4,0.5-1.2,0.6-1.7,0.1l-1.8-1.6l-2.5,2.2l1.6,1.4
		c0.5,0.4,0.6,1.2,0.1,1.7c-0.4,0.5-1.2,0.6-1.7,0.1l-1.8-1.6l-2.5,2.2l1.6,1.4c0.5,0.4,0.6,1.2,0.1,1.7c-0.4,0.5-1.2,0.6-1.7,0.1
		l-1.8-1.6l-2.5,2.2c-0.8,0.7-1.9,0.6-2.6-0.2c-0.7-0.8-0.6-1.9,0.2-2.6l2.1-1.8l-1.4-1.3c-0.5-0.4-0.6-1.2-0.1-1.7
		c0.4-0.5,1.2-0.6,1.7-0.1l1.7,1.5l2.5-2.2l-1.4-1.3c-0.5-0.4-0.6-1.2-0.1-1.7c0.4-0.5,1.2-0.6,1.7-0.1l1.7,1.5l2.5-2.2l-1.4-1.2
		c-0.5-0.4-0.6-1.2-0.1-1.7c0.4-0.5,1.2-0.6,1.7-0.1l1.7,1.5l2.5-2.2l-1.4-1.2c-0.5-0.4-0.6-1.2-0.1-1.7c0.4-0.5,1.2-0.6,1.7-0.1
		l1.7,1.5l2.9-2.5l-1.1-1c-0.5-0.4-0.6-1.2-0.1-1.7c0.4-0.5,1.2-0.6,1.7-0.1l1.4,1.2l1.8-1.5l-1.6-1.4c-0.5-0.4-0.6-1.2-0.1-1.7
		c0.4-0.5,1.2-0.6,1.7-0.1l1.9,1.6l2.3-2c0.8-0.7,1.9-0.6,2.6,0.2C107.4,151.1,107.3,152.3,106.6,153z"/>
</g>
</svg>
