<?xml version="1.0" encoding="utf-8"?>
<!-- Generator: Adobe Illustrator 21.1.0, SVG Export Plug-In . SVG Version: 6.00 Build 0)  -->
<svg version="1.1" id="Calque_1" xmlns="http://www.w3.org/2000/svg" xmlns:xlink="http://www.w3.org/1999/xlink" x="0px" y="0px"
	 viewBox="0 0 432 432" style="enable-background:new 0 0 432 432;" xml:space="preserve">
<style type="text/css">
	.st0{fill:#A29F5C;}
	.st1{fill:#1B1B1B;}
	.st2{fill:#3E2B14;}
	.st3{fill:#603914;}
	.st4{fill:#8C633A;}
	.st5{fill:#DACD8F;}
	.st6{fill:#CDCCCC;}
	.st7{fill:#9A9999;}
	.st8{fill:#754D24;}
	.st9{fill:#808181;}
	.st10{fill:#6A6065;}
	.st11{fill:#823231;}
	.st12{fill:#537791;}
	.st13{fill:#B4B4B4;}
	.st14{fill:#C1292E;}
	.st15{fill:#0D71B9;}
	.st16{fill:#009245;}
	.st17{fill:#C69C6C;}
	.st18{fill:#4E4D4D;}
	.st19{fill:#668E86;}
	.st20{fill:#0A2C40;}
	.st21{fill:#67792D;}
	.st22{fill:#9C8C51;}
	.st23{fill:#405F64;}
	.st24{fill:#020203;}
	.st25{fill:#FFD64E;}
	.st26{fill:#ED6E13;}
	.st27{fill:#B4B2AD;}
	.st28{fill:#F4983C;}
	.st29{fill:#ED6E88;}
	.st30{fill:#E8E5DC;}
	.st31{fill:#AECD63;}
	.st32{fill:#B19A7E;}
	.st33{fill:#71C3BA;}
	.st34{fill:#A1D4D0;}
	.st35{fill:#C7DC94;}
	.st36{fill:#F2A0A5;}
	.st37{fill:#695E2B;}
	.st38{fill:#343434;}
	.st39{fill:#DE9496;}
	.st40{fill:#9EB15A;}
	.st41{fill:#9D2F64;}
	.st42{fill:#7B549C;}
	.st43{fill:#67B6A4;}
	.st44{fill:#508CB3;}
	.st45{fill:#F1BB67;}
	.st46{fill:#9D897C;}
	.st47{fill:#F5C546;}
	.st48{fill-rule:evenodd;clip-rule:evenodd;fill:#DE9496;}
	.st49{fill:#7F7264;}
	.st50{fill:#FFFFFF;}
	.st51{fill:#E8913D;}
	.st52{fill:#69B88F;}
	.st53{fill:#DACBBE;}
	.st54{fill:#E5D9D4;}
	.st55{fill:#AB827E;}
	.st56{fill:#333333;}
	.st57{fill:#E48E8C;}
	.st58{fill:#EBA380;}
	.st59{fill:#E27970;}
	.st60{fill:#404042;}
	.st61{fill:#B3B1AB;}
	.st62{fill:#FAB967;}
	.st63{fill:#DACCBF;}
	.st64{fill:#D1D1CF;}
	.st65{fill:#E5E4E0;}
	.st66{fill:#F7BDCB;}
	.st67{fill:#C7C6C6;}
	.st68{fill:#D28190;}
	.st69{fill:#9D3E49;}
	.st70{fill:#D85A73;}
	.st71{fill:#D4CBBC;}
	.st72{fill:#F1F0EC;}
	.st73{fill:#FDD69C;}
</style>
<g>
	<g>
		<g>
			<g>
				<path class="st11" d="M73.4,274.9c0.9-0.1,1.9-0.2,2.8-0.3c3.3-0.4,6.6-0.9,9.9-1.3c2.5-0.3,5-0.5,7.5-0.7
					c5-0.3,9.9-0.6,14.9-0.4c2.6,0.1,5.3,0.3,7.9,0.5c-0.1,12.6,0.1,25.1,1.1,37.5c-1.1,0.1-2.2,0.3-3.2,0.5
					c-0.6,0.1-1.3,0.3-1.9,0.6c-1.3,0.7-2,1.8-2.1,3.2c-0.2,2-0.1,4.1,0.1,6.1c0.1,1.4,0.3,2.9,0.3,4.3c0.2,4.9,0.4,9.9,0.6,14.8
					c0.1,2.2,0.4,4.3,0.7,6.5c0.1,0.6,0.3,1.2,0.5,1.8c0.6,1.6,1.7,2.6,3.2,3.2c0.3,0.1,0.6,0.2,0.9,0.4c0,0,0,0,0.2,0.2
					c-0.3,1-0.5,2.2-0.9,3.3c-0.3,0.9-1.1,1.4-1.9,1.9c-1.3,0.6-2.7,0.9-4.2,1.1c-7.1,1.1-14.3,1.5-21.4,1.4
					c-3.1-0.1-6.2-0.1-9.3-0.6c-1.4-0.2-2.9-0.6-4.3-1.1c-2.7-0.8-4.1-2.8-4.3-5.6c-0.1-0.9-0.2-1.8-0.2-2.7
					c0.1-6.7,0.3-13.3,0.5-20c0.1-3.6,0.3-7.2,0.5-10.8c0.3-5.9,0.7-11.9,1-17.8c0.3-5,0.6-10,0.8-15c0.1-3.5,0.1-7,0.1-10.6
					C73.3,275.2,73.3,275.1,73.4,274.9z"/>
				<path class="st11" d="M102.1,251.1c4,0,8.1-0.1,12.1,0c1.8,0,3.7,0.4,5.5,0.7c0.8,0.1,1.5,0.5,2.2,0.8c1.6,0.7,2.5,2,2.7,3.6
					c0.2,1.2,0.2,2.5,0.3,3.8c0.1,2.7-0.1,5.3-0.6,8c-0.1,0.6-0.3,1.2-0.5,1.8c-0.6,1.4-1.4,1.9-3,1.8c-0.5,0-0.9-0.1-1.4-0.2
					c-5.2-0.7-10.5-1-15.7-0.9c-6.2,0.1-12.4,0.5-18.5,1.2c-3.6,0.4-7.1,0.9-10.7,1.4c-1.1,0.1-2.1,0.2-3.2,0.3c-0.2,0-0.5,0-0.8,0
					c-1.6-0.2-1.9-0.5-1.8-2.2c0.3-4.2,0.5-8.4,0.3-12.5c-0.1-2.4,0.2-2.8,2.5-3.7c2.6-1,5.4-1.6,8.1-2.1c3.6-0.6,7.3-1,11-1.1
					c3.3-0.2,6.7-0.4,10-0.6C100.9,251.1,101.5,251.1,102.1,251.1C102.1,251.1,102.1,251.1,102.1,251.1z"/>
			</g>
			<g>
				<path class="st12" d="M71.6,280.3c0,1.1,0,2.2,0,3.4c-2-0.2-3.6,0.8-5.1,1.8c-1.6,1-2.7,2.4-3.6,4c-1.5,2.6-2.4,5.5-2.9,8.4
					c-0.5,3.1-0.8,6.2-1.1,9.3c-0.6,5.7-0.8,11.5-0.9,17.2c-0.1,4.3,0.1,8.5,1.1,12.7c0.1,0.4,0.2,0.8,0.3,1.2
					c1.2,3.9,3.8,6.2,7.9,6.9c0.5,0.1,0.9,0.2,1.4,0.2c0,1.9,0,3.7,0,5.5c-1.9,0-3.8-0.3-5.6-0.9c-3-1.1-5.2-3.1-6.3-6
					c-0.9-2.2-1.3-4.4-1.5-6.7c-0.4-5-0.7-9.9-1-14.9c-0.3-5.9-0.3-11.8-0.1-17.6c0.1-3.9,0.5-7.8,1.4-11.6
					c1.1-4.2,3.2-7.7,6.5-10.5c2.2-1.9,4.7-2.9,7.6-2.7c0.5,0,1.1,0.1,1.6,0.1C71.4,280.2,71.4,280.3,71.6,280.3z"/>
				<g>
					<path class="st12" d="M112.6,330.2c6-0.6,11.9-0.2,17.9-0.8c0.1,0.3,0.1,0.6,0.2,1c0.4,3.9,0.9,7.8,1.2,11.6
						c0.1,1.4,0.1,2.8,0,4.1c-0.1,1.6-1.2,2.7-2.7,3c-1.6,0.3-3.2,0.6-4.7,0.8c-1.7,0.2-3.5,0.2-5.2,0.2c-0.6,0-1.2,0-1.8-0.1
						c-1.6-0.3-2.9-1.2-3.4-2.8c-0.3-1.1-0.6-2.3-0.7-3.5c-0.3-3.2-0.4-6.3-0.6-9.5c-0.1-1-0.1-2.1-0.1-3.1
						C112.6,330.8,112.6,330.5,112.6,330.2z"/>
					<path class="st12" d="M112.7,328.5c-0.1-0.2-0.1-0.3-0.1-0.4c-0.1-4.4-0.2-8.9-0.4-13.3c0-1,0.4-1.7,1.2-2
						c0.7-0.3,1.4-0.5,2.1-0.5c2-0.2,3.9-0.4,5.9-0.5c1.1,0,2.2,0.1,3.3,0.3c1.5,0.3,2.6,1.2,3.1,2.6c0.5,1.5,1,3.1,1.3,4.6
						c0.5,2.5,0.8,5,1.2,7.4c0.1,0.9,0.1,0.9-0.8,1c-1.5,0.1-3,0.2-4.5,0.2c-3.4,0.1-6.7,0.2-10.1,0.3
						C114.2,328.3,113.5,328.4,112.7,328.5z"/>
				</g>
			</g>
		</g>
		<g>
			<path class="st7" d="M92.7,249.7c-0.7,0-1.4,0.1-2.2,0.1c0-0.2-0.1-0.3-0.1-0.5c-0.1-2.5-0.2-5-0.3-7.4c-0.2-3.2-0.4-6.3-0.5-9.5
				c-0.2-4.2-0.2-8.5-0.4-12.7c0-0.5-0.1-1.1-0.2-1.6c-0.2-0.9-0.8-1.5-1.7-1.6c-0.8-0.1-1.6,0-2.4,0.1c-2.1,0.2-4.1,0.5-6.2,0.7
				c-1.6,0.1-3.2,0-4.7-0.4c-2.1-0.7-3.8-1.9-4.9-3.9c-1.1-2.2-0.9-4.3,0.8-6.1c1.6-1.8,3.7-2.8,6-3.4c3-0.7,5.9-0.5,8.8,0.5
				c1.6,0.5,3.1,1.2,4.6,1.9c1.3,0.6,2,1.6,2.1,3c0.2,1.8,0.3,3.6,0.4,5.4c0.2,6.3,0.5,12.5,0.7,18.8c0.1,5.4,0.2,10.9,0.3,16.3
				C92.8,249.4,92.8,249.5,92.7,249.7z"/>
			<path class="st7" d="M102.2,249.3c-0.6,0-1.2,0-1.8,0c0-0.2,0-0.3,0-0.4c0.7-3.9,1.4-7.8,2.2-11.8c0.9-4.6,1.9-9.2,2.9-13.8
				c0.2-1.1,0.7-2.2,1.1-3.3c0.7-1.9,2.1-3.1,3.9-3.9c4.7-2.2,9.5-2.6,14.5-1.3c1.6,0.4,3.1,1.3,4.4,2.4c0.9,0.8,1.5,1.7,2,2.8
				c0.7,1.5,0.5,2.9-0.3,4.2c-0.8,1.3-1.9,2.5-3.2,3.2c-5.7,3-11.3,3.1-16.9-0.5c-0.4-0.3-0.9-0.6-1.3-0.9c-0.9-0.6-1.7-0.4-2.2,0.5
				c-0.3,0.5-0.5,1.1-0.7,1.7c-0.6,2.6-1.1,5.2-1.7,7.7c-0.9,4.2-1.8,8.4-2.7,12.6C102.3,248.9,102.3,249.1,102.2,249.3z"/>
			<path class="st7" d="M81.5,250.7c-0.6,0.1-1.2,0.2-1.8,0.3c-0.1-0.8-0.2-1.5-0.3-2.2c-0.3-2.8-0.6-5.6-0.9-8.4
				c-0.3-2.1-1.1-2.6-3.2-1.9c-0.8,0.3-1.6,0.7-2.4,1.1c-2,1-4.1,1.8-6.4,2.1c-3.1,0.4-6.2-1.1-7.7-3.8c-1-1.9-0.8-4.1,0.7-5.7
				c1.2-1.4,2.9-2.1,4.6-2.6c2.9-0.8,5.9-0.7,8.9-0.1c1.9,0.4,3.7,0.9,5.3,2.1c0.9,0.6,1.5,1.4,1.7,2.5c0.3,1.7,0.6,3.3,0.7,5
				c0.3,3.7,0.6,7.5,0.9,11.2C81.5,250.2,81.5,250.4,81.5,250.7z"/>
		</g>
	</g>
	<g>
		<g>
			<path class="st7" d="M182,181.5c-0.3-0.2-0.7-0.4-0.8-0.6c-0.1-0.3-0.1-0.7,0-1c0.2-0.3,0.5-0.6,0.8-0.9
				c10.4-9.6,20.9-19.1,31.3-28.7c22.1-20.2,44.2-40.5,66.2-60.7c0.9-0.8,1.8-1.7,2.7-2.5c0.7-0.7,1.3-0.7,1.7-0.3
				c0.4,0.5,0.3,1.1-0.4,1.8c-3.6,3.3-7.1,6.6-10.7,9.9c-26.7,24.5-53.4,49-80.2,73.4c-3.2,2.9-6.4,5.8-9.6,8.7
				C182.8,180.9,182.4,181.2,182,181.5z"/>
			<g>
				<g>
					<path class="st8" d="M246.2,175.6c0.4,2.2,1.9,3.5,3.5,4.9c-0.2,0.1-0.3,0.3-0.4,0.3c-2.9,1.9-5.7,3.9-8.9,5.4
						c-2.8,1.3-5.6,2.3-8.7,2.6c-2.3,0.3-4.6,0.1-7-0.2c-4-0.5-8-1.6-11.9-2.5c-3.3-0.7-6.7-1.3-10.1-1.5
						c-5.3-0.3-10.3,0.7-15.2,2.8c-3.2,1.4-6.2,3.3-9.1,5.4c-1.1,0.8-2.2,1.7-3.4,2.4c-1.2,0.8-2.4,1.4-3.8,1.8
						c-1.5,0.4-2.6-0.6-2.3-2.1c0.1-0.6,0.4-1.3,0.8-1.8c0.9-1,1.8-2,2.8-2.9c3.1-2.7,6.5-4.9,10.2-6.7c4.3-2.1,8.8-3.8,13.6-4.6
						c3.5-0.5,7.1-0.6,10.6-0.4c4.8,0.3,9.4,1.2,14.1,2c6.6,1.2,13,0.4,19.2-2.2c1.8-0.8,3.5-1.7,5.2-2.6
						C245.8,175.7,245.9,175.7,246.2,175.6z"/>
					<path class="st8" d="M283.9,147.4c-1.2-1.4-2.5-2.4-4.1-3.2c0.2-0.3,0.3-0.5,0.5-0.7c1.8-2.4,3.2-5.1,3.8-8
						c0.5-2.1,0.5-4.3,0.2-6.5c-0.5-3.9-1.2-7.8-1.7-11.8c-0.4-3.1-0.7-6.1-0.9-9.2c-0.2-5.5,0.9-10.8,3.2-15.9
						c2.1-4.7,4.8-9.1,8.2-13c2.3-2.5,5-4.5,8.1-5.9c0.8-0.3,1.6-0.6,2.4-0.8c0.4-0.1,0.9,0,1.4,0.1c0.8,0.2,1.3,0.8,1.2,1.7
						c-0.1,0.6-0.3,1.2-0.6,1.7c-0.6,0.8-1.2,1.6-1.9,2.3c-1.3,1.4-2.6,2.7-3.9,4.1c-3.4,3.5-6.4,7.4-8.7,11.7
						c-2.3,4.4-3.8,9.1-3.7,14.2c0,2.6,0.6,5.1,1.3,7.6c0.9,3.1,1.7,6.3,2,9.5c0.3,3.1,0.6,6.2-0.1,9.3c-0.3,1.3-0.7,2.5-1.2,3.7
						C288.3,141.6,286.3,144.5,283.9,147.4z"/>
				</g>
				<path class="st11" d="M254.2,180.2c-1,0-1.9-0.3-2.8-0.8c-1.7-1-3.2-2.2-3.6-4.3c-0.3-1.6,0.1-3.1,1.4-4.3
					c5.3-5,10.5-10.1,15.7-15.1c2.5-2.4,4.9-4.9,7.4-7.3c0.9-0.9,2-1.7,3-2.4c1.4-0.9,2.8-0.8,4.2-0.1c1.8,1,3.1,2.4,4.2,4.1
					c0.5,0.9,0.6,1.8,0.1,2.7c-0.6,1-1.1,2-1.9,2.8c-3,3.6-6.2,6.9-9.5,10.2c-4.6,4.5-9.3,8.9-14.5,12.7c-0.5,0.4-1,0.7-1.5,1
					C255.8,180,255,180.2,254.2,180.2z"/>
			</g>
		</g>
		<g>
			<g>
				<path class="st11" d="M158.4,150.8c0.2-0.6,0.4-1.3,0.6-1.9c0.5-1.8,1-3.6,1.5-5.5c0-0.2,0.1-0.3,0.1-0.5
					c0.2-1.8-0.3-2.6-2.1-2.9c-2.1-0.4-4.2-0.7-6.3-1.1c-0.4-0.1-0.8-0.2-1.3-0.3c0.3-0.2,0.5-0.4,0.7-0.5
					c5.1-2.9,10.1-5.8,15.2-8.8c0.6-0.4,1.2-0.5,1.9-0.2c2,0.8,3.9,1.5,5.9,2.2c0.7,0.3,1,0.7,1,1.5c0,2.4-0.4,4.8-1,7.1
					c-0.3,1.2-0.9,2-2,2.6c-0.9,0.5-1.8,1-2.7,1.5c-3.5,1.8-6.9,3.8-10.1,6.1c-0.4,0.3-0.8,0.5-1.1,0.8
					C158.5,150.9,158.5,150.9,158.4,150.8z"/>
				<path class="st11" d="M238.6,103.5c-0.1-0.5-0.1-0.9-0.1-1.3c0.1-2.1,0.2-4.3,0.4-6.4c0.1-1.7-0.4-2.8-2-3.4
					c-1.4-0.5-3-0.8-4.4-1.2c-0.7-0.2-1.5-0.2-2.2-0.7c0.6-0.5,1.2-0.6,1.8-0.8c1.5-0.3,3.1-0.7,4.6-0.9c3.5-0.5,7-1,10.4-1.5
					c0.9-0.1,1.8-0.1,2.9-0.2c-0.2,0.6-0.3,1.1-0.5,1.5c-0.9,1.8-1.8,3.6-2.9,5.3c-1.7,2.5-3.5,4.8-5.3,7.2
					c-0.5,0.6-1.1,1.2-1.7,1.8C239.3,103.1,239,103.2,238.6,103.5z"/>
			</g>
			<g>
				<path class="st8" d="M177.3,132.7c-0.1-1-0.4-1.9-1.2-2.5c0.2-0.2,0.3-0.3,0.5-0.4c13.6-8.1,27.2-16.2,40.5-24.7
					c5.3-3.4,10.7-6.5,16.2-9.6c0.6-0.3,1.2-0.7,1.8-1.1c0.9-0.5,1.8-0.1,1.9,0.9c0,0.2,0,0.5,0,0.8c0.1,1-0.3,1.6-1.3,2.1
					c-1.9,0.9-3.7,2-5.5,3.1c-17.4,10.3-34.8,20.5-52.1,30.8C178,132.3,177.7,132.4,177.3,132.7z"/>
				<path class="st8" d="M152.7,147.2c-0.2-0.2-0.3-0.3-0.5-0.5c-0.6-0.9-0.6-1.2,0.3-1.7c1.7-1,3.4-2,5.1-3
					c0.2-0.1,0.5-0.2,0.8-0.2c0.1,0,0.3,0.1,0.3,0.3c0.2,0.4-0.1,1.6-0.4,1.8c-1.7,1.1-3.5,2.1-5.3,3.1
					C153,147.1,152.8,147.1,152.7,147.2z"/>
			</g>
		</g>
	</g>
	<g>
		<g>
			<g>
				<path class="st8" d="M336.7,317c-1.4,1.6-2.7,3.2-4.1,4.9c-0.3-0.3-0.6-0.6-0.9-0.9c-7.6-6.8-15.1-13.7-22.7-20.5
					c-17.9-16.1-37-30.7-57.1-43.9c-8.3-5.4-16.8-10.4-25.7-14.9c-8.2-4.1-16.6-7.6-25.2-10.6c-0.8-0.3-1.7-0.5-2.6-0.8
					c0-0.3,0-0.6,0-1c0.2-0.9,0.5-1.1,1.4-1c2.7,0.5,5.3,1.5,7.9,2.4c20.9,7.2,40.4,17.2,58.7,29.4c10.6,7.1,21,14.5,30.8,22.6
					c6.7,5.5,13.2,11.3,19.7,17c6.3,5.5,12.7,11,19,16.5C336.2,316.6,336.4,316.8,336.7,317z"/>
				<path class="st11" d="M378,354.4c-1.4,2-3.4,3.2-4.9,4.9c-0.2-0.2-0.3-0.3-0.5-0.4c-6-5.4-12-10.8-17.9-16.4
					c-5.1-4.8-10.2-9.6-15.6-14.1c-0.9-0.8-1.5-0.8-2.5,0c-0.5,0.5-1,0.9-1.6,1.4c-0.3-0.2-0.7-0.4-0.9-0.6
					c-0.7-0.6-1.5-1.3-2.2-1.9c-0.7-0.7-0.7-0.9-0.2-1.8c0.2-0.3,0.5-0.7,0.7-1c2-2.3,3.9-4.7,5.9-7c0.6-0.7,1.2-1.3,1.9-1.9
					c0.7-0.6,1.2-0.6,2-0.1c1.1,0.7,2,1.7,2.8,2.8c0.3,0.4,0.3,0.8,0,1.2c-0.3,0.4-0.6,0.7-0.9,1.1c-0.7,0.8-0.7,1.4,0,2.3
					c0.2,0.3,0.5,0.6,0.8,0.9c1.8,1.7,3.5,3.4,5.3,5c3.6,3.4,7.3,6.8,10.9,10.1c5.1,4.7,10.2,9.3,15.3,14
					C377,353.5,377.5,353.9,378,354.4z"/>
			</g>
			<path class="st11" d="M306.2,323.2c0.8,0,1.5,0.2,2.3,0.6c1.4,0.7,1.9,2.3,1.3,3.7c-0.8,1.9-2.6,2.7-4.5,2.3
				c-1.5-0.4-2.7-2-2.6-3.5c0-0.1,0-0.3,0-0.4C303,324.4,304.7,323.1,306.2,323.2z"/>
			<g>
				<path class="st7" d="M308.9,319.8c-0.8-3-0.5-5.6,1.4-8c1.2-1.5,2.8-2,4.6-2c1.1,0,2.3,0.2,3.3,0.5c2.8,0.9,4.4,3.2,4.5,6.3
					c0.1,2-0.4,3.9-1.4,5.6c-1.4,2.5-4.1,3.5-6.9,2.8c-0.2,0-0.3-0.1-0.6-0.3c0.3-0.3,0.6-0.6,0.8-0.9c1.2-1.2,2.4-2.4,3.5-3.7
					c0.5-0.6,1-1.3,1.4-2c0.5-0.8,0.4-1.7-0.2-2.4c-0.6-0.6-1.3-1.2-2-1.7c-1-0.7-2-0.6-3,0.1c-0.7,0.5-1.3,1-1.9,1.6
					C311.3,317.2,310.2,318.4,308.9,319.8z"/>
				<path class="st7" d="M309.7,321.4c1.4-1.5,2.7-2.9,4.1-4.3c0.4-0.4,0.9-0.8,1.3-1.2c0.8-0.6,1.2-0.6,1.9,0
					c1.5,1.3,1.6,1.2,0.3,2.7c-1.6,1.8-3.3,3.5-5,5.2C311.3,323.2,310.5,322.3,309.7,321.4z"/>
			</g>
		</g>
		<g>
			<path class="st7" d="M167.6,281.7c0.1-11.8,3.5-22.5,10.4-32.1c3.8-5.4,8.3-10.3,13.2-14.7c1.2-1.1,2.5-2,3.8-2.9
				c0.9-0.7,1.9-0.7,2.9-0.1c1.1,0.7,2.1,1.5,3.1,2.3c3.3,2.7,6.5,5.6,9.8,8.3c3.1,2.6,6.5,4.9,10.2,6.6c3.1,1.4,6.3,2.3,9.7,2.1
				c1.6-0.1,3.3-0.3,4.9-0.7c1.5-0.3,2.7,0,3.7,1.1c0.8,0.9,1.6,1.8,2.3,2.8c2.9,3.8,6.1,7.4,9.9,10.3c2.7,2.1,5.6,4,8.7,5.6
				c4.1,2.1,8.3,3.4,12.9,3.5c1.5,0.1,2.5,0.7,3.3,1.9c0.7,1.2,1.4,2.3,2,3.5c5,9.2,12.3,16.1,21.4,21.1c4.1,2.3,8.4,4.2,12.8,5.8
				c0.6,0.2,1.1,0.5,1.6,0.8c0.3,0.2,0.4,0.5,0.3,0.8c-0.1,0.3-0.4,0.5-0.8,0.4c-0.4-0.1-0.9-0.1-1.3-0.3c-8-2.9-15.6-6.6-22.3-11.9
				c-4.8-3.8-8.7-8.3-11.9-13.6c-1-1.8-2.1-3.5-3.1-5.3c-0.6-1.1-1.4-1.6-2.7-1.6c-4.2-0.1-8.1-1.3-11.9-3.1
				c-7.9-3.8-14.5-9.2-19.8-16.2c-0.6-0.8-1.1-1.5-1.7-2.3c-0.3-0.4-0.7-0.8-1.1-1.2c-0.5-0.6-1.2-0.7-2-0.6
				c-1.6,0.3-3.2,0.6-4.8,0.7c-3.7,0.3-7.2-0.6-10.6-2.2c-3.5-1.6-6.8-3.7-9.8-6.1c-3.3-2.7-6.6-5.6-9.9-8.3c-1-0.9-2.1-1.7-3.2-2.5
				c-1-0.8-1.2-0.8-2.2,0c-1.6,1.3-3.3,2.5-4.8,4c-5.2,5-9.9,10.3-13.6,16.5c-3.5,5.7-5.7,11.9-6.9,18.5c-1.4,8-0.8,16,1,23.9
				c1.5,6.4,4.2,12.3,7.5,18c4.1,7,9.1,13.1,15,18.5c2,1.8,4.1,3.4,6.4,4.8c0.1,0.1,0.2,0.1,0.3,0.2c0.3,0.2,0.5,0.4,0.4,0.8
				c-0.2,0.4-0.5,0.5-0.9,0.3c-0.7-0.3-1.4-0.5-2-0.9c-2.1-1.3-4.1-2.8-5.9-4.5c-8.9-8-15.5-17.7-20.1-28.8
				c-2.4-5.9-3.7-12.2-4.1-18.5C167.7,284.9,167.7,283.3,167.6,281.7z"/>
			<path class="st7" d="M208.8,351.7c0.7-0.9,1.2-1.5,1.8-2.3c0.3,0.3,0.5,0.5,0.7,0.7c0.4,0.5,1,0.8,1.7,0.6
				c0.6-0.1,1.2-0.3,1.8-0.6c1.3-0.7,1.6-2,0.9-3.2c-0.2-0.4-0.6-0.8-0.9-1.2c-1.6-1.5-3.6-2.4-5.7-3c-0.8-0.2-1.1-0.1-1.4,0.7
				c-0.3,0.8-0.9,1.3-1.6,1.8c-0.6,0.4-1.2,0.4-1.8,0.2c-1.6-0.4-2.9-2.1-3-3.8c0-2.4,1.9-4.5,4.3-4.6c1.9-0.1,3.5,1.4,3.7,3.3
				c0.1,0.9,0.3,1.2,1.2,1.5c0.3,0.1,0.5,0.2,0.8,0.2c2.2,0.5,3.9,1.8,5.2,3.6c1.5,2,0.9,4.3-1.3,5.4c-1.1,0.6-2.3,0.8-3.5,0.7
				C210.8,352,209.9,351.8,208.8,351.7z"/>
		</g>
	</g>
</g>
</svg>
