<?xml version="1.0" encoding="iso-8859-1"?>
<!-- Generator: Adobe Illustrator 21.1.0, SVG Export Plug-In . SVG Version: 6.00 Build 0)  -->
<svg version="1.1" id="Calque_1" xmlns="http://www.w3.org/2000/svg" xmlns:xlink="http://www.w3.org/1999/xlink" x="0px" y="0px"
	 width="432px" height="432px" viewBox="0 0 432 432" enable-background="new 0 0 432 432" xml:space="preserve">
<path fill="#006837" d="M204.758,219.773c0.036-4.415-0.347-8.805-0.916-13.175c-0.406-3.116-0.828-6.24-1.469-9.314
	c-1.129-5.416-3.732-10.123-7.355-14.278c-2.556-2.932-5.53-5.377-8.764-7.523c-5.324-3.535-10.836-6.711-16.787-9.099
	c-3.233-1.297-6.415-2.728-9.22-4.848c-3.979-3.006-7.313-6.558-9.235-11.245c-2.39-5.829-1.925-11.576,0.71-17.194
	c1.444-3.079,3.547-5.683,6.097-7.933c3.472-3.063,7.473-5.262,11.685-7.085c4.579-1.982,9.228-3.804,13.8-5.803
	c2.57-1.124,5.104-2.359,7.549-3.733c2.921-1.642,5.435-3.797,7.171-6.736c0.62-1.05,1.079-2.135,1.262-3.383
	c0.491-3.35,0.467-6.686,0.079-10.038c-0.169-1.459-0.262-2.926-0.381-4.391c-0.027-0.334-0.034-0.671-0.025-1.007
	c0.036-1.348,0.634-2.029,1.982-2.102c1.045-0.057,2.1,0.065,3.146,0.02c1.633-0.069,3.263-0.226,4.896-0.319
	c1.845-0.106,2.591,0.403,2.846,2.233c0.237,1.698,0.271,3.426,0.364,5.142c0.138,2.556,0.245,5.113,0.378,7.669
	c0.015,0.288,0.063,0.588,0.168,0.854c0.679,1.716,1.325,3.448,2.08,5.13c1.638,3.65,4.336,6.344,7.759,8.345
	c3.128,1.828,6.462,3.193,9.881,4.362c4.563,1.559,9.144,3.067,13.458,5.266c5.581,2.845,10.423,6.579,14.099,11.71
	c2.347,3.275,3.544,6.972,3.487,10.972c-0.063,4.371-1.62,8.282-4.342,11.707c-2.715,3.417-6.021,6.194-9.592,8.662
	c-3.216,2.224-6.642,4.086-10.167,5.774c-2.799,1.341-5.612,2.657-8.354,4.107c-6.539,3.457-12.096,8.053-15.854,14.522
	c-2.929,5.042-4.961,10.477-5.934,16.231c-0.769,4.544-1.295,9.133-1.802,13.717c-0.271,2.454-0.273,4.938-0.403,7.408
	c-0.015,0.292-0.037,0.592-0.116,0.87c-0.152,0.537-0.509,0.875-1.095,0.853c-0.589-0.022-0.906-0.406-1.03-0.939
	c-0.065-0.282-0.055-0.584-0.056-0.877C204.756,222.795,204.758,221.284,204.758,219.773z M169.399,142.303
	c-0.294-0.266-0.576-0.547-0.884-0.797c-1.172-0.953-2.367-1.878-3.521-2.852c-0.477-0.402-0.906-0.873-1.294-1.362
	c-0.337-0.425-0.379-0.928-0.041-1.403c0.345-0.486,0.856-0.548,1.352-0.383c0.47,0.157,0.931,0.396,1.335,0.684
	c2.627,1.877,5.248,3.762,7.844,5.681c0.637,0.471,1.268,0.705,2.072,0.694c7.928-0.113,15.856-0.194,23.785-0.291
	c0.215-0.003,0.43-0.083,0.836-0.166c-1.377-1.033-2.629-1.882-3.772-2.86c-0.879-0.752-1.791-0.92-2.892-0.761
	c-1.492,0.216-2.999,0.341-4.503,0.46c-0.45,0.036-0.92-0.035-1.364-0.134c-0.491-0.109-0.812-0.467-0.856-0.973
	c-0.044-0.508,0.215-0.915,0.689-1.089c0.587-0.216,1.195-0.385,1.806-0.521c0.718-0.16,1.449-0.262,2.392-0.428
	c-0.431-0.391-0.684-0.645-0.962-0.868c-1.539-1.233-3.1-2.438-4.623-3.692c-4.151-3.417-8.094-7.059-11.81-10.947
	c-0.953-0.997-0.749-1-2.137-0.382c-1.876,0.835-3.741,1.699-5.592,2.588c-2.659,1.278-5.132,2.85-7.364,4.787
	c-4.26,3.698-6.925,8.257-7.49,13.938c-0.06,0.6-0.008,1.212-0.008,1.963C158.118,142.119,163.729,142.506,169.399,142.303z
	 M240.3,144.251c0.339,0.318,0.473,0.464,0.627,0.585c1.319,1.038,2.649,2.063,3.959,3.114c0.356,0.286,0.706,0.609,0.966,0.98
	c0.339,0.484,0.336,1.045-0.028,1.531c-0.356,0.476-0.857,0.669-1.447,0.515c-0.241-0.063-0.475-0.168-0.7-0.277
	c-3.191-1.537-6.104-3.515-8.876-5.701c-0.568-0.448-1.109-0.686-1.823-0.636c-0.962,0.067-1.928,0.091-2.893,0.118
	c-6.293,0.176-12.586,0.347-18.878,0.526c-0.175,0.005-0.347,0.088-0.654,0.171c2.34,1.901,4.549,3.703,6.772,5.488
	c0.18,0.144,0.449,0.228,0.684,0.245c2.087,0.155,4.181,0.245,6.263,0.448c1.035,0.101,2.065,0.35,3.071,0.626
	c0.56,0.154,0.895,0.624,0.842,1.257c-0.054,0.636-0.458,0.996-1.05,1.078c-0.576,0.081-1.169,0.106-1.75,0.075
	c-1.197-0.065-2.391-0.185-3.882-0.307c4.748,4.334,9.283,8.473,13.814,12.609c4.414-2.043,8.666-4.224,12.597-6.979
	c2.897-2.031,5.578-4.313,7.903-6.993c1.93-2.225,3.314-4.736,3.967-7.625c0.08-0.354,0.114-0.718,0.19-1.215
	C253.409,144.092,246.975,143.871,240.3,144.251z M260.102,140.654c-0.063-0.459-0.096-0.746-0.143-1.03
	c-0.047-0.289-0.102-0.578-0.163-0.864c-0.763-3.577-2.753-6.432-5.252-9.002c-4.702-4.836-10.5-7.855-16.735-10.166
	c-0.559-0.207-0.909-0.059-1.329,0.331c-4.547,4.227-9.115,8.431-13.673,12.645c-0.196,0.181-0.35,0.406-0.619,0.723
	c0.437,0.073,0.713,0.12,0.99,0.166c1.116,0.185,2.243,0.323,3.345,0.572c0.793,0.179,1.182,0.782,1.112,1.459
	c-0.068,0.665-0.583,1.12-1.399,1.192c-0.374,0.033-0.757,0.032-1.132-0.002c-1.837-0.166-3.679-0.302-5.505-0.55
	c-0.608-0.083-1.022,0.019-1.477,0.397c-1.841,1.526-3.71,3.018-5.561,4.531c-0.199,0.163-0.35,0.384-0.631,0.699
	c0.649,0,1.108,0.011,1.566-0.002c2.557-0.074,5.113-0.163,7.67-0.231c3.606-0.096,7.211-0.219,10.818-0.244
	c1.34-0.009,2.381-0.386,3.331-1.364c1.694-1.744,3.496-3.384,5.262-5.057c0.363-0.344,0.75-0.672,1.165-0.949
	c0.464-0.309,0.965-0.273,1.405,0.078c0.436,0.348,0.615,0.836,0.406,1.346c-0.219,0.535-0.481,1.087-0.857,1.515
	c-0.967,1.102-2.01,2.137-3.016,3.206c-0.237,0.251-0.448,0.527-0.826,0.975C246.065,140.901,253.009,140.779,260.102,140.654z
	 M201.577,145.768c-0.023-0.073-0.046-0.145-0.068-0.218c-8.622,0.112-17.244,0.223-25.872,0.335
	c-1.991,2.737-4.466,5.067-6.921,7.416c-0.363,0.347-0.747,0.681-1.164,0.958c-0.545,0.362-1.118,0.325-1.633-0.095
	c-0.498-0.406-0.622-1.08-0.306-1.715c0.129-0.26,0.305-0.505,0.497-0.724c1.413-1.605,2.837-3.2,4.256-4.801
	c0.284-0.321,0.558-0.652,0.907-1.062c-4.337-0.497-15.601-0.449-18.475,0.063c0.02,0.278-0.01,0.578,0.068,0.846
	c0.674,2.313,1.63,4.487,3.12,6.409c3.048,3.932,6.908,6.83,11.383,8.928c2.544,1.192,5.127,2.301,7.697,3.435
	c0.759,0.335,1.585,0.956,2.291,0.85c0.716-0.107,1.348-0.922,1.973-1.476c4.02-3.564,8.028-7.141,12.038-10.717
	c0.141-0.125,0.252-0.284,0.55-0.624c-0.975,0-1.714,0.031-2.449-0.011c-0.494-0.028-1.043-0.051-1.456-0.279
	c-0.348-0.193-0.728-0.672-0.739-1.034c-0.01-0.363,0.348-0.832,0.677-1.083c0.307-0.235,0.781-0.311,1.19-0.341
	c1.923-0.142,3.849-0.231,5.772-0.373c0.441-0.033,0.969-0.078,1.292-0.33C198.023,148.709,199.792,147.227,201.577,145.768z
	 M177.123,118.108c5.828,5.661,15.528,13.792,16.919,14.185c-0.115-1.09-0.265-2.168-0.333-3.25
	c-0.071-1.133,0.332-1.781,1.056-1.87c0.683-0.084,1.184,0.37,1.424,1.451c0.426,1.924,0.829,3.854,1.169,5.795
	c0.112,0.635,0.372,1.059,0.879,1.431c1.862,1.365,3.697,2.766,5.549,4.145c0.214,0.159,0.465,0.268,0.746,0.427
	c0.035-0.234,0.071-0.357,0.069-0.479c-0.098-5.119-0.213-10.238-0.285-15.358c-0.009-0.674-0.256-1.07-0.789-1.437
	c-2.179-1.497-4.333-3.031-6.496-4.552c-0.343-0.241-0.697-0.471-1.017-0.741c-0.595-0.501-0.767-1.03-0.54-1.533
	c0.234-0.516,0.888-0.798,1.627-0.607c0.564,0.146,1.143,0.327,1.64,0.619c1.408,0.829,2.778,1.723,4.162,2.592
	c0.37,0.232,0.737,0.468,1.323,0.839c-0.116-7.224-0.379-14.159-0.761-21.164c-0.524-0.099-1.046-0.197-1.522-0.287
	c-0.112,0.172-0.187,0.238-0.198,0.312c-0.599,4.003-2.855,7.015-5.786,9.603c-2.633,2.325-5.631,4.097-8.823,5.531
	c-2.907,1.306-5.852,2.527-8.779,3.788C177.978,117.712,177.605,117.889,177.123,118.108z M205.195,169.586
	c-0.069-0.04-0.138-0.081-0.206-0.121c-0.611,0.731-1.179,1.504-1.843,2.183c-1.052,1.076-2.113,2.155-3.274,3.106
	c-0.834,0.683-1.582,0.625-2.047,0.124c-0.488-0.527-0.405-1.094,0.327-2.014c2.144-2.692,4.275-5.393,6.457-8.054
	c0.46-0.561,0.649-1.102,0.632-1.815c-0.111-4.656-0.184-9.314-0.282-13.971c-0.01-0.484-0.107-0.966-0.194-1.701
	c-2.302,1.871-4.406,3.582-6.434,5.231c0.149,2.222,0.3,4.309,0.42,6.398c0.024,0.409,0.02,0.86-0.126,1.231
	c-0.374,0.953-1.674,1.072-2.236,0.216c-0.201-0.305-0.32-0.688-0.389-1.052c-0.201-1.071-0.352-2.151-0.535-3.226
	c-0.044-0.261-0.135-0.515-0.213-0.802c-1.664,1.039-14.245,12.099-14.776,12.985c0.391,0.237,0.789,0.463,1.172,0.712
	c3.097,2.007,6.31,3.859,9.263,6.06c7.306,5.444,12.391,12.445,14.347,21.499c0.053,0.246,0.205,0.471,0.311,0.706
	c0.042-0.015,0.084-0.031,0.126-0.046C205.529,188.02,205.362,178.803,205.195,169.586z M219.88,131.12
	c4.882-4.346,9.538-8.491,14.311-12.741c-0.579-0.218-1.031-0.407-1.495-0.56c-3.75-1.237-7.401-2.704-10.88-4.586
	c-5.253-2.842-8.933-7.01-10.805-12.721c-0.233-0.711-0.501-1.41-0.784-2.204c-1.282,0.122-2.508,0.238-3.641,0.345
	c0.334,6.732,0.658,13.274,0.993,20.047c0.429-0.51,0.726-0.845,1.004-1.195c1.358-1.708,2.699-3.43,4.076-5.123
	c0.339-0.417,0.762-0.78,1.197-1.1c0.488-0.358,1.036-0.327,1.527,0.029c0.528,0.383,0.753,0.93,0.546,1.548
	c-0.172,0.511-0.398,1.033-0.72,1.459c-1.923,2.542-3.873,5.064-5.835,7.576c-0.359,0.46-0.772,0.903-1.239,1.246
	c-0.553,0.405-0.668,0.899-0.63,1.525c0.075,1.256,0.131,2.514,0.162,3.771c0.095,3.817,0.173,7.635,0.265,11.453
	c0.004,0.179,0.088,0.356,0.138,0.55c0.173-0.071,0.26-0.086,0.32-0.134c2.633-2.083,5.259-4.175,7.899-6.249
	c0.413-0.325,0.509-0.717,0.511-1.206c0.005-1.595,0.022-3.19,0.074-4.784c0.015-0.453,0.118-0.917,0.258-1.35
	c0.167-0.516,0.546-0.845,1.121-0.857c0.638-0.013,1.009,0.368,1.213,0.918c0.1,0.271,0.143,0.571,0.167,0.861
	C219.717,128.675,219.782,129.715,219.88,131.12z M208.33,147.851c-0.086,0.323-0.146,0.44-0.145,0.557
	c0.036,3.064,0.067,6.128,0.124,9.191c0.037,2.014,0.115,4.026,0.17,6.04c0.013,0.464,0.049,0.871,0.435,1.247
	c2.496,2.43,4.963,4.89,7.439,7.34c0.179,0.177,0.382,0.333,0.543,0.524c0.497,0.589,0.551,1.284,0.164,1.855
	c-0.377,0.558-1.09,0.826-1.782,0.572c-0.424-0.156-0.845-0.398-1.183-0.697c-1.507-1.333-2.985-2.7-4.471-4.056
	c-0.294-0.268-0.58-0.545-0.869-0.818c-0.091,0.033-0.183,0.066-0.274,0.099c0.103,7.756,0.206,15.511,0.31,23.267
	c0.089,0.02,0.177,0.039,0.266,0.059c0.249-0.602,0.512-1.198,0.745-1.805c2.507-6.537,6.493-11.996,11.912-16.423
	c2.808-2.294,5.848-4.221,9.083-5.851c0.42-0.212,0.946-0.321,1.174-0.814c-1.944-2.062-11.755-10.645-12.874-11.238
	c-0.077,0.73-0.133,1.426-0.231,2.117c-0.058,0.411-0.087,0.875-0.304,1.199c-0.201,0.302-0.611,0.57-0.969,0.637
	c-0.514,0.096-0.878-0.285-0.992-0.774c-0.123-0.528-0.193-1.076-0.213-1.618c-0.036-1.006-0.066-2.018-0.008-3.021
	c0.047-0.801-0.249-1.337-0.867-1.817c-1.325-1.03-2.603-2.121-3.91-3.176C210.564,149.609,209.512,148.787,208.33,147.851z
	 M204.095,95.843c-0.289-4.336-0.563-8.446-0.843-12.658c-0.546-0.036-0.974-0.064-1.328-0.087c0,4.247,0,8.364,0,12.526
	C202.657,95.698,203.23,95.756,204.095,95.843z M205.327,83.135c0.322,4.245,0.634,8.362,0.953,12.562
	c0.365-0.034,0.674-0.063,1.057-0.098c-0.143-4.2-0.284-8.318-0.428-12.537C206.296,83.09,205.816,83.113,205.327,83.135z
	 M209.991,95.337c0.027-0.254,0.073-0.456,0.066-0.656c-0.114-3.515-0.228-7.03-0.36-10.545c-0.017-0.442-0.134-0.881-0.214-1.384
	c-0.395,0.079-0.662,0.132-0.957,0.191c0,0.232-0.01,0.397,0.002,0.561c0.157,2.17,0.328,4.34,0.472,6.511
	c0.1,1.504,0.156,3.011,0.245,4.516C209.268,94.915,209.142,95.444,209.991,95.337z"/>
<path fill="#006837" d="M272.761,207.655c0,2.308,0.019,4.617-0.013,6.925c-0.009,0.618,0.094,1.163,0.468,1.649
	c1.175,1.528,2.301,3.098,3.541,4.572c3.865,4.591,7.828,9.101,11.649,13.728c3.868,4.683,6.603,9.993,8.279,15.841
	c0.906,3.16,1.375,6.396,1.603,9.663c0.497,7.114-0.504,14.031-2.81,20.777c-2.135,6.245-4.925,12.208-7.641,18.208
	c-3.581,7.91-7.127,15.837-10.609,23.792c-2.141,4.89-3.5,10.056-5.049,15.151c-0.378,1.243-0.661,2.515-1.019,3.764
	c-0.173,0.602-0.376,1.204-0.643,1.769c-0.268,0.569-0.594,1.147-1.385,1.071c-0.761-0.073-1.054-0.629-1.22-1.261
	c-0.277-1.054-0.584-2.107-0.761-3.179c-1.297-7.853-3.486-15.458-6.348-22.874c-2.116-5.483-4.578-10.813-7.158-16.093
	c-2.8-5.728-5.64-11.44-8.271-17.246c-2.826-6.235-4.455-12.827-5.116-19.643c-0.712-7.343,0.679-14.281,4.124-20.808
	c1.771-3.355,3.884-6.479,6.367-9.344c2.501-2.887,5.042-5.739,7.572-8.601c2.511-2.842,4.759-5.861,6.398-9.305
	c0.351-0.737,0.523-1.475,0.515-2.297c-0.05-4.869-0.011-9.739-0.116-14.607c-0.056-2.595,1.048-3.84,3.941-3.816
	c2.002,0.017,2.853,0.663,3.238,2.63c0.256,1.31,0.359,2.661,0.408,3.999c0.067,1.844,0.017,3.692,0.017,5.538
	C272.733,207.655,272.747,207.655,272.761,207.655z M258.751,267.414c-0.287-11.696,0.759-23.086,5.244-34.034
	c-1.082-0.247-2.083-0.475-3.061-0.698c-0.897,1.509-1.76,2.898-2.563,4.322c-3.822,6.779-6.573,13.946-7.75,21.67
	c-0.34,2.234-0.543,4.483-0.36,6.719C251.846,266.165,256.967,267.383,258.751,267.414z M276.866,275.932
	c1.026,1.215,1.656,2.528,1.881,4.01c0.37,2.426-0.301,4.666-1.39,6.782c-1.093,2.123-2.729,3.704-5.044,4.483
	c-3.44,1.158-6.912-0.553-7.862-3.838c-0.847-2.93,0.919-6.18,2.637-7.402c1.743-1.24,4.138-1.109,5.698,0.308
	c1.544,1.402,1.247,4.028-0.57,5.046c-0.632,0.354-1.27,0.401-1.915,0.044c-0.387-0.214-0.7-0.493-0.625-0.988
	c0.074-0.493,0.466-0.528,0.859-0.539c0.084-0.002,0.168-0.004,0.251-0.017c0.544-0.085,0.779-0.471,0.85-0.956
	c0.073-0.499-0.27-0.761-0.667-0.953c-0.862-0.418-1.997-0.221-2.649,0.525c-0.83,0.949-1.281,2.066-1.223,3.343
	c0.076,1.66,1.243,2.805,2.898,2.897c1.5,0.083,2.68-0.576,3.687-1.6c1.377-1.399,2.02-3.142,2.369-5.041
	c0.322-1.75-0.29-3.185-1.204-4.524c-3.439,0.272-3.677,0.162-6.497-2.989c-0.657,1.455-2.057,2.048-3.184,2.961
	c-3.099,2.51-4.408,5.846-4.289,9.746c0.031,1.017,0.393,2.062,0.785,3.02c0.588,1.434,1.489,2.359,3.272,2.621
	c4.394,0.646,8.751,0.848,13.153,0.2c0.995-0.146,1.525-0.608,1.968-1.475c2.458-4.807,2.582-9.726,0.838-14.758
	c-0.091-0.261-0.247-0.545-0.457-0.711c-0.776-0.613-1.588-1.181-2.419-1.791C277.67,274.82,277.304,275.326,276.866,275.932z
	 M289.377,265.06c-0.03-0.316-0.019-0.53-0.075-0.725c-1.172-4.152-2.244-8.337-3.555-12.445c-2.09-6.544-4.873-12.768-9.175-18.211
	c-0.254-0.321-0.501-0.647-0.746-0.964c-0.791,0.22-1.491,0.415-2.099,0.584c0.881,2.026,1.783,3.869,2.496,5.783
	c2.986,8.013,4.782,16.313,5.802,24.789c0.144,1.192,0.239,2.39,0.37,3.712C284.848,267.007,287.093,266.15,289.377,265.06z
	 M252.688,292.14c-0.072,0.063-0.143,0.126-0.215,0.188c2.198,4.454,4.395,8.909,6.579,13.334c6.53-0.409,21.26-6.932,24.216-10.751
	c-0.481,0.119-0.874,0.229-1.273,0.313c-1.474,0.311-2.938,0.713-4.428,0.902c-6.729,0.856-13.286,0.062-19.674-2.198
	C256.163,293.317,254.423,292.736,252.688,292.14z M279.524,268.207c0.075-0.143,0.113-0.18,0.109-0.213
	c-0.917-7.968-2.457-15.811-4.818-23.481c-1.035-3.363-2.09-6.725-3.682-9.883c-0.154-0.305-0.367-0.58-0.553-0.869
	c-0.176,0.334-0.195,0.579-0.174,0.821c0.221,2.543,0.553,5.082,0.65,7.63c0.17,4.44,0.194,8.885,0.283,13.328
	c0.084,4.192,0.172,8.383,0.265,12.575c0.004,0.197,0.07,0.393,0.124,0.681C274.406,268.861,277.013,268.733,279.524,268.207z
	 M267.602,233.839c-0.832-0.311-0.863,0.328-1.031,0.761c-2.246,5.828-3.483,11.898-4.242,18.071
	c-0.327,2.66-0.538,5.339-0.668,8.016c-0.117,2.418-0.183,4.85,0.248,7.388c2.122,0.202,4.226,0.402,6.348,0.604
	C268.037,256.936,267.819,245.382,267.602,233.839z M256.755,230.928c-2.798,3.273-5.636,6.364-7.921,9.907
	c-3.094,4.798-5.161,9.969-5.778,15.676c-0.235,2.171-0.234,4.343-0.047,6.545c1.428,0.608,2.807,1.157,4.292,1.441
	c0.479-12.093,4.564-22.775,11.436-32.548C258.13,231.636,257.506,231.315,256.755,230.928z M278.373,231.682
	c2.957,3.185,5.118,6.711,6.835,10.512c2.681,5.937,4.749,12.082,6.121,18.456c0.2,0.928,0.395,1.856,0.607,2.852
	c0.253-0.079,0.426-0.094,0.552-0.179c0.694-0.469,1.366-0.972,2.067-1.43c0.473-0.309,0.675-0.702,0.618-1.265
	c-0.097-0.958-0.153-1.92-0.247-2.878c-0.733-7.453-3.515-14.108-7.961-20.077c-1.752-2.352-3.68-4.572-5.517-6.86
	c-0.206-0.257-0.346-0.568-0.501-0.83C279.947,230.643,279.221,231.122,278.373,231.682z M285.109,297.569
	c-1.599,1.085-2.913,2.035-4.285,2.891c-1.386,0.865-2.808,1.677-4.255,2.436c-1.446,0.759-2.919,1.475-4.421,2.115
	c-1.501,0.64-3.033,1.222-4.586,1.721c-1.513,0.486-3.069,0.834-4.607,1.243c4.985,2.554,10.122,4.195,15.747,4.369
	C280.813,307.479,282.903,302.658,285.109,297.569z M255.143,276.364c-1.704,3.46-2.351,9.417-1.477,13.511
	c1.684,0.466,3.421,0.946,5.404,1.494c-1.201-2.773-1.358-5.362-0.682-8c0.667-2.603,1.917-4.889,3.822-6.773
	c-0.714-0.827-1.361-1.577-2.073-2.401C258.899,275.824,257.375,276.888,255.143,276.364z M261.183,310.531
	c1.298,3.393,2.483,6.489,3.66,9.566c3.617-0.765,9.046-3.564,10.256-5.301C270.266,314.294,265.806,312.661,261.183,310.531z
	 M262.665,230.071c5.791,1.704,13.188,0.756,16.313-2.107c-1.255-1.446-2.512-2.892-3.657-4.212
	c-2.102,1.328-3.996,2.743-6.078,3.778C267.135,228.577,264.84,229.249,262.665,230.071z M282.976,291.681
	c0.38-0.081,0.581-0.092,0.755-0.166c1.077-0.461,2.139-0.961,3.225-1.399c0.598-0.241,0.762-0.678,0.851-1.261
	c0.714-4.668,0.097-9.182-1.532-13.582c-0.092-0.249-0.235-0.478-0.354-0.716c-0.843,0.645-1.597,1.221-2.388,1.827
	C285.703,281.482,285.374,286.542,282.976,291.681z M250.174,287.589c0.103-0.026,0.207-0.053,0.31-0.079
	c-0.179-4.354,0.412-8.542,2.664-12.312c-0.453-0.659-0.852-1.237-1.212-1.762c-0.801,0.461-1.516,1.011-2.325,1.298
	c-0.699,0.248-1.033,0.642-1.179,1.299c-0.347,1.554-0.722,3.103-1.018,4.667c-0.071,0.377,0.046,0.834,0.2,1.203
	c0.597,1.432,1.24,2.845,1.875,4.261C249.703,286.645,249.944,287.114,250.174,287.589z M265.44,219.809
	c-0.693,1.053-1.264,1.974-1.889,2.857c-0.628,0.888-1.298,1.748-1.968,2.605c-0.65,0.832-1.324,1.646-1.987,2.468
	c4.172-0.769,8.117-1.883,11.671-4.522C268.912,222.638,267.116,221.46,265.44,219.809z M266.993,322.478
	c1.661,1.886,3.624,3.004,5.723,4.081c1.113-2.863,2.173-5.588,3.233-8.313C273.104,319.95,270.335,321.582,266.993,322.478z
	 M288.372,273.127c0.627,1.857,1.291,3.496,1.723,5.194c0.432,1.698,0.633,3.455,0.936,5.186c1.477-3.598,2.795-7.214,3.338-11.11
	C292.574,274.057,290.675,274.591,288.372,273.127z M267.023,326.502c0.82,3.472,1.627,6.887,2.433,10.301
	c0.063-0.001,0.126-0.002,0.189-0.003c0.773-2.586,1.546-5.172,2.29-7.664C270.217,328.215,268.646,327.372,267.023,326.502z
	 M251.441,268.911c-2.317-0.839-4.364-1.58-6.599-2.389c0.302,2.094,0.884,3.794,2.252,5.131c0.942,0.92,1.857,0.92,2.689-0.093
	C250.403,270.805,250.835,269.896,251.441,268.911z M254.267,269.649c-0.091,1.313,0.004,2.379,0.737,3.277
	c0.785,0.962,1.743,0.993,2.56,0.074c0.61-0.686,1.092-1.461,1.281-2.468C257.336,270.242,255.87,269.959,254.267,269.649z
	 M293.578,266.103c-1.741,0.898-3.289,1.697-4.829,2.491c0.216,0.969,0.451,1.382,1.018,1.812c0.956,0.725,1.629,0.646,2.331-0.332
	C292.91,268.942,293.397,267.679,293.578,266.103z M270.562,271.763c0.181,1.295,0.783,2.217,1.826,2.785
	c0.356,0.194,0.943,0.259,1.302,0.102c1.242-0.542,1.876-1.622,2.394-2.887C274.145,271.763,272.396,271.763,270.562,271.763z
	 M270.497,211.18c-1.232,0-2.38,0-3.618,0c-0.052,1.069-0.102,2.091-0.159,3.261c1.343-0.107,2.561-0.205,3.777-0.302
	C270.497,213.05,270.497,212.148,270.497,211.18z M272.528,220.51c-0.869-1.507-1.573-2.728-2.266-3.93
	c-1.041,0-2.043-0.044-3.038,0.016c-0.619,0.037-0.806,0.558-0.329,0.934c1.047,0.826,2.116,1.644,3.262,2.318
	C270.763,220.204,271.551,220.252,272.528,220.51z M284.889,270.306c-0.079-0.077-0.158-0.155-0.237-0.232
	c-1.606,0.393-3.212,0.786-4.996,1.222c0.439,0.631,0.739,1.187,1.157,1.634c0.88,0.943,1.894,0.906,2.661-0.15
	C284.029,272.016,284.423,271.135,284.889,270.306z M262.146,271.053c0.204,1.127,0.481,1.988,1.155,2.662
	c0.614,0.613,1.214,0.709,1.785,0.285c0.815-0.606,1.362-1.419,1.835-2.465C265.298,271.371,263.823,271.222,262.146,271.053z
	 M266.961,206.748c0,0.865,0,1.634,0,2.349c1.196,0,2.305,0,3.452,0c0-0.909,0-1.717,0-2.654
	C269.218,206.549,268.12,206.646,266.961,206.748z M270.372,202.052c-1.188,0-2.283,0-3.389,0c0,0.924,0,1.73,0,2.588
	c1.197-0.115,2.295-0.22,3.389-0.325C270.372,203.45,270.372,202.719,270.372,202.052z M270.035,197.747
	c-3.375-0.464-3.214,0.298-3.063,2.507c0.002,0.036,0.045,0.069,0.13,0.19c1.001-0.111,2.053-0.228,3.22-0.357
	C270.223,199.282,270.134,198.55,270.035,197.747z M246.738,274.658c-0.695-0.557-1.291-1.035-1.957-1.568
	c0.211,1.645,0.554,2.699,1.117,3.451C246.176,275.918,246.445,275.316,246.738,274.658z"/>
<g>
	<path fill="#990033" d="M93.05,285.807c0.171-6.718,1.806-13.11,4.379-19.278c6.76-16.208,18.268-27.927,33.884-35.75
		c3.647-1.827,7.416-3.344,11.327-4.505c0.518-0.154,1.068-0.317,1.596-0.294c0.716,0.031,1.069-0.324,1.381-0.868
		c0.957-1.671,1.419-3.504,1.655-5.381c0.251-1.996,0.386-4.008,0.5-6.018c0.102-1.802,0.107-3.609,0.157-5.414
		c0.014-0.504,0.026-1.008,0.059-1.51c0.166-2.511,1.067-3.543,3.54-3.973c0.824-0.143,1.667-0.216,2.504-0.237
		c2.811-0.07,5.622-0.103,8.434-0.15c2.331-0.038,4.053,1.182,4.578,3.504c0.424,1.875,0.601,3.807,0.882,5.714
		c0.348,2.365,0.618,4.744,1.057,7.091c0.404,2.157,1.252,4.172,2.432,6.038c0.311,0.492,0.681,0.754,1.29,0.849
		c2.961,0.461,5.765,1.424,8.481,2.693c9.124,4.262,16.613,10.525,22.787,18.434c4.226,5.413,8.009,11.094,10.737,17.424
		c2.461,5.712,3.954,11.656,4.346,17.88c0.212,3.372-0.075,6.712-0.479,10.04c-0.561,4.623-1.358,9.221-2.641,13.7
		c-3.06,10.678-7.915,20.393-15.688,28.486c-1.396,1.453-2.788,2.911-4.234,4.313c-2.73,2.648-5.786,4.845-9.216,6.514
		c-6.162,2.998-12.637,4.979-19.429,5.849c-6.718,0.86-13.4,0.517-20.024-0.916c-5.38-1.164-10.641-2.728-15.784-4.687
		c-8.315-3.167-15.298-8.305-21.534-14.549c-9.204-9.216-14.346-20.43-16.3-33.203C93.125,293.696,92.926,289.761,93.05,285.807z
		 M140.838,322.929c-5.944-24.166-5.306-48.158,1.253-72.089c-0.397,0.285-0.72,0.598-1.023,0.928
		c-1.965,2.14-4.067,4.127-6.5,5.733c-1.983,1.308-4.103,2.3-6.511,2.5c-3.448,0.287-6.98-1.762-6.901-6.332
		c0.014-0.79,0.156-1.584,0.31-2.362c0.151-0.761,0.392-1.503,0.594-2.254c-0.352,0.186-0.593,0.418-0.761,0.695
		c-1.519,2.511-3.181,4.951-4.506,7.561c-4.667,9.191-6.818,19.065-7.552,29.279c-0.156,2.17-0.102,4.36-0.063,6.539
		c0.071,3.986,0.385,7.958,1.033,11.894c1.35,8.197,4.642,15.642,8.9,22.703c0.173,0.287,0.402,0.54,0.605,0.81
		c-0.022-0.473-0.202-0.841-0.349-1.221c-0.56-1.446-1.174-2.875-1.649-4.349c-0.621-1.929-0.895-3.921-0.724-5.96
		c0.491-5.866,4.867-8.931,10.524-6.948c2.175,0.762,4.009,2.088,5.718,3.595c2.697,2.378,4.91,5.165,6.858,8.174
		C140.335,322.196,140.59,322.561,140.838,322.929z M186.777,335.544c0.056,0.043,0.113,0.087,0.169,0.13
		c0.283-0.326,0.573-0.646,0.848-0.979c3.69-4.482,6.359-9.553,8.556-14.892c2.781-6.756,4.532-13.776,5.19-21.048
		c0.383-4.231,0.149-8.471-0.335-12.685c-1.278-11.124-4.601-21.621-9.793-31.534c-0.122-0.233-0.302-0.436-0.456-0.652
		c-0.259,0.956-0.248,1.864-0.327,2.764c-0.235,2.669-1.849,4.935-4.093,5.506c-0.987,0.251-2.09,0.273-3.106,0.141
		c-2.977-0.386-5.608-1.662-7.99-3.461c-2.392-1.806-4.486-3.915-6.314-6.29c-0.258-0.335-0.533-0.657-0.8-0.985
		c-0.128,0.313-0.078,0.509-0.042,0.708c0.808,4.496,1.738,8.974,2.387,13.493c0.618,4.311,1.063,8.657,1.364,13.002
		c0.342,4.931,0.479,9.877,0.625,14.819c0.066,2.221-0.07,4.447-0.102,6.67c-0.081,5.634-0.652,11.215-1.764,16.74
		c-0.07,0.347-0.095,0.703-0.141,1.054c0.424-0.247,0.655-0.576,0.897-0.896c1.013-1.337,1.982-2.711,3.056-3.997
		c1.675-2.007,3.584-3.768,5.835-5.133c1.339-0.812,2.752-1.416,4.306-1.688c3.602-0.632,6.4,0.796,7.883,4.123
		c0.389,0.873,0.677,1.811,0.864,2.749c0.562,2.808,0.252,5.594-0.401,8.35c-1.106,4.666-3.188,8.906-5.704,12.953
		C187.177,334.847,186.981,335.198,186.777,335.544z M145.681,326.363c0.014-0.417,0.031-0.833,0.042-1.25
		c0.09-3.566,0.183-7.132,0.899-10.646c0.699-3.432,1.684-6.768,3.579-9.747c0.645-1.014,1.431-1.989,2.329-2.781
		c1.921-1.692,4.394-1.733,6.498-0.27c1.052,0.732,1.923,1.662,2.509,2.783c0.774,1.482,1.534,2.991,2.093,4.562
		c1.359,3.821,1.91,7.808,2.164,11.841c0.027,0.426,0.113,0.847,0.172,1.271c1.389-4.871,2.306-9.767,2.798-14.738
		c0.398-4.014,0.474-8.042,0.479-12.071c0.003-2.727,0.078-5.461-0.098-8.178c-0.367-5.647-0.787-11.293-1.355-16.923
		c-0.738-7.309-2.06-14.527-3.865-21.652c-0.062-0.246-0.209-0.47-0.42-0.93c-0.07,0.507-0.106,0.752-0.138,0.999
		c-0.407,3.163-0.909,6.308-1.808,9.376c-0.901,3.076-2.056,6.036-3.943,8.661c-0.968,1.347-2.138,2.478-3.632,3.235
		c-2.242,1.136-4.654,0.775-6.299-1.114c-0.785-0.901-1.415-1.982-1.919-3.072c-0.871-1.881-1.222-3.915-1.358-5.98
		c-0.064-0.978-0.117-1.957-0.175-2.936C138.724,280.109,138.795,303.299,145.681,326.363z M181.826,232.513
		c-0.066,0.066-0.133,0.132-0.199,0.199c0.317,0.383,0.622,0.778,0.954,1.148c2.393,2.668,4.421,5.597,6.189,8.706
		c1.535,2.698,3.052,5.408,4.52,8.143c3.841,7.157,6.996,14.587,9.001,22.486c2.013,7.932,3.093,15.967,2.762,24.156
		c-0.185,4.582-1.008,9.08-2.159,13.513c-2.961,11.394-7.94,21.714-16.176,30.293c-0.214,0.223-0.401,0.472-0.6,0.709
		c1.638-0.532,3.051-1.402,4.342-2.451c5.513-4.477,10.299-9.62,14.073-15.655c2.9-4.639,5.238-9.557,7.061-14.718
		c1.6-4.529,2.483-9.223,3.239-13.945c0.223-1.395,0.356-2.805,0.525-4.168c-2.948-1.378-4.974-3.322-4.902-6.662
		c0.069-3.201,1.776-5.402,4.659-6.735c-0.177-0.897-0.329-1.72-0.502-2.538c-1.157-5.468-3.232-10.588-6.037-15.399
		c-4.728-8.108-10.427-15.429-17.759-21.383C188.04,235.959,184.972,234.173,181.826,232.513z M96.044,292.487
		c0.638,9.699,3.514,18.642,8.508,26.884c4.326,7.14,10.405,12.605,17.146,17.397c-0.01-0.235-0.104-0.395-0.226-0.531
		c-5.295-5.895-8.903-12.776-11.748-20.102c-3.308-8.519-4.022-17.446-4.035-26.461c-0.008-5.599,0.831-11.121,2.017-16.583
		c1.677-7.721,4.3-15.081,8.582-21.774c3.725-5.822,7.993-11.202,13.132-15.858c0.349-0.316,0.679-0.652,1.018-0.979
		c-0.065-0.065-0.13-0.13-0.195-0.195c-8.788,4.877-16.384,11.123-22.343,19.317c-5.556,7.64-9.39,16.01-11.252,25.329
		c3.468,1.013,5.088,3.404,5.035,6.762C101.624,289.243,99.433,291.307,96.044,292.487z M162.623,348.271
		c0.643,0.022,1.148,0.1,1.637,0.044c1.875-0.215,3.742-0.497,5.617-0.707c0.963-0.108,1.726-0.546,2.472-1.13
		c4.45-3.477,8.034-7.743,11.192-12.374c3.365-4.935,5.979-10.211,6.726-16.238c0.278-2.246,0.08-4.44-0.992-6.489
		c-0.681-1.303-1.81-1.913-3.216-1.729c-1.061,0.138-2.169,0.41-3.101,0.911c-1.243,0.669-2.406,1.537-3.479,2.463
		c-1.98,1.708-3.602,3.752-5.087,5.899C168.265,327.775,165.045,337.796,162.623,348.271z M159.286,348.4
		c0.117-0.354,0.23-0.624,0.296-0.904c1.053-4.45,1.815-8.948,2.347-13.492c0.676-5.774,0.825-11.536-0.007-17.303
		c-0.444-3.081-1.096-6.117-2.476-8.93c-0.493-1.004-1.12-1.98-1.862-2.814c-1.113-1.251-2.239-1.256-3.32,0.004
		c-0.837,0.975-1.564,2.082-2.154,3.226c-1.713,3.326-2.483,6.938-2.866,10.624c-0.412,3.966-0.561,7.952-0.239,11.934
		c0.345,4.26,0.743,8.516,1.179,12.768c0.144,1.401,0.478,2.783,0.732,4.213C153.732,348.179,156.432,348.435,159.286,348.4z
		 M147.236,347.05c-0.105-0.456-0.142-0.698-0.217-0.928c-1.54-4.745-3.196-9.447-5.277-13.989c-2.102-4.59-4.499-9.001-7.8-12.862
		c-1.559-1.823-3.259-3.498-5.274-4.824c-1.165-0.766-2.401-1.363-3.801-1.574c-2.166-0.326-3.691,0.536-4.462,2.577
		c-0.547,1.449-0.591,2.954-0.358,4.465c0.58,3.76,2.067,7.167,4.239,10.255c5.155,7.329,12.047,12.513,20.2,16.086
		C145.307,346.615,146.219,346.763,147.236,347.05z M163.887,231.934c0.649,2.665,1.158,5.216,1.895,7.7
		c1.957,6.595,5.729,11.994,11.085,16.291c2.065,1.656,4.393,2.762,7.018,3.208c1.826,0.31,2.864-0.247,3.27-2.058
		c0.252-1.123,0.299-2.335,0.194-3.485c-0.229-2.495-1.177-4.796-2.251-7.035c-2.273-4.739-5.461-8.849-8.934-12.743
		c-1.526-1.711-3.219-3.275-4.856-4.925C169.021,230.387,166.635,231.276,163.887,231.934z M144.616,228.073
		c-2.81,2.261-5.735,4.571-8.613,6.941c-2.6,2.141-4.903,4.582-6.98,7.233c-1.85,2.36-3.366,4.922-4.34,7.761
		c-0.39,1.137-0.678,2.35-0.754,3.545c-0.149,2.337,1.28,3.776,3.614,3.624c1.103-0.072,2.226-0.41,3.261-0.825
		c2.092-0.84,3.823-2.262,5.439-3.799c5.502-5.234,9.808-11.342,13.098-18.171c0.464-0.964,0.77-2.003,1.109-2.899
		C148.442,230.309,146.572,229.217,144.616,228.073z M153.414,232.184c-0.065,0.127-0.189,0.301-0.248,0.494
		c-1.328,4.329-2.759,8.631-3.943,13c-1.254,4.627-2.02,9.349-1.582,14.18c0.195,2.148,0.639,4.241,1.827,6.087
		c1.091,1.695,2.296,1.886,3.9,0.696c1.068-0.792,1.832-1.839,2.485-2.974c1.435-2.494,2.36-5.192,3.046-7.967
		c1.519-6.142,2.107-12.399,2.104-18.711c-0.001-1.49-0.235-2.98-0.37-4.562C158.186,232.345,155.889,232.267,153.414,232.184z
		 M167.678,223.194c-0.439-1.4-0.946-2.611-1.187-3.872c-0.503-2.634-0.868-5.295-1.286-7.945c-0.268-1.698-0.479-3.406-0.814-5.091
		c-0.232-1.168-0.924-1.662-2.048-1.626c-3.271,0.104-6.542,0.204-9.81,0.355c-2.154,0.099-2.433,0.404-2.537,2.536
		c-0.122,2.516-0.195,5.034-0.331,7.549c-0.136,2.519-0.477,5.011-1.176,7.444c-0.078,0.271-0.103,0.558-0.13,0.706
		c0.794,0.352,1.616,0.532,2.176,1.016c0.563,0.486,0.866,1.274,1.331,2.004c0.868-0.534,1.781-1.006,2.909-0.784
		c1.129,0.222,1.656,1.173,2.394,1.892c1.72-1.703,3.48-3.008,5.961-1.431C164.102,224.179,165.316,222.857,167.678,223.194z
		 M95.855,289.559c2.193-1.225,3.19-2.901,2.908-4.564c-0.311-1.834-1.164-2.937-2.541-3.182
		C95.792,284.323,95.86,286.838,95.855,289.559z M215.594,287.854c0.155-2.586,0.271-4.934-0.171-7.472
		c-1.46,1.075-2.068,2.367-2.08,3.96C213.333,285.869,214.118,286.923,215.594,287.854z M168.94,227.254
		c-1.218-1.544-2.052-1.946-2.812-1.481c-0.834,0.511-1.143,1.697-0.689,2.992C166.578,228.273,167.707,227.786,168.94,227.254z
		 M158.395,229.703c1.569,0.062,2.967,0.047,4.489-0.464c-0.409-0.546-0.645-1.014-1.018-1.309
		c-0.284-0.225-0.786-0.393-1.115-0.305C159.717,227.901,158.959,228.576,158.395,229.703z M149.703,228.259
		c0.206-1.146,0.17-2.058-0.714-2.655c-0.563-0.38-1.511,0.109-2.215,1.085C147.698,227.185,148.611,227.674,149.703,228.259z
		 M152.151,229.079c1.18,0.335,2.198,0.566,3.422,0.432c-0.36-0.799-0.507-1.658-1.38-1.754
		C153.354,227.665,152.745,228.247,152.151,229.079z"/>
</g>
<path fill="#990033" d="M84.428,108.116c-0.392-0.459-0.698-0.798-0.983-1.154c-2.408-3.007-2.113-6.801,0.788-9.351
	c0.716-0.629,1.571-1.115,2.405-1.589c0.443-0.252,0.737-0.523,0.787-1.035c0.12-1.25,0.343-2.5,0.35-3.751
	c0.012-2.391-0.102-4.783-0.154-7.175c-0.008-0.376-0.012-0.763,0.065-1.128c0.149-0.703,0.542-1.233,1.288-1.39
	c0.449-0.095,0.907-0.174,1.365-0.196c4.275-0.205,8.551-0.395,12.826-0.591c1.042-0.048,1.577,0.297,1.761,1.363
	c0.228,1.321,0.31,2.665,0.502,3.993c0.401,2.78,0.844,5.554,1.243,8.334c0.099,0.692,0.411,1.112,1.059,1.41
	c1.265,0.582,2.426,1.321,3.252,2.504c1.634,2.34,1.533,4.709,0.141,7.089c-0.377,0.645-0.88,1.217-1.398,1.921
	c0.27,0.117,0.504,0.257,0.757,0.323c2.46,0.643,4.76,1.674,6.848,3.099c9.697,6.617,16.602,15.334,19.684,26.79
	c1.424,5.292,1.957,10.723,1.686,16.212c-0.44,8.919-3.771,16.596-9.922,23.069c-2.692,2.833-5.531,5.5-8.485,8.062
	c-3.073,2.665-6.063,5.434-8.992,8.258c-5.077,4.894-7.865,10.996-9.129,17.858c-0.593,3.216-1.176,6.435-1.792,9.647
	c-0.149,0.778-0.357,1.555-0.635,2.296c-0.332,0.887-0.999,1.48-1.977,1.525c-1.036,0.048-1.797-0.527-2.177-1.431
	c-0.337-0.799-0.522-1.677-0.668-2.538c-0.154-0.907-0.202-1.834-0.263-2.754c-0.144-2.187-0.54-4.317-1.223-6.408
	c-1.403-4.291-3.284-8.347-5.716-12.152c-2.195-3.434-4.925-6.367-8.177-8.816c-3.084-2.322-6.27-4.521-9.237-6.984
	c-6.301-5.23-11.129-11.618-14.319-19.186c-1.182-2.805-1.769-5.774-1.921-8.812c-0.694-13.888,4.156-25.624,13.835-35.469
	c4.544-4.621,9.803-8.265,15.507-11.296C83.702,108.506,83.995,108.348,84.428,108.116z M106.533,98.399
	c-1.122,0.472-2.092,0.992-3.126,1.291c-1.983,0.574-4.029,0.816-6.098,0.741c-2.957-0.107-5.82-0.648-8.572-1.788
	c-1.652-0.684-1.677-0.624-2.869,0.654c-0.086,0.092-0.173,0.184-0.252,0.281c-1.635,1.992-1.443,4.223,0.519,5.881
	c0.319,0.269,0.657,0.542,1.032,0.713c1.37,0.624,2.741,1.25,4.146,1.788c1.149,0.44,2.084,1.072,2.605,2.215
	c0.767,1.682-0.107,3.573-1.841,3.996c-0.808,0.197-1.574-0.081-1.992-0.723c-0.412-0.633-0.362-1.476,0.156-2.11
	c0.205-0.25,0.466-0.455,0.796-0.771c-0.985-0.177-1.729,0.162-2.271,0.711c-0.665,0.674-1.288,1.449-1.712,2.289
	c-0.937,1.854-1,3.864-0.785,5.903c0.396,3.774,1.874,7.024,4.594,9.687c0.258,0.253,0.561,0.459,0.989,0.803
	c-0.029-0.429-0.049-0.663-0.06-0.898c-0.062-1.294-0.266-2.601-0.158-3.881c0.377-4.469,3.526-7.968,7.764-8.765
	c1.651-0.311,3.194-0.039,4.508,1.044c1.302,1.074,1.851,2.487,1.501,4.157c-0.318,1.513-1.263,2.538-2.732,3.027
	c-1.347,0.449-2.77-0.263-3.273-1.589c-0.311-0.82-0.114-1.718,0.537-2.294c0.656-0.58,1.402-0.729,2.219-0.366
	c0.272,0.121,0.535,0.264,0.88,0.436c-0.281-1.32-0.854-1.83-2.098-1.876c-1.924-0.072-3.496,0.715-4.815,2.076
	c-3.427,3.537-2.527,10.053,1.249,12.749c1.901,1.357,4.039,2.145,6.338,2.162c5.298,0.039,9.539-2.072,12.307-6.697
	c0.811-1.355,1.458-2.845,1.949-4.348c0.982-3.006,0.897-6.028-0.28-8.998c-0.29-0.732-0.728-1.282-1.388-1.724
	c-3.524-2.361-7.333-3.845-11.62-4.007c-0.69-0.026-1.433-0.206-2.039-0.528c-1.024-0.543-0.981-1.73,0.028-2.308
	c0.544-0.311,1.141-0.527,1.709-0.798c1.499-0.714,2.583-1.86,3.323-3.322C108.621,101.391,108.111,99.412,106.533,98.399z
	 M135.414,150.958c-0.093-0.038-0.186-0.076-0.279-0.113c-0.178,0.163-0.365,0.317-0.532,0.49c-1.429,1.489-3.137,2.486-5.128,3.045
	c-3.812,1.071-7.611-1.715-8.287-5.219c-0.414-2.147,0.565-4.189,2.352-4.929c1.544-0.639,3.504,0.039,4.113,1.422
	c0.429,0.973-0.045,2.005-1.116,2.431c-0.978,0.389-1.775-0.017-2.14-1.094c-0.074-0.218-0.129-0.443-0.217-0.747
	c-0.642,0.347-0.799,0.841-0.863,1.395c-0.287,2.444,1.857,4.591,4.424,4.235c2.719-0.377,4.694-1.909,5.873-4.413
	c0.454-0.964,0.292-1.873-0.285-2.74c-0.596-0.896-1.397-1.545-2.33-2.067c-2.254-1.261-4.732-1.713-7.249-1.897
	c-8.46-0.615-16.091,1.725-22.983,6.602c-0.157,0.111-0.287,0.262-0.429,0.395c4.237-0.41,8.12,0.216,11.094,3.479
	c2.923,3.206,3.69,6.995,2.318,11.375c0.62-0.357,0.963-0.6,1.34-0.764c1.226-0.536,2.427-1.178,3.706-1.532
	c2.392-0.662,4.764-0.466,6.926,0.849c2.217,1.348,3.308,3.366,2.896,5.952c-0.405,2.538-1.971,4.238-4.437,4.978
	c-2.648,0.795-5.433-1.439-5.15-4.064c0.114-1.053,0.653-1.798,1.667-2.161c1.026-0.367,1.925-0.079,2.646,0.664
	c0.744,0.767,0.905,1.677,0.361,2.652c-0.072,0.128-0.131,0.263-0.196,0.395c1.35-0.402,2.16-1.254,2.43-2.577
	c0.25-1.224-0.155-2.242-1.07-3.047c-1.216-1.07-2.705-1.383-4.241-1.169c-3.784,0.528-6.834,2.38-8.784,5.669
	c-1.971,3.325-2.529,6.995-1.799,10.814c0.323,1.689,1.062,3.168,2.402,4.314c1.056,0.904,2.996,1.061,4.246-0.041
	c3.245-2.861,6.518-5.681,9.454-8.868c2.836-3.079,5.251-6.434,6.87-10.32c1.339-3.213,1.851-6.61,2.191-10.041
	C135.317,153.197,135.347,152.076,135.414,150.958z M78.054,146.596c-0.109-0.817-0.311-1.554-0.285-2.281
	c0.07-1.951,1.771-3.693,3.58-3.778c1.667-0.078,3.354,1.434,3.625,3.249c0.375,2.508-1.117,4.924-3.532,5.717
	c-3.566,1.171-7.443-0.827-8.664-4.488c-0.662-1.984-0.618-3.987,0.152-5.917c2.13-5.344,6.022-8.562,11.735-9.469
	c1.093-0.174,2.216-0.164,3.37-0.241c-4.263-5.454-5.584-11.385-2.934-18.108c-2.062,0.998-3.898,1.997-5.482,3.401
	c-5.676,5.03-9.588,11.185-11.668,18.479c-0.971,3.407-1.627,6.873-1.056,10.438c0.788,4.921,3.421,8.509,7.967,10.585
	c2.778,1.269,5.672,1.456,8.582,0.414c3.781-1.354,6.707-3.76,8.721-7.242c1.383-2.39,1.968-4.975,1.78-7.733
	c-0.234-3.444-2.521-6.078-5.888-6.8c-1.301-0.279-2.589-0.216-3.869,0.082c-3.961,0.923-6.732,3.293-8.319,7.012
	c-0.685,1.606-0.713,3.277,0.085,4.88C76.389,145.666,77.019,146.351,78.054,146.596z M100.422,163.963
	c1.152,1.936,3.538,2.901,5.839,2.347c3.333-0.803,5.668-4.172,5.427-7.829c-0.297-4.498-3.866-7.888-8.386-7.924
	c-4.586-0.037-8.223,1.76-10.706,5.685c-4.187,6.619-4.752,13.581-1.418,20.633c3.128,6.619,8.485,10.115,15.929,10.09
	c1.845-0.006,3.639-0.366,5.423-1.115c-0.153-0.161-0.216-0.266-0.31-0.32c-2.139-1.225-3.314-3.153-3.959-5.456
	c-1.033-3.689-0.68-7.313,0.555-10.889c0.132-0.381,0.27-0.759,0.395-1.109c-0.108-0.078-0.149-0.127-0.17-0.12
	c-0.392,0.138-0.784,0.279-1.173,0.427c-2.472,0.943-4.904,0.811-7.135-0.586c-2.505-1.568-4.029-3.835-3.826-6.903
	c0.246-3.729,4.425-5.772,7.596-3.788c1.461,0.914,2.232,2.62,1.902,4.208c-0.318,1.53-1.661,2.802-3.369,2.953
	C102.198,164.342,101.33,164.08,100.422,163.963z M90.192,154.347c-2.98,2.003-6.136,3.334-9.785,3.679
	c0.236,0.404,0.407,0.634,0.512,0.89c0.346,0.849,0.789,1.682,0.978,2.567c0.538,2.523-0.847,5.153-3.053,5.998
	c-2.039,0.781-4.208-0.299-4.787-2.385c-0.276-0.994,0.047-1.954,0.822-2.445c0.728-0.461,1.752-0.416,2.449,0.234
	c0.38,0.354,0.63,0.864,0.881,1.333c0.122,0.228,0.114,0.527,0.173,0.832c1.14-0.901,1.478-2.094,1.062-3.51
	c-0.542-1.845-2.729-3.572-5.213-2.007c-1.335,0.841-2.167,2.073-2.781,3.485c-1.496,3.437-1.588,6.996-0.898,10.616
	c0.639,3.353,1.748,6.479,4.389,8.84c0.227,0.203,0.473,0.384,0.757,0.611c0.113-0.275,0.198-0.422,0.236-0.581
	c0.49-2.075,1.839-3.447,3.653-4.41c2.142-1.137,4.405-1.248,6.728-0.68c0.553,0.135,1.105,0.276,1.902,0.475
	C84.765,169.576,85.179,161.777,90.192,154.347z M97.018,213.058c0.133-0.147,0.216-0.199,0.237-0.269
	c0.06-0.199,0.118-0.404,0.136-0.611c0.582-6.513,0.538-12.989-1.006-19.398c-1.062-4.406-3.356-8.025-6.83-10.889
	c-1.924-1.587-4.223-2.262-6.689-2.096c-1.926,0.13-3.614,0.903-4.434,2.812c-0.761,1.773,0.367,3.322,2.428,3.369
	c-0.167-0.312-0.347-0.584-0.464-0.881c-0.353-0.892-0.268-1.732,0.401-2.458c0.574-0.624,1.3-0.745,2.079-0.516
	c0.78,0.228,1.358,1.083,1.393,2.062c0.046,1.32-0.571,2.335-1.561,3.146c-0.283,0.232-0.602,0.422-1,0.698
	C89.997,194.426,94.178,203.27,97.018,213.058z M119.356,128.502c-1.572,2.89-3.168,5.372-5.699,7.093
	c-2.523,1.716-5.3,2.676-8.323,2.963c-3.048,0.289-5.806-0.738-8.687-2.102c1.276,4.28,0.448,8.123-1.327,11.911
	c0.211-0.039,0.263-0.033,0.29-0.056c0.352-0.298,0.702-0.599,1.051-0.9c8.143-7.018,17.488-10.44,28.3-9.419
	c3.168,0.299,6.195,1.084,8.856,2.941c0.08,0.056,0.216,0.03,0.449,0.056c-1.214-6.651-4.063-12.416-8.288-17.587
	c-2.207,0.681-3.599,1.994-4.086,4.156c-0.333,1.482,0.435,3.069,1.748,3.711c0.259,0.126,0.582,0.121,0.895,0.18
	c-0.092-0.644-0.232-1.136-0.218-1.622c0.026-0.942,0.714-1.733,1.553-1.905c0.877-0.18,1.742,0.253,2.192,1.115
	c0.369,0.709,0.393,1.441,0.119,2.192c-0.744,2.042-3.106,3.174-5.136,2.41c-1.821-0.686-2.94-2.027-3.428-3.901
	C119.539,129.434,119.487,129.124,119.356,128.502z M70.945,159.012c0.5-0.422,0.943-0.821,1.413-1.185
	c0.478-0.371,0.983-0.707,1.526-1.095c-0.238-0.147-0.374-0.246-0.522-0.32c-6.306-3.124-9.932-9.451-9.092-17.443
	c0.555-5.279,2.294-10.206,4.833-14.857c0.192-0.351,0.36-0.715,0.539-1.073c-0.374,0.125-0.621,0.327-0.838,0.557
	c-5.32,5.653-8.939,12.216-10.652,19.813c-0.826,3.662-1.202,7.36-1.037,11.111c0.024,0.553,0.139,1.102,0.225,1.752
	C63.06,151.529,69.569,154.243,70.945,159.012z M69.675,178.559c-1.63-4.524-2.255-9.058-1.336-13.855
	c-0.541,0.14-0.934,0.266-1.336,0.342c-1.401,0.266-3.069-0.605-3.655-1.887c-0.302-0.662-0.303-1.314,0.139-1.904
	c0.437-0.584,1.054-0.812,1.775-0.698c0.758,0.119,1.31,0.522,1.617,1.241c0.103,0.242,0.229,0.474,0.357,0.737
	c1.822-1.566,1.8-3.646,0-4.955c-2.968-2.158-6.616-1.249-8.646,0.419c-0.679,0.558-0.895,1.199-0.645,2.106
	c0.65,2.359,1.563,4.6,2.758,6.727c2.251,4.005,5.015,7.631,8.165,10.968C69.121,178.069,69.406,178.307,69.675,178.559z
	 M89.804,83.769c0,0.279-0.011,0.607,0.002,0.933c0.061,1.508,0.133,3.016,0.194,4.525c0.053,1.302,0.048,1.303,1.477,1.514
	c0.605-0.707,1.256-1.412,2.328-1.469c1.112-0.059,1.858,0.576,2.532,1.426c0.806-0.941,1.565-1.702,2.727-1.877
	c1.292-0.193,1.882,0.918,2.778,1.496c0.94-0.584,1.369-1.302,1.169-2.427c-0.204-1.152-0.243-2.333-0.376-3.498
	c-0.045-0.398-0.154-0.789-0.217-1.099C98.187,83.452,94.094,83.607,89.804,83.769z M97.396,187.839
	c2.03,5.698,2.486,11.456,2.607,17.282c0.248-0.378,0.39-0.758,0.519-1.142c1.38-4.111,3.521-7.784,6.375-11.042
	c0.774-0.883,1.589-1.731,2.372-2.606c0.171-0.191,0.29-0.43,0.476-0.713C101.638,189.98,101.861,189.324,97.396,187.839z
	 M104.446,95.769c-0.314-1.483-0.595-2.812-0.909-4.292c-1.508,1.108-2.709,0.787-3.767-0.414c-0.028-0.031-0.058-0.061-0.085-0.093
	c-0.389-0.444-0.816-0.383-1.214-0.044c-0.251,0.214-0.453,0.49-0.66,0.751c-1.042,1.311-1.828,1.313-2.924-0.003
	c-0.107-0.129-0.189-0.281-0.308-0.397c-0.463-0.453-0.953-0.532-1.291-0.021c-0.797,1.206-1.832,1.485-3.146,1.104
	c-0.051-0.015-0.133,0.075-0.205,0.119c-0.209,1.143-0.418,2.289-0.655,3.58C94.351,98.389,99.338,97.847,104.446,95.769z
	 M124.203,121.548c-0.323-0.831-2.308-2.935-3.373-3.485c0.073,1.015,0.197,2.004,0.2,2.993c0.003,1.005-0.113,2.01-0.178,3.028
	C122.013,123.206,123.095,122.387,124.203,121.548z"/>
<g>
	<path fill="#990033" d="M319.967,103.267c-0.117-2.522-0.287-5.044-0.336-7.569c-0.041-2.114-0.074-4.243,0.131-6.342
		c0.212-2.173,1.502-3.371,3.654-3.779c1.701-0.323,3.41-0.23,5.107,0.048c1.42,0.233,2.294,1.141,2.82,2.43
		c0.615,1.506,0.753,3.109,0.837,4.701c0.156,2.933,0.226,5.871,0.317,8.807c0.062,1.988,0.053,1.985,1.783,2.999
		c4.298,2.518,8.626,4.987,12.884,7.571c8.832,5.36,16.491,12.067,22.874,20.208c2.892,3.688,5.127,7.731,6.723,12.146
		c1.643,4.544,1.503,9.109,0.437,13.726c-0.84,3.637-2.478,6.915-4.431,10.057c-3.109,5.001-6.959,9.355-11.399,13.217
		c-4.635,4.033-9.483,7.789-14.421,11.44c-7.915,5.852-14.649,12.825-19.88,21.202c-0.254,0.407-0.551,0.8-0.888,1.14
		c-0.577,0.583-1.137,0.632-1.783,0.112c-0.693-0.559-1.379-1.146-1.974-1.805c-4.884-5.405-10.475-10.024-16.11-14.6
		c-5.836-4.74-11.544-9.624-16.733-15.085c-4.14-4.357-7.947-8.958-10.837-14.263c-2.113-3.878-3.758-7.928-4.531-12.292
		c-0.99-5.594-0.308-11.038,1.643-16.336c2.026-5.503,5.183-10.269,9.459-14.292c3.403-3.201,7.212-5.854,11.137-8.363
		c7.208-4.606,14.395-9.244,21.591-13.867C318.666,104.076,319.297,103.687,319.967,103.267z M364.288,143.589
		c0.075,0.215,0.101,0.325,0.15,0.424c2.501,5.098,1.67,9.903-1.385,14.443c-1.427,2.121-3.408,3.63-5.892,4.376
		c-3.99,1.198-8.028-0.902-9.166-4.738c-0.787-2.654,0.222-5.228,2.503-6.389c1.877-0.956,4.16-0.387,5.326,1.361
		c0.307,0.46,0.545,0.974,0.76,1.487c0.255,0.606,0.079,1.187-0.382,1.473c-0.479,0.296-1.04,0.191-1.494-0.318
		c-0.272-0.304-0.485-0.66-0.755-0.967c-1.026-1.165-2.408-1.042-3.248,0.272c-0.359,0.562-0.488,1.174-0.349,1.816
		c0.338,1.559,1.188,2.712,2.735,3.256c1.546,0.544,3.016,0.279,4.397-0.521c2.901-1.681,4.424-4.33,5.124-7.507
		c0.532-2.415,0.154-4.702-1.005-6.908c-2.008-3.822-7.182-4.812-10.169-3.347c-1.15,0.564-2.047,1.158-2.314,2.676
		c-0.445,2.525-2.768,4.141-5.184,3.994c-1.654-0.1-3.053-1.112-3.487-2.521c-0.304-0.986,0.031-2.153,0.786-2.727
		c0.345-0.262,0.719-0.403,1.138-0.178c0.404,0.218,0.563,0.576,0.538,1.022c-0.008,0.148-0.045,0.293-0.063,0.441
		c-0.1,0.856,0.215,1.306,1.07,1.281c0.485-0.014,1.037-0.194,1.43-0.478c1.101-0.796,1.375-2.349,0.736-3.622
		c-0.92-1.833-3.2-2.994-5.341-2.716c-2.863,0.373-4.764,2.08-6.206,4.446c-0.419,0.687-0.505,1.262-0.068,2.039
		c1.453,2.584,1.976,5.414,1.396,8.306c-0.902,4.494-3.567,7.687-7.749,9.574c-0.601,0.271-1.269,0.452-1.924,0.535
		c-4.061,0.516-7.902-2.502-8.4-6.591c-0.237-1.942,0.485-3.531,2.039-4.673c1.526-1.12,3.205-1.136,4.841-0.244
		c1.46,0.796,2.002,2.141,1.919,3.754c-0.034,0.676-0.426,1.135-0.95,1.221c-0.525,0.086-0.982-0.253-1.22-0.919
		c-0.075-0.21-0.114-0.432-0.182-0.644c-0.266-0.828-0.758-1.22-1.615-1.296c-1.49-0.131-2.583,1.273-2.169,2.871
		c0.632,2.439,3.225,5.154,6.929,3.39c3.951-1.881,6.38-6.656,5.436-10.986c-0.836-3.834-3.006-6.604-6.823-7.859
		c-2.411-0.793-4.702-0.392-6.822,0.988c-0.676,0.44-1.225,0.96-1.122,1.889c0.032,0.285-0.075,0.588-0.129,0.88
		c-0.462,2.496-2.483,4.416-4.996,4.749c-2.747,0.364-5.385-1.947-5.27-4.617c0.067-1.556,1.175-2.795,2.663-2.985
		c0.485-0.062,0.887,0.059,1.144,0.5c0.269,0.463,0.106,0.866-0.223,1.215c-0.203,0.215-0.454,0.385-0.668,0.591
		c-0.567,0.544-0.632,1.015-0.25,1.692c0.485,0.858,1.259,1.229,2.251,1.08c1.623-0.244,2.838-1.882,2.662-3.59
		c-0.291-2.829-3.185-5.189-5.995-4.806c-2.766,0.377-4.676,1.939-5.838,4.459c-0.267,0.58-0.273,1.092-0.001,1.696
		c1.244,2.769,1.781,5.662,1.357,8.696c-0.531,3.799-2.117,6.96-5.531,8.971c-5.261,3.099-11.665,0.371-13.083-5.571
		c-0.416-1.744-0.176-3.407,0.847-4.91c1.255-1.844,3.474-2.512,5.505-1.678c2.206,0.905,3.441,2.971,3.076,5.143
		c-0.081,0.48-0.293,0.849-0.828,0.905c-0.475,0.049-0.793-0.196-0.948-0.619c-0.165-0.452-0.268-0.927-0.417-1.386
		c-0.364-1.116-1.665-2.067-2.7-1.988c-1.106,0.085-2.077,1.138-2.242,2.44c-0.023,0.184-0.02,0.371-0.02,0.557
		c0.001,3.266,3.093,6.192,6.375,5.989c2.49-0.154,4.339-1.442,5.699-3.457c1.088-1.613,1.564-3.441,1.65-5.372
		c0.092-2.07-0.226-4.042-1.044-5.983c-0.618-1.469-1.367-2.808-2.453-3.949c-3.05-3.207-7.598-4.022-11.8-1.983
		c-4.965,2.41-7.942,6.493-9.321,11.758c-0.441,1.684-0.676,3.427-0.238,5.186c0.971,3.895,2.573,7.519,4.63,10.953
		c0.072,0.12,0.191,0.213,0.32,0.352c0.414-0.113,0.811-0.22,1.49-0.405c-0.507-0.431-0.829-0.679-1.119-0.961
		c-0.239-0.232-0.507-0.474-0.635-0.767c-0.12-0.273-0.18-0.663-0.073-0.923c0.166-0.404,0.61-0.399,0.974-0.268
		c0.345,0.124,0.661,0.33,0.984,0.51c0.246,0.137,0.484,0.289,0.849,0.508c-0.029-0.623-0.096-1.1-0.06-1.569
		c0.036-0.472,0.082-0.983,0.29-1.392c0.373-0.732,1.185-0.709,1.569,0.019c0.187,0.355,0.27,0.768,0.376,1.161
		c0.189,0.696,0.36,1.397,0.581,2.263c0.486-0.414,0.813-0.705,1.153-0.979c0.347-0.28,0.695-0.561,1.066-0.808
		c0.339-0.226,0.702-0.259,1.006,0.08c0.286,0.318,0.139,0.625-0.067,0.909c-0.228,0.315-0.474,0.617-0.712,0.925
		c0.52,0.109,0.913,0.033,1.309-0.023c0.786-0.109,1.301,0.15,1.439,0.71c0.14,0.566-0.206,1.016-0.979,1.242
		c-0.392,0.115-0.795,0.194-1.19,0.298c-0.582,0.153-1.161,0.314-1.896,0.513c0.865,0.82,1.572,1.476,2.26,2.151
		c0.236,0.232,0.519,0.485,0.606,0.78c0.079,0.269,0.011,0.678-0.159,0.892c-0.135,0.17-0.57,0.259-0.788,0.172
		c-0.44-0.175-0.818-0.502-1.231-0.751c-0.293-0.177-0.508-0.534-0.948-0.483c-0.009,0.16-0.028,0.269-0.018,0.374
		c0.054,0.556,0.19,1.161-0.507,1.422c-0.489,0.183-0.854-0.158-1.196-1.053c-0.233-0.61-0.449-1.227-0.723-1.98
		c-0.505,0.436-0.887,0.765-1.325,1.143c0.273,0.384,0.498,0.719,0.74,1.042c2.442,3.25,5.204,6.218,8.044,9.118
		c4.984,5.087,10.44,9.643,15.947,14.137c5.397,4.405,10.657,8.952,15.259,14.209c0.11,0.126,0.272,0.206,0.444,0.332
		c0.184-0.272,0.333-0.482,0.472-0.699c5.303-8.313,11.948-15.365,19.878-21.221c2.813-2.077,5.616-4.174,8.34-6.364
		c2.492-2.004,4.878-4.142,7.295-6.238c0.262-0.227,0.6-0.579,0.593-0.865c-0.021-0.834-0.198-1.664-0.337-2.662
		c-0.36,0.35-0.589,0.579-0.825,0.801c-0.298,0.279-0.584,0.577-0.91,0.821c-0.362,0.272-0.783,0.534-1.2,0.122
		c-0.385-0.38-0.249-0.833-0.004-1.228c0.333-0.537,0.713-1.044,1.062-1.571c0.147-0.222,0.267-0.463,0.436-0.761
		c-0.427-0.058-0.721-0.083-1.009-0.14c-0.509-0.101-1.021-0.197-1.519-0.342c-0.377-0.11-0.672-0.359-0.649-0.8
		c0.022-0.436,0.33-0.651,0.716-0.746c0.359-0.088,0.726-0.149,1.092-0.202c0.466-0.068,0.934-0.117,1.612-0.201
		c-0.556-0.581-0.955-1.009-1.365-1.427c-0.721-0.734-0.877-1.116-0.598-1.511c0.311-0.441,0.801-0.398,1.707,0.101
		c0.431,0.237,0.777,0.681,1.443,0.657c0-0.5-0.028-0.945,0.008-1.385c0.039-0.477,0.067-0.977,0.238-1.413
		c0.099-0.254,0.463-0.546,0.719-0.557c0.255-0.011,0.636,0.251,0.762,0.496c0.196,0.382,0.244,0.848,0.316,1.284
		c0.075,0.46,0.104,0.927,0.177,1.625c0.411-0.474,0.65-0.747,0.886-1.023c0.434-0.509,0.847-1.039,1.306-1.524
		c0.317-0.334,0.784-0.414,1.095-0.08c0.211,0.226,0.29,0.656,0.275,0.987c-0.012,0.268-0.231,0.539-0.394,0.785
		c-0.474,0.712-0.972,1.409-1.447,2.12c-0.152,0.227-0.261,0.482-0.424,0.788c1.122,0.075,2.114,0.141,3.119,0.209
		c1.753-2.356,3.282-4.815,4.559-7.429c1.727-3.536,2.558-7.285,2.58-11.209c0.005-0.858,0.082-1.751-0.287-2.659
		c-0.344,0.251-0.608,0.449-0.877,0.64c-0.832,0.589-1.737,1-2.761,1.12c-1.348,0.158-2.41-0.329-3.163-1.445
		c-0.793-1.176-0.916-2.425-0.239-3.693c0.431-0.808,1.631-1.25,2.408-0.944c0.694,0.273,0.824,1.037,0.24,1.492
		c-0.172,0.134-0.388,0.219-0.594,0.299c-0.526,0.205-0.595,0.623-0.517,1.097c0.129,0.785,0.848,1.269,1.655,1.076
		c1.249-0.299,2.254-0.982,2.885-2.111c0.157-0.281,0.205-0.728,0.101-1.03c-0.348-1.018-0.795-2.002-1.186-3.006
		c-0.168-0.43-0.491-0.599-0.908-0.729c-1.054-0.329-2.122-0.404-3.196-0.198C366.941,141.664,365.419,142.204,364.288,143.589z
		 M362.985,128.765c-0.081-0.163-0.1-0.242-0.148-0.294c-0.252-0.273-0.509-0.542-0.768-0.809c-4.475-4.617-9.471-8.6-14.88-12.059
		c-3.383-2.163-6.824-4.236-10.256-6.319c-1.748-1.061-3.556-2.021-5.295-3.096c-0.732-0.453-1.452-0.616-2.305-0.625
		c-2.526-0.027-5.055-0.095-7.574-0.272c-0.648-0.045-1.123,0.009-1.637,0.379c-1.841,1.326-3.666,2.68-5.566,3.915
		c-5.643,3.669-11.318,7.291-16.985,10.924c-3.545,2.273-6.953,4.725-10.031,7.611c-0.314,0.295-0.609,0.611-0.902,0.906
		c1.856,2.232,4.816,3.163,7.427,2.164c1.723-0.659,3.356-1.582,4.965-2.501c1.936-1.105,3.779-2.372,5.707-3.493
		c1.707-0.992,3.525-1.749,5.44-2.268c3.338-0.905,6.339-0.222,9.01,1.918c0.897,0.719,1.672,1.589,2.55,2.333
		c0.962,0.815,1.915,1.668,2.985,2.319c2.152,1.311,3.926,1.094,5.807-0.595c0.885-0.794,1.702-1.664,2.551-2.499
		c1.66-1.633,3.509-2.988,5.676-3.878c3.301-1.355,6.551-1.255,9.663,0.506c1.22,0.691,2.33,1.589,3.443,2.453
		c1.204,0.935,2.33,1.967,3.531,2.906c1.005,0.786,2.158,1.291,3.401,1.614C360.438,130.436,361.785,129.961,362.985,128.765z
		 M285.374,130.291c-4.399,4.889-7.172,10.473-8.253,16.9c0.3-0.234,0.5-0.525,0.688-0.825c1.624-2.584,3.596-4.833,6.22-6.45
		c2.154-1.328,4.468-2.24,7.016-2.328c3.726-0.129,6.915,1.179,9.546,3.829c0.273,0.275,0.55,0.547,0.856,0.851
		c3.461-6.89,12.357-7.852,15.922-1.042c5.283-3.828,10.251-3.015,15.043,1.078c0.199-0.353,0.368-0.678,0.56-0.99
		c2.117-3.434,5.091-5.384,9.229-5.143c2.676,0.156,4.86,1.283,6.295,3.646c0.126,0.208,0.278,0.4,0.419,0.602
		c3.692-2.92,9.397-3.042,13.878,1.011c0.969-1.047,2.084-1.932,3.473-2.316c1.371-0.379,2.781-0.615,4.266-0.934
		c-1.672-2.722-3.631-5.255-5.72-7.61c-0.177,0.031-0.223,0.025-0.249,0.046c-0.202,0.162-0.403,0.326-0.599,0.494
		c-1.495,1.28-3.199,1.817-5.17,1.539c-1.85-0.261-3.514-0.97-4.999-2.064c-1.136-0.837-2.186-1.79-3.283-2.68
		c-0.895-0.726-1.753-1.51-2.714-2.137c-2.702-1.764-5.554-1.942-8.497-0.612c-1.613,0.729-3.013,1.764-4.272,2.996
		c-0.878,0.859-1.716,1.76-2.623,2.586c-2.966,2.7-6.089,2.99-9.466,0.798c-1.145-0.744-2.16-1.695-3.2-2.592
		c-0.732-0.631-1.37-1.37-2.111-1.989c-2.01-1.678-4.306-2.38-6.863-1.605c-1.592,0.483-3.182,1.063-4.658,1.823
		c-1.947,1.001-3.792,2.203-5.66,3.352c-1.716,1.055-3.477,2.009-5.387,2.664c-3.233,1.109-6.071,0.344-8.605-1.827
		C286.123,131.072,285.825,130.738,285.374,130.291z M321.548,98.637c0.361,0.103,0.57,0.211,0.78,0.214
		c1.521,0.024,3.048,0.1,4.563,0.008c0.795-0.048,1.577-0.384,2.355-0.622c0.521-0.159,0.755-0.508,0.713-1.093
		c-0.098-1.371-0.093-2.75-0.223-4.117c-0.126-1.327-0.343-2.647-0.572-3.962c-0.125-0.722-0.573-1.245-1.347-1.27
		c-1.371-0.046-2.753-0.121-4.115-0.003c-1.361,0.118-1.794,0.63-2.022,1.966c-0.106,0.62-0.179,1.254-0.182,1.882
		c-0.008,1.709,0.031,3.419,0.048,5.129C321.553,97.391,321.548,98.015,321.548,98.637z M321.634,102.928c2.84,0,5.639,0,8.554,0
		c-0.069-0.941-0.13-1.771-0.201-2.734c-2.761,1.132-5.503,1.021-8.353,0.351C321.634,101.375,321.634,102.069,321.634,102.928z
		 M363.566,174.087c0,0.334,0,0.622,0,0.976C364.224,174.482,364.224,174.482,363.566,174.087z M366.153,172.181
		c-0.283,0-0.507,0-0.803,0C365.647,172.766,365.872,172.703,366.153,172.181z"/>
	<path fill="#990033" d="M336.929,171.947c-0.986,0.112-1.755,0.232-2.529,0.276c-0.474,0.027-0.978,0.016-1.428-0.117
		c-0.747-0.221-0.906-0.962-0.301-1.461c0.388-0.32,0.89-0.533,1.374-0.699c0.829-0.284,1.684-0.494,2.473-0.72
		c-0.696-0.763-1.369-1.498-2.039-2.236c-0.275-0.303-0.599-0.58-0.795-0.928c-0.144-0.256-0.225-0.643-0.141-0.911
		c0.134-0.428,0.596-0.447,0.95-0.339c0.49,0.149,0.981,0.352,1.413,0.624c0.722,0.455,1.397,0.985,2.093,1.481
		c0.177,0.126,0.359,0.246,0.652,0.445c0.047-0.324,0.11-0.553,0.108-0.781c-0.009-0.781-0.046-1.561-0.064-2.341
		c-0.006-0.26-0.006-0.523,0.025-0.78c0.099-0.818,0.497-1.304,1.087-1.355c0.609-0.052,1.091,0.336,1.298,1.144
		c0.147,0.573,0.201,1.17,0.299,1.757c0.067,0.4,0.138,0.799,0.245,1.409c0.67-0.704,1.22-1.285,1.776-1.863
		c0.257-0.268,0.506-0.549,0.792-0.783c0.341-0.279,0.734-0.373,1.127-0.085c0.403,0.295,0.585,0.708,0.376,1.17
		c-0.228,0.503-0.517,0.986-0.828,1.444c-0.409,0.602-0.866,1.171-1.463,1.969c1.093-0.096,1.924-0.178,2.757-0.24
		c0.667-0.049,1.335-0.083,2.003-0.105c0.466-0.016,0.785,0.228,0.918,0.664c0.139,0.456-0.08,0.826-0.451,1.043
		c-0.379,0.222-0.804,0.388-1.228,0.506c-1.215,0.338-2.44,0.639-3.845,1.16c0.245,0.153,0.512,0.278,0.731,0.462
		c1.195,1.006,2.388,2.014,3.562,3.044c0.815,0.715,0.974,1.351,0.546,1.919c-0.416,0.552-1.104,0.539-1.983-0.068
		c-0.948-0.655-1.879-1.336-2.823-1.997c-0.296-0.207-0.613-0.384-1.085-0.678c0.108,1.203,0.202,2.22,0.291,3.237
		c0.058,0.666,0.144,1.332,0.155,1.999c0.013,0.806-0.397,1.319-1.015,1.373c-0.544,0.048-1.069-0.341-1.226-1.074
		c-0.399-1.852-0.739-3.716-1.103-5.575c-0.041-0.21-0.087-0.42-0.164-0.794c-0.3,0.251-0.519,0.41-0.71,0.597
		c-0.981,0.963-1.939,1.951-2.942,2.89c-0.346,0.324-0.773,0.603-1.214,0.77c-0.255,0.096-0.712,0.029-0.891-0.15
		c-0.176-0.177-0.226-0.629-0.133-0.889c0.145-0.407,0.428-0.778,0.705-1.122c0.698-0.87,1.428-1.715,2.139-2.574
		C336.561,172.5,336.673,172.313,336.929,171.947z"/>
	<path fill="#990033" d="M326.585,189.034c2.133-0.904,4.041-1.636,5.873-2.524c0.766-0.371,1.381-0.199,1.658,0.264
		c0.337,0.563,0.14,1.278-0.586,1.695c-0.867,0.498-1.787,0.906-2.695,1.332c-0.93,0.436-1.873,0.845-2.964,1.335
		c0.429,0.321,0.709,0.542,0.999,0.746c0.82,0.578,1.648,1.146,2.467,1.727c0.242,0.172,0.479,0.356,0.691,0.563
		c0.468,0.457,0.579,0.983,0.325,1.397c-0.26,0.423-0.775,0.563-1.385,0.309c-0.513-0.213-1.005-0.481-1.496-0.744
		c-0.619-0.331-1.227-0.682-2.014-0.918c0.294,0.696,0.578,1.396,0.884,2.086c0.211,0.475,0.478,0.926,0.674,1.407
		c0.283,0.695,0.087,1.329-0.469,1.664c-0.549,0.331-1.234,0.244-1.685-0.371c-0.457-0.623-0.782-1.343-1.153-2.027
		c-0.202-0.373-0.381-0.758-0.57-1.138c-0.074,0.016-0.148,0.031-0.223,0.047c-0.177,0.669-0.346,1.341-0.534,2.007
		c-0.111,0.392-0.213,0.795-0.388,1.159c-0.286,0.593-0.848,0.847-1.367,0.682c-0.539-0.171-0.864-0.67-0.823-1.308
		c0.014-0.22,0.085-0.436,0.133-0.654c0.268-1.235,0.539-2.468,0.801-3.704c0.043-0.204,0.044-0.418,0.075-0.738
		c-0.867,0.297-1.621,0.591-2.397,0.809c-0.53,0.149-1.087,0.248-1.636,0.266c-0.373,0.012-0.788-0.199-0.784-0.636
		c0.003-0.284,0.176-0.678,0.401-0.827c0.742-0.489,1.539-0.896,2.322-1.321c0.45-0.244,0.914-0.462,1.503-0.758
		c-0.708-0.48-1.312-0.833-1.85-1.267c-0.748-0.604-1.468-1.248-2.157-1.919c-0.256-0.25-0.434-0.607-0.569-0.946
		c-0.18-0.453,0.035-0.743,0.517-0.699c0.324,0.029,0.654,0.138,0.954,0.271c0.81,0.361,1.605,0.754,2.606,1.229
		c-0.124-0.504-0.223-0.833-0.283-1.169c-0.144-0.801-0.302-1.601-0.39-2.409c-0.046-0.428,0.153-0.831,0.598-0.973
		c0.473-0.151,0.796,0.162,0.996,0.529c0.355,0.651,0.658,1.331,0.976,2.001c0.205,0.432,0.396,0.87,0.681,1.498
		c0.173-0.418,0.293-0.657,0.372-0.909c0.289-0.921,0.546-1.852,0.851-2.768c0.161-0.484,0.48-0.857,1.049-0.842
		c0.447,0.012,0.899,0.486,0.896,1.12c-0.005,0.847-0.125,1.699-0.263,2.538C327.061,187.019,326.838,187.876,326.585,189.034z"/>
	<path fill="#990033" d="M303.992,177.279c-0.686,0.257-1.367,0.532-2.061,0.764c-0.491,0.164-0.994,0.309-1.504,0.39
		c-0.546,0.087-1.043-0.046-1.305-0.612c-0.212-0.456-0.084-0.942,0.48-1.348c0.6-0.432,1.264-0.776,1.903-1.154
		c0.281-0.166,0.57-0.319,0.99-0.553c-0.631-0.329-1.146-0.584-1.647-0.864c-0.323-0.18-0.643-0.375-0.936-0.601
		c-0.412-0.319-0.636-0.734-0.44-1.269c0.168-0.456,0.676-0.714,1.301-0.615c0.437,0.069,0.868,0.202,1.289,0.344
		c0.736,0.247,1.462,0.522,2.316,0.831c-0.048-0.384-0.056-0.666-0.122-0.935c-0.222-0.901-0.49-1.792-0.687-2.699
		c-0.093-0.429-0.106-0.885-0.083-1.325c0.023-0.441,0.279-0.765,0.725-0.885c0.452-0.122,0.825,0.058,1.065,0.421
		c0.243,0.368,0.445,0.773,0.602,1.186c0.343,0.9,0.646,1.816,1.01,2.853c0.196-0.248,0.369-0.409,0.473-0.607
		c0.468-0.887,0.916-1.785,1.373-2.678c0.152-0.298,0.299-0.599,0.468-0.887c0.512-0.87,1.17-1.165,1.804-0.825
		c0.581,0.312,0.693,0.983,0.292,1.864c-0.416,0.913-0.85,1.817-1.27,2.728c-0.153,0.332-0.288,0.671-0.448,1.045
		c0.595,0.231,1.005-0.134,1.455-0.221c0.363-0.07,0.707-0.239,1.069-0.305c0.577-0.105,1.108,0.161,1.318,0.607
		c0.236,0.501,0.09,1.129-0.451,1.46c-0.663,0.405-1.383,0.716-2.077,1.072c-0.316,0.162-0.629,0.333-1.115,0.592
		c0.664,0.346,1.175,0.618,1.69,0.879c0.398,0.201,0.814,0.368,1.2,0.588c0.772,0.439,1.045,1.11,0.747,1.75
		c-0.285,0.612-1.001,0.824-1.84,0.511c-0.451-0.169-0.881-0.395-1.323-0.588c-0.439-0.191-0.882-0.372-1.453-0.613
		c0.032,0.359,0.028,0.599,0.078,0.827c0.279,1.269,0.578,2.534,0.853,3.803c0.054,0.248,0.132,0.561,0.031,0.755
		c-0.157,0.3-0.415,0.639-0.71,0.752c-0.475,0.181-0.887-0.129-1.096-0.552c-0.477-0.964-0.906-1.953-1.344-2.936
		c-0.12-0.268-0.203-0.553-0.369-1.015c-0.249,0.369-0.42,0.618-0.585,0.87c-0.446,0.683-0.865,1.386-1.343,2.046
		c-0.293,0.403-0.706,0.686-1.254,0.478c-0.42-0.16-0.633-0.69-0.452-1.357c0.174-0.641,0.443-1.26,0.702-1.874
		c0.271-0.644,0.581-1.271,0.874-1.906C304.122,177.404,304.057,177.341,303.992,177.279z"/>
</g>
</svg>
