<?xml version="1.0" encoding="utf-8"?>
<!-- Generator: Adobe Illustrator 21.1.0, SVG Export Plug-In . SVG Version: 6.00 Build 0)  -->
<svg version="1.1" id="Calque_1" xmlns="http://www.w3.org/2000/svg" xmlns:xlink="http://www.w3.org/1999/xlink" x="0px" y="0px"
	 viewBox="0 0 432 432" style="enable-background:new 0 0 432 432;" xml:space="preserve">
<style type="text/css">
	.st0{fill:#FF85A1;}
	.st1{fill:#FF577D;}
	.st2{fill:#FF8AA4;}
</style>
<g>
	<path class="st0" d="M159.5,217.4c-0.2,0.1-0.4,0.3-0.5,0.4c-12.6,12.9-25.8,25.2-39.4,37c-6,5.2-12.1,10.3-18.2,15.4
		c-1.4,1.2-2.8,2.4-4.2,3.7c-0.3,0.2-0.5,0.5-0.8,0.6c-0.6,0.3-1.3,0.3-1.9-0.1c-0.6-0.5-0.8-1.1-0.6-1.8c0.1-0.5,0.3-1,0.6-1.4
		c0.7-1.2,1.6-2.2,2.6-3.2c2.7-2.9,5.7-5.6,8.6-8.3c5.9-5.4,12-10.7,18.1-16c11-9.6,21.6-19.6,32-29.8c0.7-0.7,0.7-0.6-0.1-1.3
		c-3.3-2.8-6.8-5.6-10.2-8.3c-5.1-4.1-10.1-8.1-15.1-12.2c-8.5-7-16.7-14.3-24.1-22.5c-6.7-7.3-12.7-15.2-17.7-23.8
		c-3.8-6.6-6.8-13.6-8.9-20.9c-1.2-4.3-1.9-8.8-2.1-13.3c-0.4-9.7,1.4-18.8,5.8-27.5c3.8-7.5,9.6-13.1,17.3-16.5
		c4.3-1.9,8.9-2.9,13.6-3c4.7-0.1,9.3,0.6,13.9,1.6c8.6,1.9,16.3,5.7,23.4,10.9c2.7,2,5.3,4.1,7.8,6.4c0.5,0.4,0.5,0.4,0.9-0.1
		c3-3.9,6.4-7.4,10.4-10.3c5-3.6,10.4-6.2,16.5-7.4c7.2-1.4,14.3-0.8,21.1,2.1c7.2,3.1,12.4,8.3,15.8,15.4c1.9,4,3,8.2,3.6,12.6
		c0.6,5.3,0.4,10.5-0.4,15.7c-1.3,9-4.2,17.6-8,25.8c-4.2,9.1-9.2,17.7-14.8,26.1c-6.1,9.2-12.8,18-20,26.5
		c-6.2,7.4-12.7,14.5-19.3,21.6c-0.6,0.6-0.6,0.5-0.2,1.3c2.6,5.6,5.5,11,8.6,16.3c3.8,6.4,7.9,12.6,12.4,18.6
		c3.1,4.1,6.3,8.2,9.8,12c1,1.1,2,2.2,3.1,3.3c1,1,1.5,2.3,1.8,3.6c0.3,1.3-0.5,2.5-1.8,2.8c-0.6,0.1-1.2,0-1.7-0.2
		c-1.2-0.5-2.3-1.2-3.2-2.1c-4.2-4.4-8.2-9.1-11.9-14c-5.8-7.7-11.1-15.8-16-24.1c-2.1-3.6-4.2-7.3-6.1-11
		C159.8,217.8,159.7,217.5,159.5,217.4z M162.3,207.1c0.3-0.1,0.5-0.3,0.6-0.5c9-9.3,17.7-19,25.6-29.3c6.3-8,12.2-16.3,17.5-25.1
		c4.5-7.5,8.6-15.3,11.8-23.5c2.8-7.1,4.9-14.4,5.5-22c0.4-4.3,0.2-8.6-0.6-12.8c-1-4.9-2.9-9.5-6.1-13.5c-3.2-4.1-7.3-7-12.3-8.5
		c-6.7-1.9-13.3-1.6-19.7,0.9c-4.5,1.7-8.5,4.4-11.9,7.8c-3.7,3.6-6.6,7.9-9,12.4c-3.1,5.7-5.4,11.8-7.2,18.1
		c-3,10.3-4.4,20.9-4.8,31.6c-0.3,7.8-0.2,15.6,0.5,23.3c0.4,4.6,1,9.3,1.9,13.8c1.6,8.7,4.1,17.2,7.5,25.4
		C161.8,206,162,206.5,162.3,207.1z M134,131.5c0.5,1.2,1,2.3,1.5,3.4c0.3,0.6,0.6,1.2,1,1.8c0.7,0.9,1.6,0.7,2.1-0.2
		c1.2-2.3,2.2-4.7,2.9-7.1c0.1-0.2,0.1-0.4,0.2-0.5c0.1-0.2,0.2-0.3,0.4-0.2c0.2,0,0.3,0.1,0.3,0.3c0,0.1,0,0.3,0,0.4
		c-0.2,2.2,0.2,4.2,1.3,6.2c0.4,0.8,1,1.4,1.7,2c0.7,0.5,1.4,0.6,2.2,0.2c0.4-0.2,0.7-0.4,1.1-0.7c1.2-1.1,1.7-2.5,2.3-3.9
		c0,0,0-0.1,0-0.1c0-0.2-0.1-0.3-0.2-0.4c-0.2-0.1-0.3,0-0.4,0.1c-0.1,0.2-0.2,0.3-0.3,0.5c-0.4,0.8-0.8,1.6-1.4,2.3
		c-0.3,0.4-0.6,0.7-1,0.9c-0.6,0.3-0.9,0.2-1.2-0.4c-0.1-0.2-0.2-0.4-0.2-0.6c-0.5-2.1-0.2-4.2-0.1-6.2c0-0.3,0.2-0.3,0.4-0.3
		c0.3-0.1,0.7-0.2,1-0.3c2.7-1.3,2.4-4.2,1-5.6c-0.7-0.8-1.7-0.9-2.6-0.4c-0.6,0.3-1,0.7-1.4,1.2c-0.7,0.8-1.2,1.7-1.5,2.7
		c-0.1,0.3-0.2,0.6-0.3,0.9c0,0.1-0.1,0.2-0.2,0.2c-0.1,0-0.3-0.1-0.3-0.3c0-0.2,0.1-0.3,0.1-0.5c0.3-1.1,0.4-2.1,0.4-3.2
		c0-0.9-0.2-1.7-0.7-2.5c-0.6-0.8-1.5-1-2.3-0.5c-0.4,0.3-0.7,0.6-0.9,1.1c-0.3,0.7-0.4,1.4-0.3,2.2c0.1,1.7,0.9,3,2.1,4.1
		c0.3,0.3,0.4,0.5,0.2,0.9c-0.7,2-1.6,3.9-2.4,5.8c0,0.1-0.1,0.2-0.2,0.2c-0.2-0.1-0.2-0.3-0.2-0.5c-0.3-1.8-0.5-3.5-0.7-5.3
		c-0.2-1.6-0.6-3.2-1.2-4.7c-0.2-0.5-0.5-1-0.9-1.4c-0.9-1-2.2-0.7-2.6,0.5c-0.2,0.6-0.2,1.1-0.2,1.7c0.1,1.3,0.3,2.5,0.8,3.7
		c0.4,0.9,0.3,1.7-0.2,2.5c-0.6,1.1-1.1,2.2-1.9,3.2c-0.4,0.5-0.8,0.9-1.3,1.1c-1,0.4-1.8,0.2-2.4-0.8c-0.3-0.5-0.5-1-0.6-1.5
		c-0.1-0.7-0.3-1.3-0.4-2c-0.1-1-0.2-2-0.3-2.9c0-0.5,0-0.5,0.5-0.6c0.5-0.1,1-0.1,1.5-0.2c1-0.3,1.5-1,1.5-2c-0.1-1.7-0.8-3-2.2-4
		c-0.8-0.6-1.7-0.5-2.5,0c-0.4,0.2-0.6,0.5-0.9,0.9c-1,1.4-1.6,2.9-1.7,4.5c-0.1,1.3,0.1,2.7,0.4,4c0.1,0.2,0.1,0.5,0.1,0.7
		c-0.4,1.1-0.6,2.3-1.1,3.4c-0.1,0.2-0.2,0.5-0.5,0.6c-0.2-0.3-0.3-0.7-0.4-1.1c-0.3-1.5-0.3-3.1-0.2-4.6c0.1-1.3,0.1-2.7,0.1-4
		c0-0.7,0-1.3-0.2-1.9c-0.2-0.6-0.6-0.9-1.1-0.9c-0.5,0-0.9,0.3-1,0.9c-0.1,0.4-0.3,0.9-0.3,1.4c0,2.4-0.7,4.7-1.6,7
		c-0.1,0.4-0.2,0.7-0.4,1.1c-0.2,0.4-0.4,0.8-0.6,1.1c-0.1,0.1-0.2,0.3-0.3,0.4c-0.3,0.4-0.5,0.4-0.8,0c-0.2-0.2-0.3-0.5-0.5-0.8
		c-0.2-0.5-0.4-1-0.5-1.6c-0.4-2.1-0.6-4.2-0.6-6.3c0-0.3,0.1-0.6,0.3-0.8c0.7-1,1.3-1.9,1.9-2.9c1.1-1.7,2-3.5,2.5-5.4
		c0.3-1.1,0.3-2.2,0-3.3c-0.6-1.7-2.3-2.3-3.9-1.4c-0.5,0.3-0.9,0.7-1.2,1.1c-0.8,1-1.4,2.2-1.8,3.5c-1.1,3.4-1.3,6.8-0.9,10.3
		c0.2,1.5,0.2,1.5-0.4,2.9c-0.4,0.8-0.9,1.7-1.3,2.5c-0.3,0.5-0.6,0.9-0.9,1.3c-0.3,0.3-0.7,0.7-1.1,0.9c-1,0.6-1.9,0.4-2.5-0.6
		c-0.2-0.4-0.4-0.8-0.6-1.2c-0.5-1.3-0.7-2.7-0.8-4.1c0-0.5-0.1-0.6,0.5-0.6c1-0.1,2-0.4,2.9-0.9c0.9-0.5,1.4-1.4,1.4-2.4
		c0-1.2-0.6-2.2-1.4-3c-1.4-1.4-3.2-1.5-4.7-0.3c-0.9,0.8-1.6,1.7-1.9,2.9c-0.2,0.7-0.3,1.3-0.4,2c-0.1,0.4-0.2,0.4-0.7,0.5
		c-0.4,0-0.4-0.2-0.4-0.5c-0.3-1.2-0.7-2.4-1.5-3.4c-1.6-2.1-4.4-2.9-6.8-0.5c-1.6,1.6-2.4,3.5-2.8,5.6c0,0.2,0,0.4-0.2,0.5
		c-0.2-1-0.4-2.1-0.5-3.1c-0.3-2.9-0.3-5.8-0.2-8.8c0-0.5,0-0.9-0.1-1.4c0-0.2-0.1-0.5-0.2-0.7c-0.4-0.6-1.1-0.6-1.5-0.1
		c-0.2,0.2-0.3,0.5-0.4,0.8c-0.3,1-0.5,2.1-0.5,3.1c-0.1,2.5,0,5.1,0.4,7.6c0.5,3.4,1.8,6.5,3.7,9.4c0.1,0.1,0.2,0.3,0.3,0.4
		c0.3,0.2,0.6,0.3,1,0.1c0.3-0.2,0.5-0.5,0.5-0.9c0-0.3-0.1-0.5-0.2-0.7c-0.5-1.3-0.8-2.7-0.8-4.1c0-1.4,0.2-2.8,0.9-4.1
		c0.5-0.9,1.1-1.7,2-2.2c1.1-0.6,2.1-0.4,2.9,0.6c0.7,0.8,1.1,1.9,1.3,2.9c0.1,0.4,0,0.6-0.3,0.8c-1.1,0.6-1.9,1.6-2.6,2.6
		c-0.4,0.7-0.6,1.4-0.5,2.2c0.2,1.1,0.7,1.9,1.7,2.3c1,0.4,1.8-0.1,2.5-0.7c0.7-0.6,1.1-1.4,1.4-2.3c0.4-1.3,0.6-2.5,0.6-3.9
		c0-0.4,0.1-0.4,0.6-0.5c0.3,0,0.4,0.1,0.5,0.4c0.1,0.9,0.3,1.8,0.6,2.7c0.5,1.6,1.4,3,2.6,4.1c1.3,1.2,2.7,1.4,4.4,0.6
		c0.5-0.3,1-0.6,1.4-1.1c1.1-1.2,1.9-2.5,2.5-4c0.1-0.2,0.1-0.5,0.4-0.8c0.1,0.3,0.2,0.5,0.3,0.8c0.5,1.2,1,2.4,1.7,3.6
		c0.4,0.6,0.9,1.2,1.6,1.6c0.9,0.4,1.6,0.3,2.3-0.3c0.4-0.4,0.7-0.9,0.9-1.5c0.3-0.8,0.5-1.5,0.8-2.3c0-0.1,0-0.3,0.2-0.3
		c0.2,0.8,0.3,1.5,0.5,2.3c0.2,0.8,0.5,1.6,1.1,2.2c0.8,1,1.9,1,2.7-0.1c0.4-0.6,0.7-1.3,1-2c0.1-0.2,0.1-0.5,0.3-0.6
		c0.1,0.2,0.3,0.4,0.4,0.6c0.5,0.7,1,1.4,1.6,2c1.9,1.8,4.7,1.3,6-0.3c0.6-0.7,1.1-1.5,1.4-2.4C133.3,133.2,133.6,132.4,134,131.5z
		 M126.5,71.6c0,0.7-0.2,1.2-0.3,1.8c-0.5,2.8-0.6,5.6-0.8,8.5c-0.2,2-0.3,3.9-0.5,5.9c-0.3,3.2-0.6,6.5-0.9,9.7
		c-0.2,2.7-0.4,5.4-0.5,8.1c0,1.1-0.1,2.2-0.2,3.4c0,0.3,0,0.6-0.1,0.8c-0.1,0.2-0.5,0.1-0.7,0.2c-0.3,0.1-0.6,0.3-0.6,0.6
		c-0.1,0.4,0.1,0.6,0.4,0.8c0.4,0.2,0.8,0.3,1.3,0.2c0.5,0,1.1,0,1.6-0.1c0.7-0.1,1.4-0.1,2-0.2c0.5-0.1,0.7-0.4,0.7-0.7
		c0-0.4-0.3-0.6-0.8-0.7c-0.3-0.1-0.6-0.1-0.9-0.1c-0.7,0-0.7,0-0.7-0.7c-0.1-1.1,0.1-2.2,0.1-3.2c0.1-0.9,0.1-1,1-0.8
		c1.2,0.2,2.4,0.3,3.6,0.3c2.2,0.2,4.3,0.3,6.5,0.6c0.5,0.1,0.5,0.1,0.5,0.6c0,1.3-0.1,2.7-0.1,4c0,0.2,0.1,0.5-0.1,0.7
		c-0.1,0.2-0.4,0-0.6,0.1c-0.4,0.1-0.7,0.3-0.7,0.6c-0.1,0.3,0.1,0.7,0.5,0.9c0.3,0.2,0.7,0.2,1,0.2c1,0,1.9,0,2.9,0
		c0.2,0,0.3,0,0.5-0.1c0.4-0.1,0.6-0.4,0.6-0.7c0-0.3-0.3-0.6-0.6-0.7c-0.2-0.1-0.5,0-0.8-0.1c-0.7,0-0.7,0-0.6-0.7
		c0.1-2.2,0.3-4.4,0.5-6.6c0.1-1.2,0.2-2.3,0.3-3.5c0.2-2,0.4-3.9,0.7-5.9c0.2-2,0.5-4.1,0.7-6.1c0.5-3.5,1.2-7,1.1-10.6
		c0-0.3,0.1-0.4,0.4-0.3c0.4,0,0.8,0.1,1.3,0c0.3-0.1,0.5-0.2,0.6-0.5c0.1-0.3-0.1-0.6-0.4-0.7c-0.3-0.1-0.6-0.2-0.9-0.2
		c-1.2,0-2.5-0.1-3.7,0c-0.6,0-1,0.3-1,0.7c0,0.4,0.4,0.8,1,0.8c0.2,0,0.4,0,0.6,0c0.1,0,0.3,0,0.4,0.1c0,0.1,0,0.2,0,0.3
		c-0.6,2.5-1,5-1.4,7.6c-0.7,4.6-1,9.3-1.4,13.9c-0.1,1.4-0.2,2.8-0.3,4.2c0,0.3-0.1,0.5-0.5,0.4c-0.5-0.1-1-0.1-1.5-0.2
		c-2.7-0.3-5.4-0.5-8.1-0.5c-0.3,0-0.6,0-0.8-0.1c-0.5-0.1-0.5-0.1-0.5-0.6c0.1-1,0.2-2.1,0.3-3.1c0.2-2.4,0.4-4.8,0.6-7.1
		c0.3-3.3,0.5-6.7,0.8-10c0.2-1.8,0.2-3.6,0.4-5.5c0.1-1.6,0.2-3.2,0.2-4.8c0-0.8,0-0.8,0.7-0.6c0.1,0,0.3,0.1,0.4,0.1
		c0.2,0,0.5,0,0.7-0.1c0.5-0.2,0.6-0.8,0.2-1.1c-0.2-0.2-0.5-0.3-0.8-0.4c-1.3-0.2-2.6-0.3-3.8-0.4c-0.1,0-0.2,0-0.4,0
		c-0.3,0-0.6,0.2-0.7,0.6c-0.1,0.4,0,0.6,0.3,0.9c0.2,0.2,0.5,0.2,0.8,0.3C125.9,71.6,126.2,71.6,126.5,71.6z M107.3,95.7
		c0-0.7,0-1.3,0-2c0.2-4.2,0.6-8.4,1.3-12.5c0.5-2.7,1.2-5.4,2.2-8c0.4-1.1,1-2,1.7-2.9c0.7-0.7,1.3-0.9,2.3-0.5
		c0.6,0.2,1.1,0.6,1.5,1c1.4,1.1,2.3,2.6,3.1,4.2c0.2,0.4,0.3,0.6-0.1,0.9c-0.3,0.2-0.3,0.6-0.2,0.9c0.2,0.3,0.4,0.4,0.8,0.4
		c0.2,0,0.3,0,0.5-0.1c0.7-0.3,1.5-0.6,2.1-1.1c0.3-0.2,0.5-0.4,0.6-0.8c0.1-0.5-0.1-0.9-0.7-0.8c-0.3,0.1-0.6,0.2-0.9,0.3
		c-0.3,0.1-0.4,0-0.5-0.2c-0.2-0.4-0.4-0.8-0.6-1.3c-0.5-1-1.1-1.9-1.8-2.8c-1-1.1-2.1-2.1-3.6-2.6c-1.2-0.4-2.3-0.2-3.3,0.5
		c-0.4,0.3-0.8,0.7-1.2,1.1c-0.5,0.6-0.9,1.1-1.3,1.8c-1.1,1.8-1.8,3.8-2.4,5.8c-1.5,5.3-2.4,10.7-2.7,16.2c-0.2,3.5,0,7,0.8,10.4
		c0.3,1.4,0.7,2.8,1.4,4.1c0.6,1.1,1.3,2.1,2.5,2.7c1,0.5,2,0.5,3,0c0.9-0.5,1.6-1.1,2.2-1.9c0.5-0.7,0.9-1.5,1.2-2.3
		c0.9-2.1,1.5-4.3,1.8-6.5c0.1-0.6,0.1-0.6,0.7-0.6c0.4,0,0.7,0.1,1.1,0.1c0.5-0.1,0.8-0.4,0.8-0.9c0-0.5-0.3-0.7-0.9-0.7
		c-0.7,0-1.3-0.1-1.9-0.3c-0.5-0.1-1-0.2-1.5-0.3c-0.6-0.1-1.1,0.1-1.2,0.5c-0.1,0.4,0.1,0.8,0.7,1.1c0.6,0.3,0.6,0.3,0.5,0.9
		c-0.3,2.6-1,5-2.2,7.3c-0.4,0.7-0.8,1.3-1.4,1.8c-0.9,0.9-1.9,0.7-2.6-0.4c-0.5-0.8-0.8-1.7-1-2.7
		C107.5,102.4,107.4,99.1,107.3,95.7z M114.4,171.5c-0.2,0.1-0.3,0.2-0.4,0.2c-0.1,0.1-0.3,0.1-0.4,0.2c-0.2,0.2-0.4,0.4-0.3,0.7
		c0.1,0.3,0.4,0.4,0.7,0.4c0.2,0,0.4-0.1,0.7-0.2c1.1-0.5,2.2-1,3.3-1.5c0.1-0.1,0.3-0.1,0.4-0.2c0.2-0.2,0.3-0.4,0.2-0.7
		c-0.1-0.3-0.3-0.4-0.6-0.4c-0.2,0-0.4,0.1-0.6,0.1c-0.3,0.1-0.6,0.2-0.9,0.4c-0.2,0.1-0.4,0.1-0.5-0.1c-0.7-1-1.6-1.8-2.4-2.7
		c-0.2-0.2-0.4-0.3-0.4-0.6c0,0,0.1-0.1,0.1-0.1c2.7-1.2,5.4-2.5,8.2-3.6c0.5-0.2,0.5-0.2,0.7,0.3c1,2.1,2.1,4.1,3.2,6.2
		c0.4,0.7,0.7,1.4,1.1,2.1c-0.4,0.2-0.8,0.4-1.2,0.6c-0.2,0.1-0.4,0.3-0.3,0.6c0.1,0.3,0.3,0.4,0.6,0.4c0.3,0,0.7,0,1-0.1
		c1-0.3,2-0.6,3-0.9c0.2-0.1,0.4-0.2,0.6-0.3c0.3-0.2,0.4-0.4,0.3-0.7c-0.1-0.4-0.4-0.5-0.7-0.4c-0.3,0-0.7,0.1-1,0.2
		c-0.2,0.1-0.4,0-0.5-0.2c-0.8-1.5-1.6-2.9-2.4-4.4c-2.5-4.9-4.7-9.8-6.2-15.1c-0.7-2.6-1.4-5.1-2.1-7.7c-0.3-1-0.3-1,0.7-1.2
		c0.3-0.1,0.6-0.1,0.9-0.3c0.2-0.1,0.4-0.4,0.3-0.6c-0.1-0.3-0.3-0.5-0.6-0.5c-0.2,0-0.4,0-0.6,0c-1.2,0.2-2.5,0.4-3.7,0.8
		c-0.3,0.1-0.5,0.2-0.8,0.3c-0.3,0.1-0.5,0.4-0.4,0.7c0.1,0.3,0.4,0.4,0.7,0.4c0.2,0,0.3,0,0.5-0.1c0.3,0,0.6-0.1,0.8-0.2
		c0.2-0.1,0.3,0,0.4,0.3c0,0.1,0,0.2,0,0.3c0.6,4.1,1.6,8.1,3,12c0.7,1.9,1.4,3.7,2.2,5.5c0.1,0.3,0.3,0.5-0.2,0.7
		c-2.8,1.2-5.6,2.6-8.5,3.8c-0.3,0.1-0.5,0.1-0.8-0.2c-2.6-2.9-5.2-5.8-7.7-8.9c-3.4-4.2-6.1-8.9-8.6-13.7c-0.1-0.1-0.1-0.2,0-0.4
		c0.6,0,1.3-0.1,1.9-0.2c0.5-0.1,0.8-0.3,0.8-0.7c0-0.4-0.3-0.6-0.8-0.6c0,0-0.1,0-0.1,0c-1.8,0.1-3.6,0.2-5.4,0.6
		c-0.4,0.1-0.7,0.2-1.1,0.3c-0.4,0.2-0.5,0.5-0.5,0.8c0.1,0.3,0.4,0.4,0.8,0.4c0.1,0,0.3,0,0.4-0.1c0.5-0.1,1.1-0.2,1.6-0.3
		c0.6-0.1,0.5-0.1,0.8,0.4c1.8,4.3,4,8.3,6.8,12c2.5,3.4,5.3,6.6,8.1,9.8C110.7,167.3,112.5,169.4,114.4,171.5z M146.1,150.6
		c-2.4-9.3-9.8-9-12.4-6.5c-1,1-1.7,2.2-2.2,3.4c-1.8,4.3-2,8.7-1,13.2c0.5,2.6,1.8,4.9,3.4,7.1c0.9,1.3,2.2,2.3,3.7,2.9
		c2.8,1.1,5.6,0.6,7.2-2.3c0.7-1.2,1.2-2.4,1.5-3.8C147.2,159.8,147.4,155.6,146.1,150.6z M104.1,72.7c0.1,0.4,0.1,0.8,0.1,1.1
		c0,0.4,0.3,0.7,0.6,0.7c0.3,0,0.6-0.2,0.7-0.6c0.1-0.6,0.2-1.2,0.2-1.7c-0.1-1-0.4-1.3-1.4-1.3c-1.8,0-3.4,0.4-5.1,1
		c-2.7,1-5.1,2.6-7.4,4.3c-1.9,1.5-3.4,3.3-4.5,5.5c-1.9,3.8-3.1,7.8-3.8,11.9c-0.8,4.7-1.1,9.5-1.4,14.2c0,0.5,0,0.5-0.5,0.5
		c-0.2,0-0.3,0-0.5,0.1c-0.3,0.1-0.6,0.3-0.6,0.7c0,0.4,0.2,0.6,0.5,0.8c0.3,0.2,0.7,0.2,1,0.3c1.2,0.1,2.4,0,3.6,0.2
		c0.3,0.1,0.6,0,0.9-0.2c0.4-0.3,0.4-1-0.2-1.2c-0.2-0.1-0.5-0.1-0.8-0.2c-0.3,0-0.7-0.1-1-0.1c-0.3,0-0.4-0.1-0.3-0.5
		c0.1-0.5,0.1-1,0.1-1.5c0.1-0.8,0.1-1.5,0.2-2.3c0-0.3,0.1-0.4,0.5-0.5c0.7,0,1.3-0.1,2-0.2c0.4,0,0.7-0.1,0.8,0.4
		c0.1,0.3,0.4,0.5,0.7,0.5c0.4,0,0.6-0.2,0.7-0.6c0.2-0.8,0.3-1.7,0-2.5c-0.1-0.3-0.3-0.6-0.7-0.6c-0.4,0-0.6,0.2-0.7,0.5
		c-0.1,0.7-0.6,0.7-1.1,0.7c-0.4,0-0.7,0.1-1.1,0.1c-0.8,0.1-0.9,0.1-0.7-0.8c0.2-1.4,0.4-2.7,0.7-4.1c0.8-4.6,1.9-9.2,3.5-13.7
		c0.4-1.2,0.9-2.4,1.4-3.5c0.2-0.4,0.5-0.8,0.8-1.1c2.6-2.3,5.4-4.1,8.6-5.4C101.2,73.2,102.6,73,104.1,72.7z M137.3,192.2
		c0.3-0.3,0.6-0.6,0.8-0.9c0.9-1,1.7-2.1,2.4-3.3c1-1.8,1.7-3.6,1.6-5.7c0-2.1-0.9-3.9-2.7-5c-1.2-0.8-2.6-1.2-4.1-1.1
		c-3.7,0.2-7,1.3-9.8,3.7c-1,0.8-1.9,1.7-2.5,2.9c-0.1,0.2-0.2,0.4-0.2,0.7c0,0.3,0.1,0.5,0.3,0.7c0.2,0.1,0.5,0.1,0.7-0.1
		c0.3-0.2,0.4-0.4,0.6-0.7c0.4-0.5,0.9-1,1.4-1.4c0.4,0.6,0.8,1.2,1.3,1.7c2.2,2.9,4.6,5.6,7.2,8.2c0.1,0.1,0.2,0.2,0.2,0.3
		c0.2,0.2,0.1,0.3,0,0.5c-0.2,0.2-0.4,0.3-0.6,0.5c-0.4,0.4-0.4,0.9-0.2,1.2c0.3,0.4,0.8,0.4,1.3,0.1c0.2-0.2,0.4-0.4,0.6-0.5
		c0.4-0.3,0.4-0.3,0.7,0c2.1,2,4.4,3.9,6.8,5.6c0.3,0.2,0.4,0.4,0.2,0.8c-0.2,0.4-0.1,0.8,0.2,0.9c0.3,0.2,0.6,0.1,0.9-0.3
		c0.3-0.3,0.5-0.6,0.7-1c0.3-0.5,0.8-1,1.2-1.5c0.2-0.3,0.2-0.7-0.1-0.9c-0.2-0.2-0.6-0.2-0.8,0c-0.2,0.1-0.3,0.3-0.4,0.5
		c-0.3,0.4-0.3,0.4-0.7,0.1c-1.2-1-2.4-2-3.7-3C139.5,194.2,138.5,193.2,137.3,192.2z M145.8,113.3c-0.2,0-0.4,0-0.6,0
		c-0.2,0-0.4,0-0.6,0.1c-0.7,0.3-0.8,1-0.3,1.5c0.2,0.2,0.5,0.3,0.8,0.4c0.4,0.1,0.8,0.2,1.3,0.2c0.9,0,1.7,0,2.6,0
		c0.1,0,0.3,0,0.4,0c0.5-0.1,0.9-0.4,0.9-0.9c0-0.4-0.2-0.7-0.8-0.8c-0.4-0.1-0.8-0.1-1.2-0.1c-0.2,0-0.3-0.1-0.3-0.3
		c0-0.1,0-0.3,0-0.4c0.3-3,0.6-6.1,0.9-9.1c0.3-2.4,0.6-4.8,0.9-7.2c0.5-3.9,1.1-7.7,1.2-11.7c0-0.4,0.1-0.4,0.5-0.4
		c0.6,0,1.1,0.1,1.7,0.1c1,0,1.9,0,2.9,0.1c0.3,0,0.5,0.1,0.5,0.4c0,0.1,0,0.1,0,0.2c0.1,0.5,0.3,0.8,0.7,0.8c0.4,0,0.7-0.1,0.9-0.6
		c0.2-0.4,0.3-0.9,0.3-1.3c0-0.7-0.3-1-0.9-1c-1.1,0-2.2-0.1-3.4-0.2c-2.4-0.1-4.8-0.4-7.1-0.8c-0.6-0.1-1.3-0.2-2-0.2
		c-0.7,0-1.2,0.3-1.3,0.8c-0.1,0.5-0.1,1,0,1.5c0.1,0.4,0.4,0.7,0.8,0.7c0.3,0,0.7-0.3,0.8-0.7c0.1-0.2,0-0.4,0.1-0.6
		c0.1-0.1,0.2,0,0.3,0c0.7,0.3,1.5,0.4,2.3,0.4c0.4,0,0.8,0.1,1.2,0.1c0.3,0,0.4,0.2,0.3,0.5c0,0.1,0,0.2-0.1,0.3
		c-0.8,3.1-1.3,6.3-1.8,9.4c-0.4,2.3-0.7,4.7-0.9,7c-0.3,2.9-0.6,5.9-0.8,8.8C145.9,111.2,145.8,112.2,145.8,113.3z M142.9,174.7
		c1.7-1,3.5-1.6,5.2-2.4c0.2-0.1,0.4-0.1,0.6-0.2c0.3-0.1,0.4-0.1,0.5,0.3c0.1,0.2,0.1,0.5,0.2,0.7c0.2,0.5,0.5,0.7,0.9,0.6
		c0.4-0.1,0.6-0.5,0.5-1c-0.1-0.5-0.3-0.9-0.5-1.4c-0.3-0.7-0.7-0.9-1.4-0.6c-0.3,0.1-0.6,0.3-0.9,0.4c-2.6,1-5.2,2.2-7.7,3.5
		c-0.2,0.1-0.3,0.2-0.5,0.3c-0.2,0.2-0.3,0.4-0.2,0.7c0.1,0.3,0.3,0.3,0.6,0.3c0.2,0,0.5-0.1,0.7-0.2c0.3-0.2,0.5,0,0.6,0.3
		c0.2,0.5,0.3,1.1,0.5,1.6c2.7,6.4,5.3,12.8,8.8,18.8c-0.1,0.1-0.4,0.2-0.6,0.3c-0.2,0.1-0.3,0.2-0.5,0.3c-0.2,0.2-0.3,0.4-0.2,0.7
		c0.1,0.3,0.3,0.4,0.6,0.4c0.3,0,0.5-0.1,0.8-0.2c0.7-0.2,1.2-0.6,1.9-0.8c1.2-0.5,2.2-1.4,3.2-2.2c0.4-0.3,0.4-0.7,0.3-1.1
		c-0.2-0.5-0.5-0.9-0.8-1.4c-0.2-0.3-0.5-0.3-0.8-0.2c-0.3,0.2-0.3,0.5-0.2,0.8c0.1,0.2,0.3,0.4,0.4,0.7c0.2,0.3,0.2,0.5-0.1,0.7
		c-0.6,0.5-1.2,0.9-1.9,1.2c-0.5,0.2-0.5,0.2-0.7-0.3c-0.7-1.7-1.5-3.4-2.2-5.1c-0.1-0.3-0.3-0.7-0.4-1c-0.1-0.3-0.1-0.4,0.2-0.6
		c0.7-0.4,1.4-0.8,2.1-1.1c0.3-0.1,0.5-0.2,0.7,0.1c0.3,0.4,0.6,0.4,0.9,0.2c0.3-0.2,0.4-0.5,0.3-0.9c-0.2-0.5-0.3-1-0.5-1.5
		c-0.1-0.2-0.1-0.3-0.2-0.4c-0.2-0.3-0.5-0.4-0.9-0.3c-0.3,0.1-0.5,0.4-0.5,0.8c0,0.1,0,0.3,0.1,0.4c0.1,0.2,0,0.3-0.2,0.4
		c-0.8,0.4-1.7,0.8-2.5,1.3c-0.2,0.1-0.3,0-0.3-0.1c-0.1-0.1-0.1-0.3-0.2-0.4c-1.3-2.9-2.6-5.9-3.9-8.8
		C144.2,176.9,143.8,175.7,142.9,174.7z M101.6,80.4c0.3,0,0.6,0.1,0.9,0.1c0.6,0,1-0.4,1-0.8c0-0.5-0.4-0.8-1-0.8c0,0-0.1,0-0.1,0
		c-1.5,0-3-0.1-4.5-0.4c-0.2,0-0.3,0-0.5,0c-0.4,0-0.6,0.1-0.8,0.5c-0.1,0.3,0,0.6,0.4,0.8c0.3,0.2,0.6,0.3,1,0.4
		c0.3,0.1,0.4,0.2,0.3,0.6c-0.7,2.4-1.2,4.9-1.7,7.4c-1,4.3-1.9,8.7-2.6,13.1c-0.4,2.2-0.8,4.4-1.1,6.6c-0.1,0.8-0.1,0.8-0.9,0.9
		c-0.1,0-0.1,0-0.2,0c-0.4,0.1-0.7,0.4-0.7,0.7c0,0.3,0.2,0.6,0.6,0.8c0.2,0.1,0.5,0.1,0.7,0.1c0.7,0.1,1.4,0.2,2.1,0.3
		c0.5,0.1,1.1,0.1,1.6,0.1c0.6,0,1-0.3,1-0.7c0-0.4-0.3-0.8-0.8-0.9c-0.2-0.1-0.4-0.1-0.6-0.1c-0.1,0-0.2,0-0.3-0.1
		c-0.2,0-0.3-0.1-0.2-0.3c0.1-1,0.2-2,0.4-3.1c0.7-4.4,1.6-8.8,2.6-13.2c0.8-3.6,1.6-7.1,2.1-10.7c0.1-0.4-0.1-0.9,0.2-1.1
		C100.8,80.2,101.3,80.4,101.6,80.4z M119.8,121.7c0.7,0,1.2-0.5,1.2-1.2c0-0.7-0.6-1.3-1.2-1.3c-0.7,0-1.3,0.6-1.3,1.2
		C118.6,121.1,119.1,121.7,119.8,121.7z"/>
	<path class="st0" d="M112.8,123.4c0.1-2.3,0.4-4.5,1.1-6.7c0.1-0.4,0.3-0.9,0.5-1.3c0.1-0.2,0.3-0.4,0.4-0.6
		c0.5-0.5,0.8-0.5,1.1,0.2c0.4,0.7,0.3,1.4,0.2,2.2c-0.2,0.9-0.5,1.7-0.9,2.5c-0.6,1.2-1.3,2.4-2.1,3.5
		C113.1,123.2,113.1,123.3,112.8,123.4z"/>
	<path class="st0" d="M102.8,127.5c-0.8,0-0.8,0-0.8-0.6c0-1,0.3-1.9,0.7-2.8c0.4-0.8,0.9-0.9,1.6-0.5c0.6,0.4,1.1,0.9,1.2,1.6
		c0.2,0.9-0.1,1.6-1,1.9c-0.2,0.1-0.5,0.2-0.7,0.2C103.5,127.4,103.1,127.5,102.8,127.5z"/>
	<path class="st0" d="M94.7,129.9c0.1,1.2,0,2.2-0.4,3.3c-0.1,0.4-0.3,0.7-0.6,1c-0.4,0.3-0.7,0.3-1,0c-0.3-0.4-0.4-0.9-0.3-1.4
		c0.2-0.9,0.8-1.6,1.4-2.2C94.1,130.3,94.3,130.1,94.7,129.9z"/>
	<path class="st0" d="M146.3,127.4c0.1-1.1,0.4-2,0.8-3c0.2-0.3,0.4-0.4,0.7-0.1c0.5,0.5,0.7,1.2,0.6,1.8c-0.1,0.6-0.5,1-1.1,1.1
		C147,127.4,146.7,127.5,146.3,127.4z"/>
	<path class="st0" d="M127,126.5c-0.1,0-0.1,0-0.2,0c-0.5,0-0.6,0-0.5-0.6c0.1-0.6,0.2-1.2,0.4-1.8c0.2-0.4,0.3-0.5,0.6-0.2
		c0.5,0.4,1,0.8,1.3,1.5c0.2,0.6,0.1,0.8-0.5,1C127.7,126.4,127.3,126.4,127,126.5C127,126.5,127,126.5,127,126.5z"/>
	<path class="st0" d="M141.4,126.5c-0.5-1-0.7-1.9-0.8-2.8c0-0.5-0.1-0.9,0.1-1.4c0.1-0.4,0.3-0.5,0.7-0.2c0.2,0.1,0.3,0.3,0.3,0.5
		C141.9,123.9,141.8,125.1,141.4,126.5z"/>
	<path class="st0" d="M144.1,165.6c-0.2,0.7-0.5,1.4-0.9,2c-1.2,2-2.8,2.4-4.9,1.4c-1.2-0.6-2.1-1.5-2.9-2.6c-1-1.6-1.7-3.3-2.1-5.2
		c-1-4.2-0.8-8.3,0.3-12.4C137.1,136.3,149,150.2,144.1,165.6z"/>
	<path class="st0" d="M140,182.7c0,1.7-0.4,3.4-1.3,5c-0.5,1-1.2,2-2,2.9c-0.4,0.5-0.5,0.5-0.9,0c-1.9-1.8-3.6-3.7-5.3-5.7
		c-1-1.2-2.1-2.4-3.1-3.6c-0.4-0.4-0.4-0.4,0.1-0.8c2-1.5,4.3-2.5,6.8-2.8c1.2-0.2,2.3,0,3.4,0.5c1.4,0.6,2.1,1.8,2.2,3.2
		C139.9,181.8,139.9,182.2,140,182.7z"/>
</g>
<g>
	<g>
		<path class="st1" d="M354.3,188.3c-0.5-4.4-1.6-8.6-3.6-12.6c-3.4-7-8.6-12.3-15.8-15.4c-6.8-2.9-13.9-3.5-21.1-2.1
			c-6.1,1.2-11.5,3.8-16.5,7.4c-4,2.9-7.4,6.4-10.4,10.3c-0.4,0.5-0.4,0.5-0.9,0.1c-2.5-2.2-5.1-4.3-7.8-6.4
			c-7-5.3-14.8-9-23.4-10.9c-4.6-1-9.2-1.7-13.9-1.6c-4.7,0.1-9.3,1-13.6,3c-7.7,3.4-13.5,9-17.3,16.5c-4.4,8.6-6.2,17.8-5.8,27.5
			c0.2,4.5,0.9,9,2.1,13.3c2.1,7.3,5.1,14.3,8.9,20.9c5,8.6,11,16.5,17.7,23.8c7.4,8.1,15.6,15.5,24.1,22.5
			c5,4.1,10.1,8.2,15.1,12.2c3.4,2.8,6.8,5.5,10.2,8.3c0.7,0.6,0.7,0.6,0.1,1.3c-10.4,10.3-21,20.2-32,29.8
			c-6,5.3-12.2,10.5-18.1,16c-2.9,2.7-5.9,5.4-8.6,8.3c-1,1-1.9,2-2.6,3.2c-0.3,0.4-0.5,0.9-0.6,1.4c-0.1,0.7,0,1.4,0.6,1.8
			c0.6,0.4,1.2,0.4,1.9,0.1c0.3-0.2,0.6-0.4,0.8-0.6c1.4-1.2,2.8-2.5,4.2-3.7c6.1-5.1,12.2-10.2,18.2-15.4
			c13.6-11.9,26.8-24.1,39.4-37c0.2-0.2,0.3-0.4,0.5-0.4c0.2,0.1,0.3,0.3,0.4,0.5c1.9,3.7,4,7.4,6.1,11c4.9,8.4,10.1,16.4,16,24.1
			c3.7,4.9,7.7,9.6,11.9,14c0.9,1,2,1.6,3.2,2.1c0.5,0.2,1.1,0.3,1.7,0.2c1.3-0.3,2.1-1.5,1.8-2.8c-0.3-1.3-0.9-2.6-1.8-3.6
			c-1-1.1-2.1-2.2-3.1-3.3c-3.5-3.8-6.7-7.9-9.8-12c-4.5-6-8.6-12.2-12.4-18.6c-3.1-5.3-6-10.7-8.6-16.3c-0.4-0.8-0.4-0.7,0.2-1.3
			c6.6-7,13.1-14.2,19.3-21.6c7.1-8.5,13.9-17.2,20-26.5c5.5-8.4,10.6-17,14.8-26.1c3.8-8.3,6.7-16.8,8-25.8
			C354.7,198.8,354.9,193.6,354.3,188.3z M273.8,174.4c2.4,0.4,4.7,0.7,7.1,0.8c1.1,0.1,2.2,0.2,3.4,0.2c0.7,0,1,0.4,0.9,1
			c0,0.4-0.1,0.9-0.3,1.3c-0.2,0.4-0.5,0.6-0.9,0.6c-0.3,0-0.6-0.3-0.7-0.8c0-0.1,0-0.1,0-0.2c0-0.4-0.2-0.4-0.5-0.4
			c-1,0-1.9,0-2.9-0.1c-0.6,0-1.1,0-1.7-0.1c-0.3,0-0.5,0.1-0.5,0.4c-0.1,3.9-0.7,7.8-1.2,11.7c-0.3,2.4-0.6,4.8-0.9,7.2
			c-0.3,3-0.6,6-0.9,9.1c0,0.1,0,0.3,0,0.4c0,0.2,0.1,0.3,0.3,0.3c0.4,0,0.8,0.1,1.2,0.1c0.6,0.1,0.8,0.4,0.8,0.8
			c0,0.4-0.4,0.8-0.9,0.9c-0.1,0-0.3,0-0.4,0c-0.9,0-1.7,0-2.6,0c-0.4,0-0.8-0.1-1.3-0.2c-0.3-0.1-0.6-0.2-0.8-0.4
			c-0.5-0.5-0.4-1.2,0.3-1.5c0.2-0.1,0.4-0.1,0.6-0.1c0.2,0,0.4,0,0.6,0c0.1-1,0.1-2.1,0.2-3.1c0.2-2.9,0.5-5.9,0.8-8.8
			c0.2-2.4,0.5-4.7,0.9-7c0.5-3.2,1-6.3,1.8-9.4c0-0.1,0-0.2,0.1-0.3c0.1-0.3,0-0.4-0.3-0.5c-0.4,0-0.8-0.1-1.2-0.1
			c-0.8-0.1-1.5-0.2-2.3-0.4c-0.1,0-0.2-0.1-0.3,0c-0.1,0.2,0,0.4-0.1,0.6c-0.1,0.4-0.5,0.7-0.8,0.7c-0.3,0-0.7-0.3-0.8-0.7
			c-0.1-0.5-0.1-1,0-1.5c0.1-0.5,0.6-0.8,1.3-0.8C272.5,174.2,273.2,174.2,273.8,174.4z M250.3,197.9c0.1-2.7,0.3-5.4,0.5-8.1
			c0.3-3.2,0.6-6.5,0.9-9.7c0.2-2,0.3-3.9,0.5-5.9c0.3-2.8,0.4-5.7,0.8-8.5c0.1-0.6,0.3-1.1,0.3-1.8c-0.3,0-0.6,0-0.8,0
			c-0.3,0-0.6-0.1-0.8-0.3c-0.3-0.2-0.4-0.5-0.3-0.9c0.1-0.3,0.3-0.5,0.7-0.6c0.1,0,0.2,0,0.3,0c1.3,0.1,2.6,0.2,3.8,0.4
			c0.3,0.1,0.6,0.1,0.8,0.4c0.4,0.4,0.3,0.9-0.2,1.1c-0.2,0.1-0.5,0.1-0.7,0.1c-0.1,0-0.3-0.1-0.4-0.1c-0.8-0.1-0.8-0.1-0.7,0.6
			c0.1,1.6-0.1,3.2-0.2,4.8c-0.1,1.8-0.2,3.6-0.4,5.5c-0.3,3.3-0.5,6.7-0.8,10c-0.2,2.4-0.4,4.8-0.6,7.1c-0.1,1-0.2,2.1-0.3,3.1
			c0,0.5,0,0.5,0.5,0.6c0.3,0,0.6,0.1,0.8,0.1c2.7,0,5.4,0.2,8.1,0.5c0.5,0.1,1,0.1,1.5,0.2c0.4,0.1,0.4-0.1,0.5-0.4
			c0.1-1.4,0.2-2.8,0.3-4.2c0.3-4.6,0.6-9.3,1.4-13.9c0.4-2.5,0.8-5.1,1.4-7.6c0-0.1,0-0.2,0-0.3c-0.1-0.1-0.3-0.1-0.4-0.1
			c-0.2,0-0.4,0-0.6,0c-0.6-0.1-1-0.4-1-0.8c0-0.4,0.4-0.6,1-0.7c1.2,0,2.5,0,3.7,0c0.3,0,0.6,0,0.9,0.2c0.3,0.2,0.5,0.4,0.4,0.7
			c0,0.3-0.3,0.5-0.6,0.5c-0.4,0.1-0.8,0-1.3,0c-0.3,0-0.4,0.1-0.4,0.3c0,3.6-0.7,7.1-1.1,10.6c-0.3,2-0.5,4.1-0.7,6.1
			c-0.2,2-0.5,3.9-0.7,5.9c-0.1,1.2-0.2,2.3-0.3,3.5c-0.2,2.2-0.3,4.4-0.5,6.6c0,0.6,0,0.6,0.6,0.7c0.3,0,0.5,0,0.8,0.1
			c0.4,0.1,0.6,0.4,0.6,0.7c0,0.3-0.2,0.6-0.6,0.7c-0.2,0.1-0.3,0.1-0.5,0.1c-1,0-1.9,0-2.9,0c-0.4,0-0.7-0.1-1-0.2
			c-0.4-0.2-0.5-0.5-0.5-0.9c0.1-0.3,0.3-0.6,0.7-0.6c0.2,0,0.5,0.1,0.6-0.1c0.2-0.2,0.1-0.4,0.1-0.7c0-1.3,0.1-2.7,0.1-4
			c0-0.5,0-0.5-0.5-0.6c-2.2-0.3-4.3-0.5-6.5-0.6c-1.2-0.1-2.4-0.2-3.6-0.3c-0.9-0.1-0.9-0.1-1,0.8c-0.1,1.1-0.2,2.1-0.1,3.2
			c0,0.7,0,0.7,0.7,0.7c0.3,0,0.6,0,0.9,0.1c0.5,0.1,0.7,0.3,0.8,0.7c0,0.4-0.2,0.6-0.7,0.7c-0.7,0.2-1.3,0.2-2,0.2
			c-0.5,0.1-1.1,0.1-1.6,0.1c-0.4,0-0.9,0-1.3-0.2c-0.3-0.2-0.5-0.4-0.4-0.8c0.1-0.3,0.3-0.5,0.6-0.6c0.2-0.1,0.6,0.1,0.7-0.2
			c0.1-0.2,0.1-0.5,0.1-0.8C250.2,200.2,250.3,199,250.3,197.9z M236,163.7c0.4-0.6,0.8-1.2,1.3-1.8c0.4-0.4,0.7-0.8,1.2-1.1
			c1-0.7,2.1-0.9,3.3-0.5c1.5,0.5,2.6,1.4,3.6,2.6c0.7,0.8,1.3,1.8,1.8,2.8c0.2,0.4,0.4,0.8,0.6,1.3c0.1,0.3,0.3,0.3,0.5,0.2
			c0.3-0.1,0.6-0.2,0.9-0.3c0.5-0.1,0.8,0.2,0.7,0.8c-0.1,0.3-0.3,0.6-0.6,0.8c-0.7,0.5-1.4,0.8-2.1,1.1c-0.1,0.1-0.3,0.1-0.5,0.1
			c-0.3,0-0.6-0.1-0.8-0.4c-0.2-0.3-0.1-0.7,0.2-0.9c0.4-0.3,0.3-0.5,0.1-0.9c-0.8-1.6-1.7-3.1-3.1-4.2c-0.5-0.4-1-0.8-1.5-1
			c-0.9-0.4-1.6-0.2-2.3,0.5c-0.8,0.8-1.3,1.8-1.7,2.9c-1,2.6-1.7,5.2-2.2,8c-0.7,4.1-1.1,8.3-1.3,12.5c0,0.7,0,1.3,0,2
			c0,3.4,0.2,6.7,0.8,10c0.2,1,0.5,1.9,1,2.7c0.7,1.1,1.6,1.2,2.6,0.4c0.6-0.5,1-1.1,1.4-1.8c1.2-2.3,1.9-4.7,2.2-7.3
			c0.1-0.6,0-0.6-0.5-0.9c-0.6-0.3-0.8-0.6-0.7-1.1c0.1-0.4,0.6-0.6,1.2-0.5c0.5,0.1,1,0.2,1.5,0.3c0.6,0.1,1.3,0.3,1.9,0.3
			c0.5,0,0.8,0.2,0.9,0.7c0,0.5-0.3,0.8-0.8,0.9c-0.4,0.1-0.7-0.1-1.1-0.1c-0.6,0-0.6,0-0.7,0.6c-0.4,2.2-0.9,4.4-1.8,6.5
			c-0.3,0.8-0.7,1.6-1.2,2.3c-0.6,0.8-1.3,1.5-2.2,1.9c-1,0.5-2,0.5-3,0c-1.1-0.6-1.9-1.6-2.5-2.7c-0.7-1.3-1.1-2.7-1.4-4.1
			c-0.7-3.4-1-6.9-0.8-10.4c0.3-5.5,1.2-10.9,2.7-16.2C234.2,167.5,234.9,165.5,236,163.7z M247.9,212.7c0,0.7-0.5,1.2-1.2,1.2
			c-0.7,0-1.2-0.6-1.3-1.2c0-0.7,0.6-1.3,1.3-1.2C247.3,211.5,247.9,212,247.9,212.7z M207.7,202.3c-0.3-0.2-0.5-0.4-0.5-0.8
			c0-0.4,0.3-0.6,0.6-0.7c0.2,0,0.3-0.1,0.5-0.1c0.5,0,0.5,0,0.5-0.5c0.3-4.8,0.7-9.5,1.4-14.2c0.7-4.2,1.9-8.2,3.8-11.9
			c1.1-2.2,2.6-4,4.5-5.5c2.3-1.7,4.7-3.3,7.4-4.3c1.6-0.6,3.3-1,5.1-1c1,0,1.3,0.3,1.4,1.3c0,0.6-0.1,1.2-0.2,1.7
			c-0.1,0.4-0.4,0.6-0.7,0.6c-0.3,0-0.6-0.3-0.6-0.7c0-0.3,0-0.7-0.1-1.1c-1.5,0.3-2.9,0.5-4.3,1.1c-3.1,1.4-6,3.2-8.6,5.4
			c-0.4,0.3-0.6,0.7-0.8,1.1c-0.6,1.1-1,2.3-1.4,3.5c-1.5,4.5-2.7,9-3.5,13.7c-0.2,1.4-0.5,2.7-0.7,4.1c-0.1,0.9-0.1,0.9,0.7,0.8
			c0.4,0,0.7-0.1,1.1-0.1c0.5,0,1,0,1.1-0.7c0.1-0.3,0.3-0.5,0.7-0.5c0.4,0,0.6,0.2,0.7,0.6c0.2,0.8,0.2,1.7,0,2.5
			c-0.1,0.3-0.4,0.5-0.7,0.6c-0.3,0-0.6-0.2-0.7-0.5c-0.1-0.5-0.4-0.4-0.8-0.4c-0.6,0.1-1.3,0.2-2,0.2c-0.3,0-0.5,0.2-0.5,0.5
			c-0.1,0.8-0.1,1.5-0.2,2.3c0,0.5,0,1-0.1,1.5c0,0.3,0.1,0.4,0.3,0.5c0.3,0,0.7,0,1,0.1c0.3,0,0.5,0.1,0.8,0.2
			c0.5,0.2,0.6,0.8,0.2,1.2c-0.3,0.2-0.6,0.3-0.9,0.2c-1.2-0.3-2.4-0.1-3.6-0.2C208.4,202.5,208,202.5,207.7,202.3z M227.1,173.9
			c-0.5,3.6-1.3,7.2-2.1,10.7c-1,4.4-1.9,8.7-2.6,13.2c-0.2,1-0.3,2-0.4,3.1c0,0.2,0,0.3,0.2,0.3c0.1,0,0.2,0,0.3,0.1
			c0.2,0,0.4,0.1,0.6,0.1c0.5,0.1,0.9,0.5,0.8,0.9c0,0.4-0.4,0.7-1,0.7c-0.5,0-1.1-0.1-1.6-0.1c-0.7-0.1-1.4-0.2-2.1-0.3
			c-0.2,0-0.5-0.1-0.7-0.1c-0.4-0.1-0.6-0.4-0.6-0.8c0-0.3,0.3-0.7,0.7-0.7c0.1,0,0.1,0,0.2,0c0.8-0.1,0.7-0.1,0.9-0.9
			c0.3-2.2,0.7-4.4,1.1-6.6c0.7-4.4,1.6-8.7,2.6-13.1c0.6-2.5,1-4.9,1.7-7.4c0.1-0.4,0-0.5-0.3-0.6c-0.3-0.1-0.7-0.2-1-0.4
			c-0.3-0.2-0.5-0.6-0.4-0.8c0.1-0.3,0.4-0.5,0.8-0.5c0.2,0,0.3,0,0.5,0c1.5,0.3,3,0.4,4.5,0.4c0,0,0.1,0,0.1,0c0.6,0,1,0.4,1,0.8
			c0,0.5-0.4,0.8-1,0.8c-0.3,0-0.6,0-0.9-0.1c-0.4,0-0.8-0.2-1.1,0C227,173,227.1,173.5,227.1,173.9z M214.9,219.1
			c-0.7,1.3-0.9,2.6-0.9,4.1c0,1.4,0.3,2.8,0.8,4.1c0.1,0.2,0.2,0.5,0.2,0.7c0,0.4-0.1,0.7-0.5,0.9c-0.3,0.2-0.7,0.1-1-0.1
			c-0.1-0.1-0.2-0.2-0.3-0.4c-1.9-2.8-3.2-6-3.7-9.4c-0.4-2.5-0.5-5-0.4-7.6c0-1.1,0.2-2.1,0.5-3.1c0.1-0.3,0.2-0.6,0.4-0.8
			c0.4-0.6,1.2-0.5,1.5,0.1c0.1,0.2,0.2,0.4,0.2,0.7c0.1,0.5,0.1,0.9,0.1,1.4c-0.1,2.9-0.1,5.9,0.2,8.8c0.1,1,0.3,2.1,0.5,3.1
			c0.3-0.1,0.2-0.3,0.2-0.5c0.4-2.1,1.2-4.1,2.8-5.6c2.3-2.4,5.2-1.7,6.8,0.5c0.8,1,1.2,2.2,1.5,3.4c0.1,0.3,0,0.5,0.4,0.5
			c0.6-0.1,0.7-0.1,0.7-0.5c0.1-0.7,0.2-1.3,0.4-2c0.4-1.1,1-2.1,1.9-2.9c1.5-1.2,3.4-1.1,4.7,0.3c0.8,0.8,1.3,1.8,1.4,3
			c0,1.1-0.4,1.9-1.4,2.4c-0.9,0.5-1.8,0.8-2.9,0.9c-0.6,0-0.6,0.2-0.5,0.6c0.1,1.4,0.3,2.8,0.8,4.1c0.2,0.4,0.3,0.8,0.6,1.2
			c0.6,0.9,1.5,1.1,2.5,0.6c0.4-0.2,0.8-0.6,1.1-0.9c0.4-0.4,0.7-0.8,0.9-1.3c0.4-0.8,0.9-1.6,1.3-2.5c0.7-1.4,0.6-1.4,0.4-2.9
			c-0.4-3.5-0.2-6.9,0.9-10.3c0.4-1.3,1-2.4,1.8-3.5c0.3-0.4,0.7-0.8,1.2-1.1c1.5-0.9,3.3-0.3,3.9,1.4c0.4,1.1,0.3,2.2,0,3.3
			c-0.5,1.9-1.4,3.7-2.5,5.4c-0.6,1-1.3,2-1.9,2.9c-0.2,0.3-0.3,0.5-0.3,0.8c0,2.1,0.2,4.2,0.6,6.3c0.1,0.6,0.3,1.1,0.5,1.6
			c0.1,0.3,0.3,0.5,0.5,0.8c0.3,0.4,0.5,0.4,0.8,0c0.1-0.1,0.2-0.3,0.3-0.4c0.2-0.4,0.4-0.8,0.6-1.1c0.1-0.3,0.3-0.7,0.4-1.1
			c0.8-2.3,1.6-4.5,1.6-7c0-0.5,0.1-0.9,0.3-1.4c0.2-0.6,0.6-0.9,1-0.9c0.5,0,0.9,0.3,1.1,0.9c0.2,0.6,0.2,1.3,0.2,1.9
			c0,1.3,0,2.7-0.1,4c-0.1,1.5,0,3.1,0.2,4.6c0.1,0.4,0.2,0.7,0.4,1.1c0.3-0.1,0.4-0.4,0.5-0.6c0.5-1.1,0.7-2.3,1.1-3.4
			c0.1-0.2,0-0.5-0.1-0.7c-0.3-1.3-0.5-2.6-0.4-4c0.1-1.7,0.7-3.2,1.7-4.5c0.3-0.3,0.5-0.6,0.9-0.9c0.8-0.5,1.7-0.6,2.5,0
			c1.4,0.9,2.1,2.3,2.2,4c0,1-0.5,1.7-1.5,2c-0.5,0.2-1,0.2-1.5,0.2c-0.5,0.1-0.5,0.1-0.5,0.6c0.1,1,0.2,2,0.3,2.9
			c0.1,0.7,0.2,1.3,0.4,2c0.1,0.5,0.3,1,0.6,1.5c0.6,0.9,1.4,1.2,2.4,0.8c0.6-0.2,1-0.7,1.3-1.1c0.8-1,1.3-2.1,1.9-3.2
			c0.4-0.8,0.5-1.6,0.2-2.5c-0.5-1.2-0.7-2.4-0.8-3.7c0-0.6,0-1.2,0.2-1.7c0.5-1.2,1.7-1.5,2.6-0.5c0.4,0.4,0.7,0.9,0.9,1.4
			c0.6,1.5,1,3.1,1.2,4.7c0.2,1.8,0.4,3.5,0.7,5.3c0,0.2,0,0.3,0.2,0.5c0.1-0.1,0.1-0.2,0.2-0.2c0.8-1.9,1.7-3.8,2.4-5.8
			c0.1-0.4,0.1-0.6-0.2-0.9c-1.2-1.1-2-2.4-2.1-4.1c-0.1-0.8,0-1.5,0.3-2.2c0.2-0.4,0.5-0.8,0.9-1.1c0.8-0.5,1.8-0.3,2.3,0.5
			c0.5,0.7,0.7,1.6,0.7,2.5c0,1.1-0.1,2.1-0.4,3.2c0,0.2-0.1,0.3-0.1,0.5c0,0.2,0.1,0.2,0.3,0.3c0.2,0,0.2-0.1,0.2-0.2
			c0.1-0.3,0.2-0.6,0.3-0.9c0.3-1,0.8-1.9,1.5-2.7c0.4-0.5,0.8-0.9,1.4-1.2c1-0.5,1.9-0.3,2.6,0.4c1.4,1.5,1.7,4.3-1,5.6
			c-0.3,0.2-0.7,0.2-1,0.3c-0.2,0-0.4,0.1-0.4,0.3c-0.1,2.1-0.3,4.2,0.1,6.2c0,0.2,0.1,0.4,0.2,0.6c0.3,0.6,0.6,0.7,1.2,0.4
			c0.4-0.2,0.7-0.5,1-0.9c0.6-0.7,1-1.5,1.4-2.3c0.1-0.2,0.2-0.3,0.3-0.5c0.1-0.1,0.2-0.2,0.4-0.1c0.2,0.1,0.2,0.2,0.2,0.4
			c0,0,0,0.1,0,0.1c-0.6,1.4-1.1,2.8-2.3,3.9c-0.3,0.3-0.7,0.5-1.1,0.7c-0.8,0.3-1.5,0.3-2.2-0.2c-0.7-0.5-1.3-1.2-1.7-2
			c-1-1.9-1.5-4-1.3-6.2c0-0.1,0-0.3,0-0.4c0-0.2-0.1-0.3-0.3-0.3c-0.2,0-0.3,0-0.4,0.2c-0.1,0.2-0.1,0.4-0.2,0.5
			c-0.7,2.5-1.6,4.9-2.9,7.1c-0.5,0.9-1.4,1.1-2.1,0.2c-0.4-0.5-0.7-1.1-1-1.8c-0.5-1.1-1-2.2-1.5-3.4c-0.4,0.9-0.7,1.6-1,2.4
			c-0.3,0.9-0.8,1.6-1.4,2.4c-1.3,1.7-4.1,2.1-6,0.3c-0.6-0.6-1.1-1.3-1.6-2c-0.1-0.2-0.3-0.4-0.4-0.6c-0.3,0.2-0.3,0.4-0.3,0.6
			c-0.3,0.7-0.6,1.4-1,2c-0.8,1.1-1.8,1.1-2.7,0.1c-0.5-0.6-0.9-1.4-1.1-2.2c-0.2-0.7-0.3-1.5-0.5-2.3c-0.2,0-0.2,0.2-0.2,0.3
			c-0.3,0.8-0.5,1.6-0.8,2.3c-0.2,0.6-0.5,1.1-0.9,1.5c-0.7,0.7-1.5,0.8-2.3,0.3c-0.7-0.4-1.2-0.9-1.6-1.6c-0.7-1.1-1.2-2.3-1.7-3.6
			c-0.1-0.2-0.2-0.5-0.3-0.8c-0.2,0.2-0.3,0.5-0.4,0.8c-0.6,1.5-1.4,2.8-2.5,4c-0.4,0.4-0.9,0.8-1.4,1.1c-1.6,0.8-3.1,0.6-4.4-0.6
			c-1.2-1.1-2.1-2.5-2.6-4.1c-0.3-0.9-0.5-1.8-0.6-2.7c0-0.3-0.1-0.5-0.5-0.4c-0.5,0-0.6,0.1-0.6,0.5c0,1.3-0.2,2.6-0.6,3.9
			c-0.3,0.9-0.7,1.6-1.4,2.3c-0.7,0.6-1.5,1.1-2.5,0.7c-1-0.4-1.6-1.2-1.7-2.3c-0.1-0.8,0-1.5,0.5-2.2c0.7-1.1,1.5-2,2.6-2.6
			c0.4-0.2,0.4-0.4,0.3-0.8c-0.3-1.1-0.6-2.1-1.3-2.9c-0.8-1-1.8-1.2-2.9-0.6C216,217.4,215.4,218.2,214.9,219.1z M273,256.8
			c-0.3,1.3-0.8,2.6-1.5,3.8c-1.6,2.9-4.4,3.5-7.2,2.3c-1.5-0.6-2.7-1.6-3.7-2.9c-1.5-2.2-2.8-4.5-3.4-7.1c-0.9-4.5-0.7-8.9,1-13.2
			c0.5-1.3,1.2-2.5,2.2-3.4C266.5,230.6,276.7,239.3,273,256.8z M248.3,255.8c-2.8,1.1-5.4,2.4-8.2,3.6c0,0-0.1,0.1-0.1,0.1
			c0,0.3,0.2,0.4,0.4,0.6c0.8,0.9,1.7,1.7,2.4,2.7c0.2,0.2,0.3,0.2,0.5,0.1c0.3-0.1,0.6-0.3,0.9-0.4c0.2-0.1,0.4-0.1,0.6-0.1
			c0.3,0,0.5,0.1,0.6,0.4c0.1,0.3,0,0.5-0.2,0.7c-0.1,0.1-0.3,0.2-0.4,0.2c-1.1,0.5-2.2,1-3.3,1.5c-0.2,0.1-0.4,0.2-0.7,0.2
			c-0.3,0.1-0.6-0.1-0.7-0.4c-0.1-0.3,0-0.5,0.3-0.7c0.1-0.1,0.2-0.1,0.4-0.2c0.1-0.1,0.2-0.1,0.4-0.2c-1.9-2.2-3.8-4.3-5.6-6.4
			c-2.8-3.2-5.6-6.4-8.1-9.8c-2.8-3.7-5-7.7-6.8-12c-0.2-0.5-0.2-0.5-0.8-0.4c-0.5,0.1-1.1,0.2-1.6,0.3c-0.1,0-0.3,0.1-0.4,0.1
			c-0.4,0-0.7-0.1-0.8-0.4c-0.1-0.3,0.1-0.6,0.5-0.8c0.3-0.2,0.7-0.3,1.1-0.3c1.8-0.4,3.6-0.5,5.4-0.6c0,0,0.1,0,0.1,0
			c0.5,0,0.8,0.2,0.8,0.6c0,0.4-0.3,0.6-0.8,0.7c-0.6,0.1-1.3,0.1-1.9,0.2c-0.1,0.2-0.1,0.3,0,0.4c2.5,4.8,5.2,9.5,8.6,13.7
			c2.5,3.1,5.1,6,7.7,8.9c0.2,0.3,0.4,0.3,0.8,0.2c2.8-1.2,5.6-2.5,8.5-3.8c0.4-0.2,0.3-0.4,0.2-0.7c-0.8-1.8-1.6-3.6-2.2-5.5
			c-1.4-3.9-2.4-7.9-3-12c0-0.1,0-0.2,0-0.3c0-0.2-0.1-0.3-0.4-0.3c-0.3,0.1-0.6,0.1-0.8,0.2c-0.2,0-0.3,0.1-0.5,0.1
			c-0.3,0-0.6-0.1-0.7-0.4c-0.1-0.3,0.1-0.5,0.4-0.7c0.2-0.1,0.5-0.2,0.8-0.3c1.2-0.4,2.5-0.6,3.7-0.8c0.2,0,0.4,0,0.6,0
			c0.3,0,0.5,0.2,0.6,0.5c0.1,0.3-0.1,0.5-0.3,0.6c-0.3,0.2-0.6,0.2-0.9,0.3c-1,0.2-1,0.2-0.7,1.2c0.7,2.6,1.4,5.1,2.1,7.7
			c1.5,5.3,3.7,10.3,6.2,15.1c0.8,1.5,1.6,2.9,2.4,4.4c0.1,0.2,0.3,0.3,0.5,0.2c0.3-0.1,0.6-0.2,1-0.2c0.3,0,0.6,0.1,0.7,0.4
			c0.1,0.3-0.1,0.5-0.3,0.7c-0.2,0.1-0.4,0.2-0.6,0.3c-1,0.3-2,0.6-3,0.9c-0.3,0.1-0.6,0.1-1,0.1c-0.3,0-0.5-0.1-0.6-0.4
			c-0.1-0.3,0.1-0.5,0.3-0.6c0.4-0.2,0.7-0.4,1.2-0.6c-0.4-0.7-0.7-1.4-1.1-2.1c-1.1-2-2.2-4.1-3.2-6.2
			C248.8,255.6,248.8,255.6,248.3,255.8z M273.1,290.7c-0.4,0.5-0.8,1-1.2,1.5c-0.2,0.3-0.5,0.7-0.7,1c-0.3,0.4-0.6,0.4-0.9,0.3
			c-0.3-0.2-0.4-0.5-0.2-0.9c0.2-0.4,0.1-0.6-0.2-0.8c-2.4-1.7-4.6-3.6-6.8-5.6c-0.3-0.3-0.4-0.3-0.7,0c-0.2,0.2-0.4,0.4-0.6,0.5
			c-0.5,0.3-1,0.2-1.3-0.1c-0.3-0.4-0.2-0.8,0.2-1.2c0.2-0.2,0.4-0.3,0.6-0.5c0.2-0.1,0.2-0.3,0-0.5c-0.1-0.1-0.2-0.2-0.2-0.3
			c-2.6-2.6-4.9-5.3-7.2-8.2c-0.4-0.6-0.8-1.1-1.3-1.7c-0.6,0.4-1,0.9-1.4,1.4c-0.2,0.2-0.4,0.5-0.6,0.7c-0.2,0.1-0.4,0.2-0.7,0.1
			c-0.3-0.1-0.3-0.4-0.3-0.7c0-0.2,0.1-0.5,0.2-0.7c0.6-1.2,1.5-2.1,2.5-2.9c2.9-2.3,6.2-3.5,9.8-3.7c1.5-0.1,2.8,0.3,4.1,1.1
			c1.8,1.2,2.6,2.9,2.7,5c0,2-0.6,3.9-1.6,5.7c-0.7,1.2-1.5,2.3-2.4,3.3c-0.3,0.3-0.5,0.6-0.8,0.9c1.1,1,2.2,2,3.3,3
			c1.2,1,2.4,2,3.7,3c0.4,0.3,0.4,0.3,0.7-0.1c0.1-0.2,0.3-0.3,0.4-0.5c0.3-0.2,0.6-0.2,0.8,0C273.3,290,273.4,290.4,273.1,290.7z
			 M282.8,286.9c-1,0.8-2,1.7-3.2,2.2c-0.6,0.2-1.2,0.6-1.9,0.8c-0.2,0.1-0.5,0.1-0.8,0.2c-0.3,0-0.5-0.1-0.6-0.4
			c-0.1-0.3,0-0.5,0.2-0.7c0.1-0.1,0.3-0.2,0.5-0.3c0.2-0.1,0.5-0.1,0.6-0.3c-3.5-6-6.1-12.4-8.8-18.8c-0.2-0.5-0.4-1.1-0.5-1.6
			c-0.1-0.3-0.2-0.4-0.6-0.3c-0.2,0.1-0.4,0.2-0.7,0.2c-0.3,0-0.5,0-0.6-0.3c-0.1-0.3,0-0.5,0.2-0.7c0.1-0.1,0.3-0.2,0.5-0.3
			c2.5-1.3,5.1-2.5,7.7-3.5c0.3-0.1,0.6-0.3,0.9-0.4c0.7-0.3,1.1-0.1,1.4,0.6c0.2,0.5,0.3,0.9,0.5,1.4c0.1,0.5-0.1,0.9-0.5,1
			c-0.4,0.1-0.7-0.1-0.9-0.6c-0.1-0.2-0.2-0.4-0.2-0.7c-0.1-0.3-0.3-0.4-0.5-0.3c-0.2,0.1-0.4,0.1-0.6,0.2c-1.7,0.8-3.5,1.4-5.2,2.4
			c0.9,1,1.3,2.2,1.8,3.3c1.3,2.9,2.6,5.9,3.9,8.8c0.1,0.1,0.1,0.3,0.2,0.4c0.1,0.1,0.1,0.2,0.3,0.1c0.8-0.4,1.7-0.9,2.5-1.3
			c0.2-0.1,0.3-0.2,0.2-0.4c0-0.1-0.1-0.3-0.1-0.4c0-0.4,0.2-0.7,0.5-0.8c0.3-0.1,0.6,0,0.9,0.3c0.1,0.1,0.2,0.3,0.2,0.4
			c0.2,0.5,0.4,1,0.5,1.5c0.1,0.4,0,0.7-0.3,0.9c-0.3,0.2-0.7,0.1-0.9-0.2c-0.2-0.3-0.4-0.3-0.7-0.1c-0.7,0.4-1.4,0.8-2.1,1.1
			c-0.3,0.1-0.3,0.3-0.2,0.6c0.2,0.3,0.3,0.6,0.4,1c0.7,1.7,1.6,3.4,2.2,5.1c0.2,0.5,0.2,0.5,0.7,0.3c0.7-0.3,1.3-0.7,1.9-1.2
			c0.3-0.2,0.3-0.4,0.1-0.7c-0.1-0.2-0.3-0.4-0.4-0.7c-0.2-0.3-0.1-0.6,0.2-0.8c0.3-0.2,0.6-0.1,0.8,0.2c0.3,0.4,0.6,0.9,0.8,1.4
			C283.2,286.2,283.1,286.6,282.8,286.9z M289.7,298.9c-0.2,0.2-0.3,0.4-0.6,0.5c-0.2-0.6-0.5-1.1-0.7-1.7
			c-3.4-8.2-5.8-16.7-7.5-25.4c-0.9-4.6-1.5-9.2-1.9-13.8c-0.7-7.8-0.8-15.5-0.5-23.3c0.4-10.7,1.8-21.3,4.8-31.6
			c1.8-6.3,4.1-12.3,7.2-18.1c2.5-4.5,5.4-8.7,9-12.4c3.4-3.4,7.4-6.1,11.9-7.8c6.5-2.5,13.1-2.9,19.7-0.9c5,1.5,9.1,4.4,12.3,8.5
			c2,2.5,3.4,5.2,4.5,8.1c-0.2-0.3-0.4-0.5-0.7-0.8c-0.4-0.5-0.9-0.9-1.3-1.4c-1.7-1.8-3.7-3.1-6-3.9c-0.8-0.3-1.6-0.5-2.4-0.5
			c-0.3,0-0.5,0-0.6,0.3c-0.1,0.3-0.1,0.5,0.1,0.7c0.2,0.3,0.5,0.5,0.8,0.6c0.4,0.2,0.7,0.3,1.1,0.4c2.2,0.7,4.2,1.9,5.9,3.5
			c1,0.9,1.9,1.9,2.4,3.2c0.5,1.1,0.3,2.1-0.4,3c-0.6,0.7-1.3,1.2-2.1,1.4c-1.3,0.4-2.5,0.4-3.8,0.3c-0.4,0-0.5-0.2-0.6-0.6
			c-0.2-1.1-0.7-2.1-1.3-3.1c-1.6-2.6-5.6-4-9-1.8c-1.4,0.9-1.8,2.2-1.4,3.8c0.1,0.5,0.3,0.9,0.6,1.3c0.5,0.9,1.2,1.6,1.9,2.2
			c1.9,1.5,4.1,2.4,6.5,2.8c0.2,0,0.5,0,0.6,0.2c-0.3,0.8-0.7,1.3-1.4,1.8c-0.4,0.3-0.7,0.4-1.1,0.1c-1.9-1-3.9-1.8-6-2.2
			c-1.1-0.2-2.2-0.3-3.3,0.1c-1.1,0.4-1.6,1.3-1.3,2.4c0.1,0.7,0.5,1.1,1,1.6c0.8,0.6,1.7,1,2.6,1.3c2.5,0.6,4.9,0.3,7.3-0.8
			c0.4-0.2,0.7-0.2,1,0.1c1.7,1.1,3.4,2.3,5.1,3.6c1.7,1.3,3.3,2.7,4.8,4.2c0.2,0.2,0.4,0.4,0.5,0.7c-0.1,0-0.2,0-0.2,0
			c-4.1-0.6-8.3-1.2-12.4-1.9c-1.7-0.2-3.4-0.4-5.1-0.4c-0.4,0-0.8,0.1-1.1,0.2c-0.8,0.3-1.1,1.1-0.7,1.9c0.2,0.4,0.5,0.6,0.8,0.9
			c0.5,0.4,1.1,0.7,1.6,1c1.9,1,3.9,1.5,6,1.8c0.5,0.1,1,0.2,1.4,0.6c1,0.8,2.1,1.6,3.1,2.4c0.9,0.7,1.9,1.5,2.7,2.4
			c0.3,0.3,0.6,0.7,0.8,1c0.3,0.5,0.2,0.7-0.4,0.8c-0.5,0.1-1.1,0.1-1.6-0.1c-1.1-0.2-2.2-0.6-3.3-1c-1.8-0.7-3.5-1.5-5.2-2.3
			c-1.6-0.8-3.1-1.5-4.7-2.1c-0.5-0.2-1.1-0.4-1.7-0.4c-1.1,0-1.7,1-1.2,2c0.2,0.4,0.5,0.8,0.9,1.1c0.7,0.5,1.4,1,2.1,1.4
			c0.6,0.3,1.3,0.6,2,0.9c0.3,0.1,0.4,0.3,0.3,0.6c-0.1,0.6-0.2,1.2-0.4,1.8c-0.2,0.6-0.5,1.2-1,1.6c-0.2,0.2-0.4,0.2-0.6,0
			c-0.7-0.6-1.4-1.3-2.2-1.9c-1.5-1.2-3.2-2.3-5-3.1c-0.6-0.3-1.2-0.4-1.8-0.4c-0.8,0.1-1.3,0.5-1.6,1.2c-0.2,0.5-0.1,1-0.1,1.5
			c0.2,1.1,0.6,2,1.3,2.8c1.8,2.2,5.7,3.8,9,2.5c0.5-0.2,0.7-0.1,1.1,0.2c1.8,1.9,3.6,3.8,5.2,5.9c0.8,1,1.6,1.9,2.2,3
			c0.4,0.6,0.7,1.1,0.8,1.8c-0.3,0.1-0.6,0-0.8-0.1c-1-0.3-2-0.7-2.9-1.2c-2.6-1.3-5.3-2.5-8.1-3.7c-1.5-0.6-3.1-1.2-4.8-1.4
			c-0.5-0.1-0.9-0.1-1.4,0.1c-0.7,0.2-1,0.8-1,1.5c0,0.4,0.2,0.8,0.5,1.1c0.4,0.5,0.9,1,1.4,1.4c0.9,0.7,1.9,1.3,2.9,1.8
			c0.3,0.1,0.5,0.3,0.7,0.5c2.6,3.2,5,6.5,7.1,10c0.2,0.3,0.4,0.6,0.5,1.1c-0.5-0.3-0.9-0.7-1.3-1c-1.4-1.3-2.7-2.7-4-4.1
			c-2.2-2.3-4.5-4.7-6.9-6.9c-0.8-0.8-1.7-1.5-2.7-2c-0.5-0.3-1-0.5-1.6-0.5c-1.3-0.1-2.2,0.7-2.2,2c0,1.6-0.4,3.1-1.1,4.5
			c-0.1,0.2-0.1,0.4-0.4,0.5c-0.6-0.5-1.2-0.9-1.9-1.4c-1.4-1-2.8-1.9-4.4-2.4c-1.6-0.5-3.2-0.7-4.9-0.3c-1.4,0.3-2.1,1.2-2.1,2.6
			c0,1.5,0.6,2.7,1.7,3.7c1.3,1.3,2.9,2.1,4.7,2.4c2.8,0.5,5.3-0.1,7.3-2.3c0.1-0.1,0.1-0.1,0.3-0.1c0.2,0.2,0.5,0.4,0.7,0.7
			c3.9,4,7,8.6,9.6,13.5c0.6,1.1,1,2.3,1.2,3.5c0,0.2,0.1,0.3,0.1,0.5c-0.1,0.2-0.3,0.4-0.4,0.6c-0.5-0.4-1-0.7-1.4-1.1
			c-2.7-2.6-5.4-5.1-8.1-7.6c-1-0.9-2-1.7-3.1-2.4c-0.6-0.4-1.2-0.7-1.9-0.8c-0.8-0.1-1.5,0-2,0.6c-0.5,0.6-0.4,1.3-0.1,1.9
			c0.1,0.2,0.2,0.3,0.3,0.5c0.6,1,1.2,2,1.9,2.9c0.3,0.4,0.6,0.9,0.9,1.4c1.4,2.7,2.9,5.4,4.3,8.1c0.5,0.9,0.9,1.8,1.2,2.7
			c0.1,0.2,0.2,0.5,0.1,0.8c-0.2-0.1-0.4-0.3-0.6-0.4c-0.6-0.4-1.1-0.9-1.5-1.4c-1.1-1.2-2.1-2.4-3.2-3.6c-1.5-1.7-2.9-3.3-4.6-4.7
			c-0.9-0.7-1.8-1.4-2.8-2c-0.7-0.4-1.4-0.6-2.2-0.5c-1,0.1-1.7,0.9-1.7,1.9c0,0.5,0.1,0.9,0.3,1.4c0.3,0.7,0.6,1.4,1.1,2
			c0.3,0.5,0.5,1,0.7,1.5c0.5,2,0.9,4,1.1,6.1c0.1,0.7,0.2,1.4,0.2,2.1c-0.2,0.1-0.4,0-0.5-0.1c-2.2-0.8-4.4-1.6-6.6-2.3
			c-0.7-0.2-0.7-0.1-0.7-1c-0.1-1.8-0.3-3.6-1-5.3c-0.3-1-0.8-1.8-1.6-2.5c-1-0.9-2.1-1.4-3.4-1.4c-1.8,0.1-3.5,1.6-3.9,3.4
			c-0.2,1-0.1,2,0.1,2.9c0.6,2.4,1.9,4.3,3.7,5.9c1.2,1.1,2.5,1.9,4,2.6c0.4,0.2,0.5,0.4,0.4,0.8c-0.2,1.8-0.4,3.6-0.3,5.4
			c0,0.3,0,0.5,0.1,0.8c0.1,0.2,0.2,0.3,0.4,0.3c0.2,0,0.4-0.1,0.4-0.3c0.1-0.2,0.1-0.3,0.1-0.5c0.1-0.5,0.1-1.1,0.2-1.6
			c0.2-1.3,0.3-2.6,0.5-3.9c0.1,0,0.2,0,0.2,0c2.5,1,5.1,1.6,7.7,2.3c0.5,0.1,0.7,0.4,0.7,0.9c0,0.1,0,0.2,0,0.3
			c0.2,1.3,0.5,2.6,1,3.9c0.3,0.7,0.6,1.4,1.2,1.9c0.3,0.3,0.6,0.6,1,0.8C301.4,286.5,295.6,292.8,289.7,298.9z M338.6,187.4
			c-0.6-0.1-1-0.2-1.4-0.3c-1.6-0.4-3.3-0.9-4.8-1.7c-0.4-0.2-0.8-0.4-1.1-0.7c-0.4-0.4-0.4-0.7,0-1.1c0.9-0.8,1.9-1.1,3-1
			c1.1,0,2.1,0.5,2.7,1.5C337.8,184.9,338.3,186,338.6,187.4z M334.3,195.4c-0.4,0.2-0.9,0.3-1.3,0.3c-1.7,0.2-3.4,0-5-0.6
			c-0.4-0.2-0.8-0.3-1-0.7c-0.3-0.4-0.3-0.6,0.2-0.8c0.7-0.2,1.4-0.2,2-0.1c1.8,0.2,3.5,0.9,5.1,1.7
			C334.3,195.3,334.3,195.3,334.3,195.4z M327.8,220.2c-3,0.3-6.7-2.1-7.2-4.5c0.3-0.2,0.5-0.1,0.8,0c0.4,0.2,0.8,0.4,1.2,0.6
			c1.8,1,3.4,2.2,4.9,3.6C327.6,219.9,327.8,219.9,327.8,220.2z M334,242.7c-0.2-0.4-0.4-0.8-0.7-1.2c-1.6-2.4-3.4-4.7-5.2-7
			c-0.1-0.2-0.3-0.3-0.4-0.6c0.2-0.1,0.3,0,0.5,0.1c0.8,0.3,1.6,0.6,2.4,0.8c2.2,0.7,4.5,1.1,6.9,1.1c0.1,0,0.3,0,0.4,0
			C336.6,238.1,335.3,240.4,334,242.7z M311.6,237.9c-1.1,1.1-2.4,1.6-3.9,1.6c-2.4-0.1-4.4-0.9-5.9-2.9c-0.3-0.4-0.6-0.9-0.7-1.4
			c-0.2-0.8,0.1-1.2,0.9-1.4c1.1-0.2,2.2-0.1,3.3,0.2c2.3,0.7,4.4,1.9,6.3,3.3C311.8,237.6,311.8,237.7,311.6,237.9z M318.2,264.3
			c-0.1-0.3-0.2-0.6-0.4-0.9c-0.3-0.6-0.6-1.2-0.9-1.7c-1-1.8-2-3.6-3-5.4c-0.1-0.2-0.3-0.3-0.2-0.6c0.4,0.3,0.7,0.6,1,0.8
			c1.7,1.4,3.4,2.6,5.4,3.4c0.7,0.3,1.4,0.5,2.1,0.6c-1.3,1.8-2.6,3.5-3.9,5.2C318.4,265.4,318.4,264.9,318.2,264.3z M294,263.7
			c-2.2-0.7-4.3-1.7-5.5-3.9c-0.4-0.6-0.5-1.2-0.6-1.9c-0.1-1,0.9-2.3,2.3-2.1c1.1,0.2,1.9,0.8,2.5,1.7c0.5,0.7,0.8,1.5,1,2.4
			c0.3,1.1,0.4,2.2,0.4,3.3C294.1,263.4,294.1,263.5,294,263.7z M307.9,278.8c-0.5-0.2-0.9-0.5-1.2-0.9c-0.5-0.7-0.7-1.4-0.9-2.2
			c-0.2-0.9-0.4-1.7-0.5-2.6c0.1,0,0.2-0.1,0.2-0.1c1.4,0.5,2.8,1.2,3.8,2.4c0.2,0.3,0.4,0.6,0.6,0.9c0,0,0,0.1,0,0.1
			C309.2,277.2,308.6,278,307.9,278.8z M312,273.9c-0.5-0.9-1.1-1.8-1.8-2.5c-1.4-1.5-3.1-2.6-5-3.5c-0.3-0.2-0.5-0.3-0.5-0.7
			c-0.2-1.7-0.5-3.4-0.8-5.1c-0.1-0.6-0.3-1.1-0.3-1.8c0.3,0.3,0.4,0.4,0.6,0.6c1.9,2,4,3.8,6.5,5c1.8,0.8,3.7,1.3,5.7,1.2
			c0.5,0,1-0.2,1.3-0.4c-0.8,1-1.6,2-2.3,3C314.2,271.1,313.1,272.5,312,273.9z M326.1,255c-0.6-2.1-1.6-4-2.8-5.8
			c-2.5-4.1-5.5-7.9-9.2-11.1c-0.5-0.5-0.4-0.4-0.2-0.9c0.5-0.9,0.9-1.8,1.2-2.8c0.1-0.2,0.1-0.5,0.3-0.7c0.1,0,0.1,0.1,0.2,0.1
			c0.1,0.1,0.1,0.1,0.2,0.2c2.1,3,4.5,5.6,7.2,8c1.9,1.7,4,3.2,6.4,4.2c0.7,0.3,1.4,0.5,2.1,0.6C329.7,249.6,327.9,252.3,326.1,255z
			 M344.6,221.1c-1.4,3.5-2.9,6.9-4.5,10.3c-0.4-0.8-1-1.6-1.6-2.3c-2.2-2.6-4.5-5.1-6.9-7.5c-0.2-0.2-0.4-0.3-0.5-0.6
			c0.5-0.6,0.9-1.3,1.2-2c0.3-0.7,0.4-1.5,0.5-2.3c0.1-0.5,0.1-0.5,0.5-0.3c0.1,0,0.1,0.1,0.2,0.1c2.2,0.9,4.4,1.5,6.7,1.8
			c1.5,0.2,3,0.2,4.4-0.4c1.5-0.6,2-2,1.3-3.4c-0.1-0.2-0.2-0.4-0.4-0.6c-0.4-0.5-0.8-0.9-1.3-1.3c-1.2-1.1-2.6-1.9-3.9-2.8
			c-0.2-0.1-0.4-0.2-0.6-0.5c0.1,0,0.1-0.1,0.2-0.1c0.2,0,0.4,0,0.6,0c2.3,0.1,4.6,0,6.9-0.5c0.4-0.1,0.8-0.2,1.2-0.4
			C347.6,212.7,346.2,216.9,344.6,221.1z M350.1,199.1c-0.2,1.9-0.4,3.9-0.8,5.8c-0.5-0.6-1-1.1-1.6-1.6c-2.9-2.7-5.9-5.2-9.3-7.2
			c-0.2-0.1-0.5-0.2-0.6-0.5c0.9-0.7,1.6-1.7,1.8-2.8c0.1-0.3,0.3-0.3,0.5-0.3c0.9,0,1.9-0.2,2.8-0.4c2.5-0.6,4.4-1.9,5.8-4
			c0.4-0.6,0.6-1.2,0.8-1.7c0,0.1,0,0.1,0,0.2C350.3,190.6,350.4,194.8,350.1,199.1z"/>
		<path class="st1" d="M322.6,210.6c0.8,0,1.5-0.7,1.5-1.5c0-0.9-0.7-1.5-1.6-1.5c-0.8,0-1.5,0.7-1.5,1.5
			C321,209.9,321.7,210.6,322.6,210.6z"/>
	</g>
	<path class="st1" d="M239.6,215.7c0.1-2.3,0.4-4.5,1.1-6.7c0.1-0.4,0.3-0.9,0.5-1.3c0.1-0.2,0.3-0.4,0.4-0.6
		c0.5-0.5,0.8-0.5,1.1,0.2c0.4,0.7,0.3,1.4,0.2,2.2c-0.2,0.9-0.5,1.7-0.9,2.5c-0.6,1.2-1.3,2.4-2.1,3.5
		C239.9,215.5,239.8,215.6,239.6,215.7z"/>
	<path class="st1" d="M229.6,219.8c-0.8,0-0.8,0-0.8-0.6c0-1,0.3-1.9,0.7-2.8c0.4-0.8,0.9-0.9,1.6-0.5c0.6,0.4,1.1,0.9,1.2,1.6
		c0.2,0.9-0.1,1.6-1,1.9c-0.2,0.1-0.5,0.2-0.7,0.2C230.3,219.7,229.9,219.8,229.6,219.8z"/>
	<path class="st1" d="M221.5,222.2c0.1,1.2,0,2.2-0.4,3.3c-0.1,0.4-0.3,0.7-0.6,1c-0.4,0.3-0.7,0.3-1,0c-0.3-0.4-0.4-0.9-0.3-1.4
		c0.2-0.9,0.8-1.6,1.4-2.2C220.9,222.6,221.1,222.4,221.5,222.2z"/>
	<path class="st1" d="M273.1,219.7c0.1-1.1,0.4-2,0.8-3c0.2-0.3,0.4-0.4,0.7-0.1c0.5,0.5,0.7,1.2,0.6,1.8c-0.1,0.6-0.5,1-1.1,1.1
		C273.8,219.7,273.5,219.8,273.1,219.7z"/>
	<path class="st1" d="M253.8,218.8c-0.1,0-0.1,0-0.2,0c-0.5,0-0.6,0-0.5-0.6c0.1-0.6,0.2-1.2,0.4-1.8c0.2-0.4,0.3-0.5,0.6-0.2
		c0.5,0.4,1,0.8,1.3,1.5c0.2,0.6,0.1,0.8-0.5,1C254.5,218.7,254.1,218.7,253.8,218.8C253.8,218.8,253.8,218.8,253.8,218.8z"/>
	<path class="st1" d="M268.2,218.8c-0.5-1-0.7-1.9-0.8-2.8c0-0.5-0.1-0.9,0.1-1.4c0.1-0.4,0.3-0.5,0.7-0.2c0.2,0.1,0.3,0.3,0.3,0.5
		C268.7,216.2,268.5,217.4,268.2,218.8z"/>
	<path class="st1" d="M270.9,257.9c-0.2,0.7-0.5,1.4-0.9,2c-1.2,2-2.8,2.4-4.9,1.4c-1.2-0.6-2.1-1.5-2.9-2.6c-1-1.6-1.7-3.3-2.1-5.2
		c-1-4.2-0.8-8.3,0.3-12.4C263.9,228.7,275.8,242.5,270.9,257.9z"/>
	<path class="st1" d="M266.7,275c0,1.7-0.4,3.4-1.3,5c-0.5,1-1.2,2-2,2.9c-0.4,0.5-0.5,0.5-0.9,0c-1.9-1.8-3.6-3.7-5.3-5.7
		c-1-1.2-2.1-2.4-3.1-3.6c-0.4-0.4-0.4-0.4,0.1-0.8c2-1.5,4.3-2.5,6.8-2.8c1.2-0.2,2.3,0,3.4,0.5c1.4,0.6,2.1,1.8,2.2,3.2
		C266.7,274.1,266.7,274.5,266.7,275z"/>
</g>
</svg>
