<?xml version="1.0" encoding="utf-8"?>
<!-- Generator: Adobe Illustrator 19.2.1, SVG Export Plug-In . SVG Version: 6.00 Build 0)  -->
<svg version="1.1" id="Layer_1" xmlns="http://www.w3.org/2000/svg" xmlns:xlink="http://www.w3.org/1999/xlink" x="0px" y="0px"
	 viewBox="0 0 750 750" style="enable-background:new 0 0 750 750;" xml:space="preserve">
<style type="text/css">
	.st0{fill:#F1CA84;}
	.st1{fill:#8A461E;}
	.st2{fill:#C73036;}
	.st3{fill:#F47929;}
	.st4{fill:#76CED9;}
	.st5{fill:#F37B7D;}
	.st6{fill:#4A8ECC;}
</style>
<g>
	<path class="st0" d="M672.6,164.8c-7.6,19.6-32,38.1-83.8,42.5c-14.3,1.2-28.4,1.6-42.1,2.1c-1.8-7.6-4.3-15-7.7-22.3l-2.3-5
		c17.3-14.5,30.1-44.4,37.1-50.3c8.9-7.3,26.1-2.9,24.3,14.3c-1.7,16.8-38.3,39.4-40,40.5c17.5-1.6,32.7-3.9,43.3-10.4
		c32-19.6,27.6-40.1,45.9-45.5C665.3,125.3,680.2,145.2,672.6,164.8z M505.8,141.5c46.2-23.9,61.6-50.3,61.2-71.3
		c-0.3-14.9-11.1-25.5-22.6-26.3c-4.8-0.3-9.7,1.1-14,4.6c-14.8,12-2.9,29.2-25,59.6c-7.3,10-20.5,18-36,26.2
		c1.2-1.7,26.3-36.6,21.5-52.8c-2.4-8.1-7.8-11.6-13.3-12c-5.8-0.4-11.8,2.8-14.6,8c-5.4,10.2-4.6,59.7-25.9,73.4
		c-21.8,11.8-43.7,26.2-58.3,47.6c5.1,3.2,10,6.8,14.5,10.7c0.1,0.1,0.2,0.2,0.4,0.3C417.3,176.9,462.7,163.8,505.8,141.5z"/>
	<path class="st1" d="M316.5,343.6c-1.6-0.7-3.1-1.6-4.4-2.8c-0.7-0.5-1.2-1.2-1.8-1.8c-0.5-0.6-1-1.3-1.4-2c-0.2-0.3-0.4-0.7-0.6-1
		c-4.2,2-8.1,2.9-11.9,2.7c-1.1-0.1-2.2-0.2-3.3-0.5c-10.3-2.6-17.2-13.7-21.6-34.9c-0.5-2.5,0.8-5.1,3.3-5.9
		c2.8-0.9,5.6,0.9,6.2,3.7c3.4,16.5,8.5,26.1,14.5,27.6c4,1,11.1-0.8,23.1-12.8c0.3-0.4,0.6-0.7,1-1c0,0,0,0,0,0
		c2.3-2.3,4.7-5,7.3-8.1c1.6-1.9,4.5-2.5,6.6-1c2.4,1.7,2.8,5,1,7.2c-1.5,1.8-3,3.4-4.4,5c0.1,0.2,0.2,0.5,0.3,0.7
		c0,0,0.1,0.3,0.2,0.9c0.1,0.3,0.1,0.6,0.2,1c0.1,0.4,0.5,2.3,0.7,2.6c0.4,0.7,0.9,1.5,1.7,2.1c1.4,1.4,3.7,2.3,5.4,2.8
		c1.8,0.5,3.1,0.5,3,0.6c0.7-0.2,1.5,0.3,1.6,1.1c0.2,0.7-0.3,1.5-1.1,1.6c0,0-0.4,0.1-1,0.4c-0.6,0.2-1.5,0.5-2.6,0.7
		c-2.2,0.5-5.3,0.9-8.6,0.1c-1.7-0.4-3.4-1-4.8-1.9c-0.8-0.4-1.4-0.9-2.1-1.4c-0.6-0.5-1.2-1.1-1.8-1.7c-0.1-0.1-0.2-0.2-0.3-0.4
		c-0.2,0.2-0.5,0.4-0.7,0.6c-0.7,0.6-1,1.4-0.9,2.3c0,0,0,0,0,0c0,0,0,0.3,0,0.9c0,0.3,0,0.7,0,1.1c0,0.4,0.1,2.3,0.2,2.7
		c0.2,0.8,0.6,1.6,1.2,2.4c1.2,1.6,3.2,3,4.8,3.8c1.7,0.8,2.9,1.1,2.8,1.1c0.8,0,1.4,0.6,1.4,1.3c0,0.8-0.6,1.4-1.3,1.4
		c0,0-0.4,0.1-1,0.2c-0.6,0.1-1.5,0.2-2.7,0.3C322.8,345.2,319.6,345,316.5,343.6z M168,302.9c-2.6,5.4-6.2,9.6-10.9,11.4
		c-3.6,1.4-7.5,1-11.4-0.6c-0.6-0.2-1.1-0.5-1.7-0.8c-19.8-10.1-37.6-51.7-4.6-60.7C171.4,243.5,177.8,282.2,168,302.9z
		 M153.1,281.2c1.3,0.7,2.6,0.9,3.7,0.4c1.3-0.5,2.4-1.7,3.1-3.3c2.8-6,1-17.1-8.2-14.6C142.2,266.4,147.3,278.3,153.1,281.2z
		 M242.6,362.4c-8.2,7.9-22.2,4.9-31.2-1.9c-2.1-1.6-5.2-1.2-6.8,0.9c-1.6,2.1-1.2,5.2,0.9,6.8c6.2,4.7,14.2,7.9,22.3,8.4
		c7.8,0.5,15.6-1.5,21.6-7.3c1.9-1.9,2-5,0.1-6.9C247.7,360.6,244.6,360.6,242.6,362.4z"/>
	<path class="st2" d="M318.5,466c0,0-16.7-38.5-63.6-51.4c-5.2-1.4-10.8-2.4-16.6-2.7c-45.8-3-102.3,29.1-78,121
		c3.3,12.4,8.4,24.3,14.9,35.6c2.2,2.3,4.8,3.9,7.8,4.7c9.1,2.5,22-2,34.5-11.9c8.8-7,16.1-15.9,19.7-23.9c0.5-1,1.6-1.6,2.7-1.4
		c31.7,6,46.4,34.9,47,36.1c0.4,0.9,0.3,1.9-0.3,2.7c-8.7,10-17.5,19-26.1,26.5c0,0,0,0,0,0c-12.8,11.2-25.4,19.4-37.2,24.4
		c44.2,39.8,98.7,67.3,124.9,79.3c6.7,3.1,14.4-1.5,14.9-8.9c1.5-21.7,12.6-63.3,67.7-108.3c30.6-25,45.2-51.7,49.7-76.5
		c-7.9,5.4-17.1,10.5-27.7,15.1c0,0,0,0-0.1,0c-10.5,4.5-22.3,8.6-35.1,12.2c-0.3,0.1-0.5,0.1-0.8,0.1c-0.7,0-1.3-0.4-1.8-0.9
		c-0.8-1.1-20.7-26.8-12.4-58.1c0.3-1.1,1.3-1.8,2.4-1.7c8.8,0.2,19.7-2.5,30-7.5l0,0c14.4-7,24-16.8,25.6-26.1
		c0.9-5.2-0.6-10.2-4.4-15C443,416.7,424,409,404.1,407.7C369,405.4,331.2,422.8,318.5,466z M190.5,494.4c-1.1,1.7-2.8,3-4.6,3.9
		c-1.6,0.8-3.3,1.3-5.1,1.2c-1.8-0.1-3.5-0.9-4.5-2.3c-1.1-1.5-1.2-3.6-0.9-5.4c0.2-1.6,0.7-3.2,1.7-4.4c1.9-2.2,7.5-3.5,10.3-2.9
		C191.8,485.5,192.6,491.1,190.5,494.4z M227.2,443.8c-1.8,4.2-6.7,5.9-10.5,7.7c-8.2,3.9-15.4,9.6-21,16.7c-1.4,1.8-2.7,3.7-4.6,5
		c-1.9,1.3-4.4,1.9-6.4,0.8c-3.2-1.7-3.1-6.4-2.1-9.8c2.6-8.5,8.3-15.9,15.5-21.1c6.2-4.4,18-10.8,25.9-8
		C227.7,436.4,228.7,440.2,227.2,443.8z"/>
	<path class="st3" d="M329.4,180c-1.3-0.2-2.5-0.3-3.8-0.5c-1.1-22.9,18.5-60.8,64.3-64.6c-11,12.3,3.2,31.1,8.6,53.3
		c-9.3,7.6-18,16.4-25.2,26.9c-8.5-4.7-17.6-8.6-27.5-11.5C340.3,182.1,334.8,180.8,329.4,180z M273,416c1.1-1.5,2.1-3.1,3.2-4.6
		c-18.4-1.7-36.5-5.6-52.8-11.5c-34.9-12.6-62.7-36.1-76.4-63.8c-1.2-2.3-2.2-4.7-3.2-7.1l-0.1,0l-0.6-1.7c0,0,0,0,0,0c0,0,0,0,0,0
		c0,0,0,0,0,0c-1.4-3.7-2.4-7.4-3.3-11.2c0.7,0.4,1.3,0.8,2,1.2c3.2,1.7,6.3,2.6,9.4,2.8c2.7,0.2,5.2-0.2,7.7-1.1
		c5.6-2.2,10.3-7,13.5-13.9c0.9-1.9,1.6-3.9,2.3-6c8.2,0.7,12.1-1.9,13.9-9.2c11.6-46.3,32.5-77.1,62.2-91.3
		c26.6-12.8,52.8-17.4,77.8-13.7c5.2,0.8,10.5,1.9,15.8,3.5c17.5,5.2,32.9,13.4,45.7,24.5c4.4,3.8,8.5,8,12.3,12.4
		c14.1-40.1,55.7-35.8,86.7-32.5c17.2,1.8,33.4,3.5,36.5-3.5l4.3-9.9l4.6,9.8c18.3,39.2,12.2,85.9-14.9,113.7
		c-22.9,23.4-55.8,28.9-91.1,15.5c-1.5,10.5-4.5,20.4-8.8,29.2c-5,10.4-11.6,19.7-19.7,27.8c-10.2,10.7-17,20.5-21.5,29.4
		c-24.1,5-48.5,19.7-61,49.5c-2-3.1-4.6-6.7-7.8-10.5c17.9-26.2,39.2-63.1,50.1-103.4c4.4-15.9,7.4-44.9-21.2-61
		c-43-24.3-91.5-1.2-117.3,34.1c-20.7,28.4-48.6,25.6-64.2,21c13,24.1,38.7,45.1,69.6,56.2c18.1,6.6,38.6,10.5,59.2,11.5
		c0.1,0,0.2,0,0.3,0.1c0.6,0,1.3,0,2.2,0c2.1,0,4.9-0.2,7.8-0.6c2.9-0.3,5.7-0.9,7.9-1.3c2.1-0.5,3.5-0.9,3.5-0.9
		c0.5-0.1,1,0.1,1.2,0.6c0.1,0.4,0,0.8-0.3,1l0,0c0,0-1.2,1-3.1,2.3c-1.9,1.3-4.5,3-7.2,4.6c-2.7,1.6-5.5,3-7.8,4
		c-1.9,0.8-3.2,1.4-3.5,1.5c-1.8,2.3-3.5,4.7-5.2,7C278.9,418.9,276,417.4,273,416z M289.5,242.8c7.2,4.4,11.6-7.2,9.3-12.5
		c-3.8-8.9-11.9-0.8-12.2,5.7C286.5,238.6,287.3,241.5,289.5,242.8z M311,217.1c7.1-1.7,7.9-16-1.6-15.5
		C297.9,202.2,303,219,311,217.1z M319.8,238.9c0.8,2.3,2.4,4.4,4.7,5.2c2.3,0.8,5.2,0,6.3-2.1c0.7-1.4,0.7-3,0.6-4.6
		c-0.3-3.8-0.8-12.9-6.7-11.5C320.1,227,318.6,235.2,319.8,238.9z M353.3,215.8c-1.7-2.6-3.6-5.1-5.7-7.4
		c-3.7-4.2-11.6-7.8-12.9,0.3c-1.2,7.4,6,14.4,12.7,15.8c1.5,0.3,3,0.4,4.5-0.1c1.4-0.5,2.7-1.6,3.1-3
		C355.5,219.4,354.4,217.5,353.3,215.8z M267.1,215.3c-0.2,2.8,1.4,5.8,4,6.6c3.2,0.9,6.3-1.5,8.7-3.7c3.9-3.6,9.3-11.2,1.6-14.1
		C274.8,201.5,267.5,209,267.1,215.3z M420.5,270.1c9.7,18,79,26,86-30.6C506.5,239.5,440.2,222.1,420.5,270.1z M452.8,521.3
		l-4.6,1.9c-9.1,3.8-19.3,7.3-30.2,10.4c-3.7-5.3-16.6-26.2-11.1-50.6c8.1-0.2,17.5-2.4,26.6-6.3l5-2.3c15.1-7.7,25.1-18.4,27-29
		c1.1-6-0.3-11.8-4.2-17.3c22.7,0.5,40.9,12.2,44.9,29.4C511.4,480.3,491.5,504,452.8,521.3z M437.6,519.5c-4.2-8-9-19.5-10.8-32.6
		c-4.6,1.4-9.3,2.4-13.7,3c-1.6,15,4.1,28.1,8.1,35.1C427,523.3,432.4,521.4,437.6,519.5z M281.8,572.9
		c-7.4,8.5-14.9,16.2-22.4,22.8l-3.7,3.3c-32.2,27.6-62.2,35.4-80.5,20.8c-13.8-11-16.6-32.3-7.3-53.1c3.3,5.8,7.9,9.6,13.8,11.2
		c10.3,2.8,24.4-1.6,37.7-11.9l4.2-3.5c7.4-6.5,13.5-14.1,17.1-21.3C265.2,546.7,278.6,567.3,281.8,572.9z M272.7,572.2
		c-4.6-6.6-14-17.4-28.2-22.4c-2.4,3.8-5.3,7.5-8.6,11.1c11,7.2,19.4,16.7,24.8,23.7C264.6,580.8,268.6,576.6,272.7,572.2z"/>
	<path class="st4" d="M76.1,491.2c-1.8,5-0.3,11,3.7,14.4c1.7,1.5,4.1,2.3,6.5,2.5c3.1,0.2,6.5-0.6,9.1-1.9
		c-0.9,5.2,1.6,10.8,6,13.5c1.8,1.1,3.8,1.7,5.9,1.9c3.1,0.2,6.3-0.7,8.9-2.5c4.2-3.2,7.4-11.2,5.9-16.2c0.8,0.2,1.6,0.3,2.3,0.4
		c4.3,0.3,8.7-1.7,11.3-5.1c3-4.1,3.3-10.1,0.6-14.4c-2.2-3.5-5.7-5.9-9.6-6.1c-0.9-0.1-1.8,0-2.8,0.2c2.6-0.8,4.3-3.2,5.3-5.7
		c2-5.3,0.6-11.9-3.7-15.7c-2.1-1.9-5-3-7.8-3.2c-2.8-0.2-5.7,0.5-8,2.2c-4.4,3.2-6,9.8-3.5,14.5c0.1,0.2,0.3,0.4,0.4,0.7
		c-0.1-0.2-0.3-0.4-0.4-0.7c-2.1-3.3-7.3-6.6-11.3-6.9c-0.4,0-0.8,0-1.1,0c-4.3,0.4-8.2,3.6-9.4,7.8c-1.2,4.1,0.4,9.2,3.7,11.9
		C83,482.7,77.9,486.3,76.1,491.2z M109.6,479.3c0.5,0,1,0.1,1.4,0.2c3.4,0.9,6,4.6,5.4,8.1c-0.8,4.1-6,8.9-10.5,8.6
		c-0.4,0-0.8-0.1-1.2-0.2c-5.3-1.5-5.7-9-3-12.8C103.5,480.7,106.6,479.1,109.6,479.3z"/>
	<path class="st5" d="M339.3,365.6c-0.3,5.2-7.9,8.9-16.9,8.3c-9-0.6-16-5.3-15.7-10.5c0.3-5.2,7.9-8.9,16.9-8.3
		C332.6,355.7,339.6,360.4,339.3,365.6z M494.5,396.5c-2.2,4.5-11.2,4.7-19.9,0.3c-0.6-0.3-1.2-0.6-1.7-0.9c0.1,0.6,0.1,1.3,0.2,2
		c0.6,9.8-2.9,17.9-8,18.2c-1.3,0.1-2.6-0.4-3.7-1.2c-3.4-2.5-6-8.6-6.5-15.8c0-0.7-0.1-1.3-0.1-2c-0.5,0.4-1.1,0.8-1.6,1.1
		c-7.2,4.8-15,6.1-18.6,3.4c-0.5-0.3-0.9-0.8-1.2-1.2c-2.8-4.2,1.5-12,9.7-17.4c0.6-0.4,1.1-0.7,1.7-1c-0.6-0.3-1.2-0.5-1.8-0.8
		c-1.8-0.9-3.5-1.9-5-3.1c-5.6-4.2-8.5-9.4-6.8-13c2.2-4.5,11.2-4.7,19.9-0.3c0.6,0.3,1.2,0.6,1.7,0.9c-0.1-0.6-0.1-1.3-0.2-2
		c-0.6-9.8,2.9-17.9,8-18.2c1.3-0.1,2.6,0.4,3.7,1.2c3.4,2.5,6,8.6,6.5,15.8c0,0.7,0.1,1.3,0.1,2c0.5-0.4,1.1-0.8,1.6-1.1
		c7.2-4.8,15-6.1,18.6-3.4c0.5,0.3,0.9,0.8,1.2,1.2c2.8,4.2-1.5,12-9.7,17.4c-0.6,0.4-1.1,0.7-1.7,1c0.6,0.3,1.2,0.5,1.8,0.8
		c1.8,0.9,3.5,1.9,5,3.1C493.3,387.7,496.2,392.9,494.5,396.5z M453.6,381.4c0.2,2.8,1.6,5.2,3.7,6.7c1.7,1.2,3.8,1.9,6,1.8
		c5-0.3,8.9-4.7,8.5-9.7c-0.2-2.8-1.6-5.2-3.7-6.7c-1.7-1.2-3.8-1.9-6-1.8C457.1,372,453.3,376.4,453.6,381.4z"/>
	<path class="st6" d="M462,572.8c-0.9-0.1-1.8,0.1-2.6,0.5c-4.4,2.1-4.6,10.8-0.5,19.4c0.3,0.6,0.6,1.2,0.9,1.7
		c-0.6-0.1-1.3-0.2-1.9-0.2c-0.1,0-0.2,0-0.3,0c-9.4-0.6-17.2,2.8-17.6,7.6c-0.4,4.9,7,9.4,16.5,10.1c0.1,0,0.1,0,0.2,0
		c0.6,0,1.1,0.1,1.7,0.1c-0.4,0.5-0.8,1-1.1,1.6c-5.3,7.9-6.4,16.5-2.3,19.2c0.7,0.5,1.6,0.8,2.6,0.8c4.2,0.3,10.1-3.7,14.5-10.1
		c0.4-0.5,0.7-1.1,1-1.6c0.2,0.6,0.5,1.2,0.8,1.8c3.4,7,8.7,11.8,12.9,12.1c0.9,0.1,1.8-0.1,2.6-0.5c4.4-2.1,4.6-10.8,0.5-19.4
		c-0.3-0.6-0.6-1.2-0.9-1.7c0.6,0.1,1.3,0.2,1.9,0.2c0.1,0,0.2,0,0.3,0c9.4,0.6,17.2-2.8,17.6-7.6c0.4-4.9-7-9.4-16.5-10.1
		c-0.1,0-0.1,0-0.2,0c-0.6,0-1.1-0.1-1.7-0.1c0.4-0.5,0.8-1,1.1-1.6c5.3-7.9,6.4-16.5,2.3-19.2c-0.7-0.5-1.6-0.8-2.6-0.8
		c-4.2-0.3-10.1,3.7-14.5,10.1c-0.4,0.5-0.7,1.1-1,1.6c-0.2-0.6-0.5-1.2-0.8-1.8C471.6,577.9,466.3,573.1,462,572.8z M483.3,604.9
		c-0.4,4.9-4.6,8.5-9.4,8.2c0,0,0,0-0.1,0c-4.9-0.4-8.6-4.6-8.2-9.5c0.4-4.9,4.6-8.5,9.4-8.2c0,0,0,0,0.1,0
		C480,595.8,483.7,600,483.3,604.9z"/>
</g>
</svg>
