<?xml version="1.0" encoding="utf-8"?>
<!-- Generator: Adobe Illustrator 21.1.0, SVG Export Plug-In . SVG Version: 6.00 Build 0)  -->
<svg version="1.1" id="Calque_1" xmlns="http://www.w3.org/2000/svg" xmlns:xlink="http://www.w3.org/1999/xlink" x="0px" y="0px"
	 viewBox="0 0 432 432" style="enable-background:new 0 0 432 432;" xml:space="preserve">
<style type="text/css">
	.st0{fill:#6E3C3F;}
	.st1{fill:#E3635C;}
	.st2{fill:#343434;}
	.st3{fill:#B1C369;}
	.st4{fill:#A490C4;}
	.st5{fill:#A2C1DB;}
	.st6{fill:#AFB67B;}
	.st7{fill:#4F4747;}
	.st8{fill:#AA6555;}
	.st9{fill:#93C6E3;}
	.st10{fill:#9C3A47;}
	.st11{fill:#52B5C3;}
	.st12{fill:#4B6C2A;}
	.st13{fill:#F4A38D;}
	.st14{fill:#6A8E2D;}
	.st15{fill:#EE7A9F;}
	.st16{fill:#F7DA6A;}
	.st17{fill:#E2991A;}
	.st18{fill:#A7B7BE;}
	.st19{fill:#E8D8CA;}
	.st20{fill:#A1A499;}
	.st21{fill:#C42725;}
	.st22{fill:#DBDC50;}
	.st23{fill:#020203;}
	.st24{fill:#92AA3C;}
	.st25{fill:#DFB87F;}
	.st26{fill:#7E4E1C;}
	.st27{fill:#BBCC53;}
	.st28{fill:#BA5C78;}
	.st29{fill:#85924F;}
	.st30{fill:#7C1142;}
	.st31{fill:#3B322E;}
	.st32{fill:#3B6C51;}
	.st33{fill:#C1292E;}
	.st34{fill:#CDCCCC;}
	.st35{fill:#886649;}
	.st36{fill:#F9B03D;}
	.st37{fill:#7D8C5B;}
	.st38{fill:#0D341E;}
	.st39{fill:#4D8F53;}
	.st40{fill:#1B1B1B;}
	.st41{fill:#F39323;}
	.st42{fill:#E7E6E6;}
	.st43{fill:#9A908B;}
	.st44{fill:#548981;}
	.st45{fill:#89525A;}
	.st46{fill:#AB9AB1;}
	.st47{fill:#5E676E;}
	.st48{fill:#DDDBCA;}
	.st49{fill:#56463E;}
	.st50{fill:#457885;}
	.st51{fill:#FFFFFF;}
	.st52{fill:#E69678;}
	.st53{fill:#A5AB9B;}
	.st54{fill:#855354;}
	.st55{fill:#DE8F6E;}
	.st56{fill:#C19D63;}
	.st57{fill:#837F62;}
	.st58{fill:#7D8769;}
	.st59{fill:#39466A;}
	.st60{fill:#4E4D4D;}
	.st61{fill:#673E44;}
	.st62{fill:#CEB283;}
	.st63{fill:#8890A4;}
	.st64{fill:#99B8B3;}
	.st65{fill:#A0747A;}
	.st66{fill:#BB839E;}
	.st67{fill:#E5DA9B;}
	.st68{fill:#BA9BC9;}
	.st69{fill:#8CACB5;}
	.st70{fill:#746458;}
	.st71{fill:#34354B;}
	.st72{fill:#6A8188;}
	.st73{fill:#B4B4B4;}
	.st74{fill:#97CB9E;}
	.st75{fill:#EE7896;}
	.st76{fill:#785F63;}
	.st77{fill:#E4A87C;}
	.st78{fill:#98D5E8;}
	.st79{fill:#CB6083;}
	.st80{fill:#9A9999;}
	.st81{fill:#C49A6C;}
	.st82{fill:#EC96AB;}
	.st83{fill:#ED87AB;}
	.st84{fill:#E2B471;}
	.st85{fill:#59B465;}
	.st86{fill:#4C996E;}
	.st87{fill:#A84F6B;}
	.st88{fill:#6BC4CD;}
	.st89{fill:#D6809C;}
	.st90{fill:#9DD0B3;}
	.st91{fill:#F3AA9A;}
	.st92{fill:#F29292;}
	.st93{fill:#BBBBBB;}
	.st94{fill:#5B5242;}
	.st95{fill:#8CCDC6;}
	.st96{fill:#EAC892;}
	.st97{fill:#F4B0CC;}
	.st98{fill:#7A6350;}
	.st99{fill:#9FC64B;}
	.st100{fill:#A68C6D;}
	.st101{fill:#F1D3D4;}
	.st102{fill:#BE8BBE;}
	.st103{fill:#F49523;}
	.st104{fill:#789835;}
	.st105{fill:#8FA369;}
	.st106{fill:#B17081;}
	.st107{fill:#E1B63D;}
	.st108{fill:#B05274;}
	.st109{fill:#CA9256;}
	.st110{fill:#A9A9AA;}
	.st111{fill:#BE202E;}
	.st112{fill-rule:evenodd;clip-rule:evenodd;fill:#A9A9AA;}
	.st113{fill:#89657B;}
	.st114{fill:#7F95B7;}
	.st115{fill:#9F9EC6;}
	.st116{fill:#7F6178;}
	.st117{fill:#6D8999;}
	.st118{fill:#A0C07E;}
	.st119{fill:#AA779F;}
	.st120{fill:#FBC063;}
	.st121{fill:#80A0C2;}
	.st122{fill:#CFAC75;}
	.st123{fill:#CD94C2;}
	.st124{fill:#AAB6DE;}
	.st125{fill:#CCAE99;}
	.st126{fill:#86B69F;}
	.st127{fill:#555D57;}
	.st128{fill:#86C1BB;}
	.st129{fill:#CA856C;}
	.st130{fill:#A4AA6D;}
	.st131{fill:#EAB978;}
	.st132{fill:#C091A7;}
	.st133{fill:#7E9DAD;}
	.st134{fill:#E5B1C8;}
	.st135{fill:#B9AEA3;}
	.st136{fill:#627F99;}
	.st137{fill:#E6A9AB;}
	.st138{fill:#913E41;}
	.st139{fill:#B46269;}
	.st140{fill:#C69C6C;}
	.st141{fill:#ED6D78;}
	.st142{fill:#C09047;}
	.st143{fill:#AE6C7B;}
	.st144{fill:#918FB2;}
	.st145{fill:#67816D;}
	.st146{fill:#B3B1A2;}
	.st147{fill:#A23A43;}
	.st148{fill:#6A907C;}
	.st149{fill:#B09294;}
	.st150{fill:#7B484D;}
	.st151{fill:#B78B5E;}
	.st152{fill:#DB7D82;}
	.st153{fill:#781611;}
	.st154{fill:#D38F8F;}
	.st155{fill:#965656;}
	.st156{fill:#9AA4B4;}
	.st157{fill:#754D24;}
	.st158{fill:#C8B7A7;}
	.st159{fill:#B4363B;}
	.st160{fill:#C77272;}
	.st161{fill:#91AF82;}
	.st162{fill:#C69462;}
	.st163{fill:#ED6C5B;}
	.st164{fill:#F3C186;}
	.st165{fill:#F3957D;}
	.st166{fill:#D1BBBC;}
</style>
<g>
	<g>
		<path class="st23" d="M266.5,205c-4.1,0.1-8.7,0.1-13.4,0.3c-1.4,0.1-2.3-0.4-3.1-1.4c-2.5-3-5-5.9-7.4-8.9
			c-7.8-9.8-14.8-20.2-21.3-30.8c-1.9-3.1-3.7-6.2-4.5-9.8c-0.2-0.8-0.4-1.7-0.5-2.5c-0.4-3.5,0.8-6.5,3.8-8.3
			c2.7-1.6,5.5-3.1,8.5-4.3c5.8-2.4,11.9-3.7,18-4.5c9.4-1.3,18.8-1.8,28.3-1.4c9.8,0.5,19.7,1.2,29.2,4.2c3.6,1.1,7.1,2.7,10.6,4.2
			c1.4,0.6,2.6,1.4,3.8,2.3c2.8,2,3.9,4.7,3.4,8.1c-0.4,3.1-1.4,6-2.7,8.9c-1.7,3.8-4,7.3-6.5,10.6c-4.4,5.9-9.3,11.5-14.4,16.8
			c-4.7,4.9-9.4,9.7-14,14.6c-1.1,1.1-2.1,1.6-3.7,1.5c-3-0.1-6.1,0.1-9.2,0.2C270,204.8,268.6,204.9,266.5,205z"/>
		<path class="st23" d="M255.3,247.9c7.6,0,14.9,0,22.5,0c0,0.4,0.1,0.9,0.1,1.4c-0.5,11-0.9,22-1.5,33c-0.6,9.8-1.5,19.6-2.2,29.5
			c-0.4,5.5-0.7,10.9-1.1,16.4c-0.4,5.9-0.8,11.8-1.4,17.7c-0.2,2-0.9,4-1.4,6c-0.2,0.6-0.6,1.3-1.1,1.7c-1,0.9-2.7,0.6-3.5-0.6
			c-0.7-1.2-1.3-2.5-1.5-3.8c-0.6-3.6-1-7.2-1.3-10.8c-1-10.7-1.8-21.3-2.7-32c-0.5-6-1-12-1.5-18.1c-0.6-7.4-1.3-14.8-1.9-22.2
			c-0.5-5.6-0.8-11.3-1.2-16.9C255.3,248.8,255.3,248.5,255.3,247.9z"/>
		<path class="st110" d="M281.1,207.1c-1,12.7-2,25.2-3,37.6c-1.4,0.5-20.5,0.7-23.1,0.3c-1-12.3-2-24.6-3-37
			C261.5,207.7,271.1,207.4,281.1,207.1z"/>
	</g>
	<g>
		<path class="st23" d="M378,294.4c-13.3,0.4-26.3-0.4-39.5-0.1c-0.1-2.4-0.4-4.5-0.4-6.7c-0.2-16.8-0.4-33.5-0.7-50.3
			c0-0.6,0-1.1,0-1.9c1-0.1,2-0.2,2.9-0.2c12-0.1,24-0.1,36-0.2c0.2,0,0.5,0,0.9,0.1C377.9,254.8,377.4,274.5,378,294.4z"/>
		<path class="st82" d="M345.4,183.9c0-1.5,0-2.9,0-4.2c-0.1-8.1-0.3-16.1-0.4-24.2c0-2.4,0-4.8,0-7.3c0-2.4,0.7-4.6,2-6.5
			c3.7-5.8,7.9-11.2,12.9-16c0.9-0.9,1.9-1.6,3-2.3c1.6-1,2.7-0.7,3.2,1.1c0.6,1.9,0.9,3.8,1.1,5.7c0.3,3.2,0.4,6.3,0.4,9.5
			c0.1,13.8,0.1,27.6,0.1,41.5c0,0.7,0,1.4,0,2.2C360.1,183.6,352.7,183.8,345.4,183.9z"/>
		<path class="st23" d="M337.5,217c0-5.9,0-11.7,0-17.6c0.9-0.1,1.7-0.2,2.5-0.3c1.8-0.2,2.3-0.8,2.2-2.6c-0.1-3-0.3-6-0.5-9
			c0-0.2,0-0.5,0-0.9c9.9-0.4,19.9-0.3,29.9-0.5c0.1,0.5,0.1,1,0.2,1.4c0.1,2.9,0.2,5.9,0.4,8.8c0.1,2.4,0.7,3,3.1,3.2
			c0.4,0,0.9,0.1,1.6,0.1c0.2,5.6,0.1,11.2,0.1,16.7C375.2,216.9,342.2,217.5,337.5,217z"/>
		<path class="st110" d="M337.6,219.9c13.1-0.2,26.1-0.3,39.4-0.5c0.1,4.2,0.2,8.5,0.3,12.9c-13.3,0.1-26.4,0.2-39.5,0.3
			C337.4,231.3,337.3,222.2,337.6,219.9z"/>
	</g>
	<g>
		<path d="M192.5,117.7c0.2,0.2,0.4,0.5,0.7,0.5c0.7,0,1.5-0.1,2.2-0.1c0.7,0,1.5,0,2.2,0.2c1,0.2,1.7,0.8,1.8,1.8
			c0.2,1-0.2,2-1.2,2.4c-1.1,0.5-2.3,0.7-3.5,0.9c-0.4,0.1-0.8,0-1.2,0.1c-0.7,0.1-0.7,0.1-0.7,1.3c0.4,0,0.9,0,1.3,0.1
			c0.6,0.1,1.3,0.2,1.9,0.3c0.9,0.3,1.5,0.9,1.6,1.9c0.1,1-0.4,1.8-1.3,2.3c-0.6,0.3-1.3,0.5-1.9,0.7c-0.5,0.1-1,0.2-1.5,0.3
			c0,0.4-0.1,0.8-0.1,1.1c0.1,6.2,0.2,12.3,0.2,18.5c0.1,10.6,0.1,21.2,0.2,31.8c0,1.8,0,3.7-0.1,5.5c0,0.8-0.2,1.6-0.5,2.4
			c-0.3,0.9-1.3,1.4-2.3,1.2c-0.8-0.1-1.6-0.8-1.7-1.7c-0.1-0.4,0-0.8,0-1.2c-0.2-18.6-0.4-37.2-0.6-55.8c0-0.4-0.1-0.8-0.1-1.3
			c-0.7,0-1.4,0-2.1,0c-1.5-0.1-2.6-1.2-2.6-2.5c-0.1-1.3,0.9-2.4,2.2-2.7c0.6-0.1,1.3-0.2,1.9-0.3c0.7-0.1,0.6-0.5,0.4-1.2
			c-0.6,0-1.2,0-1.8,0c-0.7,0-1.5,0.1-2.2,0.1c-1.7,0-2.7-1-2.8-2.4c-0.1-1.4,0.9-2.5,2.5-2.8c1-0.2,2.1-0.2,3.1-0.3
			c0.4,0,0.8-0.1,1.2-0.1c0.4-0.8,0.1-1.2-0.7-1.1c-1.6,0.1-3.2,0.2-4.8,0.3c-0.6,0-1.3,0.1-1.9-0.1c-1.1-0.2-1.9-0.9-2.1-2
			c-0.2-1,0.4-2.2,1.5-2.7c0.5-0.3,1.2-0.4,1.8-0.5c2-0.2,4-0.3,6.1-0.5c0-0.3,0.1-0.7,0.1-1.1c-0.2-0.1-0.4-0.2-0.5-0.2
			c-2,0.1-3.9,0.2-5.9,0.3c-0.5,0-1,0-1.6,0c-1.6-0.1-2.8-1.1-2.8-2.5c-0.1-1.3,1-2.5,2.4-2.7c1.4-0.2,2.9-0.2,4.3-0.3
			c1.3-0.1,2.6-0.2,3.8-0.3c0.2-0.9-0.1-1-0.7-1c-2.1,0.2-4.3,0.3-6.4,0.5c-0.9,0.1-1.8,0.2-2.8,0.1c-1.4,0-2.5-1-2.6-2.3
			c-0.2-1.4,0.7-2.6,2.1-2.9c1.2-0.2,2.5-0.3,3.8-0.4c1.9-0.1,3.8-0.2,5.7-0.4c0.5,0,1,0,0.8-1c-0.9,0-1.9,0-2.8,0
			c-1.6,0.1-3.2,0.3-4.8,0.3c-0.6,0-1.3,0-1.9-0.2c-1-0.4-1.8-1.1-1.8-2.3c-0.1-1.2,0.6-2,1.6-2.4c0.5-0.2,1.1-0.3,1.7-0.4
			c2.2-0.2,4.4-0.3,6.5-0.5c0.5,0,0.9-0.1,1.5-0.1c0-0.5,0.1-0.9,0.1-1.4c-1.2,0-2.4,0-3.5,0c-0.9,0-1.8,0.1-2.8,0.1
			c-1.4-0.1-2.4-1.1-2.5-2.2c-0.1-1.2,0.9-2.3,2.4-2.5c1.8-0.2,3.6-0.3,5.3-0.4c0.8-0.1,0.8-0.1,1.1-1.1c-0.8,0-1.5,0-2.2,0
			c-0.7,0-1.4,0.1-2.1-0.1c-1.1-0.2-1.8-1.1-1.8-2c0-0.9,0.5-1.8,1.5-2.1c0.5-0.2,1.1-0.3,1.7-0.3c1-0.1,2,0,3,0
			c0.1-0.4,0.2-0.8,0.3-1.2c0.6-1.3,1.9-1.5,2.5-0.3c0.7,1.3,1.7,1.4,3,1.4c0.7,0,1.5,0,2.2,0.2c1,0.2,1.7,0.9,1.7,1.7
			c0,0.9-0.5,1.6-1.3,1.8c-1,0.3-2.1,0.4-3.2,0.6c-0.3,0.1-0.6,0.1-0.8,0.1c-0.3,0.7-0.2,1.1,0.6,1.1c1.1,0,2.2-0.1,3.3-0.1
			c1,0,2.1,0,3.1,0.2c0.9,0.1,1.6,0.7,1.7,1.7c0.1,1-0.4,1.7-1.3,2.1c-0.9,0.4-1.9,0.6-2.8,0.7c-1.5,0.2-3,0.3-4.5,0.5
			c0,0.5,0,0.9,0,1.4c1,0,1.9,0,2.8,0c2,0,4,0.1,6,0.2c0.7,0,1.4,0.4,1.9,0.7c1.2,0.8,1.2,2.4,0,3.2c-0.7,0.5-1.7,0.8-2.6,0.9
			c-2.3,0.2-4.7,0.3-7.1,0.4c-0.5,0-1.2-0.2-1.1,0.8c1.1,0,2.2,0,3.3,0c2,0,3.9-0.1,5.9-0.2c0.1,0,0.2,0,0.3,0
			c1.7,0.1,2.8,1,2.9,2.4c0.1,1.5-1,2.6-2.7,2.7c-2.5,0.2-5.1,0.2-7.6,0.4c-0.7,0-1.5-0.2-2.1,0.8c0.6,0.1,0.9,0.2,1.3,0.2
			c2.4,0,4.7,0,7.1,0c0.8,0,1.6,0.2,2.3,0.5c0.7,0.3,1.3,0.8,1.3,1.7c0,0.8-0.4,1.3-1,1.7c-0.6,0.3-1.2,0.6-1.8,0.6
			c-2.3,0.3-4.7,0.6-7,0.9c-0.6,0.1-1.1,0.1-1.8,0.2c0,0.5,0,0.9-0.1,1.3c1.3,0,2.4,0,3.6,0c1.2,0,2.3,0,3.4,0.1
			c0.6,0.1,1.3,0.3,1.8,0.5c1.4,0.8,1.6,2.2,0.3,3.2c-0.7,0.5-1.5,0.9-2.3,1.1c-1.6,0.3-3.2,0.4-4.8,0.6c-0.6,0.1-1.2,0.1-1.9,0.2
			C192.6,117.4,192.6,117.5,192.5,117.7z"/>
		<path class="st23" d="M201.6,294c-6.1-0.1-12-0.3-18.1-0.4c-7.5-32.9-10.7-66.1-11.4-99.6c1.8-0.5,36.8-1.1,39.9-0.7
			c0.4,16.9-0.1,33.8-2.1,50.6C207.9,260.7,205.3,277.4,201.6,294z"/>
	</g>
	<g>
		<path class="st23" d="M54.1,264.1c0-14.6,0-29.1,0-43.7c0-6.7,0.2-13.5,0.5-20.2c0.1-1.7,0.5-3.4,0.9-5.1c0.5-1.8,1.7-3.1,3.7-3.5
			c2.1-0.4,4.2-0.8,6.3-0.9c4.1-0.2,8.1-0.3,12.2-0.3c13.1-0.1,26.2-0.3,39.3-0.2c6.4,0,12.8,0.5,19.2,0.9c2.1,0.1,4.1,0.6,6.1,1.2
			c2.8,0.7,4.7,2.6,5.8,5.2c1,2.2,1.4,4.6,1.5,7c0.3,5.8,0.6,11.7,0.8,17.5c0.6,18.3,0.7,36.5,0.8,54.8c0.1,10.3,0.4,20.6,0.5,30.8
			c0.1,6.5,0,12.9-0.1,19.4c-0.1,3.8-0.2,7.6-1.1,11.4c-1.2,4.8-2,5.2-6.1,5.9c-2,0.4-4.2,0.4-6.2,0.5c-16.8,0.2-33.6,0.4-50.4,0.5
			c-7.4,0.1-14.7-0.1-22-0.8c-1.9-0.2-3.8-0.5-5.7-0.9c-2.4-0.5-4-1.9-4.4-4.3c-0.5-3-1-6-1.3-9c-0.8-8.4-0.5-16.8-0.5-25.2
			C54,291.5,54,277.8,54.1,264.1C54,264.1,54,264.1,54.1,264.1z M77.1,236.1c3.8-3.4,5.2-6.1,5.1-10.5c-0.1-5.2-1.5-10.1-4.1-14.6
			c-1-1.7-2.3-3.1-3.9-4.2c-2.2-1.4-4.5-1.5-6.8-0.2c-1.4,0.8-2.6,1.9-3.6,3.2c-3.4,4.7-4.8,9.9-4.2,15.7c0.4,3.8,1.6,7.1,4.7,9.6
			c0.5,0.4,0.5,0.9,0.5,1.5c0,2.4-0.1,4.8,0,7.2c0.2,25.3,0.5,50.6,0.8,75.9c0,0.6,0,1.2,0.2,1.7c0.4,2,1.1,2.6,3.1,2.6
			c2.1,0,4.2-0.1,6.3-0.2c1.7-0.1,2.3-0.8,2.3-2.5c0-0.3,0-0.6,0-0.9c0-14.7,0-29.3-0.1-44c0-10.2-0.1-20.5-0.1-30.7
			C77.1,242.5,77.1,239.3,77.1,236.1z M115.4,296.8C115.4,296.8,115.4,296.8,115.4,296.8c-5.2-0.1-10.3-0.2-15.5-0.3
			c-2.9,0-5.8,0-8.8,0.1c-2.5,0.1-3.7,1.4-3.7,3.9c-0.1,2.9,0,5.8,0,8.8c0,7,0,14,0,21c0,0.8,0.1,1.7,0.2,2.5c0.2,1.5,1.1,2.5,2.5,3
			c1.1,0.4,2.3,0.7,3.5,0.7c6.6,0.2,13.1,0.3,19.7,0.5c4.8,0.1,9.6,0.4,14.4,0.5c3.9,0.1,7.8,0,11.7-0.2c2.8-0.2,4.1-1.4,4.6-4.2
			c0.3-1.5,0.5-3,0.6-4.5c0.6-8.3,0.7-16.6,0.6-24.9c0-0.6,0-1.2-0.1-1.7c-0.3-2.2-1.4-3.7-3.6-4.2c-1.3-0.3-2.7-0.6-4-0.6
			C130.2,297.1,122.8,297,115.4,296.8z M114.3,248.5c0,0,0-0.1,0-0.1c-5.8,0.1-11.6,0.2-17.4,0.5c-2.1,0.1-4.3,0.4-6.3,0.8
			c-1.8,0.4-2.9,1.6-3.1,3.5c-0.1,0.9-0.1,1.8-0.1,2.7c0.2,10,0.4,19.9,0.6,29.9c0,0.7,0.1,1.4,0.4,2c0.5,1.4,1.4,2.3,3,2.4
			c1,0.1,2.1,0.2,3.1,0.3c2.8,0.2,5.5,0.3,8.3,0.4c4.4,0.2,8.9,0.7,13.3,0.7c6.2,0,12.3-0.2,18.5-0.3c1.5,0,3-0.3,4.5-0.6
			c2.1-0.5,3.5-1.8,3.9-4c0.2-1,0.4-2,0.4-2.9c0.1-8.9,0.1-17.8,0.1-26.8c0-1.3-0.3-2.6-0.6-3.9c-0.5-2.2-1.8-3.5-4-3.8
			c-2.5-0.3-5.1-0.7-7.6-0.8C125.6,248.4,120,248.5,114.3,248.5z M115.3,199.9c0,0.1,0,0.2,0,0.3c-3.6,0-7.3,0-10.9,0
			c-2.1,0-4.3-0.1-6.4,0c-2.2,0.2-4.4,0.5-6.5,0.9c-2.3,0.5-3.5,2.1-3.7,4.5c0,0.7-0.1,1.5-0.1,2.2c0,9.7,0,19.4,0,29.1
			c0,0.6,0,1.2,0.1,1.7c0.3,1.6,1.3,2.3,2.9,2.3c1.2,0,2.4-0.1,3.6,0c6,0.2,12,0.4,18,0.6c7.8,0.2,15.5,0.3,23.3,0.3
			c1,0,2-0.1,2.9-0.3c3.5-0.6,4.9-2.1,5.3-5.7c0-0.3,0.1-0.6,0.1-0.9c0.1-3.2,0.3-6.4,0.4-9.5c0.1-5.5,0.4-11-0.2-16.4
			c-0.2-1.6-0.6-3.3-1.1-4.9c-0.7-2-2.2-3.3-4.4-3.5c-2.2-0.3-4.5-0.6-6.7-0.6C126.4,199.8,120.9,199.9,115.3,199.9z"/>
		<g>
			<path class="st110" d="M74.2,321.6c-2,0-3.6,0-5.4,0c0-0.6-0.1-1-0.1-1.5c-0.2-24.3-0.4-48.5-0.7-72.8c0-3-0.2-6.1-0.3-9.1
				c0-0.8-0.1-1.7-0.3-2.5c-0.2-0.7-0.5-1.5-1.1-2c-4.2-4.1-5-9-3.9-14.4c0.6-2.8,1.7-5.5,3.6-7.7c0.7-0.8,1.5-1.5,2.3-2.1
				c1.5-1,3.1-0.9,4.5,0.3c1,0.9,2.1,2,2.7,3.2c2.3,4.1,3.5,8.5,3.5,13.1c0,3-0.9,5.6-3.3,7.6c-1,0.8-1.4,1.9-1.4,3.3
				c0,27.6-0.1,55.2-0.1,82.8C74.2,320.3,74.2,320.9,74.2,321.6z"/>
			<g>
				<path class="st68" d="M90.8,299.8c1.7-0.1,3.1-0.2,4.6-0.2c4.9,0,9.7,0.1,14.6,0.2c8.9,0.2,17.8,0.3,26.8,0.6
					c1.2,0,2.5,0.2,3.7,0.4c1.4,0.3,1.6,0.5,1.8,2c0,0.3,0.1,0.6,0.1,0.9c-0.2,8.2-0.4,16.4-0.7,24.6c0,1.5-0.3,2.9-0.6,4.3
					c-0.2,1.3-0.5,1.6-1.9,1.7c-2.3,0.1-4.6,0.3-6.9,0.2c-9-0.3-18-0.7-27.1-1c-3.4-0.1-6.8,0-10.2-0.1c-0.9,0-1.9-0.1-2.8-0.2
					c-1.3-0.2-1.5-0.5-1.6-1.8c-0.1-0.8-0.1-1.6-0.1-2.3c0-9,0-18.1,0-27.1C90.6,301.3,90.7,300.6,90.8,299.8z"/>
				<path class="st82" d="M112.2,251.7c7.6,0,13-0.1,18.3,0c2.4,0,4.9,0.4,7.3,0.6c1.6,0.2,1.8,0.5,2.1,2.1c0.2,1.5,0.4,3.1,0.4,4.7
					c0,7.8-0.1,15.6-0.1,23.3c0,1.1-0.2,2.2-0.3,3.3c-0.1,1.2-0.8,1.9-2,2c-1.8,0.2-3.5,0.4-5.3,0.5c-3.8,0.2-7.6,0.4-11.4,0.3
					c-5.7-0.1-11.5-0.5-17.2-0.7c-3.3-0.2-6.7-0.3-10-0.5c-3.3-0.2-2.8-0.1-2.9-2.9c-0.2-2.9,0-5.8-0.1-8.8
					c-0.1-6.5-0.3-12.9-0.5-19.4c0-0.1,0-0.1,0-0.2c0.1-3.4-0.3-3.3,3.4-3.7c2.3-0.3,4.7-0.3,7-0.4
					C105.5,251.8,109.9,251.7,112.2,251.7z"/>
				<path class="st90" d="M90.6,237.7c-0.1-2.3-0.3-4.4-0.3-6.5c0-8.1,0.1-16.3,0.2-24.4c0-0.2,0-0.4,0-0.6c0.1-1.4,0.3-1.8,1.7-2
					c1.8-0.3,3.6-0.6,5.4-0.7c3.6-0.1,7.3,0,11-0.1c6.5-0.1,13-0.3,19.6-0.3c3,0,5.9,0.2,8.9,0.4c2.3,0.2,3,0.6,3.4,2.9
					c0.5,2.5,0.8,5.1,0.8,7.6c-0.1,7.2-0.3,14.4-0.5,21.6c-0.1,2.1-0.6,2.5-2.6,2.8c-1.3,0.2-2.6,0.3-3.9,0.3
					c-9.8-0.2-19.5-0.4-29.3-0.6c-4.4-0.1-8.8-0.2-13.1-0.3C91.5,237.8,91.2,237.7,90.6,237.7z"/>
			</g>
		</g>
	</g>
</g>
</svg>
