<?xml version="1.0" encoding="utf-8"?>
<!-- Generator: Adobe Illustrator 23.0.3, SVG Export Plug-In . SVG Version: 6.00 Build 0)  -->
<svg version="1.1" id="Layer_1" xmlns="http://www.w3.org/2000/svg" xmlns:xlink="http://www.w3.org/1999/xlink" x="0px" y="0px"
	 viewBox="0 0 595.28 595.28" style="enable-background:new 0 0 595.28 595.28;" xml:space="preserve">
<style type="text/css">
	.st0{fill:#182A4C;}
	.st1{fill:#4A3841;}
	.st2{fill:#002F1F;}
</style>
<path class="st0" d="M60.41,204.45c2.6,5.5,5.03,11.2,7.3,17.11c1.64-1.72,3.26-3.34,4.87-4.87c1.61-1.52,3.25-2.99,4.93-4.4
	c1.68-1.41,3.41-2.77,5.19-4.1c1.78-1.32,3.63-2.62,5.56-3.89c-0.46-0.39-0.98-0.75-1.55-1.07c-0.57-0.32-1.21-0.71-1.92-1.16
	c-0.7-0.45-1.47-1.03-2.31-1.74c-0.83-0.71-1.73-1.64-2.7-2.78c-0.96-1.15-1.8-2.29-2.51-3.42c-0.71-1.14-1.25-2.23-1.59-3.29
	c-0.34-1.06-0.45-2.03-0.31-2.93c0.14-0.9,0.59-1.66,1.35-2.31c0.69-0.58,1.51-0.83,2.46-0.76c0.95,0.07,1.96,0.38,3.03,0.94
	c1.07,0.55,2.16,1.31,3.27,2.27c1.11,0.96,2.17,2.05,3.2,3.27c1.01,1.2,1.78,2.22,2.32,3.07c0.54,0.85,0.97,1.62,1.3,2.33
	c0.33,0.7,0.59,1.37,0.8,2c0.2,0.63,0.49,1.32,0.85,2.06c3.59-4.36,7.41-8.24,11.46-11.64c1.5-1.26,3.02-2.47,4.55-3.62
	c0.35-0.26,0.72-0.52,1.07-0.78c0,0.17,0.01,0.34,0.01,0.5c1.91-1.29,3.75-2.46,5.52-3.52c1.77-1.06,3.4-2,4.88-2.82
	c1.31-0.73,3.01-1.55,5.11-2.46c2.1-0.92,4.55-2.16,7.37-3.72c1.66-0.92,3.49-2.11,5.49-3.56c2-1.46,3.91-3.21,5.72-5.26
	c1.81-2.05,3.4-4.4,4.78-7.05c1.38-2.65,2.27-5.63,2.67-8.95c0.4-3.32,0.18-6.97-0.66-10.95c-0.84-3.98-2.58-8.34-5.21-13.08
	c-2.66-4.8-5.39-8.69-8.17-11.69c-2.79-3-5.58-5.3-8.37-6.9c-2.79-1.6-5.56-2.62-8.3-3.03c-2.74-0.42-5.39-0.45-7.95-0.09
	c-2.56,0.36-5.01,1.01-7.36,1.95c-2.35,0.94-4.51,1.96-6.49,3.06c-1.37,0.76-2.58,1.47-3.64,2.13c-1.06,0.66-2.05,1.29-2.98,1.88
	c-0.93,0.59-1.82,1.17-2.69,1.72c-0.87,0.56-1.78,1.1-2.74,1.64c-1.48,0.82-3.22,1.71-5.22,2.67c-2,0.96-4.17,1.86-6.51,2.7
	c1.04,0.37,2.14,1.03,3.3,1.99c1.16,0.95,2.33,2.1,3.53,3.43c1.2,1.33,2.39,2.78,3.58,4.34c1.19,1.56,2.34,3.14,3.45,4.73
	c2.57,3.74,5.14,7.85,7.7,12.32c2.46,4.57,4.65,9.13,6.58,13.69c0.81,1.94,1.61,3.98,2.4,6.11c0.79,2.13,1.49,4.28,2.12,6.44
	c0.63,2.16,1.13,4.29,1.52,6.37c0.01,0.05,0.02,0.1,0.03,0.16c-3.83-2.3-7.65-4.64-11.43-7.05c-5.22-3.32-10.32-6.83-15.31-10.52
	c-4.99-3.69-9.83-7.58-14.52-11.67c-4.69-4.09-9.17-8.49-13.43-13.21c-1.33,1.68-2.9,3.36-4.71,5.06c-1.81,1.69-3.72,3.39-5.73,5.07
	c-2.37,1.99-4.73,3.87-7.08,5.65c-2.35,1.78-4.57,3.33-6.67,4.66c3.85,5.1,7.47,10.2,10.86,15.3c3.39,5.1,6.58,10.28,9.56,15.54
	C55.02,193.56,57.81,198.94,60.41,204.45z M109.53,125.62c-0.46-1.72-0.61-3.07-0.46-4.05c0.16-0.98,0.57-1.66,1.24-2.03
	c0.76-0.42,1.59-0.5,2.49-0.24c0.9,0.26,1.94,0.97,3.09,2.13c1.16,1.16,2.47,2.82,3.93,4.97c1.46,2.15,3.14,4.93,5.03,8.33
	c3.74,6.74,6.06,11.9,6.94,15.48c0.88,3.58,0.61,5.76-0.81,6.55c-0.73,0.4-1.52,0.46-2.39,0.16c-0.87-0.3-1.88-1.06-3.03-2.28
	c-1.15-1.22-2.48-2.96-3.99-5.23c-1.51-2.26-3.24-5.17-5.21-8.71c-1.87-3.37-3.36-6.3-4.48-8.78
	C110.78,129.44,109.99,127.34,109.53,125.62z M62.61,166.31c1.58,0.95,2.83,1.74,3.74,2.36c1.05,0.73,1.8,1.31,2.25,1.75
	c0.91,1.19,1.42,2.39,1.53,3.6c0.11,1.21-0.24,2.15-1.02,2.81c-0.74,0.62-1.7,0.83-2.89,0.63c-1.19-0.2-2.31-0.93-3.38-2.21
	c-0.51-0.61-0.98-1.33-1.39-2.16c-0.41-0.83-0.85-1.75-1.32-2.77c-0.46-1.02-1-2.15-1.61-3.4c-0.61-1.24-1.37-2.61-2.28-4.11
	C58.91,164.2,61.03,165.35,62.61,166.31z M149.43,103.2c-3.72-5.06-7.67-10.05-11.85-14.95c1.98-0.36,3.93-0.78,5.86-1.25
	c1.93-0.47,3.84-1.01,5.74-1.63c2.75-0.89,5.43-1.9,8.03-3.03c2.6-1.13,5.16-2.39,7.68-3.8c0.45,1.92,0.94,3.79,1.49,5.63
	c0.54,1.83,1.11,3.65,1.69,5.45c1.97,6.07,4.26,11.87,6.85,17.38c2.6,5.52,5.54,10.85,8.82,16.01c-0.39-5.29-1.08-10.44-2.08-15.45
	c-1-5.01-2.28-9.93-3.85-14.77c-1.81-5.56-3.99-11-6.56-16.32c2.27-0.42,4.52-0.93,6.74-1.53c2.22-0.6,4.45-1.26,6.69-1.99
	c2.18-0.71,4.36-1.48,6.54-2.31c2.18-0.83,4.36-1.76,6.54-2.78c-0.11,6.33,0,12.59,0.33,18.79c0.34,6.2,0.84,12.35,1.51,18.46
	c0.67,6.11,1.49,12.18,2.45,18.21c0.96,6.03,2.03,12.04,3.2,18.02c-1.7,0.38-3.44,0.83-5.22,1.36c-1.79,0.53-3.61,1.09-5.48,1.7
	c-2.94,0.95-5.84,1.99-8.69,3.11c-2.85,1.12-5.53,2.28-8.05,3.48c-2.67-5.53-5.48-10.99-8.44-16.37c-2.96-5.38-6.09-10.7-9.4-15.95
	C156.67,113.42,153.15,108.26,149.43,103.2z M211.41,69.12c-0.51-1.39-1.04-2.48-1.59-3.28c3.29,0.01,6.51-0.09,9.67-0.31
	c3.16-0.22,6.2-0.53,9.13-0.94c3.59-0.5,6.93-1.06,10.03-1.7c3.1-0.63,5.8-1.24,8.1-1.83c2.69-0.68,5.13-1.37,7.31-2.07l3.22,23.16
	c-2.16-1.51-4.17-2.62-6.05-3.34c-1.88-0.71-3.52-1.2-4.94-1.48c-1.65-0.31-3.18-0.4-4.57-0.27c-1.65,0.23-2.96,0.62-3.94,1.18
	c-0.98,0.56-1.71,1.19-2.2,1.92c-0.49,0.72-0.77,1.5-0.86,2.33c-0.09,0.84-0.07,1.66,0.04,2.49c0.12,0.86,0.36,1.7,0.73,2.52
	c0.37,0.82,0.86,1.54,1.48,2.16c0.62,0.62,1.38,1.09,2.29,1.42c0.9,0.33,1.93,0.41,3.08,0.25c0.95-0.13,1.8-0.48,2.53-1.03
	c0.73-0.55,1.33-1.15,1.82-1.79c0.57-0.72,1.08-1.53,1.52-2.43l2.8,20.1c-0.7-1.18-1.46-2.08-2.27-2.71
	c-0.81-0.63-1.57-1.06-2.3-1.32c-0.72-0.25-1.36-0.38-1.92-0.39c-0.56-0.01-0.93,0-1.13,0.03c-2.14,0.3-3.65,1.18-4.52,2.64
	c-0.87,1.46-1.16,3.23-0.87,5.31c0.21,1.51,0.56,2.78,1.05,3.78c0.49,1.01,1.07,1.8,1.74,2.38c0.67,0.58,1.41,0.96,2.22,1.15
	c0.82,0.19,1.65,0.22,2.51,0.1c1.32-0.18,2.69-0.68,4.12-1.48c1.43-0.8,2.78-1.8,4.04-2.98c1.26-1.18,2.39-2.49,3.38-3.92
	c0.99-1.43,1.74-2.85,2.25-4.26l6.46,27.24c-1.76-0.09-3.55-0.1-5.37-0.03c-1.82,0.07-3.73,0.19-5.74,0.37
	c-2.01,0.18-4.14,0.42-6.4,0.71c-2.26,0.3-4.7,0.63-7.34,0.99c-1.25,0.17-2.74,0.4-4.46,0.67c-1.72,0.27-3.57,0.61-5.55,1.02
	c-1.98,0.41-4,0.88-6.07,1.42c-2.07,0.54-4.09,1.15-6.04,1.82c0.52-1.58,0.88-3.54,1.1-5.87c0.21-2.33,0.32-4.78,0.31-7.37
	c-0.01-2.58-0.09-5.21-0.26-7.87c-0.17-2.66-0.36-5.13-0.58-7.42c-0.22-2.29-0.43-4.26-0.65-5.93c-0.22-1.66-0.37-2.81-0.45-3.44
	c-0.02-0.13-0.1-0.64-0.24-1.53c-0.14-0.89-0.32-2.04-0.55-3.45c-0.23-1.41-0.5-3.03-0.82-4.84c-0.32-1.82-0.67-3.71-1.06-5.67
	c-0.39-1.96-0.81-3.93-1.27-5.91c-0.46-1.98-0.94-3.85-1.44-5.62C212.42,72.08,211.92,70.51,211.41,69.12z M277.77,130.55
	c-3.48,0.08-7.31,0.36-11.49,0.84c0.8-1.46,1.51-3.33,2.14-5.6c0.63-2.27,1.18-4.7,1.64-7.29c0.46-2.59,0.85-5.23,1.17-7.91
	c0.32-2.68,0.58-5.18,0.78-7.5c0.2-2.32,0.35-4.33,0.44-6.02c0.09-1.69,0.15-2.85,0.18-3.49c0.01-0.13,0.02-0.65,0.04-1.55
	c0.02-0.9,0.05-2.06,0.08-3.49c0.03-1.43,0.05-3.07,0.07-4.91c0.01-1.85,0.01-3.77-0.02-5.77c-0.03-2-0.09-4.01-0.18-6.05
	c-0.09-2.03-0.23-3.95-0.4-5.76c-0.17-1.8-0.38-3.44-0.63-4.89c-0.25-1.46-0.58-2.61-0.97-3.46c3.33,0.75,6.36,1.28,9.11,1.6
	c2.75,0.32,5.2,0.53,7.36,0.62c1.46,0.06,2.77,0.09,3.92,0.07c1.15-0.02,2.11-0.04,2.87-0.07c0.9-0.06,1.7-0.12,2.4-0.19
	c1.12,7.1,2.46,13.7,4.02,19.79c1.56,6.09,3.38,11.76,5.44,17.01l0.09-2.04c0.14-5.42,0.18-10.47,0.12-15.17
	c-0.04-2-0.11-4.01-0.18-6.05c-0.08-2.03-0.2-3.95-0.37-5.76c-0.17-1.8-0.38-3.44-0.63-4.89c-0.25-1.46-0.58-2.61-0.97-3.46
	c3.29,0.74,6.34,1.28,9.14,1.6c2.8,0.32,5.27,0.53,7.43,0.63c1.46,0.06,2.77,0.09,3.92,0.07c1.15-0.02,2.11-0.04,2.87-0.07
	c0.9-0.06,1.7-0.12,2.4-0.19c-0.48,1.84-0.92,3.9-1.32,6.18c-0.4,2.28-0.77,4.71-1.12,7.29c-0.35,2.58-0.64,5.3-0.88,8.15
	c-0.24,2.85-0.43,5.79-0.56,8.81c-0.15,3.42-0.22,6.9-0.21,10.45c0.01,3.54,0.13,7.08,0.36,10.6c0.23,3.52,0.56,6.98,0.99,10.38
	c0.43,3.4,0.98,6.66,1.64,9.78c-0.59-0.09-1.31-0.19-2.13-0.29c-0.7-0.1-1.54-0.18-2.53-0.26c-1-0.08-2.12-0.14-3.39-0.2
	c-2.39-0.1-5.15-0.11-8.28-0.01c-3.13,0.1-6.51,0.4-10.12,0.9c0.15-3.42,0.02-6.78-0.38-10.07c-0.4-3.3-1.03-6.55-1.89-9.77
	c-0.86-3.21-1.91-6.38-3.18-9.5c-1.26-3.12-2.67-6.21-4.24-9.27c-0.1,3.12-0.12,6.28-0.04,9.48c0.08,3.2,0.24,6.37,0.48,9.5
	c0.24,3.14,0.57,6.22,0.99,9.25c0.42,3.03,0.93,5.96,1.54,8.78c-0.63-0.09-1.37-0.19-2.23-0.3c-0.73-0.1-1.61-0.19-2.63-0.27
	c-1.03-0.08-2.21-0.15-3.53-0.21C284.28,130.48,281.25,130.47,277.77,130.55z M336.47,100.9l10.02-36.77
	c2.95,1.08,6.1,2.12,9.43,3.13c3.33,1,6.76,1.92,10.28,2.77c5.04,1.21,10.08,2.22,15.11,3.05c5.03,0.83,9.7,1.39,14,1.7l-7.15,37.87
	c-1.27-4.99-2.85-9.76-4.75-14.34c-1.9-4.57-4.13-8.55-6.71-11.93c-0.78,2.14-1.52,4.4-2.21,6.78c-0.69,2.38-1.34,4.83-1.94,7.36
	c-0.78,3.27-1.48,6.64-2.09,10.14c-0.61,3.49-1.13,7.03-1.56,10.62c-0.43,3.59-0.74,7.19-0.92,10.8c-0.18,3.61-0.23,7.17-0.14,10.68
	c-0.73-0.24-1.57-0.51-2.52-0.81c-0.83-0.27-1.8-0.55-2.92-0.85c-1.13-0.3-2.4-0.62-3.82-0.96c-2.39-0.57-5.11-1.13-8.14-1.66
	c-3.03-0.54-6.27-0.96-9.72-1.27c2.27-4.51,4.23-8.92,5.87-13.21c1.64-4.29,3.02-8.13,4.14-11.52c1.29-3.96,2.39-7.72,3.31-11.26
	c0.36-1.52,0.73-3.19,1.1-5.02c0.31-1.57,0.66-3.39,1.05-5.47c0.39-2.08,0.8-4.33,1.21-6.76c-1.87,1.09-3.75,2.29-5.65,3.6
	c-1.9,1.31-3.76,2.69-5.58,4.15c-1.82,1.46-3.56,2.97-5.21,4.52C339.29,97.78,337.8,99.34,336.47,100.9z M394.57,118.95
	c0.32-0.68,0.62-1.29,0.9-1.84c0.28-0.55,0.56-1.11,0.85-1.67c0.29-0.56,0.62-1.23,1-2.01c0.38-0.78,0.83-1.72,1.34-2.84
	c0.51-1.12,1.14-2.51,1.88-4.18c0.9-2.04,1.89-4.36,2.96-6.98c1.07-2.62,2.04-5.23,2.9-7.85c0.87-2.62,1.54-5.06,2.02-7.34
	c0.48-2.28,0.59-4.09,0.31-5.45c2.83,1.91,5.55,3.55,8.15,4.92c2.61,1.37,5.05,2.57,7.33,3.58c1.46,0.65,2.79,1.2,4.01,1.67
	c1.21,0.46,2.26,0.86,3.14,1.17c1.04,0.35,1.95,0.65,2.72,0.88c-1.23,1.71-2.56,3.65-3.99,5.81c-1.43,2.17-2.89,4.52-4.38,7.06
	c-1.49,2.54-2.98,5.24-4.49,8.1c-1.5,2.86-2.93,5.81-4.27,8.85c-1.68,3.8-2.98,6.91-3.89,9.35c-0.91,2.43-1.51,4.38-1.79,5.83
	c-0.28,1.46-0.29,2.54-0.02,3.24c0.27,0.7,0.76,1.21,1.46,1.52c0.94,0.42,1.87,0.47,2.79,0.17c0.92-0.3,1.91-1.06,2.97-2.28
	c1.07-1.22,2.21-2.94,3.43-5.16c1.22-2.22,2.61-5.06,4.18-8.51c2.13-4.98,4.03-9.67,5.68-14.06c0.72-1.86,1.4-3.76,2.06-5.69
	c0.65-1.93,1.23-3.76,1.73-5.51c0.5-1.74,0.89-3.34,1.17-4.8c0.28-1.46,0.39-2.65,0.33-3.59c2.8,1.89,5.45,3.5,7.95,4.83
	c2.5,1.33,4.79,2.45,6.85,3.36c1.37,0.61,2.6,1.12,3.71,1.53c1.1,0.42,2.05,0.76,2.84,1.04c0.92,0.3,1.74,0.55,2.45,0.76
	c-2.25,3.19-4.67,7.13-7.26,11.84c-2.59,4.71-5.13,9.85-7.61,15.45c-0.35,0.79-0.68,1.56-1,2.31c-0.31,0.75-0.63,1.53-0.95,2.33
	c-0.32,0.8-0.66,1.63-1.02,2.49c-0.36,0.86-0.76,1.77-1.19,2.75c-0.9,2.04-1.95,4.17-3.14,6.41c-1.19,2.24-2.58,4.37-4.17,6.39
	c-1.59,2.02-3.38,3.86-5.38,5.5c-2,1.64-4.24,2.87-6.73,3.67c-2.49,0.81-5.25,1.11-8.28,0.91c-3.04-0.2-6.38-1.11-10.03-2.72
	c-3.44-1.52-6.22-3.22-8.35-5.09c-2.13-1.87-3.76-3.87-4.88-5.98c-1.12-2.11-1.81-4.32-2.06-6.61c-0.26-2.3-0.21-4.63,0.15-6.99
	c0.36-2.37,0.94-4.74,1.76-7.1c0.81-2.37,1.72-4.67,2.71-6.92C393.87,120.47,394.25,119.63,394.57,118.95z M557.59,178.46
	c-1.86-1.48-3.98-3.26-6.36-5.34c-2.38-2.09-4.85-4.41-7.42-6.96c-2.1-2.09-4.19-4.32-6.28-6.7c-2.09-2.38-4.12-4.88-6.1-7.51
	c-0.3,0.92-0.85,2-1.65,3.25c-0.8,1.25-1.74,2.6-2.84,4.06c-1.1,1.46-2.3,2.97-3.6,4.54c-1.3,1.57-2.61,3.1-3.94,4.59
	c-1.32,1.5-2.61,2.92-3.87,4.28c-1.25,1.35-2.37,2.55-3.36,3.59c-0.98,1.04-1.79,1.88-2.41,2.53c-0.62,0.65-0.98,1.02-1.07,1.11
	c-0.45,0.45-1.27,1.26-2.46,2.44c-1.2,1.18-2.64,2.55-4.33,4.1c-1.69,1.56-3.54,3.21-5.56,4.95c-2.02,1.75-4.05,3.4-6.1,4.97
	c-2.05,1.57-4.07,2.97-6.05,4.21c-1.51,0.95-2.9,1.68-4.17,2.23c-0.33-0.59-0.56-1.24-0.65-1.95c-0.12-0.85-0.13-1.73-0.05-2.64
	c0.09-0.91,0.27-1.84,0.54-2.78c0.27-0.94,0.58-1.84,0.93-2.69c0.8-2.03,1.86-4.11,3.18-6.23c1.27-1.95,2.5-3.82,3.68-5.61
	c1.18-1.79,2.08-3.59,2.68-5.39c0.61-1.8,0.82-3.64,0.64-5.51c-0.18-1.87-0.97-3.87-2.36-6.01c2.27,0.24,4.34,0.21,6.22-0.08
	c1.88-0.29,3.59-0.79,5.13-1.48c1.53-0.69,2.89-1.55,4.05-2.56c1.17-1.01,2.18-2.13,3.03-3.36c1.54-2.21,2.59-4.35,3.16-6.43
	c0.57-2.07,0.75-4.06,0.55-5.96c-0.2-1.9-0.72-3.72-1.56-5.45c-0.84-1.74-1.9-3.38-3.18-4.94c-1.28-1.56-2.74-3.04-4.36-4.43
	c-1.63-1.39-3.3-2.68-5.02-3.88c-1.26-0.87-2.42-1.64-3.5-2.31c-1.08-0.67-2.11-1.3-3.1-1.91c-1-0.61-1.99-1.22-3-1.84
	c-1.01-0.62-2.08-1.33-3.23-2.12c-1.31-0.91-2.86-2.06-4.65-3.44c-1.79-1.38-3.56-2.91-5.32-4.58c0.18,1.54,0,3.3-0.56,5.26
	c-0.55,1.96-1.32,4.02-2.31,6.17c-0.99,2.15-2.12,4.31-3.41,6.49c-1.29,2.18-2.59,4.28-3.88,6.29c-1.3,2.01-2.53,3.85-3.7,5.5
	c-1.17,1.66-2.13,3.03-2.89,4.12c-3.24,4.31-6.46,8.25-9.66,11.81c-1.38,1.51-2.8,3.03-4.28,4.55c-1.48,1.52-2.97,2.92-4.46,4.19
	c-1.49,1.27-2.95,2.37-4.38,3.3c-1.43,0.93-2.77,1.59-4.01,1.98c2,0.74,4.1,1.76,6.3,3.07c2.21,1.31,4.36,2.69,6.46,4.15
	c1.61,1.12,3.14,2.23,4.58,3.33c1.44,1.1,2.7,2.1,3.77,3.01c1.07,0.91,1.9,1.66,2.49,2.27c0.59,0.61,0.86,0.98,0.81,1.11
	c0.99-2.3,1.95-4.42,2.89-6.34c0.93-1.92,1.86-3.7,2.78-5.32c0.93-1.62,1.84-3.14,2.73-4.54c0.89-1.4,1.78-2.73,2.65-3.99
	c0.89-1.28,1.75-2.49,2.57-3.62c0.82-1.13,1.69-2.29,2.6-3.48c0.31,1.19,0.49,2.41,0.55,3.66c0.06,1.26-0.16,2.7-0.65,4.35
	c-0.49,1.64-1.32,3.54-2.47,5.69c-1.15,2.15-2.77,4.73-4.86,7.74c-0.53,0.76-1.06,1.48-1.58,2.15c-0.53,0.67-1.06,1.33-1.61,1.97
	c-0.55,0.65-1.14,1.3-1.76,1.97c-0.62,0.66-1.28,1.38-1.98,2.15c0.93,0.29,2.11,0.78,3.53,1.48c1.21,0.59,2.72,1.41,4.55,2.46
	c1.82,1.04,4.02,2.46,6.59,4.24c1.31,0.91,2.72,1.92,4.24,3.03c1.4,1.03,2.88,2.18,4.43,3.43c-0.34,0.14-0.68,0.28-1,0.39
	c1.72,1.15,3.42,2.38,5.11,3.71c1.68,1.32,3.28,2.65,4.81,3.97c1.52,1.32,2.91,2.59,4.17,3.8c1.26,1.21,2.34,2.26,3.23,3.15
	c1.89,1.87,3.63,3.62,5.23,5.24c1.6,1.62,3.08,3.17,4.44,4.66c1.36,1.49,2.61,2.94,3.77,4.34c1.16,1.41,2.23,2.84,3.22,4.29
	l17.78-21.63c-1.43,0.45-3.02,0.71-4.76,0.79c-1.74,0.08-3.46-0.03-5.17-0.32c-1.71-0.29-3.31-0.76-4.82-1.41
	c-1.51-0.65-2.73-1.45-3.67-2.39c-0.61-0.61-1.09-1.3-1.43-2.06c-0.34-0.76-0.49-1.59-0.43-2.47c0.06-0.88,0.33-1.82,0.84-2.82
	c0.5-1,1.29-2.04,2.37-3.13c1.48-1.48,3.06-2.32,4.75-2.52c1.69-0.19,3.3,0.47,4.84,2c0.14,0.14,0.38,0.43,0.71,0.88
	c0.33,0.45,0.61,1.03,0.85,1.76c0.24,0.73,0.35,1.6,0.34,2.63c-0.01,1.02-0.27,2.17-0.78,3.44l14.31-14.39
	c-0.99,0.19-1.94,0.28-2.85,0.25c-0.8,0-1.64-0.12-2.52-0.36c-0.88-0.24-1.67-0.71-2.35-1.39c-0.83-0.82-1.38-1.69-1.66-2.6
	c-0.29-0.92-0.37-1.81-0.26-2.68c0.11-0.87,0.39-1.7,0.82-2.49c0.43-0.79,0.95-1.49,1.56-2.1c0.59-0.59,1.24-1.1,1.95-1.54
	c0.72-0.44,1.51-0.68,2.38-0.73c0.87-0.05,1.82,0.15,2.86,0.59c1.04,0.44,2.14,1.25,3.32,2.42c0.94,1.03,1.79,2.3,2.55,3.8
	c0.64,1.29,1.24,2.9,1.81,4.83c0.57,1.93,0.91,4.2,1.01,6.84l16.49-16.58C561.78,181.72,559.75,180.2,557.59,178.46z M478.24,147.79
	c0.26-0.37,0.5-0.72,0.73-1.04c0.42-0.6,1.06-1.42,1.92-2.46c0.86-1.04,1.82-2.01,2.86-2.9c1.04-0.89,2.11-1.56,3.19-2.01
	c1.08-0.44,2.05-0.36,2.93,0.24c0.63,0.44,1,1.1,1.13,2c0.13,0.9-0.11,1.78-0.72,2.66c-0.63,0.9-1.47,1.65-2.53,2.25
	c-1.06,0.6-2.2,1.08-3.4,1.44c-1.2,0.36-2.41,0.61-3.63,0.76c-1.22,0.15-2.28,0.23-3.18,0.25
	C477.75,148.55,477.99,148.16,478.24,147.79z M47.9,402.32h486.67v11.81H47.9V402.32z M47.9,525.77h486.67v11.81H47.9V525.77z
	 M276.67,286.08c0.38,5.22,0.57,11.3,0.57,18.23c0,5.76-0.08,11.51-0.24,17.27c-0.11,7.32-0.16,12.61-0.16,15.89
	c0,1.45-0.51,2.69-1.53,3.71c-1.02,1.02-2.26,1.53-3.71,1.53c-1.45,0-2.69-0.51-3.71-1.53c-1.02-1.02-1.53-2.26-1.53-3.71l0.08-9.92
	c0.16-6.29,0.24-13.5,0.24-21.62c0-9.09-0.16-15.46-0.48-19.12c-0.05-1.56,0.44-2.88,1.49-3.95c1.05-1.08,2.33-1.61,3.83-1.61
	c1.34,0,2.51,0.47,3.51,1.41C276.01,283.59,276.56,284.74,276.67,286.08z M316.93,316.09c1.56,2.48,2.34,5.3,2.34,8.47
	c0,3.28-0.73,6.39-2.18,9.32c-1.45,2.93-3.47,5.3-6.05,7.1c-2.58,1.8-5.46,2.7-8.63,2.7c-3.5,0-6.81-0.93-9.92-2.78
	c-3.12-1.86-5.63-4.34-7.54-7.46c-1.91-3.12-2.86-6.43-2.86-9.92c0-1.13,0.13-2.45,0.4-3.95c0.22-1.24,0.82-2.25,1.82-3.03
	c0.99-0.78,2.11-1.17,3.35-1.17c1.45,0,2.69,0.51,3.71,1.53c1.02,1.02,1.53,2.23,1.53,3.63c0,0.48-0.03,0.83-0.08,1.05
	c-0.16,0.54-0.24,1.13-0.24,1.78c0,1.56,0.47,3.11,1.41,4.64c0.94,1.53,2.16,2.78,3.67,3.75c1.51,0.97,3.07,1.45,4.68,1.45
	c1.99,0,3.56-0.93,4.72-2.78c1.16-1.86,1.73-3.89,1.73-6.09c0-2.26-0.86-4.26-2.58-6.01c-1.72-1.75-4.44-3.78-8.15-6.09l-1.61-1.05
	c-3.77-2.53-6.52-4.5-8.27-5.93c-1.75-1.42-3.15-3.03-4.2-4.8c-1.05-1.78-1.57-3.87-1.57-6.29c0-2.69,0.78-5.16,2.34-7.42
	c1.56-2.26,3.63-4.03,6.21-5.33c2.58-1.29,5.38-1.94,8.39-1.94c4.57,0,8.39,1.49,11.46,4.48c3.07,2.99,5.08,7.25,6.05,12.79
	c0,1.51-0.5,2.78-1.49,3.83c-1,1.05-2.27,1.57-3.83,1.57c-1.29,0-2.42-0.4-3.39-1.21c-0.97-0.81-1.53-1.86-1.69-3.15
	c-0.48-2.74-1.37-4.73-2.66-5.97c-1.29-1.24-2.82-1.86-4.6-1.86c-1.72,0-3.19,0.34-4.4,1.01c-1.21,0.67-1.82,1.55-1.82,2.62
	c0,1.72,0.81,3.32,2.42,4.8c1.61,1.48,4.14,3.32,7.58,5.53c3.44,2.21,6.24,4.17,8.39,5.89
	C313.51,311.52,315.37,313.62,316.93,316.09z M184.6,185.93l-9.56,9.31l2.26,13.15l-11.81-6.21l-11.81,6.21l2.26-13.15l-9.56-9.31
	l13.21-1.92l5.91-11.97l5.91,11.97L184.6,185.93z M107.29,302.61l-9.56,9.31l2.26,13.15l-11.81-6.21l-11.81,6.21l2.26-13.15
	l-9.56-9.31l13.21-1.92l5.91-11.97l5.91,11.97L107.29,302.61z M371.54,188.94l1.99-11.61l-8.44-8.22l11.66-1.69l5.21-10.57
	l5.21,10.57l11.66,1.69l-8.44,8.22l1.99,11.61l-10.43-5.48L371.54,188.94z M517.41,276.9l-8.44,8.22l1.99,11.61l-10.43-5.48
	l-10.43,5.48l1.99-11.61l-8.44-8.22l11.66-1.69l5.21-10.57l5.21,10.57L517.41,276.9z M487.96,323.13
	c-8.66-5.96-18.16-10.97-25.11-19.02c-8.66-10.02-12.37-23.57-18.66-35.37c-6.29-11.81-17.45-22.9-30.26-21.29
	c-9.61,1.21-17.75,9.37-27.43,9.31c-8.84-0.06-16.14-6.9-22.4-13.44c-12.34-12.89-24.27-26.22-35.74-39.97
	c-11.13-13.33-23.78-28.14-40.65-29.22c-15.77-1.01-29.9,10.78-38.83,24.43c-8.93,13.65-14.35,29.54-23.14,43.29
	c-8.79,13.76-22.58,25.84-38.37,25.39c-6.6-0.19-13.03-2.56-19.63-2.6c-15.88-0.1-29.18,13.33-36.36,28.18
	c-7.18,14.84-7.94,20.76-14.23,36.04c-6.28,15.28-16.94,27.7-34.05,36.88c-19.15,10.29-28.05,19.15-34.64,26.78H539.4
	C530.13,364.32,511.74,339.51,487.96,323.13z M218.8,353.67c-0.54,1.45-1.75,2.62-3.28,2.83c-2.55,0.35-4.33-2-5.65-4.08
	c-3-4.75-6.01-9.5-9.01-14.24c-2.84-4.49-6.94-9.59-12.18-8.72c-2.36,0.39-4.37,1.99-6.71,2.45c-5.12,1.01-9.65-3.62-11.87-8.35
	c-5.3-11.28-3.85-25.11-10.36-35.73c-1.03-1.68-2.3-3.29-4.05-4.19c-0.18-0.09-0.36-0.17-0.54-0.24c-1.61-0.63-2.03-2.73-0.64-3.76
	c5.16-3.84,12.09-5.35,18.32-3.67c5.15,1.39,9.57,4.65,13.84,7.85c3.93,2.94,7.9,5.91,11.02,9.7c4.74,5.77,7.2,13.02,9.56,20.1
	c3.62,10.85,7.23,21.69,10.85,32.53C218.91,348.58,219.73,351.15,218.8,353.67z M293.13,368.13c-29.94,0-54.22-24.27-54.22-54.22
	s24.27-54.22,54.22-54.22s54.22,24.27,54.22,54.22S323.07,368.13,293.13,368.13z M411.96,383.15c-7.64-0.91-15.62-4.43-19.02-11.34
	c-3.72-7.56-0.93-16.55-1.23-24.97c-0.4-11.17-6.8-21.94-16.42-27.63c-5.04-2.98-11.16-4.89-14.31-9.83
	c-3.43-5.37-2.12-12.3-2.22-18.67c-0.25-15.81-10.99-30.93-25.83-36.38c-7.67-2.81-16.48-3.4-22.69-8.71
	c-8.97-7.67-8.74-21.81-15.77-31.29c-6.86-9.24-20.87-12.25-30.93-6.64c-1.5,0.84-3.4,1.83-4.77,0.8c-1.36-1.02-0.95-3.15-0.3-4.72
	c4.13-9.99,13.09-18.2,23.74-20.09c10.65-1.89,22.55,3.37,27.2,13.14c2.76,5.79,3.27,13.1,8.3,17.08c2.78,2.2,6.42,2.9,9.71,4.24
	c10.32,4.22,16.61,14.45,23.06,23.54c14.89,20.99,34.15,38.86,56.2,52.13c3.08,1.85,6.36,3.77,8.07,6.92
	c1.72,3.15,0.99,7.93-2.37,9.2c-5.83,2.21-11.69-7.58-17.21-4.69c-2.14,1.12-3.01,3.85-2.67,6.24c0.33,2.39,1.61,4.52,2.87,6.58
	c13.23,21.73,26.45,43.46,39.68,65.2C427.35,382.91,419.6,384.06,411.96,383.15z M508.8,379.28c-2.73,5.4-9.3,4.38-14.47,2.97
	c-6.96-1.9-14.59-4.28-18.35-10.43c-3.93-6.42-2.37-15.02-5.99-21.62c-3.6-6.55-11.26-9.47-18.1-12.49
	c-6.84-3.02-14.17-7.61-15.39-14.99c-1.38-8.37,5.79-15.83,6.53-24.28c0.54-6.22-2.48-12.17-5.84-17.44
	c-4.83-7.57-11.78-14.13-18.51-20.27c-0.99-0.91-0.52-2.56,0.8-2.81l0.08-0.02c3.45-0.66,7.03,0.41,9.47,2.93
	c8.18,8.4,16.75,24.84,19.54,33.51c3.33,10.35,5.85,21.31,12.5,29.92c8.11,10.51,21.1,15.88,31.2,24.49
	c7.26,6.19,13.03,14.1,16.67,22.92C509.96,374.11,509.99,376.92,508.8,379.28z M126.51,477.88l-9.27-49.94H94.05l-7.97,49.35
	l-5.95-49.35l-29.49,2.62l14.03,81.21l33.77-1.19l7.25-39.6l7.25,42.69l33.77-0.71l13.91-82.4l-29.37-2.62L126.51,477.88z
	 M71.05,496.51c0-0.01,0-0.02,0-0.03c-0.32-1.61-13.03-59.55-13.03-59.55l10.64-0.8c0,0,2.11,58.69,2.39,60.35
	C71.05,496.51,71.06,496.53,71.05,496.51z M187.98,498.33h13.56l3.57,13.44l29.49-3.8l-23.19-80.02l-33.05,1.66l-23.66,79.19
	l30.32,2.97L187.98,498.33z M190.48,480.14l4.4-20.69l4.52,20.69H190.48z M183.48,437.55l12.24-1.06L170,493.23L183.48,437.55z
	 M236.32,431.03v80.62l25.09-1.31l6.54-80.97L236.32,431.03z M242.17,491.99l0.35-53.91l9.58-0.71L242.17,491.99z M312.06,510.34
	l4.52-56.36l17.72-0.71l0.59-25.21l-64.8,0.12l-0.71,28.06l17.72-0.95l-0.12,56.36L312.06,510.34z M276.22,442.69l-1.42-9.93
	l45.4,1.06L276.22,442.69z M338.63,431.03v80.62l25.09-1.31l6.54-80.97L338.63,431.03z M344.84,490.92v-53.55l10.91-1.15
	L344.84,490.92z M419.79,511.29l31.15-2.85l4.28-80.62l-28.06,0.95l-0.95,40.43l-20.57-42.81l-29.73,1.43l-2.14,84.3h26.75
	l2.62-43.99L419.79,511.29z M391.84,438.61c0,0-9.22,49.65-9.22,50.54c0,0.89-0.71-53.38-0.71-53.91l19.33-2.31L391.84,438.61z
	 M493.24,455.83c2.04-1.82,4.44-3.22,7.19-4.19c2.76-0.97,5.72-1.46,8.89-1.46c2.26,0,4.57,0.15,6.93,0.45
	c2.36,0.3,4.65,0.86,6.87,1.69l1.66-22.71c-1.51-0.87-3.17-1.61-4.99-2.2c-1.82-0.59-3.7-1.06-5.62-1.4
	c-1.92-0.34-3.86-0.57-5.8-0.71c-1.94-0.14-3.77-0.21-5.47-0.21c-4.56,0-8.84,0.61-12.84,1.84c-4,1.23-7.69,2.95-11.06,5.17
	c-3.37,2.22-6.38,4.87-9.04,7.94c-2.66,3.07-4.9,6.44-6.75,10.11c-1.84,3.67-3.26,7.57-4.25,11.71c-0.99,4.14-1.49,8.37-1.49,12.69
	c0,5.67,0.99,10.96,2.97,15.87c1.98,4.91,4.73,9.19,8.23,12.81c3.51,3.63,7.68,6.47,12.51,8.53c4.84,2.06,10.13,3.09,15.87,3.09
	c2.97,0,6.1-0.29,9.39-0.86c3.29-0.57,6.5-1.44,9.63-2.59c3.13-1.15,6.06-2.6,8.8-4.34c2.73-1.74,5.03-3.78,6.9-6.12L531.08,461
	c-5.99,0.24-11.93,0.43-17.84,0.56c-5.91,0.14-11.81,0.31-17.72,0.51l-0.71,17.84l14.27,0.24l-0.24,4.64
	c-1.15,0.95-2.53,1.63-4.13,2.02c-1.61,0.4-3.16,0.59-4.67,0.59c-2.22,0-4.17-0.46-5.86-1.37c-1.69-0.91-3.09-2.11-4.22-3.6
	c-1.13-1.49-1.97-3.19-2.53-5.11c-0.56-1.92-0.83-3.91-0.83-5.98c0-3.29,0.59-6.24,1.78-8.86
	C489.58,459.87,491.2,457.65,493.24,455.83z M465.6,481.35c0,0-3.55-20.92,5.67-34.05c9.22-13.12,25.18-15.6,25.18-15.6l1.6,6.92
	C468.62,445.53,465.6,481.35,465.6,481.35z M126.47,191.33l47.52,66.32l-6.38-0.27l-51.07-57.54L126.47,191.33z M200.32,155.51
	l32.45,59.85l-4.26,5.32l-41.76-59.85L200.32,155.51z M241.02,199.67l-23.41-49.21l10.91-2.93l16.23,45.22L241.02,199.67z
	 M417.1,175.73l12.24,7.71L385.19,251l-3.81-3.01C381.37,247.99,416.04,176.79,417.1,175.73z M411.25,242.23l-6.92,1.6l37.77-50.8
	l10.11,6.92L411.25,242.23z"/>
</svg>
