<?xml version="1.0" encoding="iso-8859-1"?>
<!-- Generator: Adobe Illustrator 21.1.0, SVG Export Plug-In . SVG Version: 6.00 Build 0)  -->
<svg version="1.1" id="Calque_1" xmlns="http://www.w3.org/2000/svg" xmlns:xlink="http://www.w3.org/1999/xlink" x="0px" y="0px"
	 width="432px" height="432px" viewBox="0 0 432 432" enable-background="new 0 0 432 432" xml:space="preserve">
<g>
	<g>
		<path fill="#E2D5D1" d="M205.321,157.387c-2.962,2.275-6.43,3.519-10.025,4.414c-3.573,0.888-7.203,1.467-10.861,1.851
			c-4.395,0.461-8.717,1.316-13.028,2.257c-3.181,0.694-6.368,1.331-9.62,1.629c-3.055,0.28-6.087,0.121-9.125-0.165
			c-4.393-0.413-8.776-0.928-13.199-0.939c-3.616-0.008-7.201,0.389-10.791,0.734c-5.157,0.495-10.297,1.171-15.495,1.203
			c-6.071,0.037-11.998-0.798-17.832-2.457c-5.649-1.606-11.077-3.731-16.17-6.667c-4.185-2.414-8.373-4.826-12.495-7.344
			c-3.208-1.958-6.094-4.363-8.813-6.956c-3.971-3.785-6.279-8.536-7.784-13.723c-1.625-5.602-0.874-10.989,1.792-16.085
			c1.424-2.725,3.042-5.367,4.785-7.901c4.33-6.29,8.782-12.494,13.182-18.735c1.952-2.769,4.325-5.149,6.889-7.335
			c2.263-1.931,4.522-3.881,6.916-5.641c3.576-2.629,7.503-4.636,11.781-5.886c3.447-1.008,6.968-1.544,11.21-1.47
			c2.319-0.03,4.881,0.25,7.508,0.743c0.759,0.142,1.523,0.302,2.288,0.476c0.57,0.13,1.139,0.269,1.709,0.415
			c1.475,0.379,2.949,0.605,4.427,0.696c0.568,0.035,1.134,0.049,1.703,0.045c1.628-0.012,3.263-0.18,4.907-0.478
			c2.102-0.384,4.212-0.723,6.332-0.945c0.542-0.057,1.086-0.105,1.63-0.145h0.001c1.654-0.122,3.313-0.16,4.984-0.078
			c2.553,0.125,5.104,0.359,7.658,0.429c1.36,0.037,2.723,0.058,4.084,0.066c0.894,0.005,1.786,0.006,2.679,0.002h0.001
			c0.826-0.003,1.651-0.011,2.478-0.02c2.417-0.028,4.839-0.226,7.234,0.21c3.479,0.632,6.442,2.277,8.968,4.733
			c2.298,2.235,4.249,4.763,6.01,7.42c3.581,5.407,7.392,10.645,11.339,15.787c4.876,6.349,8.634,13.328,11.745,20.68
			c2.484,5.869,5.002,11.726,6.825,17.843c0.538,1.805,0.994,3.662,1.209,5.528C213.114,148.199,210.502,153.41,205.321,157.387z"/>
		<g>
			<g>
				<g>
					<g>
						<path fill="#BEC1A4" d="M80.929,122.057c-0.11,2.48-1.299,4.468-3.28,5.985c-1.107,0.848-2.382,1.357-3.774,1.481
							c-1.354,0.12-2.598-0.267-3.734-1.002c-0.938-0.606-1.682-1.425-2.345-2.326c-0.353-0.479-0.707-0.958-1.081-1.42
							c-1.292-1.598-2.215-3.413-2.88-5.346c-0.821-2.387-1.534-4.812-2.29-7.222c-0.065-0.207-0.114-0.421-0.147-0.635
							c-0.194-1.292,0.537-2.23,1.822-2.199c0.82,0.02,1.657,0.149,2.451,0.365c3.505,0.955,6.834,2.357,9.945,4.265
							c1.525,0.936,2.868,2.092,3.9,3.594C80.419,118.909,80.854,120.371,80.929,122.057z"/>
						<path fill="#BEC1A4" d="M122.752,125.604c0.76-2.991,2.711-5.099,5.505-6.427c1.562-0.742,3.243-1.028,4.968-0.815
							c1.679,0.208,3.095,1.005,4.292,2.197c0.988,0.984,1.687,2.175,2.267,3.445c0.308,0.676,0.619,1.351,0.957,2.012
							c1.169,2.283,1.833,4.734,2.155,7.262c0.397,3.12,0.651,6.259,0.962,9.391c0.027,0.269,0.033,0.542,0.018,0.812
							c-0.09,1.624-1.217,2.574-2.774,2.199c-0.994-0.239-1.98-0.615-2.891-1.086c-4.025-2.079-7.724-4.657-11.029-7.794
							c-1.62-1.538-2.962-3.298-3.839-5.396C122.577,129.57,122.417,127.677,122.752,125.604z"/>
						<path fill="#BEC1A4" d="M185.255,131.962c-1.402-1.185-2.028-2.803-2.022-4.686c0.003-1.053,0.281-2.055,0.836-2.954
							c0.54-0.875,1.328-1.453,2.27-1.81c0.778-0.295,1.593-0.376,2.418-0.372c0.439,0.002,0.879,0.004,1.318-0.014
							c1.518-0.062,2.996,0.198,4.427,0.667c1.767,0.579,3.507,1.241,5.258,1.87c0.15,0.054,0.298,0.121,0.438,0.198
							c0.844,0.465,1.063,1.331,0.464,2.096c-0.382,0.488-0.835,0.937-1.319,1.32c-2.139,1.693-4.461,3.077-6.981,4.101
							c-1.235,0.502-2.518,0.794-3.862,0.741C187.327,133.074,186.276,132.677,185.255,131.962z"/>
						<path fill="#BEC1A4" d="M174.632,108.351c-0.001,3.693-2.575,6.61-6.164,7.101c-3.786,0.518-6.537-1.058-8.528-4.218
							c-1.167-1.853-1.728-3.944-2.06-6.093c-0.444-2.882-0.893-5.766-1.235-8.662c-0.253-2.145-0.367-4.308-0.481-6.466
							c-0.036-0.673,0.069-1.373,0.22-2.034c0.25-1.1,0.906-1.89,2.039-2.104c1.059-0.2,1.88,0.289,2.451,1.162
							c2.819,4.304,6.317,8.061,9.401,12.15c1.034,1.371,2.018,2.788,2.921,4.251C174.114,104.922,174.634,106.569,174.632,108.351z
							"/>
						<path fill="#BEC1A4" d="M116.788,96.897c1.621,3.304,0.6,7.084-2.395,9.155c-3.159,2.185-6.313,2.028-9.482,0.106
							c-1.858-1.127-3.278-2.742-4.519-4.514c-1.664-2.376-3.331-4.752-4.909-7.187c-1.168-1.803-2.221-3.687-3.27-5.566
							c-0.328-0.586-0.541-1.259-0.697-1.92c-0.26-1.098-0.02-2.102,0.9-2.809c0.86-0.661,1.808-0.596,2.703-0.076
							c4.412,2.568,9.192,4.338,13.747,6.593c1.527,0.756,3.03,1.576,4.48,2.474C114.817,94.066,116.006,95.302,116.788,96.897z"/>
					</g>
					<g>
						<path fill="#939176" d="M70.769,118.737c-0.076-0.719-0.155-1.437-0.225-2.156c-0.035-0.353-0.069-0.707-0.077-1.061
							c-0.011-0.494,0.169-0.741,0.528-0.773c0.377-0.034,0.626,0.209,0.693,0.707c0.097,0.722,0.164,1.449,0.274,2.169
							c0.188,1.226,0.354,2.461,0.796,3.627c0.122,0.321,0.294,0.658,0.534,0.891c0.755,0.735,1.551,1.425,2.335,2.129
							c0.145,0.13,0.313,0.234,0.456,0.366c0.195,0.179,0.336,0.387,0.218,0.676c-0.111,0.272-0.382,0.444-0.715,0.37
							c-0.336-0.075-0.699-0.159-0.976-0.35c-0.719-0.495-1.441-1.003-2.086-1.592c-2.21-2.019-3.74-4.559-5.178-7.162
							c-0.361-0.653-0.721-1.306-1.082-1.959c-0.057-0.103-0.125-0.2-0.176-0.306c-0.208-0.428-0.168-0.742,0.117-0.956
							c0.275-0.207,0.651-0.188,0.953,0.112c0.233,0.231,0.426,0.51,0.605,0.789c0.87,1.352,1.729,2.712,2.595,4.068
							c0.1,0.157,0.218,0.303,0.327,0.454C70.712,118.765,70.74,118.751,70.769,118.737z"/>
						<path fill="#939176" d="M134.281,132.305c-0.09,0.894-0.175,1.789-0.27,2.683c-0.047,0.439-0.095,0.879-0.175,1.312
							c-0.111,0.604-0.392,0.858-0.838,0.803c-0.468-0.057-0.709-0.418-0.665-1.042c0.064-0.904,0.167-1.807,0.214-2.712
							c0.081-1.542,0.191-3.088-0.052-4.623c-0.067-0.423-0.192-0.878-0.425-1.224c-0.733-1.092-1.528-2.141-2.304-3.202
							c-0.144-0.196-0.322-0.366-0.463-0.564c-0.192-0.27-0.311-0.559-0.094-0.88c0.204-0.302,0.577-0.441,0.964-0.263
							c0.39,0.179,0.81,0.377,1.1,0.682c0.751,0.791,1.501,1.598,2.137,2.484c2.18,3.036,3.4,6.528,4.493,10.073
							c0.274,0.889,0.548,1.779,0.823,2.668c0.043,0.14,0.101,0.277,0.137,0.419c0.145,0.575,0.017,0.947-0.384,1.133
							c-0.387,0.18-0.84,0.059-1.132-0.386c-0.225-0.342-0.39-0.733-0.538-1.119c-0.718-1.874-1.419-3.754-2.131-5.631
							c-0.082-0.217-0.189-0.426-0.284-0.638C134.357,132.286,134.319,132.295,134.281,132.305z"/>
						<path fill="#939176" d="M191.78,127.305c0.454,0.278,0.91,0.554,1.363,0.836c0.222,0.138,0.445,0.277,0.655,0.432
							c0.294,0.216,0.357,0.436,0.214,0.668c-0.15,0.244-0.405,0.285-0.726,0.101c-0.466-0.267-0.922-0.554-1.392-0.812
							c-0.802-0.439-1.599-0.895-2.481-1.154c-0.243-0.071-0.517-0.118-0.762-0.078c-0.77,0.126-1.533,0.297-2.299,0.454
							c-0.142,0.029-0.278,0.084-0.42,0.112c-0.193,0.037-0.378,0.029-0.494-0.173c-0.109-0.19-0.088-0.432,0.106-0.6
							c0.195-0.17,0.408-0.351,0.645-0.433c0.614-0.212,1.237-0.421,1.872-0.545c2.178-0.428,4.354-0.209,6.525,0.094
							c0.545,0.076,1.089,0.152,1.634,0.228c0.086,0.012,0.174,0.015,0.259,0.031c0.344,0.067,0.51,0.233,0.507,0.502
							c-0.003,0.26-0.183,0.479-0.496,0.527c-0.24,0.037-0.491,0.028-0.735,0.011c-1.184-0.083-2.367-0.176-3.55-0.263
							c-0.137-0.01-0.275-0.005-0.413-0.006C191.789,127.258,191.785,127.281,191.78,127.305z"/>
						<path fill="#939176" d="M164.134,102.733c-0.52-0.965-1.032-1.935-1.564-2.894c-0.548-0.987-1.117-1.963-1.677-2.944
							c-0.05-0.087-0.106-0.171-0.154-0.259c-0.206-0.382-0.437-0.781-0.07-1.178c0.343-0.372,0.796-0.374,1.244-0.239
							c0.51,0.153,0.816,0.554,1.075,0.994c0.917,1.557,1.829,3.116,2.742,4.674c0.324,0.553,0.649,1.106,1.045,1.781
							c0.109-0.297,0.17-0.448,0.22-0.603c0.077-0.239,0.117-0.494,0.224-0.718c0.203-0.427,0.575-0.603,0.974-0.505
							c0.437,0.107,0.683,0.446,0.629,0.965c-0.103,1.002-0.212,2.005-0.367,3c-0.081,0.521-0.016,0.962,0.216,1.446
							c0.477,0.994,0.94,2.008,1.268,3.059c0.259,0.829,0.313,1.725,0.442,2.594c0.025,0.169-0.011,0.353-0.046,0.524
							c-0.112,0.55-0.406,0.839-0.877,0.884c-0.43,0.042-0.74-0.154-0.927-0.703c-0.244-0.713-0.374-1.47-0.654-2.166
							c-0.514-1.282-1.084-2.542-1.671-3.791c-0.117-0.249-0.392-0.449-0.636-0.602c-1.182-0.741-2.39-1.438-3.563-2.193
							c-0.433-0.279-0.814-0.651-1.181-1.021c-0.234-0.236-0.367-0.558-0.15-0.893c0.231-0.357,0.582-0.368,0.927-0.245
							c0.396,0.141,0.779,0.319,1.158,0.504c0.421,0.205,0.83,0.436,1.244,0.655C164.048,102.818,164.091,102.775,164.134,102.733z"
							/>
						<path fill="#939176" d="M104.928,96.647c-0.889-0.627-1.773-1.262-2.67-1.877c-0.924-0.634-1.861-1.248-2.793-1.871
							c-0.083-0.055-0.17-0.104-0.251-0.162c-0.352-0.248-0.734-0.5-0.58-1.022c0.144-0.489,0.548-0.696,1.008-0.78
							c0.523-0.095,0.973,0.125,1.398,0.4c1.504,0.975,3.004,1.956,4.506,2.934c0.533,0.347,1.066,0.694,1.717,1.118
							c-0.033-0.315-0.045-0.478-0.068-0.64c-0.036-0.249-0.112-0.496-0.115-0.744c-0.006-0.474,0.25-0.801,0.65-0.895
							c0.438-0.103,0.806,0.088,0.987,0.577c0.348,0.943,0.691,1.89,0.99,2.85c0.157,0.503,0.408,0.868,0.828,1.196
							c0.863,0.673,1.723,1.368,2.478,2.159c0.596,0.624,1.038,1.401,1.535,2.12c0.097,0.14,0.145,0.321,0.189,0.49
							c0.141,0.543,0.006,0.935-0.396,1.19c-0.367,0.233-0.73,0.198-1.138-0.207c-0.531-0.527-0.98-1.144-1.536-1.64
							c-1.023-0.913-2.086-1.781-3.16-2.631c-0.214-0.169-0.548-0.223-0.833-0.249c-1.383-0.125-2.77-0.199-4.151-0.341
							c-0.51-0.052-1.015-0.212-1.505-0.376c-0.313-0.105-0.573-0.332-0.527-0.731c0.049-0.425,0.359-0.594,0.721-0.641
							c0.416-0.054,0.838-0.069,1.257-0.076c0.467-0.008,0.934,0.012,1.401,0.02C104.889,96.762,104.909,96.704,104.928,96.647z"/>
					</g>
				</g>
				<g>
					<g>
						<path fill="#F8CACC" d="M85.819,122.249c3.621,0.02,6.326,0.478,8.81,1.836c3.152,1.723,5.415,4.241,6.366,7.822
							c0.579,2.182,0.385,4.376-0.069,6.555c-0.634,3.039-2.057,5.648-4.189,7.862c-2.145,2.228-4.757,3.486-7.793,3.81
							c-1.29,0.138-2.56-0.102-3.811-0.423c-5.723-1.467-10.124-4.79-13.297-9.827c-1.384-2.197-2.061-4.585-1.85-7.215
							c0.227-2.832,1.282-5.19,3.607-6.892c2.222-1.627,4.714-2.566,7.386-2.988C82.851,122.493,84.749,122.364,85.819,122.249z"/>
						<path fill="#F8CACC" d="M156.159,133.891c0.134-4.609,2.414-9.107,6.871-12.377c2.933-2.152,6.2-3.65,9.808-4.19
							c2.11-0.316,4.247-0.331,6.344,0.176c3.141,0.759,5.569,2.528,7.365,5.286c2.006,3.081,2.652,6.388,2.022,10.006
							c-0.544,3.126-1.569,6.056-3.215,8.757c-0.653,1.072-1.235,2.197-1.962,3.214c-2.782,3.891-6.527,6.261-11.207,6.963
							c-2.763,0.414-5.403-0.224-7.725-1.77C159.145,146.417,156.19,141.473,156.159,133.891z"/>
						<path fill="#F8CACC" d="M106.789,106.11c-0.202-5.323,3.06-11.996,11.333-13.524c6.03-1.113,11.763,0.008,17.246,2.689
							c1.962,0.959,3.827,2.045,5.297,3.728c1.703,1.95,2.751,4.19,2.918,6.811c0.122,1.919-0.373,3.713-1.163,5.438
							c-1.249,2.728-3.151,4.947-5.227,7.042c-2.804,2.829-5.968,5.121-9.67,6.542c-4.062,1.56-8.01,1.22-11.71-1.161
							c-4.675-3.008-7.333-7.425-8.433-12.856C107.067,109.274,106.98,107.681,106.789,106.11z"/>
					</g>
					<g>
						<path fill="#F1949B" d="M185.024,132.894c-0.09,2.532-0.578,4.949-1.593,7.248c-0.767,1.738-1.898,3.193-3.368,4.379
							c-1.496,1.207-3.202,1.785-5.101,1.845c-1.827,0.057-3.615-0.102-5.331-0.802c-1.642-0.669-3.026-1.69-4.114-3.108
							c-0.247-0.323-0.528-0.536-0.9-0.686c-0.963-0.388-1.797-0.982-2.393-1.852c-1.427-2.085-2.337-4.361-2.287-6.947
							c0.041-2.123,0.713-4.054,1.853-5.818c0.99-1.533,2.212-2.852,3.68-3.915c2.146-1.555,4.491-2.71,7.083-3.224
							c2.124-0.422,4.193-0.181,6.148,0.882c3.349,1.821,5.173,4.735,5.886,8.435C184.814,130.502,184.883,131.705,185.024,132.894z
							 M164.35,137.994c0.079-0.394,0.14-0.689,0.196-0.985c0.36-1.906,0.945-3.726,1.953-5.391
							c1.194-1.973,2.922-3.237,5.071-3.902c2.099-0.649,3.91-0.115,5.345,1.579c0.481,0.567,0.906,1.196,1.276,1.844
							c1.191,2.082,1.177,4.253,0.339,6.451c-0.412,1.081-1.192,1.785-2.271,2.153c-0.96,0.328-1.958,0.394-2.928,0.186
							c-1.452-0.31-2.56-1.129-3.051-2.629c-0.093-0.285-0.147-0.601-0.136-0.899c0.023-0.612,0.485-1.123,1.051-1.236
							c0.651-0.13,1.056,0.096,1.375,0.768c0.312,0.659,0.567,0.824,1.192,0.772c0.678-0.057,0.906-0.281,1.11-1.011
							c0.423-1.51-0.114-2.738-1.073-3.841c-0.439-0.504-0.673-0.552-1.309-0.295c-1.049,0.424-1.903,1.087-2.49,2.093
							c-0.87,1.493-1.307,3.122-1.539,4.824c-0.115,0.841,0.14,1.515,0.734,2.114c1.567,1.58,3.508,1.962,5.604,1.885
							c1.636-0.06,2.836-0.925,3.826-2.168c0.629-0.79,1.082-1.679,1.41-2.635c0.911-2.651,1.05-5.351,0.466-8.088
							c-0.513-2.404-1.66-4.356-3.875-5.535c-0.981-0.522-2.023-0.755-3.104-0.547c-0.883,0.17-1.762,0.423-2.605,0.743
							c-2.355,0.893-4.407,2.239-5.978,4.286c-2.2,2.866-2.306,5.92-0.855,9.13C164.127,137.754,164.213,137.825,164.35,137.994z"/>
						<path fill="#F1949B" d="M89.456,124.243c3.677,1.554,6.271,4.215,7.779,7.944c0.975,2.41,0.992,4.831-0.264,7.173
							c-0.242,0.451-0.516,0.898-0.847,1.283c-3.204,3.735-7.187,5.571-12.103,5.021c-2.452-0.274-4.538-1.433-6.383-3.026
							c-1.057-0.913-2.09-1.885-2.975-2.967c-1.579-1.931-2.196-4.19-1.473-6.647c0.631-2.147,1.566-4.156,3.026-5.892
							c2.886-3.433,7.578-4.805,11.797-3.391C88.496,123.903,88.975,124.076,89.456,124.243z M83.301,142.558
							c-0.005,0.043-0.009,0.085-0.014,0.128c0.214,0.06,0.425,0.15,0.643,0.177c4.099,0.499,7.388-1.034,9.995-4.193
							c0.9-1.09,1.103-2.391,0.812-3.774c-0.216-1.028-0.674-1.946-1.237-2.819c-1.8-2.791-4.424-4.344-7.568-4.907
							c-2.976-0.533-5.496,0.469-7.363,2.948c-0.82,1.089-1.386,2.316-1.77,3.638c-0.434,1.494,0.197,3.088,1.541,3.828
							c1.486,0.819,3.073,1.106,4.736,0.916c1.596-0.182,2.975-0.843,4.07-2.073c0.365-0.41,0.445-0.843,0.266-1.355
							c-0.542-1.548-2.353-2.333-3.828-1.655c-0.79,0.363-0.842,0.767-0.162,1.274c0.086,0.064,0.184,0.113,0.268,0.181
							c0.521,0.42,0.647,0.892,0.408,1.515c-0.326,0.849-1.173,1.28-2.097,1.068c-1.504-0.345-2.836-2.259-2.651-3.825
							c0.152-1.284,0.745-2.339,1.759-3.093c1.923-1.43,4.036-1.723,6.224-0.751c2.295,1.02,3.598,2.848,3.849,5.404
							c0.117,1.189-0.235,2.27-0.895,3.235c-1.464,2.14-3.52,3.369-5.989,3.935C83.967,142.433,83.633,142.491,83.301,142.558z"/>
						<path fill="#F1949B" d="M110.254,106.893c-0.038-1.63,0.116-3.055,0.616-4.425c0.604-1.656,1.624-2.908,3.139-3.855
							c3.365-2.103,7.027-2.992,10.913-2.947c3.978,0.045,7.642,1.144,10.868,3.641c4.265,3.302,5.054,8.935,3.829,12.422
							c-0.033,0.095-0.054,0.195-0.097,0.284c-2.434,5.101-6.006,8.857-11.674,10.037c-2.773,0.577-5.442,0.04-7.964-1.198
							c-2.774-1.362-5.078-3.324-6.946-5.823C111.098,112.568,110.114,109.831,110.254,106.893z M121.258,107.287
							c-0.145,0.766,0.127,1.207,0.51,1.597c0.89,0.908,1.997,1.372,3.206,1.661c1.075,0.257,1.877-0.223,2.54-0.96
							c0.498-0.553,0.649-1.278,0.206-1.947c-0.401-0.605-0.827-1.236-1.374-1.691c-2.703-2.248-5.855-3.243-9.322-3.284
							c-0.751-0.009-1.295,0.322-1.51,1.043c-0.217,0.729-0.418,1.483-0.476,2.239c-0.148,1.933,0.067,3.798,1.149,5.491
							c1.431,2.241,3.268,4.033,5.597,5.252c3.36,1.758,6.55,1.36,9.496-1.011c1.219-0.981,2.202-2.195,3.145-3.453
							c2.259-3.016,1.469-7.835-1.522-10.054c-1.677-1.244-3.475-2.164-5.513-2.563c-0.839-0.164-1.691-0.258-2.537-0.384
							c-0.017,0.069-0.033,0.137-0.05,0.206c0.251,0.137,0.504,0.271,0.752,0.413c0.945,0.542,1.911,1.05,2.828,1.638
							c1.528,0.98,2.763,2.266,3.658,3.873c1.356,2.435,1.051,5.343-0.888,7.318c-1.983,2.019-4.362,2.96-7.191,2.255
							c-2.945-0.734-4.989-2.497-5.818-5.526c-0.19-0.694-0.283-1.457-0.226-2.172c0.109-1.37,1.169-2.28,2.524-2.339
							c1.208-0.053,2.343,0.296,3.471,0.661c0.238,0.077,0.465,0.26,0.642,0.448c0.314,0.335,0.448,0.748,0.247,1.2
							c-0.206,0.463-0.614,0.593-1.067,0.55c-0.325-0.031-0.641-0.149-0.964-0.209C122.294,107.449,121.816,107.378,121.258,107.287
							z"/>
					</g>
				</g>
			</g>
			<g>
				<g>
					<path fill="#CCC1BE" d="M116.431,69.393c-1.864,1.1-3.709,2.233-5.48,3.456c-1.394,0.962-2.582,2.101-3.628,3.432
						c-1.012,1.29-1.929,2.653-3.031,3.872c-0.683,0.755-1.794-0.364-1.115-1.115c1.143-1.262,2.083-2.685,3.144-4.013
						c1.062-1.331,2.283-2.45,3.677-3.428c1.343-0.941,2.732-1.826,4.144-2.679C114.902,69.059,115.666,69.219,116.431,69.393z"/>
				</g>
				<g>
					<path fill="#CCC1BE" d="M124.27,70.549c-0.005,0.011-0.009,0.021-0.015,0.032c-1.74,3.602-1.88,7.695-2.015,11.618
						c-0.035,1.013-1.611,1.015-1.577,0c0.137-3.964,0.334-8.011,1.904-11.694C123.135,70.539,123.701,70.554,124.27,70.549z"/>
				</g>
				<g>
					<path fill="#CCC1BE" d="M140.455,84c-1.479-2.4-1.843-5.272-2.576-7.945c-0.646-2.356-1.436-4.671-2.369-6.929
						c0.542-0.057,1.086-0.105,1.63-0.145h0.001c0.83,2.05,1.553,4.142,2.153,6.272c0.744,2.648,1.057,5.572,2.523,7.951
						C142.35,84.072,140.986,84.863,140.455,84z"/>
				</g>
				<g>
					<path fill="#CCC1BE" d="M170.953,81.396c-0.331,0.323-0.778,0.264-1.115,0c-5.241-4.109-10.566-8.108-15.972-11.998
						c0.894,0.005,1.786,0.006,2.679,0.002h0.001c4.867,3.539,9.67,7.167,14.406,10.881
						C171.287,80.543,171.228,81.125,170.953,81.396z"/>
				</g>
			</g>
		</g>
		<path fill="#999999" d="M125.749,58.52c0.197-2.37,1.864-3.838,4.298-3.758c2.1,0.069,3.373,1.562,3.624,4.22
			c0.055-0.14,0.079-0.308,0.171-0.417c1.131-1.333,2.932-1.715,4.488-0.942c1.012,0.503,1.556,1.337,1.534,2.473
			c-0.009,0.444,0.086,0.74,0.454,1.024c1.678,1.293,3.325,2.627,5.001,3.922c0.196,0.152,0.507,0.214,0.766,0.219
			c4.269,0.075,8.539,0.107,12.808,0.21c1.679,0.04,3.359,0.189,5.029,0.372c0.7,0.077,1.391,0.33,2.058,0.58
			c0.43,0.161,0.834,0.427,1.203,0.707c1.01,0.767,1.392,1.9,1.014,2.875c-0.368,0.949-1.343,1.476-2.611,1.394
			c-0.341-0.022-0.682-0.075-1.019-0.134c-1.45-0.255-2.907-0.229-4.374-0.23c-4.956-0.004-9.912-0.108-14.869-0.142
			c-1.807-0.013-3.615,0.057-5.423,0.1c-3.49,0.083-6.979,0.179-10.469,0.258c-5.454,0.124-10.907,0.234-16.361,0.358
			c-2.617,0.059-5.235,0.104-7.85,0.216c-2.24,0.095-4.477,0.276-6.716,0.418c-0.653,0.041-1.307,0.112-1.959,0.103
			c-0.525-0.007-1.068-0.045-1.57-0.188c-0.869-0.248-1.469-0.81-1.583-1.762c-0.114-0.949,0.31-1.636,1.116-2.085
			c1.098-0.611,2.266-1.059,3.524-1.171c1.954-0.174,3.912-0.325,5.871-0.43c3.205-0.171,6.413-0.309,9.621-0.432
			c0.617-0.024,1.121-0.19,1.635-0.545C118.648,63.328,122.161,60.957,125.749,58.52z M121.104,65.973
			c6.211-0.306,12.184-0.6,18.31-0.901c-0.565-0.476-1.046-0.822-1.454-1.24c-0.614-0.63-1.318-0.933-2.203-1.034
			c-1.301-0.148-2.349-1.37-2.468-2.68c-0.014-0.155-0.036-0.309-0.063-0.546c-1.451,1.698-2.426,2.064-4.432,1.642
			c-0.412-0.087-0.65,0.101-0.93,0.284c-1.981,1.296-3.962,2.593-5.941,3.892C121.7,65.538,121.487,65.7,121.104,65.973z"/>
	</g>
	<g>
		<path fill="#F4C1C9" d="M78.181,317.566c1.305-3.765,2.344-7.169,3.656-10.464c2.821-7.086,6.056-13.989,9.688-20.7
			c0.514-0.949,1.077-1.872,1.623-2.804c4.533-7.743,11.197-12.645,19.826-15.003c4.817-1.316,9.697-1.942,14.686-1.93
			c7.139,0.018,14.199,0.612,21.194,2.138c8.649,1.886,15.033,6.811,19.72,14.15c1.997,3.126,3.5,6.502,4.542,10.043
			c2.097,7.127,4.057,14.294,6.067,21.446c0.032,0.112-0.013,0.246-0.018,0.309c-7.505-0.634-15.008-1.268-22.701-1.918
			c-0.718-1.935-0.931-4.144-1.166-6.331c-0.693-6.452-1.594-12.868-3.464-19.097c-0.691-2.303-1.637-4.536-2.566-6.759
			c-0.412-0.986-1.031-1.895-1.626-2.791c-1.305-1.964-3.103-2.912-5.513-3.204c-6.27-0.76-12.551-0.88-18.842-0.707
			c-3.573,0.098-7.052,0.916-10.455,1.972c-0.649,0.201-1.342,0.801-1.669,1.404c-1.145,2.116-2.399,4.229-3.143,6.497
			c-2.772,8.445-5.374,16.947-8.006,25.438c-0.925,2.985-0.866,3.058-3.837,3.852c-5.214,1.394-10.448,2.712-15.677,4.049
			C79.901,317.309,79.28,317.375,78.181,317.566z"/>
		<path fill="#873A4B" d="M209.122,359.395c-0.525,3.503-2.259,6.354-5.002,8.596c-3.666,2.995-7.937,4.675-12.498,5.696
			c-6.702,1.502-13.511,2.194-20.358,2.495c-8.888,0.388-17.777,0.773-26.668,0.982c-6.671,0.156-13.346,0.03-20.02,0.03v-0.105
			c-16.215,0-32.43,0.058-48.646-0.035c-5.149-0.03-10.279-0.634-15.282-1.964c-5.998-1.595-8.668-4.97-9.566-11.106
			c-0.784-5.356,0.255-10.421,1.971-15.34c3.821-10.94,8.789-21.312,16.229-30.331c1.304-1.579,2.625-3.146,4.011-4.65
			c0.942-1.021,2.068-1.715,3.348-2.156c0.436-0.149,0.891-0.271,1.362-0.365c7.628-1.521,15.217-3.255,22.873-4.612
			c4.132-0.731,8.366-1.096,12.565-1.203c8.014-0.207,16.029-0.501,24.054-0.139c7.957,0.358,15.911,0.713,23.794,1.869
			c7.301,1.068,14.536,2.549,21.442,5.232c0.708,0.274,1.398,0.636,2.061,1.052c0.829,0.52,1.616,1.124,2.351,1.744
			c6.203,5.246,11.005,11.616,14.764,18.798c3.053,5.833,5.555,11.862,6.806,18.36C209.168,354.61,209.483,356.999,209.122,359.395z
			"/>
		<path fill="#55393D" d="M184.793,313.339c-6.874,7.707-13.715,15.444-20.699,23.047c-3.435,3.74-7.271,7.119-11.008,10.569
			c-1.323,1.223-2.871,2.214-4.362,3.24c-4.555,3.132-9.582,4.518-15.114,4.016c-6.407-0.582-12.819-1.114-19.223-1.722
			c-4.485-0.425-8.325-2.229-11.382-5.594c-0.669-0.736-1.397-1.427-2.001-2.212c-4.886-6.354-9.815-12.675-14.597-19.107
			c-2.965-3.99-5.652-8.185-8.543-12.231c-0.43-0.603-0.836-1.217-1.221-1.841c0.436-0.149,0.891-0.271,1.362-0.365
			c7.628-1.521,15.217-3.255,22.873-4.612c4.132-0.731,8.366-1.096,12.565-1.203c8.014-0.207,16.029-0.501,24.054-0.139
			c7.957,0.358,15.911,0.713,23.794,1.869c7.301,1.068,14.536,2.549,21.442,5.232C183.44,312.561,184.13,312.923,184.793,313.339z"
			/>
		<path fill="#F4C1C9" d="M166.115,347.206c-0.329,3.56-0.43,7.16-1.045,10.67c-0.823,4.699-3.668,7.833-8.431,8.879
			c-2.275,0.5-4.611,0.295-6.824-0.445c-2.662-0.89-5.296-1.875-7.896-2.933c-2.604-1.06-5.159-2.241-7.716-3.411
			c-0.863-0.395-1.645-0.383-2.579-0.176c-2.109,0.467-4.267,0.708-6.398,1.083c-0.742,0.13-1.502,0.293-2.188,0.591
			c-6.058,2.636-12.415,3.994-18.985,4.206c-2.07,0.067-4.214-0.339-6.232-0.874c-3.566-0.944-5.909-3.426-7.456-6.705
			c-1.221-2.589-1.699-5.363-1.882-8.181c-0.293-4.506,0.125-8.958,1.508-13.27c0.424-1.323,1.001-2.659,1.79-3.792
			c1.78-2.554,4.337-3.576,7.374-2.827c1.527,0.377,3.068,0.985,4.399,1.815c6.406,3.993,12.798,8.025,18.388,13.157
			c0.92,0.845,1.745,1.093,2.915,0.606c2.09-0.87,4.306-1.232,6.562-1.144c0.823,0.032,1.302-0.332,1.814-0.842
			c2.128-2.124,4.18-4.338,6.439-6.314c2.062-1.804,4.272-3.471,6.568-4.966c3.016-1.964,6.387-2.859,10.033-2.637
			c4.261,0.259,7.193,2.525,8.393,6.644c0.903,3.099,0.997,6.307,1.177,9.5c0.025,0.446,0.003,0.896,0.003,1.343
			C165.937,347.191,166.026,347.198,166.115,347.206z"/>
	</g>
	<g>
		<path fill="#C64A53" d="M244.657,193.597c-0.308-2.191-0.641-4.107-0.837-6.037c-0.49-4.831-1.107-9.661-1.324-14.506
			c-0.278-6.213-0.306-12.441-0.276-18.662c0.056-11.858,1.567-23.516,5.215-34.844c0.399-1.239,0.85-2.462,1.284-3.691
			c3.041-8.606,9.344-13.607,17.883-16.07c4.707-1.357,9.545-1.726,14.43-1.598c9.29,0.243,18.388,1.61,27.28,4.384
			c6.484,2.023,10.401,6.384,12.031,12.846c1.403,5.561,1.7,11.227,1.252,16.946c-0.856,10.943-3.782,21.444-6.764,31.931
			c-2.559,9.001-5.19,17.981-7.782,26.973c-0.211,0.733-0.368,1.482-0.591,2.39c0.718,0,1.297,0.041,1.869-0.006
			c10.57-0.86,21.126-1.851,31.617-3.437c11.01-1.664,22.018-3.338,33.035-4.951c1.623-0.238,3.328-0.415,4.932-0.182
			c3.142,0.458,4.996,2.82,4.854,6.002c-0.063,1.399-0.297,2.861-0.802,4.158c-1.804,4.633-3.613,9.274-5.679,13.794
			c-9.782,21.396-20.36,42.398-31.548,63.092c-4.001,7.401-7.906,14.859-12.55,21.889c-3.44,5.206-7.316,10.05-11.878,14.348
			c-6.081,5.729-13.355,8.631-21.556,9.454c-5.56,0.558-11.123,0.462-16.69,0.057c-5.433-0.395-10.877-0.656-16.302-1.131
			c-5.493-0.481-10.926-1.413-16.253-2.862c-9.411-2.56-16.759-8.07-22.565-15.809c-4.575-6.099-8.255-12.72-11.525-19.574
			c-9.979-20.913-17.696-42.646-23.468-65.079c-1.313-5.104-2.588-10.221-4.027-15.29c-0.937-3.299-2.138-6.522-3.222-9.779
			c-0.205-0.617-0.476-1.219-0.616-1.85c-0.511-2.293,0.522-3.683,2.856-3.526c1.937,0.13,3.878,0.503,5.768,0.968
			c15.194,3.742,30.555,6.62,46.021,8.957C240.593,193.185,242.478,193.346,244.657,193.597z M312.573,115.615
			c-9.893-2.368-19.55-4.767-29.475-5.775c-4.897-0.497-9.81-0.788-14.721-0.109c-3.417,0.472-6.749,1.249-9.859,2.811
			c-0.663,0.333-1.181,0.715-1.355,1.505c-0.879,3.991-1.879,7.968-1.85,12.089c0.032,4.562-0.002,9.133,0.273,13.683
			c0.389,6.443,0.818,12.899,1.619,19.3c1.453,11.604,4.28,22.925,7.734,34.089c0.534,1.726,0.54,1.759,2.286,1.76
			c6.4,0.007,12.801-0.004,19.201-0.029c0.751-0.003,1.501-0.131,2.215-0.198c0.594-1.791,1.129-3.421,1.676-5.048
			c3.344-9.95,7.595-19.537,11.701-29.181c5.012-11.772,8.868-23.867,10.349-36.631C312.68,121.18,312.834,118.469,312.573,115.615z
			"/>
		<g>
			<path fill="#E06E82" d="M271.95,262.679c0.417,0.605,0.772,1.084,1.085,1.589c0.139,0.225,0.228,0.495,0.279,0.757
				c0.061,0.314-0.042,0.597-0.354,0.75c-0.303,0.149-0.585,0.078-0.83-0.133c-0.101-0.087-0.196-0.195-0.256-0.313
				c-0.404-0.796-1.102-1.248-1.865-1.637c-1.68-0.856-3.457-1.276-5.344-1.226c-0.072,0.002-0.143,0.037-0.257,0.068
				c0.765,0.625,1.524,1.188,2.216,1.823c1.505,1.381,2.613,3.012,3.261,4.984c0.412,1.253,0.781,2.564,1.635,3.62
				c1.006,1.245,2.32,1.964,3.942,1.949c0.427-0.004,0.878-0.231,1.268-0.446c0.308-0.17,0.575-0.342,0.887-0.103
				c0.317,0.243,0.241,0.565,0.113,0.888c-0.706,1.77-2.055,2.762-3.873,3.135c-1.575,0.323-2.883-0.312-3.707-1.721
				c-0.109-0.186-0.217-0.372-0.377-0.645c-0.119,0.219-0.226,0.384-0.303,0.562c-0.533,1.227-1.176,2.384-2.061,3.398
				c-2.732,3.129-6.937,3.658-10.356,1.287c-1.103-0.765-2.113-1.631-2.728-2.858c-0.622-1.241-0.782-2.535-0.332-3.87
				c0.077-0.228,0.189-0.452,0.324-0.652c0.183-0.27,0.447-0.404,0.776-0.262c0.325,0.139,0.402,0.421,0.369,0.742
				c-0.014,0.133-0.056,0.265-0.097,0.394c-0.429,1.334-0.137,2.541,0.738,3.585c0.846,1.009,1.91,1.758,3.265,2.375
				c-0.102-0.341-0.155-0.557-0.231-0.765c-0.264-0.725-0.421-1.464-0.298-2.237c0.154-0.966,0.648-1.277,1.537-0.912
				c0.522,0.214,1.041,0.272,1.59,0.244c1.624-0.083,3.174-0.395,4.551-1.335c0.67-0.458,1.144-1.039,1.491-1.779
				c0.916-1.953,0.628-3.819-0.365-5.62c-0.965-1.748-2.381-3.078-4.068-4.153c-0.627,0.165-1.023,0.611-1.401,1.069
				c-0.293,0.356-0.526,0.765-0.844,1.094c-0.165,0.171-0.457,0.304-0.691,0.304c-0.336,0-0.491-0.296-0.548-0.614
				c-0.024-0.133-0.043-0.269-0.047-0.404c-0.036-1.28-0.745-2.236-1.509-3.172c-0.24-0.295-0.555-0.31-0.877-0.337
				c-4.051-0.34-7.966,0.185-11.718,1.803c-2.848,1.228-5.452,2.811-7.588,5.094c-0.232,0.248-0.455,0.504-0.601,0.876
				c0.239-0.087,0.478-0.174,0.717-0.262c3.224-1.189,6.353-0.173,8.303,2.39c1.428,1.877,1.261,4.635-0.28,6.418
				c-0.506,0.585-1.03,1.157-1.818,1.295c-0.465,0.081-0.978,0.077-1.435-0.033c-0.654-0.156-0.939-0.717-0.836-1.387
				c0.146-0.947,0.971-1.561,1.937-1.438c0.132,0.017,0.261,0.056,0.374,0.081c0.874-1.126,0.709-3.007-0.322-3.961
				c-1.28-1.186-3.556-1.313-5.089-0.247c0.776,0.321,1.469,0.711,2.011,1.341c1.204,1.399,0.926,3.641-0.599,4.658
				c-0.852,0.568-2.007,0.382-2.631-0.424c-0.28-0.362-0.393-0.772-0.317-1.225c0.09-0.545,0.482-0.904,0.984-0.92
				c0.527-0.016,0.841,0.262,0.984,0.869c0.016,0.07,0.034,0.139,0.054,0.22c0.843-0.732,0.806-1.674-0.08-2.209
				c-0.766-0.462-1.573-0.431-2.341-0.049c-1.403,0.698-2.408,1.814-3.221,3.195c0.185,0.283,0.372,0.544,0.533,0.82
				c0.409,0.7,0.268,1.214-0.444,1.626c-0.47,0.272-0.952,0.522-1.419,0.798c-0.286,0.169-0.498,0.385-0.541,0.759
				c-0.544,4.688-0.081,9.226,2.053,13.5c0.508,1.017,1.132,1.975,1.679,2.974c0.086,0.157,0.042,0.385,0.057,0.58
				c-0.2,0.015-0.448,0.112-0.59,0.028c-0.271-0.16-0.528-0.39-0.709-0.648c-0.874-1.247-1.659-2.548-2.226-3.969
				c-0.11-0.276-0.224-0.55-0.362-0.889c-0.579-0.072-1.167-0.151-1.757-0.217c-0.356-0.04-0.717-0.058-0.882-0.455
				c-0.176-0.426,0.04-0.733,0.327-1.009c0.469-0.45,0.944-0.895,1.373-1.3c-0.211-1.543-0.393-2.997-0.612-4.446
				c-0.349-2.306-0.276-4.61,0.042-6.906c0.337-2.431,0.571-4.868,0.32-7.313c-0.432-4.213-1.589-8.205-3.897-11.803
				c-0.334-0.521-0.782-0.97-1.192-1.439c-0.5-0.573-1.021-1.128-1.522-1.699c-0.142-0.162-0.258-0.349-0.367-0.535
				c-0.202-0.343-0.314-0.713-0.082-1.078c0.223-0.351,0.594-0.362,0.951-0.283c1.002,0.224,1.702-0.431,1.657-1.552
				c-0.026-0.648-0.164-1.291-0.243-1.937c-0.085-0.7-0.187-1.4-0.23-2.103c-0.026-0.419,0.092-0.829,0.555-0.99
				c0.42-0.147,0.769,0.062,1.011,0.361c0.75,0.928,1.549,1.832,2.181,2.839c2.862,4.559,4.452,9.523,4.559,14.929
				c0.027,1.351,0.013,2.703,0.018,4.189c0.226-0.268,0.402-0.453,0.55-0.657c2.193-3.033,4.792-5.68,7.627-8.113
				c1.669-1.432,3.368-2.839,4.729-4.59c0.772-0.994,1.388-2.075,1.795-3.27c0.598-1.756,0.407-3.432-0.569-5.002
				c-0.157-0.253-0.447-0.473-0.726-0.59c-0.646-0.271-1.327-0.238-2.001-0.057c-1.338,0.36-2.511,1.025-3.523,1.962
				c-1.136,1.052-2.247,2.131-3.375,3.193c-0.598,0.563-1.221,0.457-1.419-0.326c-0.537-2.125-0.934-4.276,0.103-6.373
				c0.322-0.651,0.695-1.306,1.173-1.847c1.533-1.734,3.782-2.179,6.029-1.249c0.566,0.235,1.102,0.543,1.684,0.834
				c-0.036-1.247-0.076-2.434-0.1-3.621c-0.005-0.24,0.006-0.499,0.089-0.719c0.159-0.423,0.599-0.488,0.917-0.165
				c0.056,0.057,0.102,0.128,0.143,0.197c1.404,2.396,2.682,4.851,3.322,7.58c0.857,3.654,0.16,7.011-2.044,10.036
				c-0.929,1.276-2.011,2.424-3.256,3.409c-0.12,0.095-0.225,0.21-0.461,0.434c0.304-0.084,0.456-0.113,0.597-0.168
				c2.661-1.025,5.325-2.034,8.088-2.768c1.871-0.497,3.666-1.202,5.251-2.351c0.662-0.48,1.291-1.001,1.703-1.728
				c0.396-0.699,0.531-1.421,0.122-2.169c-0.039-0.071-0.074-0.145-0.107-0.22c-0.123-0.275-0.119-0.539,0.129-0.738
				c0.244-0.196,0.513-0.152,0.759,0.007c0.617,0.399,1.025,0.968,1.27,1.649c0.425,1.182,0.285,2.355-0.098,3.517
				c-0.093,0.282-0.21,0.556-0.347,0.916c2.361-0.089,4.672-0.035,6.799-1.155c1.26-0.663,2.051-1.659,2.283-3.083
				c0.103-0.633,0.264-0.829,0.601-0.802c0.367,0.03,0.56,0.355,0.562,0.937c0.005,1.671-0.635,3.001-2.058,3.924
				c-0.154,0.1-0.29,0.227-0.596,0.47c0.661-0.021,1.136-0.036,1.611-0.052c1.527-0.05,3.027-0.283,4.507-0.659
				c1.038-0.264,1.901-0.795,2.57-1.625c0.416-0.517,0.76-1.067,0.52-1.789c-0.107-0.323-0.127-0.669,0.212-0.874
				c0.372-0.226,0.672-0.01,0.945,0.235c0.977,0.875,1.343,1.962,1.05,3.235c-0.389,1.691-1.474,2.869-2.902,3.769
				c-1.754,1.106-3.689,1.698-5.727,1.991C272.557,262.589,272.296,262.628,271.95,262.679z"/>
			<path fill="#E06E82" d="M334.493,229.452c2.859-1.897,5.291-4.133,5.618-7.846c0.031-0.348,0.12-0.697,0.231-1.029
				c0.155-0.466,0.454-0.804,0.991-0.811c0.534-0.007,0.906,0.319,1.019,0.777c0.226,0.916,0.366,1.855,0.506,2.791
				c0.04,0.27-0.042,0.559-0.083,0.999c0.543-0.017,1.059-0.04,1.575-0.048c1.469-0.022,2.635,0.685,3.717,1.572
				c0.349,0.286,0.574,0.663,0.33,1.114c-0.257,0.475-0.685,0.411-1.111,0.251c-1.249-0.467-2.493-0.338-3.744,0.006
				c-1.478,0.406-2.821,1.097-4.114,1.902c-2.512,1.565-5.028,3.123-7.541,4.686c-0.205,0.127-0.4,0.269-0.54,0.549
				c0.348-0.108,0.694-0.227,1.045-0.323c4.976-1.373,9.743-1.021,14.076,1.97c2.648,1.828,3.812,4.492,3.515,7.696
				c-0.175,1.884-1.072,3.412-2.784,4.37c-0.123,0.069-0.242,0.15-0.374,0.197c-0.431,0.152-0.856,0.138-1.162-0.234
				c-0.299-0.365-0.287-0.786-0.025-1.179c0.176-0.264,0.347-0.54,0.569-0.762c2.595-2.596,1.114-6.416-1.064-7.942
				c-1.434-1.005-3.027-1.65-4.76-1.946c-1.186-0.203-2.032,0.474-2.82,1.157c-0.506,0.439-0.377,1.109,0.189,1.682
				c0.743,0.753,1.52,1.473,2.27,2.22c0.34,0.339,0.83,0.656,0.583,1.241c-0.232,0.55-0.796,0.579-1.276,0.554
				c-1.017-0.053-2.041-0.131-3.043-0.303c-2.286-0.394-4.564-0.479-6.832,0.053c-0.776,0.182-1.522,0.493-2.248,0.947
				c0.292-0.003,0.584-0.011,0.877-0.009c1.249,0.009,2.461,0.197,3.586,0.776c1.406,0.724,2.146,1.986,1.972,3.549
				c-0.081,0.727-0.292,1.454-0.545,2.143c-0.299,0.815-1.109,0.983-1.528,0.26c-1.063-1.831-2.778-1.977-4.521-1.78
				c-2.625,0.297-4.824,1.509-6.371,3.71c-0.31,0.441-0.481,1.02-0.582,1.56c-0.742,3.965-0.918,7.987-1.173,12.002
				c-0.193,3.027-0.373,6.062-0.764,9.067c-0.696,5.355-2.959,10.041-6.486,14.118c-0.615,0.71-1.267,1.388-1.904,2.083
				c0.085,0.068,0.134,0.142,0.184,0.142c2.459,0.011,4.387,1.15,6.052,2.845c0.907,0.924,1.398,2.052,1.412,3.331
				c0.037,3.222-1.185,5.896-3.917,7.64c-2.081,1.329-4.402,1.428-6.688,0.389c-1.211-0.55-1.945-1.497-2.03-2.866
				c-0.06-0.963,0.288-1.603,1.011-1.916c0.724-0.314,1.774-0.075,2.337,0.532c0.545,0.587,0.605,1.297,0.181,2.148
				c-0.047,0.094-0.101,0.183-0.2,0.363c0.279,0.089,0.525,0.213,0.782,0.243c2.022,0.23,3.779-0.254,5.091-1.923
				c0.816-1.038,1.487-2.139,1.719-3.468c0.257-1.474-0.085-2.729-1.278-3.696c-0.341-0.277-0.679-0.559-1.165-0.701
				c0.138,0.305,0.281,0.608,0.412,0.916c0.729,1.724,0.673,3.441-0.104,5.129c-0.173,0.376-0.419,0.753-0.725,1.025
				c-0.75,0.665-1.676,0.409-1.841-0.57c-0.302-1.793-1.441-2.512-3.085-2.845c-2.897-0.586-5.75-0.505-8.582,0.329
				c-0.37,0.109-0.722,0.279-1.077,0.435c-3.706,1.627-7.5,2.893-11.608,2.967c-2.831,0.051-5.546-0.431-8.137-1.589
				c-2.161-0.965-4.308-1.957-6.161-3.462c-2.181-1.77-4.13-3.75-5.361-6.322c-0.254-0.53-0.406-1.123-0.508-1.704
				c-0.032-0.18,0.257-0.417,0.4-0.628c0.185,0.133,0.463,0.225,0.54,0.404c1.807,4.181,5.107,6.836,9.047,8.802
				c2.147,1.071,4.349,2.05,6.789,2.258c0.982,0.084,1.97,0.118,2.956,0.145c2.567,0.071,4.478-1.275,6.214-2.949
				c0.611-0.589,0.894-1.35,0.754-2.219c-0.135-0.835-0.527-1.444-1.553-1.601c0.009,0.221,0.034,0.407,0.021,0.589
				c-0.054,0.711-0.496,1.218-1.139,1.324c-0.695,0.115-1.359-0.247-1.633-0.891c-0.344-0.809-0.006-1.78,0.799-2.295
				c1.961-1.254,4.636-0.108,5.143,2.216c0.103,0.472,0.121,0.963,0.208,1.688c0.533-0.764,0.996-1.325,1.346-1.95
				c1.216-2.169,1.745-4.45,1.026-6.918c-0.588-2.018-2.67-2.681-4.321-1.343c-0.27,0.219-0.493,0.502-0.714,0.775
				c-0.483,0.597-0.87,0.757-1.325,0.518c-0.408-0.214-0.613-0.687-0.439-1.296c0.812-2.833,3.743-4.981,6.598-3.259
				c0.059,0.035,0.129,0.051,0.26,0.101c0.196-0.128,0.419-0.29,0.658-0.426c1.82-1.036,3.601-0.727,5.339,0.206
				c0.441,0.237,0.597,0.684,0.478,1.189c-0.113,0.481-0.474,0.683-0.92,0.753c-0.487,0.077-0.988,0.086-1.464,0.202
				c-0.76,0.185-0.852,0.311-0.891,1.088c-0.025,0.492-0.012,0.989,0.02,1.481c0.193,2.926-0.416,5.681-1.731,8.29
				c-0.093,0.185-0.169,0.378-0.13,0.706c0.878-0.604,1.775-1.182,2.629-1.818c3.173-2.363,5.839-5.206,7.888-8.595
				c1.254-2.075,2.104-4.307,2.206-6.771c0.054-1.29-0.128-2.526-0.709-3.699c-0.793-1.599-2.095-2.318-3.843-2.27
				c-0.69,0.019-1.371,0.118-1.922,0.665c0.201-0.003,0.403,0.002,0.604-0.01c1.321-0.078,2.236,0.551,2.804,1.689
				c1.33,2.663-0.405,5.487-3.374,5.521c-2.162,0.025-4.159-1.322-4.857-3.276c-0.737-2.065,0.023-4.551,1.866-5.962
				c2.014-1.541,5.846-2.486,8.937-0.361c1.336,0.918,2.187,2.18,2.739,3.665c0.447,1.203,0.641,2.456,0.585,3.741
				c-0.018,0.417-0.071,0.832-0.108,1.248c0.085,0.019,0.171,0.038,0.256,0.056c0.12-0.345,0.258-0.685,0.356-1.036
				c0.754-2.706,0.94-5.49,1.087-8.275c0.197-3.735,0.296-7.476,0.55-11.207c0.264-3.883,0.836-7.726,2.289-11.371
				c1.459-3.659,3.441-7.011,5.973-10.045c1.443-1.729,3.192-3.062,5.006-4.357c1.807-1.29,3.003-3.055,3.506-5.239
				c0.282-1.222-0.06-2.322-0.89-3.237c-0.914-1.007-2.227-0.928-3.209,0.188c0.333,0.048,0.643,0.06,0.934,0.14
				c0.677,0.187,1.079,0.712,1.103,1.385c0.023,0.657-0.365,1.151-1.086,1.38c-0.945,0.301-2.029-0.07-2.625-0.898
				c-0.793-1.102-0.662-2.595,0.314-3.587c1.803-1.829,4.89-1.523,6.25,0.655c0.92,1.474,1.216,3.069,0.677,4.766
				c-0.043,0.134-0.098,0.265-0.141,0.398C334.567,229.187,334.532,229.32,334.493,229.452z"/>
			<path fill="#E06E82" d="M235.473,212.958c0.63-0.614,1.188-1.091,1.667-1.637c1.166-1.33,2.248-2.736,3.455-4.027
				c1.063-1.138,2.218-2.197,3.389-3.225c0.969-0.85,2.156-1.315,3.409-1.6c0.143-0.032,0.291-0.068,0.436-0.066
				c0.604,0.01,0.906,0.45,0.689,1.018c-0.102,0.268-0.247,0.519-0.422,0.88c0.304,0.004,0.52,0.018,0.736,0.008
				c0.942-0.041,1.883-0.098,2.826-0.13c0.423-0.014,0.853,0.037,1.039,0.501c0.199,0.496-0.094,0.859-0.425,1.163
				c-0.905,0.83-1.988,1.356-3.127,1.786c-1.543,0.582-3.115,1.102-4.609,1.79c-1.387,0.638-2.699,1.445-4.023,2.212
				c-0.448,0.26-0.834,0.626-1.179,1.101c0.431-0.106,0.866-0.201,1.294-0.32c2.557-0.713,5.146-1.297,7.786-1.569
				c2.517-0.26,4.862-1.129,7.268-1.804c3.264-0.915,6.55-1.803,9.966-1.877c1.615-0.035,3.235,0.137,4.85,0.247
				c0.503,0.034,0.803,0.337,0.789,0.684c-0.016,0.416-0.293,0.626-0.66,0.729c-0.255,0.071-0.52,0.103-0.776,0.171
				c-1.091,0.288-2.11,0.699-2.903,1.749c0.391,0.08,0.667,0.141,0.944,0.192c2.886,0.53,5.669,1.359,8.243,2.81
				c2.008,1.131,3.771,2.558,5.074,4.459c2.061,3.008,2.725,6.311,1.636,9.841c-1.237,4.012-5.078,6.084-9.144,5.02
				c-1.239-0.324-2.406-0.802-3.414-1.608c-0.25-0.2-0.503-0.428-0.659-0.699c-0.092-0.16-0.06-0.464,0.038-0.633
				c0.058-0.099,0.378-0.13,0.538-0.074c1.591,0.562,3.249,0.499,4.894,0.552c0.115,0.004,0.232-0.029,0.347-0.051
				c0.016-0.003,0.025-0.04,0.003-0.002c-0.701-0.584-1.394-1.155-2.079-1.736c-0.133-0.113-0.253-0.253-0.344-0.402
				c-0.329-0.538-0.081-1.028,0.551-1.035c0.647-0.008,1.297,0.103,1.941,0.069c0.818-0.043,1.657-0.086,2.442-0.296
				c1.658-0.445,3.076-2.576,2.951-4.286c-0.006-0.076-0.057-0.148-0.15-0.373c-0.336,1.067-0.977,1.728-1.874,2.115
				c-1.153,0.498-2.367,0.471-3.565,0.251c-0.737-0.135-0.964-0.723-0.59-1.425c0.488-0.916,0.928-1.843,1.084-2.88
				c0.039-0.256,0.055-0.515-0.034-0.824c-0.185,0.273-0.362,0.552-0.556,0.818c-1.355,1.865-3.712,2.298-5.644,1.042
				c-0.722-0.47-1.204-1.123-1.453-1.941c-0.334-1.097,0.122-2.121,1.166-2.67c1.17-0.615,2.318-0.448,3.045,0.442
				c0.504,0.617,0.602,1.342,0.254,1.879c-0.353,0.544-1.046,0.794-1.789,0.642c-0.134-0.027-0.266-0.062-0.453-0.106
				c0.785,0.88,2.061,1.008,2.937,0.29c0.918-0.752,1.746-2.098,0.721-3.684c-0.33-0.511-0.75-1.004-1.232-1.369
				c-1.108-0.842-2.328-1.495-3.717-1.774c-3.681-0.74-7.4-1.115-11.152-1.001c-2.678,0.082-5.363,0.18-8.025,0.465
				c-4.076,0.436-8.073,1.313-12.017,2.602c0.066,0.084,0.099,0.176,0.157,0.194c1.761,0.567,3.291,1.572,4.836,2.547
				c0.549,0.346,1.115,0.671,1.629,1.063c0.807,0.616,1.671,0.496,2.529,0.235c0.717-0.218,1.014-0.709,1.007-1.474
				c-0.003-0.354-0.089-0.733,0.374-0.877c0.355-0.11,0.716,0.101,0.994,0.568c0.659,1.105,0.528,2.756-0.305,3.733
				c-0.112,0.131-0.262,0.229-0.451,0.39c1.102,0.594,2.169,0.763,3.268,0.74c0.617-0.013,1.233-0.104,1.848-0.167
				c0.341-0.035,0.667-0.016,0.834,0.336c0.168,0.355-0.03,0.613-0.279,0.851c-1.02,0.971-2.245,1.385-3.634,1.317
				c-1.279-0.063-2.499-0.383-3.776-0.897c0.1,0.249,0.201,0.497,0.301,0.747c0.662,1.663,1.089,3.359,0.825,5.174
				c-0.38,2.617-2.165,4.578-4.576,4.984c-0.231,0.039-0.471,0.07-0.702,0.051c-1.093-0.091-1.692-1.153-1.182-2.117
				c0.191-0.362,0.45-0.692,0.703-1.016c2.114-2.712,2.327-5.672,1.002-8.744c-0.824-1.912-2.357-3.244-4.185-4.277
				c0.064,0.115,0.122,0.234,0.193,0.344c1.253,1.96,1.241,4.003,0.357,6.081c-0.169,0.398-0.443,0.771-0.734,1.096
				c-1.368,1.524-4.371,2.535-6.761,1.474c-0.801-0.356-1.459-0.879-1.954-1.606c-1.588-2.333-0.238-5.305,2.57-5.654
				c1.73-0.215,3.021,0.496,3.646,1.99c0.261,0.625,0.196,1.214-0.153,1.772c-0.874,1.399-3.019,1.475-3.993,0.146
				c-0.116-0.158-0.211-0.331-0.383-0.603c-0.163,0.827,0.146,1.335,0.619,1.752c0.238,0.209,0.529,0.382,0.826,0.497
				c2.005,0.773,4.538-0.542,4.985-2.636c0.558-2.611-0.507-4.102-2.677-4.842c-1.561-0.532-3.143-0.387-4.723-0.121
				c-2.122,0.356-4.233,0.787-6.363,1.076c-1.719,0.234-3.458,0.352-5.193,0.438c-2.028,0.1-4.072,0.239-6.076-0.196
				c-1.291-0.28-2.549-0.709-3.82-1.077c-0.139-0.04-0.316-0.09-0.388-0.196c-0.154-0.227-0.348-0.494-0.347-0.744
				c0.002-0.357,0.314-0.566,0.668-0.582c0.289-0.014,0.587,0.029,0.873,0.086c1.212,0.241,2.411,0.577,3.634,0.731
				c2.63,0.333,5.211,0.168,7.746-0.763c2.535-0.93,4.944-2.06,7.14-3.64c2.461-1.77,3.714-4.193,3.965-7.178
				c0.045-0.529,0.039-1.135,0.706-1.279c0.689-0.149,0.87,0.455,1.131,0.907c1.193,2.061,1.574,4.23,0.868,6.544
				C235.431,212.591,235.452,212.653,235.473,212.958z"/>
			<path fill="#E06E82" d="M296.34,208.256c-0.61-1.119-0.47-2.052,0.045-2.957c0.837-1.469,2.448-1.816,3.819-0.82
				c1.216,0.883,1.642,2.227,1.161,3.658c-0.599,1.78-2.032,2.839-3.907,2.722c-2.157-0.134-3.907-1.025-4.879-3.077
				c-0.892-1.883-0.524-3.967,0.953-5.443c1.245-1.245,2.779-1.902,4.51-2.073c1.377-0.135,2.758-0.087,4.117,0.207
				c3.492,0.756,5.671,2.952,6.759,6.28c0.792,2.421,0.823,4.932,0.656,7.441c-0.2,3.018-0.73,5.983-1.894,8.788
				c-0.721,1.738-1.597,3.411-2.405,5.113c-0.116,0.244-0.245,0.483-0.279,0.834c0.486-0.25,0.972-0.5,1.458-0.75
				c2.038-1.047,4.189-1.632,6.492-1.553c1.219,0.042,2.402,0.289,3.508,0.822c0.88,0.424,1.639,1.001,2.079,1.901
				c0.158,0.323,0.269,0.684,0.321,1.04c0.067,0.463-0.024,0.91-0.492,1.162c-0.453,0.244-0.827,0.027-1.149-0.264
				c-1.883-1.704-4.103-2.005-6.473-1.483c-1.284,0.283-2.531,0.729-3.795,1.101c0.004,0.068,0.009,0.135,0.013,0.203
				c0.193,0.021,0.387,0.068,0.579,0.059c2.047-0.096,3.868,0.631,5.611,1.584c0.534,0.292,1.005,0.722,1.456,1.141
				c1.518,1.411,1.984,3.158,1.527,5.154c-0.377,1.649-1.227,3.073-2.209,4.425c-0.097,0.133-0.227,0.258-0.37,0.339
				c-0.465,0.264-0.919,0.007-0.935-0.535c-0.008-0.279,0.026-0.563,0.07-0.84c0.235-1.471,0.085-2.929-0.249-4.355
				c-0.553-2.362-2.66-4.051-5.121-4.201c-0.04-0.002-0.083,0.045-0.18,0.103c0.205,0.172,0.393,0.327,0.578,0.485
				c1.292,1.108,2.067,2.511,2.338,4.184c0.138,0.851,0.008,1.696-0.307,2.488c-1.051,2.643-2.925,4.378-5.744,4.959
				c-3.326,0.686-6.043-2.155-5.209-5.402c0.429-1.669,1.993-2.874,3.669-2.787c0.384,0.02,0.785,0.117,1.136,0.275
				c1.102,0.497,1.686,1.745,1.347,2.784c-0.399,1.222-1.714,2.094-2.874,1.831c-0.416-0.094-0.786-0.39-1.166-0.589
				c-0.201,0.721,0.141,1.468,0.902,1.815c0.63,0.287,1.288,0.393,1.974,0.209c2.051-0.551,3.424-1.878,4.263-3.782
				c0.33-0.75,0.263-1.537,0.035-2.317c-0.627-2.154-2.565-3.614-4.646-3.422c-1.075,0.1-2.103,0.438-2.983,1.082
				c-1.021,0.748-2.044,1.503-2.99,2.341c-1.854,1.642-3.662,3.336-5.478,5.022c-1.283,1.191-2.452,2.485-3.428,3.943
				c-1.146,1.712-1.729,3.593-1.612,5.66c0.03,0.527,0.197,1.045,0.262,1.572c0.023,0.191-0.001,0.476-0.122,0.579
				c-0.231,0.196-0.487,0.04-0.648-0.18c-0.468-0.641-0.586-1.397-0.618-2.158c-0.101-2.384,0.539-4.559,1.893-6.526
				c1.038-1.507,2.061-3.023,3.099-4.529c0.856-1.242,1.487-2.582,1.809-4.06c0.323-1.482-0.033-2.792-1.044-3.915
				c-0.733-0.813-1.463-0.901-2.396-0.327c-0.096,0.059-0.188,0.166-0.286,0.171c-0.234,0.011-0.507,0.041-0.697-0.061
				c-0.288-0.154-0.324-0.514-0.15-0.742c0.3-0.392,0.631-0.83,1.052-1.042c0.557-0.28,1.214-0.361,1.863-0.537
				c0.115-0.352,0.21-0.796,0.4-1.194c0.549-1.147,1.64-1.567,2.75-1.922c0.351-0.112,0.668,0.05,0.856,0.384
				c0.182,0.323,0.053,0.594-0.171,0.841c-0.019,0.021-0.04,0.04-0.062,0.057c-1.287,0.945-1.367,2.239-1.042,3.642
				c0.14,0.602,0.315,1.196,0.464,1.797c0.334,1.345,0.568,2.699,0.15,4.269c0.299-0.22,0.453-0.303,0.569-0.423
				c0.725-0.747,1.449-1.497,2.161-2.257c1.257-1.342,2.148-2.915,2.565-4.691c0.426-1.814,0.547-3.685,0.197-5.527
				c-0.137-0.72-0.495-1.442-0.91-2.056c-0.71-1.049-1.735-1.264-2.892-0.764c-0.181,0.078-0.354,0.176-0.539,0.239
				c-0.675,0.231-1.19-0.144-1.017-0.827c0.17-0.669,0.424-1.354,0.8-1.927c1.244-1.893,3.651-2.385,5.585-1.212
				c0.819,0.496,1.264,1.264,1.53,2.149c0.413,1.372,0.476,2.774,0.225,4.177c-0.252,1.406-0.568,2.8-0.895,4.388
				c0.265-0.37,0.437-0.584,0.582-0.815c2.601-4.153,4.382-8.604,5.014-13.496c0.323-2.501,0.437-4.99-0.06-7.473
				c-0.389-1.943-1.318-3.595-2.948-4.764c-0.583-0.418-1.262-0.761-1.949-0.963c-1.556-0.457-3.156-0.548-4.757-0.199
				c-0.838,0.183-1.599,0.539-2.244,1.113C293.741,204.963,294.144,207.308,296.34,208.256z"/>
			<path fill="#E06E82" d="M214.709,207.28c-3.597-0.544-5.419-3.435-5.747-5.799c-0.291-2.104,0.65-3.891,2.447-4.578
				c1.897-0.726,4.048,0.639,4.14,2.669c0.019,0.43-0.111,0.906-0.304,1.297c-0.438,0.89-1.246,1.238-2.084,0.993
				c-0.763-0.223-1.425-1.217-1.278-2.067c0.061-0.353,0.325-0.683,0.541-0.991c0.117-0.167,0.328-0.268,0.542-0.434
				c-1.013-0.253-1.913,0.158-2.214,1.095c-0.181,0.563-0.243,1.22-0.155,1.804c0.269,1.786,1.298,3.066,2.883,3.908
				c0.686,0.364,1.416,0.43,2.171,0.314c1.718-0.265,3.141-0.941,3.903-2.646c0.172-0.385,0.506-0.763,0.864-0.985
				c0.495-0.308,0.838-0.151,1.11,0.374c0.116,0.224,0.24,0.495,0.216,0.731c-0.112,1.129,0.611,1.705,1.412,2.237
				c0.214,0.142,0.457,0.243,0.688,0.359c0.352,0.177,0.553,0.45,0.512,0.853c-0.04,0.399-0.291,0.638-0.654,0.765
				c-0.847,0.296-1.656,0.244-2.398-0.297c-0.281-0.205-0.549-0.429-0.875-0.685c-0.269,0.378-0.502,0.72-0.748,1.052
				c-2.566,3.463-6.058,4.875-10.265,4.396c-2.661-0.303-4.802-1.643-6.296-3.936c-1.371-2.104-2.282-4.359-2.317-6.9
				c-0.023-1.694,0.33-3.299,1.53-4.579c0.412-0.439,0.914-0.846,1.454-1.102c1.282-0.609,2.526-0.108,2.979,1.232
				c0.276,0.815,0.408,1.698,0.468,2.561c0.072,1.029-0.015,2.068-0.011,3.102c0.006,1.448,0.216,2.844,1.164,4.022
				c0.972,1.208,2.182,1.885,3.786,1.776C213.047,207.758,213.901,207.677,214.709,207.28z"/>
			<path fill="#E06E82" d="M220.518,235.325c0.897-0.636,1.765-1.126,2.744-1.359c0.468-0.112,0.961-0.203,1.437-0.181
				c1.482,0.069,2.279,1.534,1.567,2.835c-0.359,0.656-0.894,1.162-1.522,1.546c-0.792,0.484-1.609,0.928-2.429,1.363
				c-1.195,0.633-2.367,1.29-3.347,2.25c-0.522,0.511-1.159,0.338-1.428-0.334c-0.025-0.061-0.046-0.125-0.06-0.189
				c-0.385-1.77-0.806-3.534-1.137-5.314c-0.165-0.888-0.165-1.809,0.054-2.705c0.057-0.233,0.138-0.47,0.256-0.678
				c0.373-0.657,1.061-0.898,1.766-0.631c0.496,0.188,0.896,0.521,1.124,0.987c0.31,0.632,0.549,1.298,0.816,1.951
				C220.407,234.981,220.443,235.105,220.518,235.325z"/>
			<path fill="#E06E82" d="M351.044,198.485c1.409-2.488,3.663-3.275,6.203-3.509c0.47-0.043,0.959-0.027,1.423,0.055
				c0.686,0.121,1.162,0.535,1.255,1.26c0.095,0.738-0.308,1.15-0.938,1.491c-0.925,0.501-1.871,1.014-2.673,1.683
				c-1.136,0.948-1.63,2.195-1.205,3.715c0.142,0.506,0.232,1.056,0.19,1.573c-0.026,0.313-0.294,0.756-0.56,0.855
				c-0.249,0.093-0.721-0.106-0.946-0.328c-0.372-0.366-0.623-0.855-0.927-1.29c-1.183-1.69-3.811-2.134-5.494-0.928
				c-0.129,0.093-0.244,0.205-0.368,0.306c-0.54,0.438-1.132,0.608-1.77,0.247c-0.665-0.376-0.954-0.987-0.91-1.736
				c0.072-1.218,0.629-2.209,1.661-3.056c-1.991-0.952-3.985-1.259-5.992-1.308c-2.47-0.059-4.88,0.356-7.051,1.656
				c-1.597,0.956-2.783,2.26-3.492,4.013c-1.157,2.859,1.26,6.229,4.054,6.163c-0.284-0.353-0.508-0.603-0.701-0.875
				c-1.056-1.487-1.211-3.053-0.26-4.631c0.954-1.582,2.375-2.425,4.257-2.28c2.782,0.214,4.768,2.61,4.622,5.509
				c-0.194,3.847-3.367,6.569-7.219,6.192c-4.444-0.435-7.65-3.44-8.118-7.65c-0.228-2.048,0.437-3.892,1.495-5.595
				c1.834-2.952,4.644-4.496,7.955-5.084c5.017-0.892,9.718,0.156,14.109,2.686C350.056,197.857,350.454,198.119,351.044,198.485z"
				/>
			<path fill="#E06E82" d="M216.559,243.236c-0.036,0.362-0.112,0.677-0.468,0.839c-0.339,0.154-0.586-0.032-0.84-0.229
				c-0.63-0.488-1.264-0.97-1.906-1.442c-1.111-0.816-2.178-1.678-2.992-2.807c-0.495-0.686-0.921-1.407-1.047-2.269
				c-0.198-1.354,0.747-2.211,2.054-1.802c0.476,0.149,0.931,0.414,1.347,0.697c0.973,0.663,1.69,1.572,2.196,2.622
				c0.499,1.036,0.934,2.103,1.361,3.172C216.416,242.4,216.463,242.828,216.559,243.236z"/>
		</g>
	</g>
</g>
</svg>
