<?xml version="1.0" encoding="iso-8859-1"?>
<!-- Generator: Adobe Illustrator 21.1.0, SVG Export Plug-In . SVG Version: 6.00 Build 0)  -->
<svg version="1.1" id="Calque_1" xmlns="http://www.w3.org/2000/svg" xmlns:xlink="http://www.w3.org/1999/xlink" x="0px" y="0px"
	 width="432px" height="432px" viewBox="0 0 432 432" enable-background="new 0 0 432 432" xml:space="preserve">
<g>
	<g>
		<g>
			<path fill="#D4B67E" d="M78.916,340.079c14.569,7.819,24.243,10.74,40.435-14.401s19.362-28.802,26.647-54.229
				c5.819-20.311,13.136-48.373,20.788-65.615c-3.998-2.747-4.8-2.929-6.834-4.221c-2.278,2.268-38.809,44.739-46.132,52.794
				s-21.723,20.747-37.589,50.281C64.399,326.693,72.094,336.417,78.916,340.079z"/>
			<path fill="#D4B67E" d="M196.138,251.958c-1.842,11.256-3.797,45.84,6.284,47.064s17.056-31.742,18.03-42.702
				C209.944,254.064,204.046,253.406,196.138,251.958z"/>
			<path fill="#D4B67E" d="M244.341,264.749c3.473,10.864,17.445,42.561,26.981,39.071c9.536-3.49,0.772-36.026-3.34-46.232
				C257.596,260.353,252.043,262.446,244.341,264.749z"/>
		</g>
		<g>
			<path fill="#D4B67E" d="M299.958,126.83c-10.051-0.025-19.914,1.474-29.625,3.959c-20.979,5.369-40.571,13.927-58.724,25.756
				c-3.67,2.392-7.05,5.147-10.259,8.121c-0.448,0.415-0.923,0.807-1.424,1.154c-0.137,0.095-0.448,0.052-0.612-0.043
				c-0.097-0.056-0.141-0.377-0.074-0.512c0.237-0.477,0.491-0.955,0.811-1.379c2.089-2.773,4.567-5.16,7.323-7.259
				c4.367-3.326,9.041-6.177,13.819-8.861c14.069-7.903,28.773-14.309,44.317-18.728c7.674-2.182,15.462-3.791,23.39-4.693
				c5.797-0.659,11.619-0.817,17.437-0.469c7.502,0.45,14.794,1.934,21.687,5.042c5.344,2.41,10.065,5.678,13.771,10.285
				c2.504,3.113,4.402,6.546,5.235,10.488c1.115,5.278,0.049,10.202-2.64,14.794c-2.868,4.899-7.112,8.273-12.223,10.583
				c-4.411,1.994-9.066,3.047-13.908,3.135c-4.725,0.086-9.204-0.842-13.235-3.474c-3.603-2.353-5.969-5.567-6.866-9.794
				c-0.931-4.385,0.468-8.191,3.975-10.594c0.47-0.322,0.983-0.601,1.51-0.817c0.649-0.265,1.221-0.079,1.529,0.396
				c0.322,0.498,0.235,1.025-0.297,1.54c-0.302,0.292-0.639,0.549-0.971,0.809c-2.864,2.249-3.663,5.158-2.74,8.606
				c0.708,2.646,2.161,4.802,4.356,6.442c2.448,1.829,5.22,2.957,8.234,3.269c8.397,0.869,16.061-1.099,22.703-6.413
				c3.87-3.096,6.349-7.126,7.199-12.062c0.54-3.137,0.117-6.175-1.126-9.105c-1.906-4.494-4.97-8.057-8.828-10.971
				c-4.592-3.467-9.784-5.667-15.318-7.102c-5.097-1.322-10.286-2.02-15.553-2.103C301.873,126.817,300.916,126.83,299.958,126.83z"
				/>
			<path fill="#D4B67E" d="M336.814,89.99c-7.37,0.036-14.557,1.302-21.654,3.158c-11.56,3.022-22.571,7.507-33.346,12.608
				c-9.428,4.463-18.444,9.665-27.251,15.242c-1.357,0.859-2.765,1.639-4.167,2.423c-0.359,0.201-0.781,0.321-1.188,0.388
				c-0.167,0.027-0.432-0.146-0.542-0.304c-0.075-0.107-0.017-0.4,0.086-0.518c0.251-0.285,0.558-0.521,0.851-0.767
				c8.54-7.157,18.09-12.734,28.006-17.697c11.139-5.576,22.616-10.346,34.585-13.868c5.22-1.536,10.508-2.786,15.91-3.488
				c7.729-1.005,15.432-1.02,23.058,0.829c3.969,0.962,7.728,2.455,11.207,4.618c2.298,1.429,4.319,3.17,5.994,5.303
				c1.696,2.161,2.586,4.568,2.387,7.358c-0.133,1.865-0.896,3.384-2.271,4.611c-0.639,0.571-1.327,0.638-1.885,0.244
				c-0.543-0.383-0.678-1.042-0.363-1.868c0.109-0.285,0.232-0.571,0.39-0.831c1.061-1.749,0.91-3.56,0.051-5.271
				c-0.557-1.11-1.337-2.153-2.192-3.062c-2.848-3.027-6.458-4.864-10.293-6.299c-4.121-1.542-8.403-2.323-12.781-2.607
				C339.876,90.093,338.344,90.055,336.814,89.99z"/>
			<path fill="#D4B67E" d="M111.561,147.33c0.449,0.907,0.217,1.485-0.041,2.036c-0.584,1.247-1.515,2.199-2.636,2.975
				c-1.827,1.265-3.895,1.774-6.075,1.81c-2.824,0.047-5.571-0.423-8.184-1.525c-5.461-2.304-8.629-6.554-8.712-12.851
				c-0.048-3.635,1.034-7.022,2.851-10.168c3.096-5.361,7.606-9.144,13.171-11.727c4.068-1.888,8.376-2.973,12.814-3.42
				c11.984-1.207,23.614,0.405,34.818,4.812c7,2.753,13.437,6.51,19.054,11.558c4.991,4.485,8.693,9.868,10.902,16.23
				c0.35,1.008,0.556,2.067,0.815,3.106c0.055,0.22,0.131,0.494,0.049,0.675c-0.146,0.319-0.351,0.704-0.636,0.838
				c-0.235,0.11-0.688-0.017-0.924-0.196c-0.288-0.219-0.496-0.581-0.66-0.919c-0.535-1.101-1.07-2.205-1.541-3.334
				c-2.654-6.37-6.739-11.636-12.206-15.831c-8.379-6.43-17.776-10.597-28.138-12.607c-5.241-1.017-10.523-1.595-15.867-1.476
				c-6.058,0.134-11.987,0.982-17.541,3.561c-5.571,2.587-9.855,6.542-12.527,12.138c-1.02,2.136-1.61,4.404-1.646,6.76
				c-0.057,3.765,1.173,7.023,4.299,9.32c3.658,2.689,7.803,3.67,12.272,3.018c2.513-0.367,4.484-1.693,5.669-4.034
				C111.055,147.848,111.274,147.669,111.561,147.33z"/>
			<path fill="#D4B67E" d="M224.543,171.842c-2.483,0.156-6.225,0.396-9.967,0.626c-1.871,0.115-3.743,0.224-5.616,0.306
				c-0.371,0.016-0.779-0.032-1.117-0.176c-0.796-0.338-0.863-1.269-0.127-1.719c0.317-0.194,0.705-0.306,1.076-0.371
				c1.732-0.307,3.459-0.701,5.206-0.85c3.622-0.309,7.253-0.617,10.884-0.674c3.671-0.057,7.35,0.127,11.019,0.322
				c4.778,0.254,9.542,0.696,14.274,1.436c12.188,1.906,23.891,5.31,34.742,11.31c5.125,2.834,9.825,6.239,13.772,10.608
				c3.383,3.745,6.026,7.918,7.265,12.871c1.342,5.367,0.914,10.543-2.19,15.224c-3.768,5.683-9.19,8.409-16.002,8.123
				c-3.202-0.134-6.006-1.45-8.306-3.718c-0.426-0.42-0.749-0.96-1.043-1.487c-0.089-0.16,0.078-0.464,0.128-0.702
				c0.223,0.081,0.511,0.099,0.659,0.252c2.769,2.87,6.242,3.989,10.102,3.777c7.046-0.387,13.004-5.761,14.272-12.7
				c0.712-3.896,0.04-7.621-1.505-11.215c-1.74-4.047-4.442-7.402-7.605-10.412c-4.544-4.324-9.827-7.537-15.463-10.206
				c-7.756-3.672-15.901-6.133-24.302-7.81c-6.585-1.315-13.243-1.991-19.934-2.384
				C231.784,172.099,228.798,172.018,224.543,171.842z"/>
			<path fill="#D4B67E" d="M190.238,121.604c-0.019,7.608-0.875,13.786-1.976,19.936c-0.655,3.66-1.502,7.272-2.889,10.736
				c-0.184,0.46-0.406,0.908-0.647,1.341c-0.18,0.323-0.502,0.573-0.847,0.346c-0.195-0.128-0.304-0.494-0.318-0.76
				c-0.016-0.293,0.117-0.595,0.192-0.891c2.088-8.145,3.437-16.411,3.892-24.806c0.419-7.744-0.224-15.383-2.723-22.787
				c-1.32-3.912-3.133-7.572-5.752-10.787c-3.027-3.715-6.818-6.225-11.581-7.138c-4.417-0.847-8.344,0.256-11.846,3.007
				c-3.216,2.525-5.51,5.659-6.091,9.794c-0.576,4.101,0.006,7.95,2.933,11.154c0.976,1.068,2.134,1.864,3.536,2.257
				c3.943,1.104,7.72-1.631,8.128-5.872c0.073-0.762,0.107-1.531,0.239-2.283c0.084-0.476,0.226-0.998,0.514-1.364
				c0.214-0.272,0.726-0.475,1.067-0.429c0.269,0.037,0.653,0.481,0.686,0.778c0.135,1.211,0.277,2.444,0.194,3.653
				c-0.29,4.185-3.296,7.626-7.408,8.436c-3.361,0.662-6.289-0.361-8.755-2.687c-2.466-2.327-3.783-5.249-4.251-8.577
				c-1.299-9.227,4.301-16.197,11.262-19.408c4.613-2.128,9.293-1.947,13.956-0.165c3.883,1.484,7.08,3.928,9.643,7.192
				c3.466,4.413,5.642,9.443,6.986,14.852C189.671,112.321,190.292,117.594,190.238,121.604z"/>
			<path fill="#D4B67E" d="M209.576,95.478c0.025,6.665-1.012,12.693-2.451,18.658c-2.436,10.105-5.827,19.901-9.681,29.543
				c-0.966,2.417-1.95,4.827-2.928,7.24c-0.101,0.248-0.208,0.495-0.338,0.728c-0.259,0.464-0.669,0.634-1.167,0.469
				c-0.516-0.172-0.708-0.618-0.602-1.1c0.214-0.971,0.451-1.943,0.774-2.881c0.859-2.497,1.799-4.967,2.653-7.465
				c3.096-9.055,6.136-18.127,8.298-27.464c1.072-4.629,1.927-9.298,2.175-14.05c0.232-4.448,0.136-8.883-1.021-13.23
				c-2.001-7.519-6.654-12.796-13.628-16.101c-3.272-1.551-6.655-2.735-10.309-2.968c-0.226-0.014-0.492-0.022-0.664-0.141
				c-0.23-0.16-0.522-0.419-0.536-0.65c-0.013-0.229,0.244-0.628,0.457-0.688c0.876-0.247,1.774-0.498,2.676-0.554
				c1.93-0.12,3.809,0.254,5.65,0.832c5.332,1.675,10.018,4.385,13.745,8.61c3.305,3.747,5.208,8.17,6.158,13.031
				C209.398,90.16,209.635,93.057,209.576,95.478z"/>
		</g>
		<g>
			<path fill="#D4B67E" d="M197.055,192.676c0.178-0.975,0.265-1.978,0.552-2.919c0.772-2.527,2.903-3.677,5.467-3.032
				c2.574,0.648,4.324,2.226,5.163,4.74c1.063,3.187-1.011,6.738-4.27,7.429c-0.897,0.19-1.748,0.063-2.587-0.235
				C198.906,197.78,197.057,195.176,197.055,192.676z M206.303,192.926c-0.122-0.358-0.257-1.002-0.549-1.564
				c-0.756-1.455-2-2.262-3.621-2.496c-1.154-0.167-1.867,0.14-2.302,1.208c-0.297,0.729-0.503,1.534-0.554,2.317
				c-0.126,1.942,1.204,3.659,3.076,4.177c0.967,0.268,1.821,0.063,2.573-0.553C205.804,195.296,206.21,194.33,206.303,192.926z"/>
			<path fill="#D4B67E" d="M210.917,217.015c0.003-0.022,0.01-0.294,0.078-0.549c0.435-1.623,2.566-3.308,4.259-3.382
				c1.8-0.079,3.686,1.405,4.196,3.303c0.479,1.783-0.387,3.624-2.063,4.529C213.911,222.794,210.837,219.749,210.917,217.015z
				 M215.288,215.376c-0.93-0.011-2.186,1.02-2.236,1.835c-0.049,0.782,1.207,2.008,2.101,1.964c1.046-0.052,2.012-0.757,1.993-1.81
				C217.128,216.386,216.212,215.387,215.288,215.376z"/>
			<path fill="#D4B67E" d="M226.327,195.171c-1.768-0.001-2.915-1.186-2.897-2.991c0.015-1.471,1.55-3.027,2.947-2.988
				c1.559,0.043,3.164,1.632,3.141,3.11C229.496,193.768,227.934,195.172,226.327,195.171z M226.376,191.151
				c-0.597,0.01-1.044,0.415-1.056,0.956c-0.016,0.679,0.432,1.143,1.113,1.154c0.609,0.009,1.223-0.452,1.25-0.94
				C227.713,191.765,227.015,191.139,226.376,191.151z"/>
			<path fill="#D4B67E" d="M241.663,178.531c1.251,0.015,2.41,1.306,2.356,2.624c-0.049,1.206-1.331,2.219-2.784,2.199
				c-1.127-0.015-2.216-1.281-2.181-2.535C239.087,179.692,240.427,178.516,241.663,178.531z M242.54,181.052
				c-0.496-0.334-0.73-0.608-0.996-0.644c-0.384-0.052-0.8,0.14-0.746,0.615c0.023,0.204,0.364,0.526,0.554,0.522
				C241.663,181.537,241.968,181.306,242.54,181.052z"/>
		</g>
	</g>
	<g>
		<path d="M173.916,164.817c0.068-0.829,0.057-1.598,0.205-2.336c0.462-2.308,2.558-3.688,4.886-3.264
			c1.333,0.243,2.581,0.732,3.725,1.449c2.92,1.831,5.827,3.683,8.732,5.538c0.483,0.309,0.939,0.663,1.391,1.017
			c0.301,0.235,0.593,0.488,0.855,0.766c2.231,2.363,1.859,4.612-1.006,6.128c-0.266,0.141-0.539,0.268-0.714,0.355
			c0,1.032,0.051,1.984-0.011,2.929c-0.125,1.924-0.881,3.645-1.922,5.229c-1.198,1.823-2.452,3.611-3.726,5.383
			c-0.872,1.212-1.818,2.372-2.733,3.552c-9.712,12.528-16.111,26.605-19.551,42.042c-1.324,5.939-2.379,11.938-3.731,17.869
			c-2.972,13.039-6.555,25.897-11.678,38.288c-3.77,9.118-8.376,17.804-13.388,26.284c-5.677,9.605-11.774,18.934-18.611,27.757
			c-2.015,2.601-4.228,5.052-6.414,7.515c-0.834,0.94-1.806,1.771-2.784,2.567c-3.183,2.595-6.77,3.259-10.684,2.056
			c-1.314-0.404-2.626-0.852-3.879-1.414c-6.854-3.075-13.549-6.457-19.783-10.679c-2.765-1.873-5.371-3.924-7.463-6.589
			c-3.199-4.074-4.536-8.701-4.396-13.818c0.084-3.067,0.925-5.964,2.004-8.802c3.043-8.001,6.8-15.662,11.09-23.06
			c5.908-10.189,12.407-19.98,19.849-29.124c5.5-6.758,11.597-12.961,17.858-19.005c6.836-6.6,13.822-13.048,20.286-20.023
			c8.076-8.715,15.997-17.562,22.939-27.234c4.058-5.653,7.409-11.72,10.416-17.968c1.035-2.15,1.59-4.544,2.239-6.862
			c0.822-2.938,2.635-4.954,5.352-6.229C173.508,165.022,173.742,164.902,173.916,164.817z M146.744,261.047
			c0.126,0.506,0.26,1.021,0.382,1.538c0.132,0.559,0.274,1.116,0.373,1.681c0.321,1.84-0.222,2.591-2.046,2.816
			c-1.33,0.164-2.664,0.289-3.995,0.449c-3.423,0.412-6.832,0.888-10.096,2.087c-0.605,0.222-1.255,0.365-1.896,0.432
			c-1.285,0.135-2.045-0.356-2.465-1.574c-0.274-0.794-0.488-1.612-0.687-2.429c-1.967-8.048-4.361-15.953-7.842-23.495
			c-0.086-0.187-0.21-0.357-0.336-0.569c-12.968,12.007-24.667,24.964-34.044,40.004c1.3,0.54,2.603,1.076,3.902,1.622
			c2.207,0.928,4.502,1.51,6.89,1.668c2.559,0.17,5.126,0.242,7.684,0.423c4.097,0.289,7.993,1.278,11.596,3.342
			c3.648,2.089,6.661,4.889,9.308,8.105c1.314,1.596,2.484,3.31,3.789,4.914c1.255,1.543,2.555,3.056,3.919,4.504
			c1.127,1.196,2.521,2.067,3.986,2.905c9.155-15.609,15.18-32.317,19.621-49.676C153.615,259.684,148.218,260.53,146.744,261.047z
			 M120.668,332.689c4.812-6.893,9.195-13.929,13.377-21.155c-0.321-0.222-0.56-0.404-0.815-0.56
			c-2.373-1.449-4.493-3.2-6.257-5.353c-1.358-1.659-2.687-3.343-3.986-5.048c-1.772-2.325-3.732-4.467-5.973-6.344
			c-3.317-2.778-7.009-4.846-11.343-5.435c-2.685-0.365-5.41-0.485-8.121-0.599c-4.425-0.186-8.658-1.001-12.503-3.335
			c-0.676-0.411-1.4-0.743-2.172-1.147c-4.153,6.516-8.094,13.05-11.394,19.983c2.73,1.626,4.871,3.748,6.754,6.136
			c1.826,2.315,3.557,4.705,5.399,7.006c1.673,2.09,3.384,4.156,5.185,6.136c1.372,1.509,3.05,2.685,4.9,3.56
			c4.502,2.13,9.237,3.453,14.19,3.989C112.167,330.981,116.457,331.237,120.668,332.689z M132.79,227.423
			c0.93,1.915,1.798,3.701,2.728,5.616c6.572-0.096,11.417,3.184,15.02,8.537c2.898-0.61,5.704-0.62,8.577-0.009
			c0.419-1.969,0.818-3.833,1.214-5.698c1.304-6.148,2.856-12.231,5.242-18.058c4.493-10.974,10.118-21.288,17.791-30.419
			c1.718-2.044,3.177-4.313,4.662-6.541c1.059-1.589,1.682-3.393,1.513-5.325c-0.139-1.585,0.249-2.561,1.893-3.137
			c1.687-0.591,1.755-1.474,0.461-2.685c-0.362-0.338-0.767-0.636-1.178-0.914c-0.539-0.365-1.105-0.687-1.655-1.036
			c-2.459-1.557-4.893-3.154-7.385-4.656c-0.938-0.565-1.975-1.02-3.025-1.332c-1.187-0.353-1.741,0.083-1.903,1.286
			c-0.071,0.527-0.063,1.07-0.044,1.604c0.044,1.277-0.071,1.445-1.235,2.026c-0.82,0.409-1.641,0.835-2.399,1.345
			c-1.211,0.816-2.063,1.93-2.436,3.37c-0.144,0.556-0.27,1.117-0.439,1.665c-0.662,2.155-1.118,4.407-2.05,6.44
			c-2.714,5.923-5.814,11.652-9.53,17.017c-5.988,8.646-12.791,16.636-19.845,24.418
			C136.787,223.123,134.772,225.275,132.79,227.423z M70.638,305.671c-0.152,0.164-0.223,0.211-0.254,0.277
			c-2.09,4.43-4.225,8.853-5.486,13.605c-1.507,5.68-0.397,10.903,3.099,15.631c1.806,2.442,4.159,4.268,6.618,5.976
			c5.585,3.88,11.644,6.909,17.801,9.738c1.936,0.889,3.974,1.599,6.026,2.178c2.383,0.672,4.653,0.171,6.595-1.393
			c1.129-0.91,2.213-1.895,3.203-2.954c4.008-4.29,7.521-8.976,10.86-13.797c0.096-0.139,0.149-0.308,0.251-0.525
			c-0.321-0.077-0.536-0.137-0.755-0.18c-3.464-0.687-6.984-0.876-10.493-1.116c-4.867-0.333-9.491-1.524-13.935-3.535
			c-3.306-1.496-6.161-3.557-8.487-6.328c-1.525-1.817-2.972-3.7-4.461-5.548c-2.329-2.892-4.613-5.822-7.02-8.647
			C73.144,307.811,71.833,306.79,70.638,305.671z M135.614,235.471c-3.021-0.191-6.836,1.788-7.756,5.764
			c-1.013,4.379,0.298,7.937,3.715,10.727c2.158,1.762,4.645,2.979,7.354,3.625c1.363,0.325,2.799,0.513,4.196,0.487
			c2.756-0.051,4.803-1.372,5.993-3.908c0.701-1.493,0.874-3.063,0.747-4.701c-0.4-5.142-5.268-10.18-9.95-11.331
			C138.511,235.789,137.049,235.686,135.614,235.471z M119.896,240.288c1.106,2.36,2.262,4.564,3.19,6.861
			c2.386,5.903,4.077,12.026,5.512,18.223c0.178,0.768,0.384,1.529,0.576,2.289c2.758-0.677,5.364-1.443,8.021-1.933
			c2.66-0.491,5.37-0.708,8.167-1.059c-0.408-2.014-0.814-4.019-1.206-5.951c-0.121-0.077-0.152-0.112-0.185-0.115
			c-0.152-0.013-0.304-0.026-0.456-0.022c-5.096,0.133-9.633-1.571-13.452-4.772c-4.229-3.544-5.968-8.14-4.41-13.682
			c0.872-3.1,2.846-5.184,5.798-6.38c0.56-0.227,1.141-0.402,1.807-0.634c-0.703-1.326-1.386-2.614-2.092-3.945
			C127.319,232.962,123.588,236.644,119.896,240.288z M155.444,257.34c1.181-4.446,2.255-8.883,3.155-13.437
			c-2.398-0.447-4.665-0.31-7.022-0.264c0.123,0.474,0.198,0.805,0.296,1.129c0.519,1.713,0.672,3.468,0.412,5.227
			c-0.539,3.644-2.24,6.475-5.81,7.915c-0.137,0.055-0.26,0.144-0.476,0.266c0.11,0.382,0.217,0.754,0.33,1.147
			C149.34,258.183,152.306,257.492,155.444,257.34z"/>
		<path d="M191.004,350.28c1.307-2.084,2.126-4.336,2.635-6.708c0.837-3.897,1.333-7.841,1.69-11.81
			c0.367-4.076,0.758-8.154,1.273-12.213c0.693-5.458-0.148-10.665-2.159-15.744c-1.366-3.451-2.744-6.903-3.938-10.415
			c-1.942-5.709-3.237-11.57-3.544-17.616c-0.155-3.056-0.436-6.122-0.331-9.172c0.111-3.203,0.515-6.407,0.968-9.585
			c1.329-9.317,3.828-18.347,6.896-27.228c0.412-1.193,0.846-2.381,1.203-3.591c0.285-0.965,0.966-1.412,1.865-1.407
			c1.332,0.007,2.68,0.063,3.993,0.277c6.271,1.023,12.534,2.093,18.795,3.177c1.885,0.326,3.754,0.743,5.627,1.134
			c0.448,0.094,0.888,0.235,1.323,0.381c2.006,0.674,2.355,1.229,2.294,3.383c-0.191,6.698-0.836,13.363-1.381,20.036
			c-0.452,5.538-1.24,11.023-2.282,16.477c-2.029,10.624-6.129,20.421-11.802,29.59c-0.987,1.596-1.99,3.182-2.979,4.777
			c-3.433,5.541-5.551,11.563-6.687,17.968c-1.111,6.259-1.978,12.548-2.551,18.878c-0.238,2.627-0.446,5.259-0.591,7.892
			c-0.047,0.862,0.148,1.738,0.234,2.623c1.545,0.347,2.997,0.673,4.449,0.998c2.105,0.472,4.105,1.247,6.004,2.247
			c0.902,0.475,1.782,1.077,2.504,1.791c1.45,1.435,1.432,3.427,0.088,4.965c-1.046,1.197-2.409,1.756-3.962,1.805
			c-3.678,0.116-7.355,0.056-11.017-0.32c-3.159-0.324-6.322-0.642-9.467-1.08c-3.311-0.461-6.52-1.358-9.561-2.768
			c-0.895-0.415-1.784-0.914-2.546-1.534c-1.948-1.585-1.928-3.759-0.012-5.394c1.104-0.943,2.423-1.487,3.826-1.749
			c2.919-0.545,5.852-0.674,8.784-0.043C190.717,350.319,190.797,350.295,191.004,350.28z M202.491,354.555
			c0.225,0.534,0.322,0.779,0.43,1.02c0.125,0.28,0.277,0.548,0.384,0.834c0.259,0.697,0.143,1.24-0.309,1.549
			c-0.493,0.337-1.088,0.234-1.606-0.402c-0.505-0.62-1.005-1.272-1.353-1.986c-1.34-2.741-1.87-5.67-1.665-8.699
			c0.186-2.748,0.449-5.493,0.787-8.227c0.663-5.354,1.338-10.708,2.128-16.044c0.992-6.693,3.124-13.016,6.547-18.874
			c1.352-2.314,2.779-4.585,4.172-6.876c4.709-7.743,8.344-15.941,10.287-24.819c1.615-7.378,2.359-14.886,3.076-22.392
			c0.429-4.495,0.882-8.987,1.296-13.484c0.125-1.359,0.304-2.729,0.031-4.192c-2.205-0.398-4.378-0.826-6.563-1.177
			c-6.914-1.112-13.865-2.015-20.696-3.607c-0.506-0.118-1.041-0.11-1.544-0.158c-0.559,2.028-1.066,3.949-1.619,5.856
			c-2.456,8.458-4.823,16.936-5.94,25.704c-0.431,3.382-0.815,6.775-0.733,10.183c0.07,2.942,0.353,5.88,0.579,8.816
			c0.496,6.431,2.187,12.575,4.51,18.564c1.163,2.997,2.353,5.985,3.471,8.999c1.53,4.125,1.999,8.411,1.632,12.773
			c-0.353,4.192-0.857,8.372-1.253,12.561c-0.393,4.154-0.85,8.296-1.644,12.398c-0.572,2.952-1.377,5.809-2.959,8.399
			c-0.891,1.459-2.002,2.712-3.465,3.617c-0.579,0.358-1.22,0.522-1.828,0.065c-0.588-0.442-0.545-1.042-0.321-1.664
			c0.018-0.051-0.038-0.129-0.086-0.271c-2.53-0.479-5.058-0.392-7.54,0.451c-0.386,0.131-0.762,0.371-1.068,0.644
			c-0.47,0.418-0.475,0.765,0.027,1.141c0.547,0.409,1.153,0.756,1.773,1.045c2.301,1.074,4.722,1.814,7.21,2.273
			c7.022,1.297,14.113,1.885,21.251,1.924c0.458,0.003,0.929-0.014,1.37-0.12c0.438-0.105,0.887-0.272,1.258-0.522
			c0.565-0.38,0.621-0.889,0.127-1.35c-0.441-0.412-0.954-0.782-1.496-1.045c-1.998-0.971-4.035-1.853-6.217-2.342
			C204.199,354.957,203.467,354.782,202.491,354.555z"/>
		<path d="M233.906,124.685c-1.2-0.269-2.118,0.214-2.817,1.128c-0.627,0.819-1.21,1.674-1.765,2.544
			c-0.782,1.226-1.458,2.524-2.291,3.713c-1.792,2.56-3.697,3.121-6.433,1.612c-3.479-1.919-6.559-4.398-8.867-7.686
			c-0.624-0.889-1.011-1.969-1.377-3.006c-0.464-1.313-0.118-2.526,0.9-3.459c0.758-0.694,1.595-1.313,2.449-1.888
			c1.142-0.769,2.355-1.434,3.496-2.204c0.565-0.381,1.077-0.861,1.543-1.362c0.577-0.62,0.802-1.378,0.591-2.233
			c-0.401-1.619-0.082-3.125,0.792-4.509c1.769-2.804,4.23-4.823,7.251-6.14c1.6-0.698,3.295-0.723,4.956-0.229
			c3.824,1.138,7.097,3.217,9.88,6.05c1.719,1.75,2.227,3.918,1.659,6.27c-0.911,3.767-2.839,7.011-5.449,9.838
			C237.231,124.415,235.619,124.769,233.906,124.685z M225.256,130.349c0.253-0.384,0.468-0.681,0.654-0.996
			c0.584-0.988,1.1-2.022,1.75-2.964c0.691-1.003,1.447-1.976,2.282-2.86c0.875-0.927,2.022-1.353,3.32-1.298
			c0.306,0.013,0.614-0.005,0.918,0.026c1.274,0.129,2.205-0.404,2.939-1.419c1.577-2.182,2.898-4.502,3.873-7.014
			c0.151-0.39,0.245-0.804,0.35-1.211c0.398-1.546,0.045-2.883-1.146-3.966c-2.407-2.188-5.125-3.862-8.215-4.904
			c-1.191-0.402-2.421-0.514-3.6-0.026c-2.679,1.109-4.878,2.841-6.491,5.274c-0.418,0.63-0.572,1.321-0.466,2.079
			c0.354,2.532-0.597,4.498-2.668,5.93c-1.258,0.87-2.566,1.668-3.836,2.52c-0.634,0.425-1.235,0.899-1.851,1.351
			c-0.654,0.48-0.813,1.142-0.48,1.829c0.43,0.886,0.864,1.81,1.491,2.554c1.988,2.36,4.438,4.206,6.995,5.906
			c0.587,0.39,1.229,0.739,2.208,0.733c-0.253-0.65-0.358-1.23-0.671-1.66c-0.649-0.892-1.301-1.834-2.143-2.522
			c-1.625-1.328-3.38-2.495-5.085-3.724c-0.248-0.179-0.552-0.298-0.754-0.515c-0.162-0.174-0.344-0.514-0.274-0.674
			c0.1-0.229,0.423-0.508,0.648-0.505c0.483,0.007,0.989,0.116,1.441,0.297c2.04,0.815,3.901,1.938,5.565,3.38
			c1.26,1.092,2.318,2.332,2.953,3.897C225.018,130,225.114,130.117,225.256,130.349z"/>
		<path d="M284.44,354.67c0.217-2.45-0.076-4.829-0.7-7.173c-1.025-3.852-2.375-7.591-3.86-11.288
			c-1.525-3.798-3.03-7.608-4.415-11.458c-1.862-5.177-4.978-9.434-9.076-13.044c-2.785-2.454-5.58-4.903-8.24-7.488
			c-4.324-4.204-8.141-8.837-11.161-14.083c-1.527-2.652-3.17-5.255-4.462-8.02c-1.357-2.904-2.453-5.941-3.493-8.978
			c-3.049-8.904-4.926-18.083-6.228-27.389c-0.175-1.25-0.328-2.506-0.56-3.746c-0.185-0.989,0.219-1.697,1.022-2.101
			c1.19-0.599,2.417-1.161,3.683-1.567c6.051-1.938,12.117-3.83,18.187-5.71c1.827-0.566,3.682-1.044,5.528-1.546
			c0.442-0.12,0.898-0.194,1.351-0.261c2.093-0.311,2.656,0.024,3.58,1.971c2.873,6.053,5.326,12.284,7.873,18.476
			c2.114,5.139,3.903,10.384,5.454,15.715c3.02,10.386,3.819,20.976,2.931,31.722c-0.154,1.87-0.328,3.739-0.483,5.609
			c-0.541,6.496,0.309,12.823,2.207,19.045c1.854,6.081,3.939,12.077,6.305,17.976c0.982,2.448,1.992,4.887,3.06,7.299
			c0.35,0.79,0.922,1.481,1.4,2.23c1.534-0.393,2.975-0.762,4.417-1.132c2.09-0.536,4.224-0.755,6.369-0.726
			c1.019,0.014,2.077,0.149,3.044,0.458c1.943,0.62,2.833,2.403,2.334,4.384c-0.388,1.542-1.348,2.659-2.709,3.408
			c-3.224,1.774-6.526,3.391-9.96,4.721c-2.962,1.147-5.923,2.301-8.924,3.339c-3.159,1.093-6.425,1.753-9.775,1.878
			c-0.986,0.037-2.004-0.004-2.965-0.21c-2.455-0.527-3.425-2.473-2.462-4.8c0.555-1.341,1.483-2.426,2.614-3.297
			c2.352-1.812,4.907-3.259,7.805-4.029C284.202,354.834,284.262,354.777,284.44,354.67z M296.615,353.259
			c0.443,0.374,0.641,0.548,0.846,0.713c0.238,0.192,0.496,0.362,0.721,0.569c0.548,0.503,0.691,1.04,0.429,1.52
			c-0.286,0.524-0.863,0.703-1.613,0.372c-0.731-0.323-1.473-0.677-2.108-1.154c-2.439-1.833-4.242-4.201-5.436-6.993
			c-1.083-2.532-2.096-5.098-3.036-7.686c-1.841-5.071-3.673-10.147-5.393-15.259c-2.157-6.413-3.131-13.015-2.743-19.788
			c0.153-2.676,0.392-5.347,0.592-8.02c0.677-9.037,0.19-17.991-2.113-26.784c-1.914-7.306-4.662-14.332-7.434-21.345
			c-1.66-4.199-3.297-8.407-4.972-12.6c-0.506-1.268-0.969-2.569-1.876-3.748c-2.145,0.647-4.275,1.253-6.381,1.933
			c-6.665,2.151-13.266,4.504-20.075,6.19c-0.504,0.125-0.977,0.375-1.447,0.56c0.423,2.06,0.845,4.002,1.218,5.953
			c1.655,8.651,3.399,17.278,6.387,25.596c1.152,3.208,2.353,6.405,3.974,9.404c1.399,2.589,2.986,5.078,4.522,7.591
			c3.364,5.503,7.662,10.208,12.452,14.488c2.398,2.142,4.816,4.262,7.181,6.439c3.237,2.979,5.602,6.585,7.257,10.637
			c1.59,3.895,3.041,7.847,4.591,11.759c1.537,3.879,3.013,7.776,4.168,11.791c0.832,2.889,1.413,5.8,1.18,8.827
			c-0.131,1.704-0.551,3.326-1.444,4.797c-0.353,0.582-0.849,1.02-1.599,0.888c-0.724-0.127-0.959-0.681-1.042-1.337
			c-0.007-0.054-0.093-0.098-0.2-0.203c-2.472,0.723-4.684,1.949-6.512,3.828c-0.284,0.293-0.51,0.677-0.659,1.059
			c-0.228,0.586-0.076,0.898,0.543,1.004c0.673,0.116,1.37,0.15,2.054,0.126c2.538-0.089,5.03-0.53,7.456-1.251
			c6.845-2.035,13.429-4.733,19.806-7.941c0.409-0.206,0.821-0.435,1.166-0.729c0.342-0.292,0.667-0.646,0.884-1.036
			c0.331-0.596,0.149-1.074-0.5-1.261c-0.58-0.167-1.205-0.263-1.808-0.251c-2.221,0.043-4.436,0.182-6.602,0.739
			C298.319,352.841,297.588,353.017,296.615,353.259z"/>
	</g>
</g>
</svg>
