<?xml version="1.0" encoding="utf-8"?>
<!-- Generator: Adobe Illustrator 21.1.0, SVG Export Plug-In . SVG Version: 6.00 Build 0)  -->
<svg version="1.1" id="Calque_1" xmlns="http://www.w3.org/2000/svg" xmlns:xlink="http://www.w3.org/1999/xlink" x="0px" y="0px"
	 viewBox="0 0 432 432" style="enable-background:new 0 0 432 432;" xml:space="preserve">
<style type="text/css">
	.st0{fill:#1A1A1A;}
	.st1{fill:#F486A1;}
	.st2{fill:#CCCCCC;}
	.st3{fill:#3F3531;}
	.st4{fill:#BC4662;}
	.st5{fill:#6BAE3D;}
	.st6{fill:#F8982A;}
	.st7{fill:#BA61BB;}
	.st8{fill:#16BACB;}
	.st9{fill:#C4DA6D;}
	.st10{fill:#5C62B8;}
	.st11{fill:#8F99F2;}
	.st12{fill:#ED5F7D;}
	.st13{fill:#5A9100;}
	.st14{fill:#E2B8E0;}
	.st15{fill:#F8BE74;}
	.st16{fill:#43934A;}
	.st17{fill:#F55D00;}
	.st18{fill:#456F01;}
	.st19{fill:#333333;}
	.st20{fill:#9BE0ED;}
	.st21{fill:#A67C52;}
	.st22{fill:#42210B;}
	.st23{fill:#999999;}
	.st24{fill:#8F1A53;}
	.st25{fill:#E38BA4;}
	.st26{fill:#4D4D4D;}
	.st27{fill:#DF5376;}
	.st28{fill:#E5445E;}
	.st29{fill:#EDBAC9;}
	.st30{fill:#E7D3D5;}
	.st31{fill:#C1272D;}
	.st32{fill:#BC2A34;}
	.st33{fill:#AB827E;}
	.st34{fill:#75614D;}
	.st35{fill:#4F4A41;}
	.st36{fill:#7E7163;}
</style>
<g>
	<g>
		<g>
			<path class="st0" d="M129.1,99.7c-0.4-1.2-0.4-2.8-0.2-4.6c0.1-0.6,0.2-1.4,0.4-2.5c0.2-1.1,0.3-1.9,0.4-2.4
				c0-0.2,0.1-0.4,0.3-0.5c0.1-0.1,0.3-0.1,0.6-0.1c0.2,0,0.4,0.1,0.5,0.3c0.1,0.1,0.1,0.3,0.1,0.5c-0.1,0.5-0.2,1.3-0.4,2.4
				c-0.2,1.1-0.3,1.9-0.4,2.5c-0.2,1.6-0.1,2.9,0.2,4c0.5,1.5,1.4,2.7,2.9,3.5c2.9,1.7,5.4,0.7,6.8-1.8c0.7-1.3,1.2-3.1,1.4-5.3
				c0.2-1.9,0.1-3.9-0.2-5.9c-0.6-3.7-1.7-5-2.6-5.7c-0.3-0.2-0.6-0.5-1-0.8c-0.1-0.1-0.1-0.1-0.2-0.2c-0.1-0.1-0.2-0.1-0.3-0.2
				c-0.2-0.2-0.4-0.3-0.5-0.4c-0.8-0.6-1.4-1.1-1.9-1.6c-1.5-1.3-2.5-2.5-3.1-3.5c-0.5-0.9-0.8-1.7-0.9-2.6l0-0.3
				c0-0.5,0.1-1,0.2-1.4c0.3-1.4,1.1-2.6,2.3-3.7c0.1-0.1,0.1-0.2,0.2-0.2c0.9-0.8,2-1.3,3.2-1.7c1.5-0.5,2.9-0.5,4.2,0
				c1.3,0.5,2.4,1.4,3.1,2.7c0.6,1.1,1.1,2.7,1.3,4.9c0,0.4,0.1,1,0.1,1.8c0.1,0.9,0.1,1.6,0.2,2c0,0.2,0,0.4-0.1,0.6
				c-0.1,0.1-0.3,0.2-0.5,0.3c-0.2,0-0.4,0-0.6-0.1c-0.1-0.1-0.2-0.3-0.3-0.5c-0.1-0.4-0.1-1.1-0.2-2.1c-0.1-0.8-0.1-1.4-0.1-1.7
				c-0.2-2-0.6-3.4-1.1-4.4c-0.5-0.9-1.2-1.5-2-1.9H141c-1-0.1-1.7,0.3-2.4,1.4c-0.6,1.1-1,2.6-1.2,4.5c-0.1,1.8,0,3.5,0.4,5
				c0.7,2.4,3.1,3.9,5.1,5.9c1.1,1.1,2.1,2.3,2.7,3.5c1.6,2.7,2.1,5.8,1.5,9.1c0,0,0,0.1,0,0.2c0,0.1,0,0.2-0.1,0.3
				c-0.4,1.9-1.5,3.4-3.2,4.6c-1.6,1.1-3.4,1.6-5.5,1.7c-0.2,0-0.4,0-0.6,0c-1.9,0-3.5-0.4-5-1.2
				C130.9,103.1,129.7,101.6,129.1,99.7z"/>
			<path class="st0" d="M151.1,70.1c0-0.1,0-0.2,0.1-0.3c0,0,0-0.1,0-0.1c0-0.2,0-0.4,0.1-0.5c0.1-0.1,0.3-0.2,0.5-0.3l1.1-0.1
				c0.4-0.1,0.7-0.1,0.9-0.1c1.3-0.1,2,0,2.5,0.2c0.2,0.1,0.4,0.4,0.4,0.7c0,0,0,0.1,0,0.1c0.5,3.9,0.8,9.4,0.8,16.5
				c0,1.9,0,4.5,0,7.9c0,0.3,0,0.5,0,0.8c1.2-0.4,2.8-0.7,4.9-0.7c0.7,0,1.8,0,3.2,0h0.4c0-1.9,0-4.2,0-6.7
				c0.1-5.7,0.2-11.7,0.5-17.9c0-0.2,0.1-0.4,0.2-0.5c0.1-0.1,0.3-0.2,0.5-0.2c0.4,0,0.7,0.3,0.7,0.7c-0.3,6.3-0.4,12.3-0.5,17.9
				c-0.1,9.5,0.2,14.9,0.7,16c0.1,0.2,0.1,0.4,0.1,0.6c-0.1,0.2-0.2,0.3-0.4,0.4c-0.4,0.2-0.8,0.1-1-0.3c-0.5-1-0.7-3.7-0.8-8.5
				h-0.4c-1.4,0-2.4,0-3.2,0c-2.2,0.1-3.8,0.3-4.8,0.8c0,0-0.1,0-0.1,0c0,2.1,0,3.8,0,5c0,0,0,0.1,0,0.2l0,0.3c0,0.1,0,0.1,0,0.1
				c0,0,0,0.1,0,0.2v0.4c0,0.4,0,0.7,0,0.9c0,0.2,0,0.3-0.1,0.5c0,0.2-0.1,0.4-0.3,0.5c-0.3,0.3-0.9,0.5-2,0.5c-0.3,0-0.6,0-0.9,0
				c-0.3,0-0.6,0-0.9,0l-0.2,0c0,0-0.1,0-0.1,0c-0.1,0-0.1,0-0.1,0l-0.3,0c-0.2,0-0.4,0-0.5,0c-0.4,0-0.7-0.3-0.7-0.7
				C151.4,91.6,151.2,80.8,151.1,70.1z"/>
			<path class="st0" d="M172,88.2c-0.1-4.1-0.1-7.6,0-10.2c0.1-3.4-0.1-5,0.8-7.8c0.5-1.8,11.7-1.7,12.5-1.7c0.5,0,1.2,0.1,2.1,0.1
				c1.5,0.1,2.7,0.1,3.5,0.1c0.4,0,0.7,0.3,0.7,0.7c0,0.4-0.3,0.7-0.7,0.7c-0.8,0-1.9,0-3.5-0.1c-0.9,0-1.6-0.1-2.1-0.1
				c-1.9,0-3.5,0-4.8,0.2c0,0.1,0,0.1,0,0.2v0.3c0,0,0,0.1,0,0.1l0,0.1c0,4.6-0.2,23.5-0.2,25.2c0,0,0.1,0,0.1,0
				c4.7,0.2,6.3,0,7.1,0c0.4,0,0.7,0.3,0.7,0.7c0,0.4-0.3,0.7-0.7,0.7c-0.9,0-2.9,0.2-7.2-0.1c0,0,0,0,0,0c0,2.1,0,4.2,0,6.3
				c0,0,0,0.1,0,0.1c0.9-0.2,2-0.2,3.1-0.3c0.9,0,2.2,0,4,0h0.1c2.8,0,4.9,0,6.2-0.2c0.2,0,0.4,0,0.6,0.1c0.1,0.1,0.2,0.3,0.3,0.5
				c0,0.4-0.2,0.8-0.6,0.8c-1.4,0.2-3.6,0.3-6.4,0.2h-0.1c-1.8,0-3.1,0-3.9,0c-1.2,0.1-9.4,0.5-10.3,0c-0.8-0.2-0.6-1.4-0.8-11.1
				C172.1,91.6,172,89.7,172,88.2z"/>
			<path class="st0" d="M199.6,73.5c-0.5,0.6-1,0.7-1.5,0.3c-0.4-0.3-0.5-0.9-0.2-1.5c0.3-0.5,0.6-0.9,0.8-1.6
				c-0.6,0.2-1.1,0.1-1.5,0c-1-0.3-1.8-1.3-1.9-2.3c-0.1-1.4,0.5-2.7,1.7-3.3c1-0.5,2.2-0.4,3.1,0.3c0.7,0.6,1,1.4,1.2,2.3
				C201.6,69.9,201,71.8,199.6,73.5z"/>
			<path class="st0" d="M204.1,99.7c-0.4-1.2-0.4-2.8-0.2-4.6c0.1-0.6,0.2-1.4,0.4-2.5c0.2-1.1,0.3-1.9,0.4-2.4
				c0-0.2,0.1-0.4,0.3-0.5c0.1-0.1,0.3-0.1,0.6-0.1c0.2,0,0.4,0.1,0.5,0.3c0.1,0.1,0.1,0.3,0.1,0.5c-0.1,0.5-0.2,1.3-0.4,2.4
				c-0.2,1.1-0.3,1.9-0.4,2.5c-0.2,1.6-0.1,2.9,0.2,4c0.5,1.5,1.4,2.7,2.9,3.5c2.9,1.7,5.4,0.7,6.8-1.8c0.7-1.3,1.2-3.1,1.4-5.3
				c0.2-1.9,0.1-3.9-0.2-5.9c-0.6-3.7-1.7-5-2.6-5.7c-0.3-0.2-0.6-0.5-1-0.8c-0.1-0.1-0.1-0.1-0.2-0.2c-0.1-0.1-0.2-0.1-0.3-0.2
				c-0.2-0.2-0.4-0.3-0.5-0.4c-0.8-0.6-1.4-1.1-1.9-1.6c-1.5-1.3-2.5-2.5-3.1-3.5c-0.5-0.9-0.8-1.7-0.9-2.6l0-0.3
				c0-0.5,0.1-1,0.2-1.4c0.3-1.4,1.1-2.6,2.3-3.7c0.1-0.1,0.1-0.2,0.2-0.2c0.9-0.8,2-1.3,3.2-1.7c1.5-0.5,2.9-0.5,4.2,0
				c1.3,0.5,2.4,1.4,3.1,2.7c0.6,1.1,1.1,2.7,1.3,4.9c0,0.4,0.1,1,0.1,1.8c0.1,0.9,0.1,1.6,0.2,2c0,0.2,0,0.4-0.1,0.6
				c-0.1,0.1-0.3,0.2-0.5,0.3c-0.2,0-0.4,0-0.6-0.1c-0.1-0.1-0.2-0.3-0.3-0.5c-0.1-0.4-0.1-1.1-0.2-2.1c-0.1-0.8-0.1-1.4-0.1-1.7
				c-0.2-2-0.6-3.4-1.1-4.4c-0.5-0.9-1.2-1.5-2-1.9h-0.1c-1-0.1-1.7,0.3-2.4,1.4c-0.6,1.1-1,2.6-1.2,4.5c-0.1,1.8,0,3.5,0.4,5
				c0.7,2.4,3.1,3.9,5.1,5.9c1.1,1.1,2.1,2.3,2.7,3.5c1.6,2.7,2.1,5.8,1.5,9.1c0,0,0,0.1,0,0.2c0,0.1,0,0.2-0.1,0.3
				c-0.4,1.9-1.5,3.4-3.2,4.6c-1.6,1.1-3.4,1.6-5.5,1.7c-0.2,0-0.4,0-0.6,0c-1.9,0-3.5-0.4-5-1.2
				C205.8,103.1,204.6,101.6,204.1,99.7z"/>
			<path class="st0" d="M260.3,88.6c-0.5,2.9-1.2,5.6-2,8.1c-1.1,3.2-2.5,5.6-3.9,7c-1.1,1.1-2.2,1.6-3.4,1.6c-0.9,0-1.9-0.3-2.9-1
				c-2.3-1.5-4-4.3-5-8.3c-1-3.7-1.2-7.7-0.8-11.9c0.8-7.3,4-15.8,11.5-15.8c1.6,0,2.9,0.6,3.9,1.8c0.7,0.9,1.2,2.2,1.6,3.8
				c0.1,0.4-0.1,0.8-0.6,0.9c-0.2,0-0.4,0-0.6-0.1c-0.2-0.1-0.3-0.3-0.3-0.5c-0.3-1.4-0.7-2.5-1.3-3.3c-0.7-0.9-1.6-1.3-2.8-1.3
				c-1.2,0-2.4,0.3-3.4,0.9c0.3,8.7,0.1,18.8,0.3,26.2c0.1,2.6,0.2,4.7,0.3,6.1c0,0.2,0.1,0.4,0.1,0.5l0,0.2c0,0.1,0.1,0.2,0.1,0.3
				c0,0,0,0,0,0c0.8-0.1,1.5-0.4,2.3-1.2c1.3-1.3,2.5-3.4,3.5-6.4c0.8-2.4,1.5-5,2-7.8c0.2-1.1,0.3-2,0.4-2.8c0-0.3,0-0.6,0-0.8
				c0,0-0.1,0-0.1,0c-0.1,0-3.3-0.1-3.6-0.2c-1.9-0.4-0.8-1.5,0-1.5c1.1,0,4.4-0.3,5,0.8c0.1,0.2,0.3,0.5,0.2,1.8
				C260.6,86.5,260.5,87.5,260.3,88.6z"/>
			<path class="st0" d="M277.1,105.1c-14-2.3-15.9-22.7-8.4-32c6.2-7.7,18.1-2.8,21.9,3.4c2.2,3.6,3,7.9,2.4,12.7
				c-0.5,4.7-2.2,8.7-5,11.7c-2.5,2.8-5.5,4.3-8.9,4.3C278.4,105.3,277.8,105.2,277.1,105.1z M274.8,103c0.8,0.3,1.6,0.5,2.5,0.6
				c3.7,0.6,6.9-0.6,9.6-3.6c2.5-2.8,4.1-6.5,4.6-10.9c0.5-4.5-0.2-8.5-2.2-11.8c-3.9-6.4-12.4-6.8-14.4-6.4
				C273,100.1,274.8,102.1,274.8,103z"/>
			<path class="st0" d="M304.5,68.8c0.5,0,1,0,1.4,0c0.1,0,0.2,0,0.3,0h1.6c2,0.1,3.6,0.1,4.6,0.1c0.4,0,0.7,0.3,0.7,0.7
				c0,0.4-0.3,0.7-0.7,0.7c-1,0-2.6,0-4.7-0.1h-0.2v1.1l-0.1,4c-0.1,2.2-0.3,6.2-0.6,11.8c0,0.4-0.7,17.3-1,17.6
				c-0.4,0.4-1.1,0.5-2.2,0.5c-0.2,0-0.4,0-0.6,0c-0.3,0-0.6-0.1-1-0.1c-0.7-0.1-1.1-0.1-1.2-0.1c-0.4,0-0.7-0.3-0.7-0.7
				c0,0,0.1-19.9,0.1-19.9c0.1-5.3,0.3-10,0.6-14.2c-1.2,0-2.3,0.1-3.3,0.2c-0.2,0-0.4,0-0.5-0.1c-0.1-0.1-0.2-0.3-0.3-0.5
				c0-0.2,0-0.4,0.1-0.6c0.1-0.1,0.3-0.2,0.5-0.3c0,0,0,0,0,0C299.3,68.8,301.7,68.8,304.5,68.8z"/>
		</g>
		<g>
			<g>
				<path class="st0" d="M238.1,175.3c3.7-1.7,7.3-3.3,10.9-4.9c0-0.5,0-1,0-1.4c0-9.9-0.1-19.7-0.1-29.6c0-4.1,0.2-8.2,0.5-12.3
					c0.1-2,0.6-4.1,1-6.1c0.2-1,0.8-2.1,1.4-3c2.6-3.5,7.7-3.4,10.1,0.2c0.8,1.2,1.2,2.5,1.4,3.9c0.1,1.3,0.2,2.5,0.2,3.8
					c0,16.2,0,32.5,0.1,48.7c0.1,8.5,0.3,17,0.5,25.5c0.1,4.7,0.5,9.4,0.7,14.1c0.1,1.3,0.3,2.7,0.5,4.2c0.8-0.2,1.4-0.3,1.9-0.5
					c3-0.8,6-1.6,9.1-2.4c4.1-1,8.3-1.1,12.5-0.8c1,0.1,2.1,0,3.1,0.2c0.7,0.1,1.5,0.3,2.1,0.7c1.4,1,1.1,2.8-0.5,3.3
					c-0.7,0.3-1.6,0.3-2.4,0.4c-3.1,0.2-6.3,0.3-9.4,0.7c-3.7,0.5-7.2,1.4-10.3,3.4c-1.3,0.8-2.6,1.5-3.9,2.2
					c-4.3,2.4-8.7,1.8-12-1.7c-2.3-2.4-3.5-5.3-4.2-8.3c-1.1-4.7-1.7-9.5-1.8-14.4c-0.2-8.4-0.4-16.8-0.6-25.3c0-0.3,0-0.7-0.1-1.1
					c-0.4,0.1-0.6,0.2-0.9,0.3c-3.2,1.5-6.3,3.1-9.5,4.6c-0.6,0.3-0.8,0.7-0.9,1.3c-0.2,3.2-0.4,6.4-0.7,9.6
					c-0.6,6.7-1.7,13.4-4.1,19.9c-1,2.8-2.4,5.4-4.1,7.8c-1.7,2.4-3.8,4.5-6.3,6.2c-4.4,2.9-9.2,3.9-14.5,2.5
					c-4.9-1.3-8-4.4-9.3-8.8c-1.6-5.2-1-10.2,1.4-15.2c2.6-5.2,6.4-9.5,11.2-13.2c3.3-2.5,6.9-4.7,10.5-6.8c0.7-0.4,1-0.9,1.1-1.7
					c0.6-12.1,0.4-24.3,0-36.4c0-0.2,0-0.4-0.2-0.7c-0.1,0.3-0.2,0.6-0.3,0.9c-1.8,5.9-3.6,11.8-6.3,17.5c-1.5,3.2-3.2,6.2-5.5,9
					c-0.6,0.7-1.2,1.4-1.9,2c-3.1,3-6.9,3.8-11.2,2.5c-2.8-0.8-5.1-2.3-7-4.3c-2.6-2.7-4.3-5.9-5.4-9.4c-1.7-5.4-2.4-10.9-2.5-16.5
					c-0.1-5.2-0.1-10.4,0-15.6c0-2.6,0.3-5.1,1.3-7.5c0.4-1.1,1-2.2,1.7-3.1c2.4-2.8,6.6-2.6,8.7,0.4c1.1,1.6,1.5,3.4,1.8,5.3
					c0.4,2.4,0.6,4.8,0.8,7.1c0.2,3.9,0.2,7.8,0.3,11.7c0.2,6.2,1,12.4,3.3,18.3c0.4,1.2,1,2.3,1.7,3.4c0.2,0.4,0.7,0.8,1,1.2
					c0.4,0.4,0.9,0.4,1.4,0.1c0.7-0.5,1.5-0.9,2.1-1.5c2-1.8,3.4-3.9,4.5-6.3c2.3-4.6,4-9.4,5.6-14.3c2.1-6.5,3.7-13.2,5.3-19.8
					c0.2-0.9,0.2-1.8,0.3-2.6c0.2-1.5,0.3-3.1,0.6-4.6c0.4-2.1,1.7-3.5,4.1-3.9c1.4-0.3,2.6,0.1,3.8,0.7c1.2,0.6,2,1.5,2.7,2.6
					c1.5,2.3,2.2,4.8,2.6,7.3c0.9,5.7,1.1,11.5,1.3,17.2c0.4,10.7,0.6,21.5,0.4,32.2C238,174.8,238,174.9,238.1,175.3z M222.4,189
					c-0.3,0.1-0.5,0.2-0.6,0.3c-3.6,2.4-7.1,5-10.2,8.1c-2.4,2.4-4.3,5.2-5.7,8.2c-1.1,2.4-1.5,4.8-1.2,7.4c0.2,1.5,0.6,3,1.6,4.2
					c1.3,1.6,3,2.1,5,1.4c1.4-0.5,2.5-1.3,3.4-2.4c1.3-1.6,2.3-3.4,3-5.4c1.2-3.1,2-6.3,2.7-9.5C221.4,197.3,222.1,193.3,222.4,189z
					"/>
				<path class="st0" d="M106.7,118.1c3.4,0.2,6.4,0.9,9.2,2.2c5,2.3,9.1,5.6,12.4,9.6c3.7,4.6,6.5,9.6,7.6,15.3
					c0.2,1.1,0.3,2.2,0.4,3.3c0,0.7-0.2,1.4-0.3,2.1c-0.1,0.5-0.5,0.8-1.1,0.9c-0.6,0-1-0.3-1.2-0.8c-0.3-0.7-0.6-1.3-0.8-2
					c-1.5-6.2-4.7-11.6-9.3-16.5c-1.9-2-3.9-3.7-6.4-5c-2.9-1.6-6-2.1-9.3-1.4c-0.1,0-0.2,0-0.3,0c-2.6,0.6-3.5,1.8-3,4.2
					c0.2,0.9,0.5,1.7,0.8,2.5c2.1,5.2,5.3,9.8,9.1,14c4.8,5.4,9.7,10.6,14.5,16c3.5,4,6.9,8.1,10.2,12.3c3.7,4.8,6.7,9.9,8.1,15.6
					c2.5,9.9,0.5,19.1-5.9,27.4c-1.2,1.6-2.7,2.9-4.4,4.1c-4.9,3.3-10.4,4.1-16.3,2.6c-4.9-1.2-8.9-3.9-12.2-7.4
					c-3-3.2-5.4-6.7-6.9-10.6c-0.9-2.3-1.8-4.5-2.7-6.8c-0.2-0.4-0.3-0.9-0.4-1.4c-0.1-0.6,0.2-1.2,0.8-1.5c0.7-0.4,1.4-0.4,2,0
					c0.5,0.4,1,0.9,1.3,1.5c1.2,2.1,2.2,4.2,3.3,6.3c1.5,2.8,3.2,5.4,5.3,7.9c2,2.3,4.4,3.9,7.2,5.2c4.8,2.1,10.1,0.6,12.6-3.5
					c1.3-2.1,2-4.4,2.5-6.7c1.4-6.6-0.3-12.8-3.2-18.8c-1.7-3.4-3.9-6.5-6.5-9.5c-4.2-4.9-8.6-9.7-12.8-14.6
					c-3.8-4.4-7.7-8.7-11.4-13.2c-2.7-3.2-4.8-6.7-6.5-10.4c-1.4-3.1-2.3-6.4-2.3-9.7c0-3.8,1.1-7.2,4.2-9.9c2.7-2.3,6-3.4,9.7-3.5
					C105.3,118.1,106.1,118.1,106.7,118.1z"/>
				<path class="st0" d="M308.9,178.7c2.2-0.4,4.3-0.8,6.3-1.2c5.5-0.9,11-1.1,16.5-0.9c0.4,0,0.9,0.1,1.3,0.2
					c1,0.2,1.6,0.9,1.6,1.7c0,0.8-0.4,1.4-1.4,1.8c-0.5,0.2-1,0.3-1.5,0.4c-3.8,0.5-7.6,1.1-11.4,1.6c-3.6,0.5-7.2,0.9-10.9,1.7
					c0,0.4-0.1,0.9,0,1.3c1,6.7,2,13.5,3,20.2c0.4,2.4,1,4.8,2,7.2c0.6,1.4,1.6,2.1,3.2,2.4c3.5,0.7,7.1,0.9,10.6,1.1
					c3.2,0.1,6.5,0.3,9.7,0.5c0.5,0,1,0.1,1.5,0.3c1.3,0.4,2.1,1.4,2.1,2.6c0,1.1-0.7,2.1-2,2.6c-0.5,0.2-1.1,0.3-1.7,0.4
					c-6.1,0.7-12.2,1.4-18.2,2c-2.2,0.2-4.3,0.5-6.5,0.6c-5.1,0.3-8.8-2-11.4-5.8c-1.5-2.2-2.3-4.6-2.9-7.2
					c-0.9-4.6-1.9-9.3-2.6-13.9c-1-7.3-1.9-14.7-2.7-22c-1.1-10.3-1.4-20.7-0.9-31c0.2-4.3,0.5-8.5,1.4-12.7c0.4-2.2,1.1-4.4,2-6.5
					c1-2.1,2.4-3.9,4.1-5.5c2.4-2.3,5.4-3.3,8.8-3.5c4-0.3,8,0.3,11.8,1.4c0.8,0.2,1.5,0.6,2.1,1c1.2,0.9,1.1,2.2-0.3,2.8
					c-0.8,0.4-1.7,0.6-2.5,0.7c-1.6,0.3-3.3,0.5-4.9,0.7c-0.7,0.1-1.4,0.3-2.1,0.5c-1.9,0.6-3,1.8-3.4,3.5c-0.6,2.7-1.2,5.5-1.5,8.2
					c-1.2,9.4-1.1,18.8-0.7,28.1c0.2,4.7,0.8,9.5,1.2,14.2C308.9,178.4,308.9,178.5,308.9,178.7z"/>
				<path class="st0" d="M154.1,126.8c-1.3,0-2.5,0-3.6,0c-2.5,0-5-0.3-7.4-0.9c-0.8-0.2-1.6-0.6-2.3-0.9c-0.9-0.5-1.4-1.2-1.3-2.2
					c0.2-1,1-1.5,2-1.7c2-0.3,4.1-0.6,6.2-0.9c8.2-1,16.5-1.2,24.7-1.2c1.8,0,3.6,0.2,5.3,0.5c0.7,0.1,1.4,0.3,2,0.7
					c2,1.1,2,3.5,0.1,4.7c-0.5,0.3-1.2,0.6-1.9,0.7c-2,0.3-4.1,0.6-6.2,0.9c-1.5,0.2-3,0.2-4.7,0.3c0,0.2,0,0.4,0,0.6
					c0.6,2.5,0.8,5,0.9,7.6c0.2,5.6,0.2,11.3,0.4,16.9c0.2,7.1,0.4,14.2,0.6,21.3c0.1,3.9,0.2,7.7,0.4,11.6c0.2,5,0.6,10,0.9,15
					c0.2,3.4,0.4,6.9,0.6,10.3c0.1,2,0.3,4.1,0.3,6.1c0,2-0.5,3.9-1.7,5.6c-2.6,3.7-8.1,3.7-10.8,0.2c-1.3-1.7-2-3.7-2.1-5.7
					c-0.3-4.8-0.7-9.6-0.9-14.3c-0.4-6.7-0.8-13.3-1.1-20c-0.6-15.4-1.1-30.7-1.1-46.1c0-2.2,0.1-4.3,0.3-6.5
					C153.8,128.5,153.9,127.8,154.1,126.8z"/>
			</g>
			<g>
				<g>
					<path class="st24" d="M61.9,200.7c-0.8-0.2-1.5-0.3-2.2-0.5c-1.2-0.5-1.9-1.7-1.4-2.9c0.3-0.8,0.7-1.5,1.3-2.1
						c1.3-1.5,2.9-2.7,4.6-3.6c5.7-3,11.4-6,17.1-9c1.1-0.6,2.2-1,3.3-1.4c1.3-0.5,2.6-0.7,4-0.6c1.6,0.1,2.9,0.7,3.5,2.1
						c0.7,1.4,0.5,2.7-0.6,3.8c-0.8,0.8-1.8,1.7-2.9,2.2c-6.3,3.1-12.5,6.2-18.9,9.3c-1.5,0.7-3.1,1.4-4.6,1.9
						C64.2,200.2,63,200.4,61.9,200.7z"/>
					<path class="st24" d="M61.8,142.5c0.7,0.2,1.9,0.5,3,0.9c1.1,0.5,2.2,1.2,3.3,1.8c4.9,3.1,9.8,6.2,14.7,9.4
						c1.7,1.1,3.3,2.5,4.9,3.7c0.4,0.4,0.8,0.8,1.1,1.3c0.7,1.3,0.6,2.6-0.4,3.7c-1,1.1-2.3,1.6-3.8,1.3c-0.5-0.1-1.1-0.3-1.6-0.5
						c-2.7-1.1-5.4-2.3-7.8-3.9c-3.5-2.3-7-4.6-10.5-7c-1.6-1.1-3-2.4-4.5-3.6c-1.1-0.9-1.9-2-2.2-3.3
						C57.3,144.2,58.8,142.5,61.8,142.5z"/>
					<path class="st24" d="M62,179.3c-1.3-0.1-3-0.3-4.6-0.5c-0.6-0.1-1.2-0.3-1.7-0.6c-2-1-2.3-3.2-0.6-4.7
						c0.8-0.7,1.7-1.1,2.7-1.2c2-0.3,4-0.7,6-0.9c5-0.5,9.9-0.8,14.9-1.2c1.6-0.1,3.2-0.3,4.8-0.3c1.2,0,2.5,0.1,3.7,0.3
						c1.4,0.3,2.4,1.2,2.6,2.5c0.2,1.4-0.4,2.5-1.7,3.1c-1.1,0.6-2.3,1-3.5,1.3c-4.5,0.9-9.1,1.3-13.7,1.6
						C68.2,179,65.3,179.2,62,179.3z"/>
				</g>
				<g>
					<path class="st24" d="M370.4,147.5c0.8,0.2,1.5,0.3,2.2,0.6c1.2,0.5,1.8,1.7,1.4,2.9c-0.3,0.7-0.7,1.5-1.3,2.1
						c-1.3,1.5-2.9,2.6-4.7,3.5c-5.7,3-11.5,5.9-17.2,8.8c-1.1,0.5-2.2,0.9-3.4,1.4c-1.3,0.5-2.6,0.7-4,0.6
						c-1.6-0.1-2.9-0.8-3.5-2.1c-0.7-1.4-0.5-2.7,0.6-3.8c0.9-0.8,1.8-1.7,2.9-2.2c6.3-3.1,12.6-6.1,19-9.1c1.5-0.7,3.1-1.3,4.7-1.9
						C368.1,147.9,369.3,147.7,370.4,147.5z"/>
					<path class="st24" d="M369.8,205.6c-0.6-0.2-1.9-0.5-2.9-1c-1.1-0.5-2.2-1.2-3.2-1.9c-4.9-3.2-9.8-6.3-14.6-9.6
						c-1.7-1.1-3.2-2.5-4.8-3.8c-0.4-0.4-0.8-0.8-1-1.3c-0.7-1.3-0.6-2.6,0.4-3.7c1-1.1,2.3-1.6,3.9-1.3c0.5,0.1,1.1,0.3,1.6,0.5
						c2.7,1.1,5.4,2.4,7.7,4c3.5,2.4,7,4.7,10.4,7.1c1.6,1.1,3,2.4,4.4,3.7c1.1,0.9,1.8,2,2.2,3.3
						C374.3,204,372.8,205.7,369.8,205.6z"/>
					<path class="st24" d="M370,168.8c1.3,0.1,3,0.3,4.6,0.6c0.6,0.1,1.2,0.3,1.7,0.6c2,1.1,2.3,3.2,0.5,4.7c-0.8,0.7-1.7,1-2.7,1.2
						c-2,0.3-4,0.7-6,0.8c-5,0.4-9.9,0.7-14.9,1c-1.6,0.1-3.2,0.3-4.8,0.3c-1.2,0-2.5-0.1-3.7-0.3c-1.4-0.3-2.4-1.2-2.6-2.6
						c-0.2-1.4,0.4-2.5,1.7-3.1c1.1-0.5,2.3-1,3.5-1.2c4.5-0.8,9.1-1.2,13.7-1.5C363.9,169,366.7,168.9,370,168.8z"/>
				</g>
			</g>
		</g>
	</g>
	<g>
		<path class="st24" d="M217.3,274.7c0.4-0.7,0.6-1.1,0.9-1.6c2.3-5,3.4-10.2,3.4-15.7c0-2.4-0.2-4.8-0.1-7.1
			c0.1-2.1,0.4-4.1,0.6-6.1c0.1-0.6,0.3-1.1,0.6-1.7c0.7-1.1,1.6-1.2,2.5-0.3c0.4,0.4,0.8,0.9,1.1,1.4c0.6,0.9,1.1,1.8,1.6,2.8
			c3.6,6.6,7.1,13.3,10.7,19.9c0.6,1,1.1,2.1,1.6,3.2c0.9,1.8,1,3.8,0.4,5.7c-0.6,1.7-1.2,3.3-1.9,4.9c-1,2.3-2,4.5-2.4,7
			c-0.3,1.8-0.3,3.6,0.3,5.3c0.8,2.1,1.7,4.3,2.7,6.3c4.9,9.6,10.3,18.9,16,28c4.5,7.2,9.1,14.4,13.6,21.7c1.6,2.5,3,5.1,4.3,7.8
			c0.7,1.4,1.3,3,1.7,4.5c0.5,1.7-0.3,3.1-1.9,3.7c-0.9,0.3-1.8,0.5-2.8,0.6c-3.4,0.2-6.7-0.4-10-1.2c-2-0.5-4-1-6-1.5
			c-3.6-0.9-7.2-0.6-10.6,0.8c-1.6,0.6-3.2,1.4-4.8,2c-2.1,0.8-4.2,1.6-6.5,1.6c-1.8,0-3.5-0.3-5.1-1.1c-1.2-0.6-2.3-1.3-3.4-2
			c-0.8-0.5-1.5-1.1-2.3-1.7c-3.2-2.5-6.8-3-10.7-1.7c-1.7,0.6-3.3,1.3-4.9,2.1c-1.4,0.7-2.8,1.6-4.2,2.3c-1.4,0.7-2.9,1.4-4.3,1.9
			c-2.9,1.1-5.8,1.2-8.8,0.3c-2-0.6-3.9-1.3-5.9-2c-2.9-1.1-5.9-1.7-8.9-2c-1.2-0.1-2.4-0.4-3.6-0.7c-0.6-0.1-1.1-0.3-1.7-0.6
			c-3.6-1.6-4.7-4.7-2.9-8.2c0.8-1.5,1.8-2.9,2.7-4.4c8.7-14,17.6-27.9,25.6-42.4c1.8-3.2,3.3-6.6,4.9-9.9c0.6-1.3,1-2.8,1.4-4.2
			c0.7-2.5,0.6-5-0.4-7.5c-0.8-2.2-1.7-4.4-2.4-6.7c-1-3.1-1.5-6.3-0.7-9.5c0.4-1.6,1-3.2,1.7-4.8c0.5-1.3,1.2-2.6,1.8-3.9
			c2.5-5.2,5-10.3,7.5-15.5c0.3-0.7,0.7-1.3,1.1-2c0.3-0.5,0.9-0.8,1.5-0.7c0.6,0.2,0.9,0.6,1,1.2c0.1,0.7,0.2,1.5,0.2,2.2
			c0.1,8.9,1.6,17.5,3.9,26c0.2,0.7,0.5,1.4,0.8,2.1C216.7,273.8,217,274.2,217.3,274.7z"/>
		<path class="st24" d="M286.3,279.8c1.4,0.8,1.7,1.4,1.4,3c0.6,0,1.2-0.1,1.8-0.1c0.7,0,1.4-0.1,2.1-0.1c0.1,0,0.2,0,0.4,0
			c0.9,0,1.6,0.5,1.7,1.5c0.1,0.5,0.1,1,0,1.5c-0.2,1.2-0.4,2.5-0.6,3.7c-0.5,2.8-1.1,5.6-1.6,8.4c-0.4,2.4-0.8,4.9-1.3,7.3
			c-0.2,1.1-0.5,2.3-1,3.4c-0.2,0.5-0.5,0.9-0.8,1.3c-0.4,0.5-0.9,0.8-1.5,1c-0.6,0.1-1.1,0.2-1.7,0.3c-2.7,0.2-5.4,0.2-8.1,0.2
			c-3.5-0.1-7-0.1-10.6-0.1c-2.1,0-4.3-0.1-6.4-0.3c-1.3-0.1-2.6-0.4-3.8-0.8c-1-0.4-1.6-1-1.9-2c-0.1-0.4-0.2-0.7-0.3-1.1
			c-0.9-4.8-1.7-9.5-2.4-14.3c-0.3-2.2-0.6-4.5-1-6.7c-0.1-0.7-0.2-1.5-0.2-2.2c0-0.3,0-0.5,0.1-0.8c0.2-0.8,0.6-1.2,1.4-1.3
			c0.4-0.1,0.9,0,1.3,0c0.4,0,0.7,0.1,1.1,0.1c0.3,0,0.7,0.1,1.1,0.1c-0.3-1.2-0.1-2.1,0.9-2.8c0-0.1,0-0.2-0.1-0.4
			c-0.8-4-1-8.1-0.6-12.2c0.2-1.8,0.5-3.7,0.9-5.5c0.4-1.8,1-3.6,1.7-5.3c1.8-4.6,4.4-8.6,8.2-11.8c2.1-1.7,4.4-2.9,6.9-3.6
			c2.4-0.7,4.8-0.7,7.2,0c3.7,1.1,6.4,3.4,8.1,6.9c1,2.2,1.6,4.4,1.8,6.8c0.3,2.8,0.1,5.5-0.4,8.2c-0.5,2.8-1.3,5.6-2.1,8.4
			c-0.7,2.7-1.4,5.3-1.9,8.1C286.4,278.9,286.3,279.4,286.3,279.8z M285.1,279.8C285.1,279.7,285.1,279.7,285.1,279.8
			c0.4-2.9,1.1-5.7,1.8-8.5c0.8-3,1.6-6,2.2-9c0.5-2.4,0.7-4.8,0.6-7.3c-0.1-2.7-0.7-5.4-1.9-7.8c-1.3-2.8-3.5-4.7-6.4-5.8
			c-2.5-1-5.1-1-7.7-0.2c-2.6,0.8-4.9,2.1-7,3.9c-3.5,3.1-5.8,6.9-7.4,11.3c-0.6,1.6-1.1,3.3-1.5,5c-0.4,1.7-0.7,3.4-0.9,5.2
			c-0.4,3.9-0.1,7.8,0.6,11.7c0,0.1,0,0.2,0.1,0.3c0.8,0.1,1.4,0.5,1.8,1.2c0.4,0.7,0.3,1.4,0.1,2.2c0.2,0,0.4,0,0.5,0
			c3.1,0.2,6.3,0.3,9.4,0.5c4.5,0.3,9.1,0.4,13.6,0.5c0.2,0,0.3,0,0.5,0C283.2,281.3,283.6,280.5,285.1,279.8z"/>
		<g>
			<g>
				<path class="st24" d="M179.7,278.8c-4.3-5.2-10.8-2.3-15.2,1.8c-2-6.7-9.1-10.9-16.6-9c-13,3.4-10.7,20.9-5.6,29.8
					c2.7,4.7,6.4,8,10.6,11l2.8,1.9l2.9-1.3c3.6-1.7,7.1-3.5,10.4-5.7C176.4,302.3,187.3,288.1,179.7,278.8z"/>
			</g>
		</g>
	</g>
</g>
</svg>
